<?xml version="1.0" encoding="utf-8"?>
<!-- Generator: Adobe Illustrator 25.2.1, SVG Export Plug-In . SVG Version: 6.00 Build 0)  -->
<svg version="1.1" id="Layer_1" xmlns="http://www.w3.org/2000/svg" xmlns:xlink="http://www.w3.org/1999/xlink" x="0px" y="0px"
	 viewBox="0 0 113 122.9" style="enable-background:new 0 0 113 122.9;" xml:space="preserve">
<style type="text/css">
	.st0{fill:#F5F6F6;}
</style>
<g>
	<path class="st0" d="M44.1,102.1c-1.1,0-2.1-0.8-2.3-2c-0.2-1.2,0.6-2.3,1.8-2.5c-1.3-7.4-4.8-11.4-8.6-15.7
		c-2.9-3.3-6-6.8-8.3-11.9c-2.4-5-3.6-10.2-3.6-15.6c0-5.4,1.4-11,4.4-16.7c0,0,0-0.1,0.1-0.1l0,0c3.9-6.6,9.4-11,15.5-13.5
		c5.1-2.1,10.7-2.8,16.1-2.3c5.4,0.5,10.7,2.2,15.4,4.9c5.9,3.5,10.8,8.7,13.4,15.2c1.4,3.5,2.4,7.5,2.5,11.8
		c0.1,4.3-0.6,9-2.6,13.9c-2.7,6.6-6.2,10.7-9.5,14.5c-3,3.5-5.8,6.8-7.4,11.8c0.9,0.2,1.6,0.9,1.7,1.9c0.2,1.2-0.7,2.4-1.9,2.6
		L70,98.4c-0.1,1.1-0.2,2.3-0.3,3.5l0.2,0c1.2-0.2,2.4,0.7,2.6,1.9c0.2,1.2-0.7,2.4-1.9,2.6l-0.8,0.1c0,0.2,0,0.3,0,0.4l0,0
		c0.1,0.9,0.1,1.7,0,2.5l0.1,0c1.2-0.2,2.4,0.7,2.5,2c0.2,1.2-0.7,2.4-2,2.5l-1.7,0.2c-1.2,3.1-3.3,5.5-5.9,6.9
		c-1.7,1-3.7,1.6-5.6,1.7c-2,0.1-4-0.2-5.8-1.1c-2.1-1-3.9-2.7-5.3-5.1c-0.7-0.3-1.1-1-1.2-1.8c0-0.3,0-0.6,0.1-0.9
		c-0.4-1.2-0.7-2.4-0.9-3.8l-0.1,0c-1.2,0.2-2.4-0.7-2.6-1.9c-0.2-1.2,0.7-2.4,1.9-2.6l0.5-0.1C44.2,104.3,44.2,103.2,44.1,102.1
		L44.1,102.1z M2.2,58.9C1,58.9,0,58,0,56.8s0.9-2.1,2-2.2l8.7-0.3c1.2,0,2.1,0.9,2.2,2s-0.9,2.1-2.1,2.2L2.2,58.9L2.2,58.9z
		 M110.7,50.2c1.2-0.1,2.2,0.7,2.3,1.9s-0.7,2.2-1.9,2.3l-8.7,0.9c-1.2,0.1-2.2-0.7-2.3-1.9s0.7-2.2,1.9-2.3L110.7,50.2L110.7,50.2z
		 M94.9,14.8c0.7-1,2-1.2,2.9-0.6c1,0.6,1.2,2,0.6,2.9l-4.8,7.2c-0.7,1-2,1.2-2.9,0.6s-1.2-2-0.6-2.9L94.9,14.8L94.9,14.8z
		 M57.6,2.1c0-1.2,1-2.1,2.2-2.1c1.2,0,2.1,1,2.1,2.2l-0.2,8.7c0,1.2-1,2.1-2.2,2.1c-1.2,0-2.1-1-2.1-2.2L57.6,2.1L57.6,2.1z
		 M13.9,15.5c-0.9-0.8-0.9-2.1-0.1-3c0.8-0.9,2.1-0.9,3-0.1l6.4,5.9c0.9,0.8,0.9,2.1,0.1,3c-0.8,0.9-2.1,0.9-3,0.1L13.9,15.5
		L13.9,15.5z M47.9,96.9l18.5-2.6c1.6-6.7,5.1-10.7,8.8-15.1c3.1-3.6,6.4-7.4,8.8-13.3c1.8-4.3,2.4-8.4,2.3-12.2
		c-0.1-3.8-1-7.2-2.2-10.3c-2.3-5.6-6.5-10.1-11.7-13.1c-4.1-2.4-8.8-3.9-13.6-4.4c-4.8-0.4-9.6,0.2-14.1,2c-5.3,2.1-10,6-13.4,11.7
		c-2.6,5.1-3.9,10-3.9,14.7c0,4.7,1.1,9.3,3.2,13.8c2.1,4.6,5,7.8,7.7,10.9C42.5,83.9,46.5,88.5,47.9,96.9L47.9,96.9z M65.6,99
		l-17.3,2.4c0,1.1,0.1,2.2,0,3.5l17-2.4C65.5,101.3,65.5,100.1,65.6,99L65.6,99z M48.5,109.5c0.1,0.9,0.3,1.8,0.5,2.5l16.5-2
		c0.1-0.9,0.1-1.8,0.1-2.7l0,0v0l0-0.2L48.5,109.5L48.5,109.5z M51.4,116.4c0.6,0.7,1.3,1.2,2.1,1.6c1.2,0.6,2.4,0.8,3.7,0.7
		c1.3-0.1,2.6-0.5,3.7-1.2c1.1-0.6,2.1-1.5,2.9-2.7L51.4,116.4L51.4,116.4z"/>
</g>
</svg>
