<svg id="city" xmlns="http://www.w3.org/2000/svg" viewBox="0 0 862 573"><defs><style>.cls-1{fill:#b3b3b3;}.cls-2{fill:#cbcbca;}.cls-3{fill:#a9b76c;}.cls-4{fill:#98a53d;}.cls-5{fill:#999;}</style></defs><polygon class="cls-1" points="708.29 446 596.34 446 596.34 359 708.29 315 708.29 446"/><rect class="cls-2" x="627.19" y="173" width="86.81" height="269"/><polygon class="cls-1" points="301.63 462 175.98 462 175.98 291 301.63 276 301.63 462"/><rect class="cls-1" x="363.31" y="208" width="93.67" height="260"/><rect class="cls-2" x="474.12" y="32" width="109.66" height="397"/><rect class="cls-1" x="143.99" y="313" width="125.65" height="129"/><rect class="cls-2" x="235.38" y="365" width="174.77" height="103"/><polygon class="cls-2" points="348.87 379.5 270.79 379.5 270.79 335 348.46 353 348.87 379.5"/><polygon class="cls-2" points="583.78 58 498.11 58 498.11 15 583.78 27 583.78 58"/><polygon class="cls-2" points="554.08 43 509.53 43 509.53 0 554.08 11 554.08 43"/><polygon class="cls-1" points="413.4 212.47 370.17 212.47 370.17 186 413.4 196 413.4 212.47"/><polygon class="cls-2" points="707.15 206 662.6 206 662.6 164 707.15 156 707.15 206"/><path class="cls-3" d="M993,983.54c-.32-43.49-41.35-79-91.48-79h-679c-50.13,0-91.17,35.51-91.48,79,0,.17,0,.33,0,.5h0c0,43.73,41.17,79.5,91.5,79.5h679c50.32,0,91.49-35.77,91.49-79.5h0C993,983.87,993,983.71,993,983.54Z" transform="translate(-131.04 -490.54)"/><path class="cls-4" d="M131,984h0c0,43.73,41.17,79.5,91.5,79.5h679c50.32,0,91.49-35.77,91.49-79.5h0c0-.17,0-.33,0-.5h-862C131.06,983.71,131,983.87,131,984Z" transform="translate(-131.04 -490.54)"/><path class="cls-3" d="M901.55,904.54h-679c-50.13,0-91.17,35.51-91.48,79H993C992.71,940.05,951.68,904.54,901.55,904.54Z" transform="translate(-131.04 -490.54)"/><rect class="cls-5" x="93.92" y="411" width="658.36" height="4"/></svg>