<?xml version="1.0" encoding="utf-8"?>
<!-- Generator: Adobe Illustrator 25.2.1, SVG Export Plug-In . SVG Version: 6.00 Build 0)  -->
<svg version="1.1"
	 id="Layer_1" xmlns:cc="http://creativecommons.org/ns#" xmlns:dc="http://purl.org/dc/elements/1.1/" xmlns:rdf="http://www.w3.org/1999/02/22-rdf-syntax-ns#"
	 xmlns="http://www.w3.org/2000/svg" xmlns:xlink="http://www.w3.org/1999/xlink" x="0px" y="0px" viewBox="0 0 1478 1169"
	 style="enable-background:new 0 0 1478 1169;" xml:space="preserve">
<style type="text/css">
	.st0{fill:#F5F6F6;}
</style>
<path class="st0" d="M731.7,0h34.8C815.1,7.2,869.2,5.6,911,35c6-3.4,12.8-2.5,19.5-2.3c7-10.4,20.7-6.1,29.2-0.2
	c52.1,39.9,110.2,73.1,153.4,123.6c25,27.4,51.1,57.6,56.2,95.8c2.5,10.6-1.2,23.3,7.6,31.6c7.8,12.8,24.3,17.5,29.4,32.4
	c10,28.2,7.4,59.3,1.7,88.1c-3.4,35.5-23.4,67.3-50.1,89.9c-8.5,5.7-14.4,16.9-12,27.2c1.4,8.7-10,14.2-6.7,22.8
	c7.3,24.8,9.4,51.4,1.1,76.2c17.2-1.4,33.2-23.7,49.8-9c16.7-7,14.6-30.9,25.1-43.8c7.8-7.3,3.4-17.5,4.3-26.7
	c2-34.9,22-65.5,26.1-100c0.8-16.3,11.2-29.6,23.4-39.4c2.5-33.5-9.2-68.9,3.8-101.4c8.6-8.2-0.6-17.7-4.6-25.8
	c9,2.5,15.5,10.1,20,17.9c24.3,22.3,18.7,59.3,22.3,88.9c4.1,16.9-10.8,33.6,1.6,48.5c0.7,34.3-9.7,68-20.5,100.3
	c-1.1,53.6-35.4,101.5-77,133c-2.9,20.6-27.7,17.5-42.5,22.4c-20,8.4-39.6,17.9-58.8,28.2c-20.5,11.4-45.3,14.9-63,31
	c-13.3,14.1-29.5,25.5-40.5,41.7c-2.5,4.2,4.6,3.6,6.9,1.9c48.9-27,102.4-44.3,151.5-70.7c9.9-5.7,22.2-14.8,33-6.1
	c27.6-18.1,56.3-36.2,88-46.8c31.2-27.3,58.9-58.7,85.5-90.5c4.7-10.3,16.6-2.7,23-10.3c7.1-24.8,25.3-44.2,40.3-64.4
	c7.2-8.3,12.9-18.8,23.1-23.9c7.9-6.4,7.2-17.5,12.1-25.4c9.7,8-3.9,25.5,4.9,31.7v7.1c-12.1,36-26.1,75.8-57.7,99.5
	c-0.6,6.8,1.7,14.6-2.5,20.7c-27.6,35.9-57.2,70.9-92.9,99.2c-25.1,33.4-69.2,38.3-105.7,51.3c-2.5,8.1-11.8,11.2-15.1,17.7
	c40,0,84.6,5.2,116,32c27.3,14.1,53.3,31.1,75,52.9c9.1,6.7,0.6,26.9,15.9,24.2c29.2,31.2,52,69.5,65.5,110.2
	c-4.4,12.8,0.6,27.6-6.7,40c-8.2-4.5,2.6-27.4-12.8-25.4c-24.9-19.3-46.9-43.4-63.2-70.6c-8.1-8.7-14.3-19.5-24.3-26.2
	c-19.9,8.3-37.8-6.8-54.1-16.5c-19.1-10.3-38.2-21.2-54.1-36.2c-28.9-7.7-51.5-33.2-81.8-36.1c3,22.5-28.4,25.6-39.7,39.6
	c11.2,10,28,1.2,40.9,7.3c40.3,10.2,85.8,25.8,107.3,63.9c19,20.1,37.6,41.8,51.4,65.8c-2.1,12.2,3.3,24.4,12.6,32.3
	c11.4,21.9,14.3,48.9,8.4,72.9c-7.6,8-9.1,19.4-15.5,28.1c-8.8-2.4,0.4-15.9-4.4-20.5c-23.6-14.7-24.3-47.7-35.4-70.6
	c-3.2-8.9-13.2-4.7-20-6c-20.3-6.3-28.7-28.2-43.1-42c-7-12-17.5-21.2-25.7-32.3c-21.6-8.4-27.7-34.8-47-46.2
	c-4.6-1-17.1-0.2-13.3,7.3c2.1,9.1-10.7,9.6-16.4,12.8c-50.6,13.3-101.5,31.5-154.6,27.6c-4.3,7.5-13.2,1.2-19.6,0.4
	c-27.6-1.6-52.7-12.5-77.8-23.3c-8.5-0.2-16.1,5.5-24.8,4.7c-13.1,2.2-22.8-7.7-33.6-12.9c-13.3,12.5-32.3,10-48.8,12.2
	c-13.9,7.8-29.7,13.3-45.9,11.7c-15.6,0.3-26.7-15.5-42.5-13.6c-12.7,0-26.3-0.7-37-8.2c-13.9,9-30.5,19.6-47.7,12.8
	c-17.2-9.3-30.5,11.9-47.4,11.9c-22.1,2.6-44.6,12.2-66.2,7.9c-51.4-2-101.2-17-151.5-26.8c-5.3-1.5-23.5-5.9-15.1-14.1
	c-1.8-5.7-12.3-3.3-16,0.3c-30.1,33.4-58.2,68.2-88.8,101.2c-7.8,11.4-21,17.5-34.5,15.3c-13.9,26.2-13.8,62-40.2,80.2
	c-2.1,5.5,3.2,13,0.5,18c-7.9-4.2-7.1-16-11.6-23c-11.4-8.5-9.3-24.4-8.4-36.7c2.7-16.7,2.3-35.3,12.5-49.5c3.4-4.5,9.6-8.8,7.9-15
	c-3.5-17.5,12.2-30.4,20.4-43.8c10.1-15.9,27.4-27.5,34-45c32.7-37.8,85.1-60.5,134.9-53.9c1.5-4.1,4.8-8.2,4.9-12.5
	c-13.8-6.1-24.8-16.8-37-25.4c-0.8-11.4-13.7-5.9-19.9-2.1c-51.7,21.3-96,56.8-147.6,78.4c-8,4.2-16.1,1-24-1.2
	c-13,8.9-24.4,21.4-29.5,36.5c-8.2,12.4-19.8,22.2-29.5,33.5c-12.4,10.9-20.1,28.7-37.3,32.6c-3.9,8.5-1.1,19.1-4.6,27.4
	c-7.7-20-9.1-43.3-1.4-63.4c12.1-32.9,31.8-62.8,55.1-88.8c4.5-6.5,13.7-5.6,18.8-11.3c0-5.8-1.8-13.2,4.1-16.8
	c23.2-19.1,47.4-38.1,75.6-49.3c3.5-1.4,3.3-6,5.8-8.3c33.3-18.6,71.1-30.6,109.7-26.4c-2.2-7.2-18.1-7.3-16.7-18.6
	c-38.5-11.6-87.6-16.9-109.5-55.7c-22.1-12.8-38.9-32.5-55.5-51.5c-10.9-17-29.1-32.7-35.6-53.9c2.1-7.5-5.7-9.5-11.5-10.9
	c-15.7-19.7-25.5-43-36.8-65.3c-10-19.9-13-42.6-10.1-64.6c6.9,3.5,4.4,17.7,12.5,22.2c22.4,10.4,34.7,33,49,51.9
	c7.9,9.9,13.5,21.5,15.8,34c5.9,9.8,17.8-0.6,24.2,8c8.1,6.7,14.4,15.2,20.1,23.9c19.1,23.8,43.5,42.7,63.9,65.2
	c32.4,5.8,57.8,28.2,85,44.9c6.5,2,11.4-7.1,18.2-2.5c56.8,28.7,115.2,57.3,173.8,80.5c2.4-8-12.3-15.6-15.1-23.9
	c-15-9.4-23-28.1-40.8-33.2c-20.6-9.2-42.6-15-62.6-25.4c-20.2-10.8-41.2-20.8-63.9-25.1c-10-1.6-14.5-11.3-18.8-19.2
	c-26.5-16-43.8-42.2-61.1-66.9C192.7,576,185.6,555,191.7,534c-15.1-33.2-24.9-69.8-22.9-106.6c-0.7-8.9,12.9-6.9,12-15.8
	c0.6-36.1,19.2-69,38.3-98.5c10.4-9.9,22-20.4,36.5-23.3c-1.9,5.7-9.7,8.2-11.3,14.5c6.1,26.3-2.6,53.6-11.4,78.4
	c-7.1,8.4-13.2,19.3-12.4,30.6c5.3,10.7,15.1,19.3,16.4,31.9c6,38.3,25.1,74.2,25,113.3c10.7,16.3,16.3,35.2,23.8,53
	c5.1,4.5,11-4.2,16.8-4.4c12.7,0.4,23.6,8.7,34.7,13.8c4.7-4.1,1.8-13.8,2.6-20c-10-7.5-16.4-19.1-15.6-31.4
	c-40.5-12.9-62.1-60.7-54.1-99.5c-3.4-26.3,5.2-55,16.9-79c9.8-15.6,33.5-11.4,42.9-27.6c0.8-12,12.1-18.2,18.9-26.7
	c37.8-45.6,83.5-85.7,136.8-112.2c10.4-6.2,21.1,2.4,31.5,1c9.7-14.6,28.4-18.3,43.5-25c39.8-13.8,84.4-21.9,125.2-8
	c10.5,4.1,22.3,9.1,27,20.1c2.2,6.4-6.1,8.2-10.2,5.5c-22.5-10.9-50.4-8.4-71.6,3.9c-23.7,7.1-45.6,22.3-59.5,42.4
	c5.6,7.5,14.5-6.8,21.3-1.8c10.4,7,19.7-13.8,27.3,2.1c9.4-2.2,20.3,5.8,28-1.8c7.5,9,20.6,8.9,31.1,10c4.4,6.8,25,9.3,17.5,17.8
	c-31.7,4.7-65.7,0.5-95.8,14c-17.5,4.7-30,19-47,25c-25.5,22.7-54.6,41.3-80.8,63.3c-21,16.6-47,23.7-71.8,32.4
	c1.5,6.7-0.4,17.3,4.6,20.6c30.1-22,64.4-41.7,103-41.9c28.8-14.4,61.2-20.3,93.2-20.8c12.3,1.8,25.6-2.4,36.3-6.8
	c6-12.8,18.3-2.9,27.8-4.1c15.6-20.9,45-24.1,69-20.3c18.1-7.2,35.6,2.7,53.8,4.1c11.2,2.3,15.1,18.1,26.4,18.3
	c7.2-8.2,26.3-7.2,24.9,6.2c3.3-1.6,8.4-2.7,12.2,0.2c40.9-4.9,80.9,6.5,119,20.1c36.4-5.5,63.9,23.2,94.6,35.8
	c0.6-14.6-13.3-24.4-14-38.8c-0.6-6.5-7.6-9.7-5.3-15.5c-11.8-17.1-4.6-38.7-5.2-58c-45-11.8-84.3-42.4-124.4-66.5
	c-48-25.1-96.1-50-144.1-74.9c-31.1-13.6-68-15.6-94.7-38.3c-8.3-7-2.5-26,10-22.2c5.6,2.7,12.7,8.8,18.3,2
	c6.6-7.3,16.9,5.2,23.3-1.5c8.2-13.8,23.2,5.1,34.2-5.9c7.2-10.2,20.8-9.5,30.8-4.2c16.4-15,29.6,17,45.2,3.2
	c-7.7-9-14.7-26.1-29-23.5C796.6,93.9,791.3,78.3,784,69c-13.5-7.4-28.5-14.7-43.9-11.8c-16-15.3-41.8-9.6-62-9.2
	c-11.7-0.7-19.2,15.2-30.9,9c-8.5-5.6-1.7-17.8,3.8-23.2C672.2,12.6,702.5,3.6,731.7,0 M1008.4,843.4c-18.5,0.7-43.2-0.9-54.3,17.6
	c-2.5,3.9-10.5,4.8-7.6,10.9c24.1,1,43.5-15.4,64.1-25.3C1013.8,844.8,1011.4,841.7,1008.4,843.4 M471.2,844.1
	c-1.1,4.7,6.3,4.4,8.7,7.1c17.8,8,31.4,29,53.1,23.3c9.4-9.8-11.1-15.2-13.1-24.6C504.1,849.5,487.6,844.9,471.2,844.1L471.2,844.1z
	"/>
</svg>
