<?xml version="1.0" encoding="utf-8"?>
<!-- Generator: Adobe Illustrator 18.0.0, SVG Export Plug-In . SVG Version: 6.00 Build 0)  -->
<!DOCTYPE svg PUBLIC "-//W3C//DTD SVG 1.1//EN" "http://www.w3.org/Graphics/SVG/1.1/DTD/svg11.dtd">
<svg version="1.1" id="Layer_1" xmlns="http://www.w3.org/2000/svg" xmlns:xlink="http://www.w3.org/1999/xlink" x="0px" y="0px"
	 width="1400px" height="1400px" viewBox="0 0 1400 1400" enable-background="new 0 0 1400 1400" xml:space="preserve">
<g>
	<defs>
		<rect id="SVGID_1_" width="1400" height="1400"/>
	</defs>
	<clipPath id="SVGID_2_">
		<use xlink:href="#SVGID_1_"  overflow="visible"/>
	</clipPath>
	<g clip-path="url(#SVGID_2_)">
		<radialGradient id="SVGID_3_" cx="703.3524" cy="1.7297" r="890.6531" gradientUnits="userSpaceOnUse">
			<stop  offset="0" style="stop-color:#01D8FF"/>
			<stop  offset="0.2561" style="stop-color:#01BADB"/>
			<stop  offset="0.4287" style="stop-color:#01B5D7"/>
			<stop  offset="0.6404" style="stop-color:#01A6CB"/>
			<stop  offset="0.8717" style="stop-color:#018DB7"/>
			<stop  offset="1" style="stop-color:#017CA9"/>
		</radialGradient>
		<rect x="-5.8" y="-5.8" fill="url(#SVGID_3_)" width="1411.6" height="1411.6"/>
		<path fill="#0D5A73" d="M0,431.4c0,0,39.7-11.5,35.9,19.2s0.5,26.3,0.3,51.5s0.3,17.6,0,48.3c-0.3,30.7-8,65.3,22.8,76.8
			c30.7,11.5,46.1,11.5,57.6,0c11.5-11.5-15.4-15.4,11.5-11.5c26.9,3.8,38.4-26.9,26.9,3.8c-11.5,30.7-15.4,1.2-26.9,23.6
			s-23-4.4-11.5,22.4s11.5,15.4,30.7,0c19.2-15.4,30.7,26.4,30.7,34.3s-30.7,15.6-23,27.1c7.7,11.5,26.9,7.7,23,26.9
			c-3.8,19.2-34.6,11.5-3.8,19.2s30.7,7.7,30.7,7.7s7.7-15.4,26.9-19.2s-7.7,7.7,19.2-3.8c26.9-11.5,38.4-15.4,49.9-15.4
			c11.5,0-19.2-3.8,11.5,0s23-23,30.7,3.8s-3.8,3.8-26.9,34.6s0,38.4,11.5,46.1c11.5,7.7-14.5-7.7,17.7,0s47.6,19.2,47.6,19.2
			s15.4,7.7,0,26.9c-15.4,19.2-3.8,15.2-19.2,36.4c-15.4,21.2-15.4-1.8-15.4,21.2c0,23,19.2-22.9,0,23c-19.2,45.9-19.2,15-19.2,45.9
			c0,30.9-73,57.8-73,57.8s-103.7,46.1-111.4,57.6c-7.7,11.5-73,73-122.9,80.6c-49.9,7.7-76.8-62.4-80.6-62.4S-98.5,731-98.5,731
			L0,431.4z"/>
		<path fill="#0D5A73" d="M560.3,1180.2c0,0,32.4-51.8,55.5-47c23,4.8,34.6,29.1,49.9-0.3c15.4-29.4,7.7-2.6,15.4-29.4
			s7.2-49.9,19-46.1s27.1-7.7,31,19.2c3.8,26.9-3.8,42.2,23,15.4s23,3.8,26.9-26.9c3.8-30.7-3.8-46.1,0-65.3S811,947,823.1,946
			c46.1-3.8,11.5-46.3,42.2-36.6c30.7,9.7,23-17.4,49.9,0c26.9,17.4,15.4,9.5,38.4,0c23-9.5,3.8,2,23-9.5s-23-23,0-53.8
			c23-30.7,10.3-1.5,5.2-33.4c-5.2-31.9-1.3-31.9-12.8-51.1c-11.5-19.2-11.5-31.2-11.5-61.7s15.4,0.2,0-30.5s0-25.7,7.7-26.3
			c7.7-0.6,22.8-0.6,24.9,18.6s-36.6,49.9,0,53.8c36.6,3.8,9.7,3.8,36.6,3.8c26.9,0,3.8,26.9,26.9,0c23-26.9-19.2-38.4,23-26.9
			c42.2,11.5,49.9,34.1,49.9,7.4s-26.9-56.2,0-56.8c26.9-0.6,30.7,11.8,46.1-0.2c0.6-0.5,1.2-0.9,1.9-1.3c3.1-1.9,4.2-5.4,3.4-9
			c-0.4-2,4.8-3.4,25.4-1.7c46.1,3.8,85.1-25.6,85.1-25.6s7.9,0,8.3-26c0.4-26,29.5-40.1,44.9,0s59.3,81.9,58.4,120.5
			s-10.7,184.2,0,188.2c10.7,4,37.6,138.4,45.2,180.7c7.7,42.2,54.7,138.2,18.1,215.1c-36.6,76.8,28,69.1-87.2,157.5
			c-115.2,88.3,49.9,75.5-307.2,149.8s-238.1,96-410.9,42.2s-169-34.6-176.7-111.4C473.7,1445.3,431.9,1337.7,560.3,1180.2z"/>
		<path fill="#042B35" d="M0,784.5c0,0,20.2-14.4,31.7,20.2s11.6,34.7,11.6,34.7s14.4,20.2,23.1,0s17.3,0.6,28.9,9
			c11.6,8.3,14.4,3.2,34.7,0c20.2-3.2,43.3,5.5,23.1,25.7s-26,0-20.2,20.2c5.8,20.2-17.3,14.4,5.8,20.2c23.1,5.8,2.9,34.7,23.1,5.8
			s-5.8-26,20.2-28.9s26-23.1,26-2.9s-23.1,8.7,0,31.8C231,943.4,219.5,955,231,955s-5.8,11.6,11.6,0c17.3-11.6,34.7-9.9,40.4,5.1
			s-5.8,15.1,0,32.4s23.1,26,31.8,17.3c8.7-8.7,0-28.9,0-28.9s8.7-28.9,17.3-5.8c8.7,23.1,2.9,29.9,23.1,38.1
			c20.2,8.2,0-0.5,20.2,8.2c20.2,8.7,46.2-17.3,20.2,8.7c-26,26-63.5,23.1-72.2,23.1s-17.3,11.6-14.4,31.8
			c2.9,20.2-17.3,34.7,5.8,37.5s37.5,5.8,46.2,0c8.7-5.8-14.4,5.8,8.7-5.8c23.1-11.6,30.5-14.4,36.9-14.4s3.5-34.7,15.1-28.9
			c11.6,5.8,17.3,14.4,20.2,23.1c2.9,8.7,14.4-17.3,20.2,17.3c5.8,34.7,14.4,34.7,23.1,34.7c8.7,0,14.4-8.7,28.9,0
			c14.4,8.7,23.1,14.4,34.7,23.1c11.6,8.7,2.9-11.6,11.6,8.7c8.7,20.2,20.2,34.7,26,20.2c5.8-14.4-8.7-11.6,5.8-14.4
			c14.4-2.9,0-31.8,14.4-2.9s2.9,43.3,20.2,46.2s-2.9-11.6,17.3,2.9c20.2,14.4,20.7,8.7,33.5,23.1c12.8,14.4,1.2-20.2,12.8,14.4
			c11.6,34.7-2.9,17.3,11.6,34.7c14.4,17.3,14.4,8.7,28.9,28.9s-14.4,2.9,14.4,20.2c28.9,17.3,43.3-23.1,52,0
			c8.7,23.1,0,37.5,0,37.5s8.7-11.6,28.9,0c20.2,11.6,28.9-17.3,34.7,17.3c5.8,34.7,11.6,8.7,46.2,0c34.7-8.7,46.2-17.3,57.8-14.4
			s-11.6,34.7,11.6,2.9c23.1-31.8,20.2-40.4,28.9-52c8.7-11.6-2.9-14.4-11.6-37.5c-8.7-23.1,17.7-31.8,14.6-49.1
			c-3.1-17.3-0.2-17.3-17.5-23.1c-17.3-5.8-17.3-14.4-8.7-23.1c8.7-8.7,2.9,11.6,8.7-8.7c5.8-20.2,17.3,8.7,5.8-20.2
			s-14.4-34.7-5.8-43.3c8.7-8.7,28.9,17.3,8.7-8.7c-20.2-26-14.4-2.9-20.2-26c-5.8-23.1-40.4-31.8-40.4-31.8s-2.9-2.9,0-17.3
			c2.9-14.4-20.2-20.2,0-40.4c20.2-20.2,0-28.9,20.2-20.2c20.2,8.7-20.2,14.4,20.2,8.7c40.4-5.8,60.7-17.3,60.7-17.3
			s14.4-28.9,40.4-26c26,2.9,43.3,34.7,43.3-8.7s-14.4-34.7,0-43.3c14.4-8.7-20.2,8.7,14.4-8.7s46.2-20.2,49.1-31.8
			s-11.6-23.1,0-31.8c11.6-8.7,23.1-2.9,20.2-26c-2.9-23.1-2.9-23.1-2.9-23.1s-11.6,2.9-14.4-20.2c-2.9-23.1-14.4-8.7,0-40.4
			c14.4-31.8,26-37.5,34.7-37.5c8.7,0,11.6,0,20.2,0s8.7,23.1,26,0c17.3-23.1,14.4-8.7,17.3-23.1c2.9-14.4-17.3-5.8,0-26
			c17.3-20.2,3.5-20.2,0.3-34.7s11-17.3,8.3-26c-2.8-8.7-8.1-5.8,0.4-26c8.4-20.2,8.4,11.6,8.4-20.2s5.8-17.3,0-31.8
			s20.2,11.6-5.8-14.4c-26-26-26-26-26-26s-11.6,0-8.7-23.1s-20.2,5.8,2.9-23.1c23.1-28.9,5.8-23.1,23.1-28.9
			c17.3-5.8-5.3-11.6,20.4-34.7c25.8-23.1,26.6-14.4,43.5-28.9s31.3-26,51.6-26c20.2,0,20.2,0,20.2,0v1369.1H0V784.5z"/>
		<path fill="#09596B" d="M1275.5,130.4C1275.4,130.4,1275.4,130.4,1275.5,130.4c-0.8-0.3-1.7-0.1-2.2,0.5c-4.1,4.5-8.4,9-12.9,13.6
			c-27.5,27.5-76.6,38.6-100,36.6c-23.4-2-37.8-9.1-41.8-1.4s1.5,19.6,1.5,19.6s-13.9,10.3-28.5,14.4c-14.6,4.2-44.9,12-54.5,20.2
			c-9.6,8.1-15.6,11.1-15.6,11.1c21.6-49-5.7-62.3-17.4-70.8c-11.7-8.5-54.1-34.7-72.8-56s-29.6-41.3-31.5-52
			c-1.9-10.6,2.4-60.9,6.1-86.5c0,0,0,0,0,0c0.3-2.4-1.1-4.7-3.4-5.5l-2.2-0.7c0,0,0,0,0,0c0,0,0,0,0,0l-0.7-0.2
			c-2.6-0.7-3.3,0.9-3.5,1.3c-3.1,9.3-5.4,18.9-5.7,25.4c-0.6,16.6-7.1,66.6-10,80.6c-2.9,14-11.6,35.6-4.8,46.5
			c6.8,10.9,11.3,5.6,23.9,4.5c12.7-1.2,34.6,25.3,49.7,47.7c15.1,22.4,34.5,32.1,34.5,32.1c-1.7,10.3-5.5,17.7-17.8,24.4
			c-12.3,6.7-20.2,18.1-26.9,27.2c-6.7,9.1-26.1,16.6-26.1,16.6l26.7-33.2c-10.2-28.9-41.2-42.1-41.2-42.1S772.4,331.8,765.8,354.1
			c-6.6,22.3,5.8,32.4,5.8,32.4c-1.4,10.9-8.4,14-9.7,11.2c-1.3-2.7-4.1-4.1-11-3.7c-6.9,0.4-14.8,14.1-15.4,22.6
			c-0.6,8.5,2.4,15.7,9.3,18.1c6.9,2.3,11.7-3.8,16.5-7.1c4.8-3.4,4.8,1.6,4.8,1.6c1.4,6.4,8.9,18.4,8.9,18.4s-2.7,1.3-7.4,1.6
			s-7.4,4.3-7.4,4.3s-1.1-2.2-20,8.2c-19,10.4-15,33.8-15,33.8c6.9,26.7,32.7,25.1,32.7,25.1c-2.4,24.5,23.3,14.4,27.8,7.8
			c4.5-6.6-0.4-11,0.9-16c1.2-5,8.6-9.3,13-8.8c4.4,0.6,6,1.1,4.2,6.4c-1.8,5.3,0.5,12,10.2,8.9c9.7-3.1,14.4-15.6,11.9-23.2
			c-2.4-7.6-11.1-6-11.5-11.6s10.1-13.8,10.1-13.8s18.6,10.8,33.4,3.1s16.1-7.3,15.9-4.1s1,13.1,9.6,14.6
			c8.6,1.5,15.1-5.8,15.7-14.2c0.6-8.4-1.6-10.1-1.6-10.1c5.6,1,23.8,6.2,36.1,16.8c12.3,10.5,19.6,2.5,25.6-1.8s9.5-1.3,13.2,4
			c3.6,5.3,9.6,6.4,14.8,3.2c5.2-3.2,6.5-13.7,1.8-17.5c-4.6-3.8-17.9-8.8-21-11.7c-3.1-2.9-3.5-5.7-8.7-10.7
			c-5.2-4.9-10.3,2.4-16.2-0.5c-5.8-2.9-9.5-9.6-8.6-16.1s12.3-4,9.6-10.8c-2.7-6.8-8.3,4.5-10.1,1.6c-1.8-2.9,0.8-18.4,10-21.6
			c9.3-3.2,8.6-9.3,8.6-9.3s-9,3.8-11.4-2.5c-2.4-6.3,7.4-13.8,7.4-13.8c28.6-17.6,81.9-63.6,93.8-77.3c11.9-13.7,47.3-43,65.5-52.8
			s47-15.4,114.4-52.1c21.7-11.8,39.1-26.2,52.4-40.2c1.2-1.2,1.8-2.9,1.8-4.6v-9.5C1276.7,131.5,1276.2,130.8,1275.5,130.4z"/>
		<path fill="#0D5A73" d="M70.2,722.1c0,0,19.9-12,28.9-23.7c9-11.7,6.9-20.1-0.5-27.2c-7.4-7.2-12.3,0.6-21-3.8
			c-8.7-4.4-3.6-5.5,1.3-10.5c4.9-5.1-3.4-2.2-6.6-12.6c-3.2-10.4,2.9-21.7,5.7-15.9c2.8,5.8-2.3,16.5,6.7,13.5
			c9-2.9,10.1-7.1,10.6-20c0.4-12.8,4.8-17.2,6.7-10.2c1.9,7,0.7,17.4-1.9,26.2c-2.6,8.8-0.4,15.4,2.2,10.9
			c2.5-4.4,2.3-14.6,6.3-12.3c4,2.3-4.6,9.9-2.5,15.7c2.1,5.9,6.2,4.4,11.7-6.7c5.5-11.1,10.1-24.6,5-27.1c-5.1-2.4-9.4,1.4-12.3-1
			c-2.9-2.4,0.3-5.1,2.9-5.8c2.6-0.7-3-11.2-7.1-14.1c-4.1-2.9-13-14.5-6.8-13.2c6.1,1.3,5.5,9.1,8.2,8.7c2.8-0.5-3.7-12.8,0.9-15.4
			c4.6-2.6,5.4,1.4,5,6.3c-0.4,4.9-1.8,12.9,2.6,14.5c4.4,1.6,5.2-2.1,3.4-5.2c-1.8-3.1-4-8.1,1-10c5.1-1.9,3.9,1,3.1,5.9
			c-0.8,5-1.2,14.5,2.9,20c4.1,5.4,7.5,4.1,7.1-5.7c-0.4-9.8-5.3-24.4-9.5-32.7c-4.2-8.3-4.9-18.6,0.1-18.7c5-0.1,4.8,5.3,6.3,12.2
			c1.5,6.9,5.3,14.6,9.7,12.2c4.5-2.3,3.5-12.6,3.2-21.7c-0.2-9.1,9.1-29.8,12.6-27c3.5,2.8,7.8,10.2,7.8,14.5
			c0,4.3-14.5,33.9-14.4,40.8c0,6.8,1.2,8.2,6.4,2.7c5.2-5.5,17.8-23.9,21.2-23.6c3.5,0.3-1,9.1-6,11.7c-4.9,2.6-6.1,6.7-3.7,9
			c2.4,2.3,7.1,6.9,3.1,7.7c-4,0.8-12.4-2.4-15.6,0.8c-3.2,3.2-11.6,17.9-14.2,24.6c-2.7,6.7,0.5,10.8,8.1,4.6
			c7.6-6.3,20.8-25.1,25.3-31.4c4.5-6.3,8-12.4,9.1-7.9c1.1,4.5-12,16.3-15.5,21.6c-3.4,5.2-6.2,9.1,0.1,8.4
			c6.3-0.7,12.5-6.7,15.5-13.5c3-6.8,14.8-16.8,15.1-9.5c0.3,7.3-12.9,14.1-10.9,17.4c2,3.3,14.6,10.1,14.9,15.3
			c0.3,5.1-6.5,1.8-15.4-0.9c-8.9-2.7-13.4-3.2-22.2-1.2c-8.8,2-25.5,10.7-29.7,15.7c-4.2,5-14.2,21.5-9.3,27.5
			c4.9,6,23.9,2.3,34.8-3.1c10.9-5.4,24.4-19.1,26.4-23.5c2-4.4,5.1-4,5.2,1c0.1,5-12.1,19-14.1,23.5c-2,4.4,11.6-5.9,19-10.1
			c7.4-4.3,16.8,1,6.8,7.7c-10,6.7-29.8,14.1-41.4,11c-11.6-3.1,13.8,19.4,14,24.2c0.3,4.8-9.2-7.8-21.3-11.9
			c-12.2-4.1-24.3-10.3-31.1-2.6c-6.8,7.8,1.3,12,7.9,7.5c6.6-4.5,19.4-7.3,17.2-0.3c-2.3,7-13.1,7.5-11.6,10.2
			c1.5,2.6,14-0.2,21.3-1.4c7.3-1.2,11.1-0.4,4.9,4.7s-21.4,9.6-30.7,7.2c-9.4-2.4-9.9-3.7-16.4-0.3s-25.5,15.8-33.1,26
			C75.8,742,48.9,743.8,70.2,722.1z"/>
		<path fill="#0D5A73" d="M700,1156.3c0,0,10.5-30.4,9.7-50.7c-0.8-20.4-10.5-27.4-24.6-28.5s-12.6,11.5-25.7,14.6
			c-13.2,3.1-8.6-2.7-7.9-12.3c0.7-9.7-5.6,0.6-18.2-7.6c-12.6-8.2-16.2-25.6-8-22c8.1,3.6,12.1,19.6,19,8.5
			c6.9-11.1,4.4-16.5-6.4-30.5c-10.9-14-10.1-22.5-1.9-16.8c8.2,5.7,16.1,17.9,21.2,29.5c5.1,11.6,13.2,16.7,12,9.7
			s-10.4-17.6-4.2-18.7c6.3-1.2,3.9,14.5,11.2,18.9c7.4,4.4,10.5-0.8,6.5-17.4c-4-16.6-11-35.1-18.6-33.2c-7.6,2-8.7,9.8-13.9,9.8
			c-5.2,0-4.2-5.7-2-8.7c2.2-3.1-13.2-9.2-20.1-8.7c-6.9,0.5-26.6-4-19-8c7.7-4,13.9,4.9,16.4,1.9c2.6-3-15.3-10.3-12.7-17.1
			c2.6-6.8,7-3.3,10.9,2.3c3.9,5.6,9.4,15.3,15.5,13.1c6.1-2.2,3.7-6.9-1-8.6c-4.6-1.7-11.5-5.1-7.8-11.6c3.7-6.5,5-2.5,8.6,3.5
			c3.6,6,11.6,16.5,20.8,18.6c9.2,2.1,11.6-2.2,2.6-12.3c-9.1-10.1-27.2-21.3-39-26.3c-11.8-5-21.6-15.4-16.4-20
			c5.2-4.5,9.8,1.4,17.5,7.4c7.7,6,18.5,10.8,21.1,4.4c2.7-6.4-7.4-16.5-15.8-25.9c-8.3-9.5-16.8-39.7-10.5-39.8
			c6.2-0.1,17.3,3.9,21.1,8.5c3.8,4.6,14.7,48.9,20.7,56.1s8.5,7.7,9.2-2.7c0.6-10.4-2.3-41.1,1.7-43.8c4-2.7,7,10.6,4.1,17.7
			c-2.9,7.2-0.5,12.5,4.1,12.9c4.5,0.4,13.6,1.1,10.1,5.5c-3.5,4.4-15.3,8.4-15.9,14.7c-0.6,6.3,3.5,29.2,6.6,38.7
			c3.1,9.5,10.2,11.1,12.7-2.3c2.5-13.4-0.2-45.1-0.9-55.8c-0.8-10.7-2.5-20.3,2.6-16.5c5.1,3.8,1.7,28,2.7,36.6
			c1,8.6,1.4,15.2,7.6,8.8c6.1-6.3,7.3-18.2,4.5-28.1c-2.8-9.9,0.9-30.9,7.7-23.4c6.8,7.5-1.2,26.4,3.8,28.2
			c5,1.7,24.5-2.1,29.4,3.1c4.9,5.2-5.3,7.7-17.1,12.7c-11.8,5-17.1,8.5-24.7,18.4c-7.6,9.9-17.6,33.9-17.7,42.9
			c0,9,4,35.4,14.5,37.4s27.4-18.7,34.3-34.1c6.9-15.4,9.1-41.9,7.2-48.3c-1.9-6.5,1.9-8.8,6.4-3.6c4.5,5.2,4,30.9,5.8,37.4
			c1.9,6.5,7.1-16.5,11.2-27.5c4.1-11,18.8-13.9,14,2.1c-4.7,16-19.2,41.3-34.3,48.3c-15.1,7,31.8,8.4,36.3,13.3
			c4.5,4.9-16.7-0.2-33.2,6.2c-16.5,6.4-35,10.5-35.3,24.8c-0.4,14.2,11.9,11.6,15,1c3-10.6,14.1-25,17.9-15.5
			c3.8,9.4-7.2,19.6-3.3,21.1c3.9,1.4,14.7-12.5,21.4-20.3c6.7-7.8,11.4-10.2,9.4,0.7c-2,10.9-14.2,29.1-26.2,34.9
			c-12.1,5.7-13.9,4.8-17.7,14.1c-3.8,9.3-13.1,39.3-12.2,57C723.6,1172.3,696.6,1198.1,700,1156.3z"/>
		<g>
			<g>
				<path fill="#042B35" d="M848,1142.8c-0.3,9.3-0.7,18.8-0.3,28.7c0.2,5,0.7,10,1.5,15.1c0.8,5.1,2,10.1,3.3,15.1
					c2.7,10,6.1,19.9,9.6,29.8c0.4,1.2,0.9,2.5,1.3,3.7c0.4,1.2,1,2.5,1.4,3.7l1.5,3.8l0.7,1.9l0.8,1.8l1.6,3.7
					c0.5,1.2,1.1,2.5,1.7,3.7c1.2,2.4,2.3,4.9,3.6,7.2c4.9,9.6,10,18.7,14.3,27.8c4.4,9.1,7.8,18.2,10.5,27.5c0.6,2.3,1.2,4.7,1.9,7
					c0.2,0.6,0.3,1.2,0.4,1.8l0.4,1.8c0.3,1.2,0.5,2.4,0.8,3.5c0.3,1.2,0.5,2.3,0.8,3.5c0.2,1.2,0.4,2.4,0.6,3.6
					c0.4,2.4,0.8,4.7,1.2,7c0.3,2.3,0.6,4.7,0.9,7.1c0.3,2.3,0.6,4.7,0.8,7c0.4,4.7,0.8,9.3,1.2,13.8c2.5,36.9,2,69.3,0.5,92.1
					c-0.7,11.4-1.6,20.5-2.4,26.7c-0.7,6.2-1.3,9.4-1.3,9.1l15.6,2.4l15.6,2.4c0-0.3,0.5-4.1,1.1-10.8c0.5-6.8,1.1-16.5,1.2-28.6
					c0.4-24.2-0.9-57.9-6.1-95.8c-0.7-4.8-1.5-9.6-2.2-14.6c-0.4-2.5-0.9-4.9-1.4-7.4c-0.5-2.5-1-5-1.5-7.5c-0.6-2.5-1.2-5-1.8-7.6
					c-0.3-1.3-0.6-2.5-0.9-3.8c-0.4-1.3-0.7-2.5-1.1-3.8c-0.4-1.3-0.8-2.5-1.1-3.8l-0.6-1.9c-0.2-0.6-0.4-1.3-0.6-1.9
					c-0.9-2.5-1.8-5.1-2.7-7.6c-3.8-10.1-8.6-20.1-14.2-29.4c-5.5-9.4-11.6-18.1-17.1-26.8c-1.4-2.2-2.7-4.4-4-6.5
					c-0.7-1.1-1.3-2.2-1.9-3.3l-1.9-3.3l-0.9-1.7l-0.9-1.7l-1.8-3.4c-0.6-1.1-1.2-2.2-1.7-3.4c-0.6-1.2-1.1-2.3-1.7-3.5
					c-4.5-9.3-8.9-18.6-12.6-27.8c-1.8-4.6-3.6-9.3-4.9-14c-1.4-4.7-2.5-9.4-3.4-14.2C850.2,1161.5,849.1,1152,848,1142.8z"/>
				<g>
					<path fill="#042B35" d="M833.5,1295c5.8,5.2,10.8,11.9,15.2,19.1c4.4,7.2,8.1,15.1,11.1,23.3c0.7,2.1,1.4,4.1,2.1,6.2
						c0.7,2.1,1.2,4.2,1.8,6.2c0.6,2.1,1.1,4.2,1.6,6.2c0.5,2.1,1,4.1,1.5,6.3c0.5,2.2,1.1,4.3,1.6,6.5c0.6,2.1,1.3,4.2,2,6.2
						c0.4,1,0.6,2.1,1,3.1c0.4,1,0.8,2,1.2,3c0.4,1,0.8,2,1.2,2.9c0.2,0.5,0.4,1,0.6,1.4c0.2,0.5,0.4,0.9,0.7,1.4
						c0.9,1.9,1.8,3.7,2.6,5.5c1,1.8,1.9,3.5,2.8,5.2c0.2,0.4,0.5,0.8,0.7,1.3c0.3,0.4,0.5,0.8,0.8,1.2c0.5,0.8,1,1.6,1.5,2.4
						c0.5,0.8,1,1.6,1.5,2.3c0.5,0.7,1,1.5,1.5,2.2c0.5,0.7,1,1.4,1.5,2.1c0.2,0.3,0.5,0.7,0.7,1c0.3,0.3,0.5,0.7,0.8,1
						c1,1.3,2,2.6,3,3.8c1,1.2,2,2.3,2.9,3.4c0.2,0.3,0.5,0.5,0.7,0.8c0.2,0.3,0.5,0.5,0.7,0.8c0.5,0.5,0.9,1,1.4,1.5
						c3.6,3.8,6.8,6.6,9.1,8.5c0.6,0.5,1.1,0.9,1.6,1.2c0.4,0.4,0.9,0.7,1.2,0.9c0.3,0.3,0.6,0.4,0.8,0.6c0.2,0.1,0.3,0.2,0.3,0.2
						l3.6-5.6l3.6-5.6c0,0,0,0-0.1-0.1c-0.1,0-0.3-0.2-0.5-0.4c-0.2-0.2-0.6-0.4-1-0.7c-0.4-0.3-0.8-0.6-1.3-1c-2-1.5-4.9-3.8-8.3-7
						c-0.4-0.4-0.9-0.8-1.3-1.2c-0.2-0.2-0.4-0.4-0.7-0.6c-0.2-0.2-0.4-0.5-0.7-0.7c-0.9-0.9-1.8-1.9-2.8-2.9
						c-0.9-1.1-1.9-2.1-2.9-3.3c-0.2-0.3-0.5-0.6-0.7-0.9c-0.2-0.3-0.5-0.6-0.7-0.9c-0.5-0.6-1-1.2-1.5-1.8c-0.5-0.6-1-1.3-1.5-1.9
						c-0.5-0.7-1-1.3-1.4-2c-0.5-0.7-1-1.4-1.5-2.1c-0.2-0.4-0.5-0.7-0.8-1.1c-0.2-0.4-0.5-0.7-0.7-1.1c-0.9-1.5-1.9-3-2.9-4.6
						c-0.9-1.6-1.8-3.2-2.7-4.9c-0.2-0.4-0.5-0.8-0.7-1.3c-0.2-0.4-0.4-0.9-0.6-1.3c-0.4-0.9-0.8-1.7-1.3-2.6
						c-0.4-0.9-0.9-1.8-1.3-2.7c-0.4-0.9-0.8-1.8-1.2-2.8c-0.7-1.9-1.5-3.7-2.3-5.7c-0.6-2-1.3-3.9-2-5.9c-0.7-1.9-1.4-4.1-2-6.2
						c-0.7-2.1-1.3-4.3-2.2-6.4c-0.8-2.1-1.6-4.2-2.5-6.3c-0.9-2.1-1.9-4.1-2.8-6.2c-3.9-8.2-8.6-15.9-14-22.8
						C846.1,1305.4,840.1,1299.3,833.5,1295z"/>
				</g>
				<g>
					<path fill="#042B35" d="M904.8,1190.3c-3,7-5.7,14.5-7,22.6c-0.7,4.1-1,8.3-0.8,12.6c0.2,4.3,0.8,8.6,1.8,12.9
						c1,4.2,2.4,8.4,4,12.5c1.6,4.1,3.5,8.1,5.5,12c4,7.9,8.5,15.4,13.3,22.8c4.7,7.4,9.7,14.6,14.7,21.6c1.3,1.8,2.5,3.5,3.8,5.3
						l0.9,1.3c0.3,0.4,0.6,0.9,0.9,1.3c0.6,0.8,1.1,1.7,1.7,2.5c0.6,0.8,1.1,1.6,1.7,2.5c0.5,0.8,1,1.7,1.5,2.6
						c0.5,0.9,1,1.7,1.5,2.6c0.2,0.4,0.5,0.8,0.7,1.3l0.7,1.3c0.4,0.9,0.9,1.8,1.3,2.6c0.4,0.9,0.9,1.7,1.3,2.6
						c0.8,1.8,1.6,3.6,2.3,5.3c0.7,1.8,1.4,3.6,2,5.4c0.4,0.9,0.6,1.8,0.9,2.7c0.3,0.9,0.6,1.8,0.9,2.7c2.3,7.3,3.9,14.6,5.2,21.8
						c1.2,7.2,1.9,14.3,2.3,21.2c0.4,6.8,0.5,13.4,0.4,19.7c-0.2,12.5-1.3,23.7-2.5,32.9c-1.2,9.2-2.6,16.5-3.6,21.5
						c-1,5-1.7,7.5-1.7,7.3l12.6,3.1l12.6,3.1c0-0.2,0.7-3.3,1.6-8.8c0.9-5.5,2-13.5,2.8-23.6c0.8-10,1.3-22.1,0.8-35.7
						c-0.3-6.8-0.8-14-1.7-21.4c-0.9-7.5-2.2-15.2-4.1-23.1c-1.9-7.9-4.3-16-7.5-24c-0.4-1-0.8-2-1.2-3c-0.4-1-0.8-2-1.3-3
						c-0.9-2-1.9-4-2.8-6c-1-2-2.1-3.9-3.1-5.9c-0.5-1-1.1-1.9-1.7-2.9c-0.6-1-1.2-1.9-1.8-2.9l-0.9-1.4c-0.3-0.5-0.6-0.9-1-1.4
						c-0.6-0.9-1.3-1.9-1.9-2.8c-0.7-0.9-1.3-1.9-2-2.8c-0.7-0.9-1.4-1.8-2.1-2.7c-0.7-0.9-1.4-1.8-2.1-2.7c-0.4-0.5-0.7-0.9-1-1.3
						l-1-1.2c-1.4-1.6-2.8-3.2-4.1-4.9c-5.5-6.5-11-13.1-16.3-19.8c-5.3-6.7-10.4-13.5-14.9-20.5c-2.3-3.5-4.4-7-6.3-10.6
						c-1.9-3.6-3.6-7.3-5-11c-1.4-3.8-2.4-7.6-3.1-11.5c-0.7-3.9-0.9-7.8-0.8-11.7C901.4,1205.4,903,1197.7,904.8,1190.3z"/>
				</g>
				<g>
					<path fill="#042B35" d="M947.6,1222.1c2.2,2.3,4,4.9,5.5,7.7c1.5,2.8,2.6,5.9,3.4,9c0.8,3.1,1.4,6.4,1.7,9.7
						c0.3,3.3,0.5,6.7,0.5,10.1c0.1,13.6-1.2,27.8-2.3,42.1c-1.2,14.3-2.2,28.7-2.9,42.8c-0.4,7-0.4,14.1-0.5,21
						c0.1,3.5,0.2,6.9,0.3,10.3c0,0.8,0.1,1.7,0.1,2.5c0.1,0.8,0.1,1.7,0.2,2.5c0.1,1.7,0.3,3.3,0.4,5c1.2,13.2,3.4,25.6,6.2,36.5
						c2.8,11,6.2,20.5,9.3,28.2c3.1,7.7,5.8,13.6,7.3,17.4c0.3,0.9,0.6,1.7,0.9,2.4c0.1,0.2,0.1,0.3,0.2,0.5c0,0.1,0.1,0.3,0.1,0.4
						c0.1,0.2,0.1,0.5,0.2,0.7c0.2,0.8,0.4,1.2,0.4,1.2l10.4-2.9l10.4-2.9c0,0-0.2-0.7-0.7-2.1c-0.1-0.4-0.3-0.7-0.4-1.2
						c-0.1-0.2-0.2-0.4-0.2-0.7c-0.1-0.2-0.2-0.4-0.3-0.6c-0.4-0.9-0.8-1.9-1.3-3.1c-2-4.4-4.9-10.1-8.1-17.1
						c-3.2-7.1-6.8-15.5-9.9-25.4c-3.2-9.9-5.9-21.1-7.8-33.3c-0.2-1.5-0.4-3.1-0.7-4.6c-0.1-0.8-0.2-1.6-0.3-2.3
						c-0.1-0.8-0.2-1.6-0.3-2.4c-0.3-3.2-0.7-6.4-1-9.7c-0.4-6.6-0.9-13.2-1.1-20.2c-0.5-13.9-0.6-28.2-0.8-42.5
						c-0.1-7.2-0.3-14.4-0.6-21.5c-0.3-7.2-0.8-14.3-1.7-21.3c-0.4-3.5-1.1-7-1.9-10.4c-0.4-1.7-0.9-3.4-1.4-5
						c-0.3-0.8-0.6-1.6-0.8-2.5c-0.3-0.8-0.6-1.6-0.9-2.4c-1.3-3.2-2.9-6.2-4.9-8.9C952.3,1226.4,950.1,1224,947.6,1222.1z"/>
				</g>
				<g>
					<path fill="#042B35" d="M838.6,1228.7c7.4,9.8,15,20.5,20.7,32.4c2.8,6,5.2,12.2,6.9,18.7l0.7,2.4l0.6,2.5
						c0.4,1.6,0.8,3.3,1.2,5c0.3,1.7,0.7,3.4,1,5c0.3,1.7,0.7,3.3,1,5.1c2.5,13.6,4.5,27.4,6.6,40.8c1.1,6.7,2.1,13.4,3.2,19.9
						c0.5,3.3,1.1,6.5,1.6,9.6c0.5,3.2,1.1,6.3,1.7,9.4c0.6,3.1,1.1,6.2,1.7,9.1c0.6,3,1.2,5.9,1.8,8.8c0.3,1.4,0.6,2.9,0.9,4.3
						c0.3,1.4,0.6,2.8,1,4.2c0.6,2.8,1.3,5.4,1.9,8.1c2.6,10.5,5.3,19.8,8.1,27.6c0.7,2,1.5,3.8,2.1,5.6c0.8,1.8,1.5,3.4,2.2,5
						c0.8,1.6,1.6,3.1,2.3,4.4c0.4,0.7,0.8,1.4,1.2,2c0.2,0.3,0.4,0.6,0.6,0.9c0.1,0.2,0.2,0.3,0.3,0.4c0.1,0.2,0.2,0.3,0.3,0.5
						c0.5,0.6,0.9,1.2,1.3,1.7c0.2,0.3,0.4,0.5,0.6,0.8c0.3,0.3,0.5,0.5,0.7,0.8c0.5,0.5,0.9,1,1.4,1.4c0.6,0.5,1.1,0.9,1.6,1.3
						c0.3,0.2,0.4,0.4,0.8,0.6c0.3,0.2,0.7,0.4,1,0.6c0.3,0.2,0.6,0.3,0.8,0.4c0.1,0,0.1,0.1,0.2,0.1l0,0l0,0c0,0,0,0,0,0l4.8-9.4
						l4.8-9.4c0,0-0.3-0.1-0.8-0.3c-0.1,0-0.1-0.1-0.2-0.1l-0.1,0c0,0,0,0,0,0c0.1,0,0.2,0.1,0.3,0.2c0.1,0.1,0.2,0.1,0.4,0.2
						l0.1,0.1l0,0l0,0c2.1-3.1-2.8,4.2-2.3,3.4l0.1-0.2c0.1-0.2,0.3-0.5,0.4-0.7c0.3-0.5,0.7-0.9,1.1-1.4c0.2-0.2,0.4-0.5,0.6-0.7
						l0.2-0.2c0.1-0.1,0.1-0.1,0.1-0.1l0,0c0,0-0.1-0.1-0.2-0.2c0,0-0.1-0.1-0.2-0.1c-0.1,0-0.2-0.2-0.2-0.3
						c-0.2-0.2-0.4-0.4-0.6-0.7c-0.1-0.1-0.1-0.1-0.2-0.2c-0.1-0.1-0.1-0.2-0.2-0.3c-0.1-0.2-0.2-0.4-0.4-0.5
						c-0.3-0.4-0.5-0.8-0.8-1.2c-0.5-1-1.1-2-1.8-3.1c-0.6-1.2-1.3-2.6-2-4c-0.7-1.5-1.3-3.1-2.1-4.7c-2.8-6.8-5.8-15.4-8.9-25.2
						c-0.7-2.5-1.5-5-2.2-7.7c-0.4-1.3-0.8-2.6-1.2-4c-0.4-1.4-0.7-2.7-1.1-4.1c-0.7-2.8-1.5-5.6-2.3-8.5c-0.8-2.9-1.5-5.8-2.2-8.8
						c-0.7-3-1.5-6-2.3-9.1c-0.7-3.1-1.5-6.3-2.3-9.5c-1.5-6.4-3.1-12.9-4.7-19.5c-3.2-13.2-6.4-26.9-10.3-40.5
						c-0.5-1.7-1-3.4-1.5-5.1c-0.5-1.7-1.1-3.4-1.6-5.1c-0.6-1.7-1.2-3.4-1.8-5l-0.9-2.5l-1-2.5c-2.5-6.6-5.9-12.9-9.5-18.8
						C856.6,1246.8,847.5,1237.2,838.6,1228.7z"/>
				</g>
				<g>
					<path fill="#042B35" d="M887.9,1153.9c1.8,3.7,3.4,7.7,4.8,11.6c0.4,1,0.7,2,1.1,3c0.4,1,0.7,2,1,3.1c0.7,2.1,1.4,4.1,2,6.2
						c2.7,8.3,4.8,17,6.9,25.8c4,17.7,7,36.1,9.2,54.6c0.5,4.6,0.9,9.3,1.4,13.9c0.3,2.3,0.4,4.6,0.6,7c0.2,2.3,0.3,4.6,0.5,6.9
						c0.2,2.3,0.3,4.6,0.5,6.9c0.1,2.3,0.2,4.6,0.3,6.9c0.2,4.6,0.4,9.2,0.6,13.7c0.2,4.7,0.5,9.3,0.7,13.9c0.1,1.2,0.1,2.3,0.2,3.4
						l0.1,1.7l0.1,1.7c0.2,2.3,0.4,4.5,0.6,6.8c0.2,2.3,0.4,4.5,0.6,6.7c0.1,1.1,0.2,2.2,0.3,3.3c0.1,1.1,0.3,2.2,0.4,3.3
						c0.6,4.4,1.1,8.7,1.6,13c2.5,17.1,5.7,33,9.3,47.2c3.7,14.2,7.7,26.7,11.5,37.1c3.8,10.3,7.5,18.5,10.2,24.1
						c0.3,0.7,0.7,1.4,1,2c0.3,0.6,0.6,1.2,0.9,1.8c0.6,1.1,1,2,1.5,2.8c0.2,0.4,0.4,0.7,0.6,1c0.2,0.3,0.3,0.5,0.4,0.8
						c0.3,0.5,0.4,0.7,0.4,0.7l12-7.6l12-7.6c0,0-0.1-0.1-0.2-0.3c-0.2-0.3-0.4-0.7-0.7-1.2c-0.3-0.5-0.8-1.3-1.3-2.2
						c-0.3-0.4-0.5-0.9-0.8-1.4c-0.3-0.5-0.6-1.1-0.9-1.7c-2.6-4.7-6.2-11.9-10.2-21.2c-4-9.3-8.3-20.8-12.5-33.9
						c-4.2-13.2-8.1-28.1-11.5-44.2c-0.8-4-1.6-8.2-2.4-12.3c-0.2-1-0.4-2.1-0.6-3.1c-0.2-1.1-0.3-2.1-0.5-3.2
						c-0.3-2.1-0.7-4.3-1-6.4c-0.3-2.2-0.7-4.3-1.1-6.5l-0.3-1.6l-0.2-1.6c-0.1-1.1-0.3-2.2-0.4-3.3c-0.6-4.4-1.1-8.9-1.7-13.4
						c-0.6-4.6-1.2-9.3-1.7-13.9c-0.3-2.3-0.6-4.7-0.9-7c-0.4-2.3-0.7-4.7-1.1-7c-0.4-2.3-0.8-4.7-1.1-7.1c-0.4-2.4-0.7-4.7-1.2-7
						c-0.9-4.7-1.8-9.4-2.8-14.1c-4-18.7-9.1-37.1-15.3-54.5c-3.2-8.6-6.5-17.1-10.3-25.1c-0.9-2-1.9-4-2.9-5.9c-0.5-1-1-2-1.5-2.9
						c-0.5-1-1-1.9-1.5-2.9C892.4,1161,890.3,1157.3,887.9,1153.9z"/>
				</g>
			</g>
		</g>
		<g>
			<g>
				<g>
					<path fill="#0D5A73" d="M1119.3,576c-1,1.8-1.7,3.7-2.3,5.7c-0.3,1-0.6,2-0.8,3l-0.7,3.1c-0.8,4.1-1.1,8.3-1.3,12.5
						c-0.1,8.4,0.9,16.9,2.7,24.9c0.5,2,1,4,1.5,6c0.6,1.9,1.2,3.9,1.7,5.8c0.6,2,1.2,3.7,1.8,5.5c0.6,1.8,1.2,3.6,1.7,5.4
						c2.3,7.1,4.3,13.8,6.1,20.1c3.7,12.6,6.5,23.3,8.5,30.9c1,3.8,1.7,6.8,2.2,8.8c0.5,2,0.7,3.1,0.7,3.1l7.4-1.8l7.4-1.8
						c0,0-0.1-0.3-0.2-0.9c-0.1-0.6-0.4-1.4-0.7-2.4c-0.6-2.1-1.5-5.2-2.6-9c-2.4-7.7-5.9-18.5-10.7-31c-2.4-6.2-5.1-12.9-8.1-19.9
						c-0.7-1.7-1.5-3.5-2.3-5.2c-0.8-1.7-1.6-3.6-2.3-5.3c-0.8-1.7-1.5-3.5-2.3-5.2c-0.7-1.8-1.4-3.6-2.1-5.4
						c-2.6-7.3-4.8-15-5.9-23c-0.5-4-0.9-8-0.8-12l0.1-3c0.1-1,0.1-2,0.3-3C1118.4,580,1118.7,578,1119.3,576z"/>
				</g>
				<g>
					<path fill="#0D5A73" d="M1076.2,539.7c4,3.8,7.6,7.9,10.5,12.5c1.4,2.3,2.7,4.7,3.7,7.1l0.4,0.9c0.1,0.3,0.2,0.6,0.3,0.9
						l0.7,1.9c0.4,1.3,0.8,2.5,1.1,3.8c2.7,10.3,2.8,21.1,2.9,31.8c0.1,10.8,0.2,21.6,1.3,32c0.5,5.2,1.3,10.3,2.2,15.2
						c0.2,1.2,0.4,2.4,0.7,3.7c0.3,1.2,0.5,2.4,0.8,3.6c0.5,2.4,1,4.7,1.7,6.9c2.3,9,5.1,17.2,7.9,24.4c2.8,7.2,5.7,13.3,8.2,18.3
						c2.5,5,4.8,8.9,6.5,11.5c0.4,0.7,0.8,1.3,1.1,1.8c0.3,0.5,0.6,0.9,0.8,1.3c0.2,0.4,0.4,0.7,0.6,0.8c0.2,0.2,0.2,0.3,0.2,0.3
						l8.3-6l8.3-6c0,0-0.2-0.2-0.5-0.7c-0.2-0.3-0.4-0.6-0.7-1c-0.3-0.4-0.6-0.9-1-1.5c-1.5-2.2-3.6-5.6-6.2-10
						c-2.5-4.4-5.4-9.9-8.4-16.3c-3-6.4-6.1-13.7-8.9-21.9c-0.8-2-1.4-4.1-2.1-6.3c-0.3-1.1-0.7-2.1-1-3.2c-0.3-1.1-0.6-2.2-0.9-3.3
						c-1.3-4.4-2.4-9-3.4-13.8c-2-9.6-3.3-19.9-4.8-30.7c-0.8-5.4-1.6-10.9-2.8-16.5c-1.2-5.6-2.8-11.2-5.2-16.5
						c-0.6-1.3-1.3-2.6-1.9-3.9l-1.1-1.9c-0.2-0.3-0.4-0.6-0.5-0.9l-0.6-0.9c-1.5-2.5-3.4-4.7-5.3-6.9
						C1085.3,546,1080.9,542.5,1076.2,539.7z"/>
				</g>
				<g>
					<path fill="#0D5A73" d="M1068.5,573.3c-0.2,4-0.3,8.1-0.1,12.3c0.1,4.1,0.4,8.3,1,12.4c0.5,4.1,1.2,8.3,2.1,12.3
						c0.4,2,0.9,4,1.4,6c0.5,2,1,4,1.6,5.9c1.1,3.9,2.3,7.7,3.5,11.5c0.3,0.9,0.6,1.9,0.9,2.8c0.3,0.9,0.6,1.8,0.9,2.7
						c0.6,1.8,1.1,3.5,1.6,5.3c2.1,7,3.8,13.8,5.4,20.1c3.1,12.7,5.4,23.6,7.1,31.3c1.6,7.6,2.5,12.1,2.5,12.1l7.4-1.6l7.4-1.6
						c0,0-0.3-1.1-0.8-3.3c-0.5-2.1-1.3-5.2-2.3-9c-2-7.7-5-18.6-9.2-31.3c-2.1-6.4-4.5-13.2-7.4-20.3c-0.7-1.8-1.5-3.6-2.3-5.3
						c-0.4-0.9-0.8-1.8-1.2-2.6c-0.4-0.9-0.8-1.7-1.2-2.6c-1.6-3.5-3.2-7.1-4.8-10.7c-0.8-1.8-1.5-3.6-2.3-5.5
						c-0.7-1.8-1.5-3.7-2.2-5.6c-1.4-3.7-2.7-7.6-3.8-11.4c-1.1-3.9-2.1-7.8-3-11.8C1069.9,581.3,1069.2,577.3,1068.5,573.3z"/>
				</g>
			</g>
		</g>
		<g opacity="0.68">
			<path fill="#006F89" d="M765.4,954.9c0,0,2.6-13.5,13.5-23s27.8-8.7,27.8-8.7s-1.3,13-11.3,21.3c-10,8.2-27.3,13.5-27.3,13.5v9.6
				c0,0-4.3-10.4-17.8-10C750.2,957.5,755.2,954.6,765.4,954.9z"/>
			<path fill="#006F89" d="M815.3,895.9c0,0,3.5-8.2,11.7-12.7c8.2-4.6,18.8-1.7,18.8-1.7s-2.6,8.1-10,11.9
				c-7.4,3.9-19.1,4.8-19.1,4.8l-1.3,6c0,0-1.3-7.2-9.9-8.7C805.3,895.5,809,894.3,815.3,895.9z"/>
			<path fill="#006F89" d="M869.7,877.1c0,0,4.7-7.5,13.4-10.8c8.8-3.3,18.8,1.1,18.8,1.1s-3.8,7.6-11.7,10.3
				c-7.9,2.7-19.6,1.9-19.6,1.9l-2.2,5.8c0,0-0.2-7.3-8.5-10.1C859.9,875.2,863.7,874.5,869.7,877.1z"/>
			<path fill="#006F89" d="M911.7,844.4c0,0,1.3-8.8,8-15.3c6.7-6.5,17.7-6.4,17.7-6.4s-0.5,8.5-6.7,14.1
				c-6.2,5.6-17.3,9.5-17.3,9.5l0.3,6.2c0,0-3.1-6.6-11.8-5.9C902,846.6,905.2,844.5,911.7,844.4z"/>
			<path fill="#006F89" d="M816.2,847.8c0,0,3.4-8.2,11.6-12.8c8.1-4.6,18.8-1.8,18.8-1.8s-2.5,8.1-10,12
				c-7.4,3.9-19.1,4.9-19.1,4.9l-1.3,6.1c0,0-1.4-7.2-10-8.7C806.2,847.5,809.8,846.2,816.2,847.8z"/>
			<path fill="#006F89" d="M669.5,936.7c0,0,3.8-8,12.1-12.3c8.3-4.3,18.8-1.1,18.8-1.1s-2.9,8-10.4,11.6s-19.3,4.2-19.3,4.2l-1.5,6
				c0,0-1.1-7.2-9.6-9.1C659.6,935.9,663.2,934.8,669.5,936.7z"/>
			<path fill="#006F89" d="M318.2,686.8c0,0-2.4-5.2-7.9-8c-5.4-2.8-12.3-0.7-12.3-0.7s1.9,5.2,6.8,7.6c4.9,2.4,12.6,2.7,12.6,2.7
				l1,3.9c0,0,0.7-4.7,6.3-5.9C324.7,686.3,322.3,685.6,318.2,686.8z"/>
			<path fill="#006F89" d="M439.7,621.1c0,0-2.4-5.2-7.9-8c-5.4-2.8-12.3-0.7-12.3-0.7s1.9,5.2,6.8,7.6c4.9,2.4,12.6,2.7,12.6,2.7
				l1,3.9c0,0,0.7-4.7,6.3-5.9C446.2,620.6,443.8,619.9,439.7,621.1z"/>
			<path fill="#006F89" d="M561.9,877.2c0,0-2.4-5.2-7.9-8c-5.4-2.8-12.3-0.7-12.3-0.7s1.9,5.2,6.8,7.6c4.9,2.4,12.6,2.7,12.6,2.7
				l1,3.9c0,0,0.7-4.7,6.3-5.9C568.3,876.7,566,876,561.9,877.2z"/>
			<path fill="#006F89" d="M257.6,644.8c0,0-1.2-5.9-6-10s-12.2-3.6-12.2-3.6s0.7,5.7,5.1,9.2s12.1,5.7,12.1,5.7l0.1,4.2
				c0,0,1.8-4.6,7.7-4.5C264.3,645.8,262.1,644.6,257.6,644.8z"/>
			<path fill="#006F89" d="M227.5,709.9c0,0,2-7-0.8-14.2c-2.8-7.2-11.1-10.9-11.1-10.9s-2.5,6.5,0.2,12.9
				c2.7,6.4,9.7,13.1,9.7,13.1l-2.3,4.5c0,0,4.6-3.9,10.9-0.4C234.1,714.8,232.4,712.2,227.5,709.9z"/>
			<path fill="#006F89" d="M142,554.8c0,0-0.3-5.3-3.9-9.6c-3.7-4.3-10.3-4.9-10.3-4.9s-0.2,5.1,3.2,8.8c3.4,3.7,9.8,6.7,9.8,6.7
				l-0.5,3.7c0,0,2.2-3.8,7.4-2.9C147.7,556.6,145.9,555.2,142,554.8z"/>
			<path fill="#006F89" d="M153.8,490.7c0,0-0.3-5.7-4.2-10.2s-10.9-5.2-10.9-5.2s-0.2,5.4,3.4,9.4c3.6,4,10.4,7.1,10.4,7.1
				l-0.6,3.9c0,0,2.4-4,7.9-3.1C159.9,492.6,158,491.1,153.8,490.7z"/>
			<path fill="#006F89" d="M73.7,406.8c0,0,3.4-6.5,2-14.1S67,379.8,67,379.8s-3.8,5.9-2.4,12.6c1.4,6.8,7,14.7,7,14.7l-3.2,4
				c0,0,5.3-2.9,10.8,1.7C79.1,412.9,78,410,73.7,406.8z"/>
			<path fill="#006F89" d="M163.1,22.9c0,0,14.3-0.3,26-9.7C200.9,3.8,203-13.7,203-13.7s-13.6-1-23.9,7.8s-18.7,25.6-18.7,25.6
				l-9.8-1.7c0,0,9.9,6.3,7,20.1C157.7,38,161.7,33.4,163.1,22.9z"/>
			<path fill="#006F89" d="M131.3,86.9c0,0,6.7-0.1,12.1-4.5C149,78,150,69.8,150,69.8s-6.3-0.5-11.1,3.6c-4.8,4.1-8.7,12-8.7,12
				l-4.6-0.8c0,0,4.6,3,3.3,9.4C128.8,93.9,130.7,91.8,131.3,86.9z"/>
			<path fill="#006F89" d="M295.4,231c0,0,5.7-3.4,8.3-10c2.6-6.5-0.6-14.1-0.6-14.1s-5.7,2.8-7.9,8.7c-2.1,5.9-1.6,14.7-1.6,14.7
				l-4.4,1.6c0,0,5.5,0.3,7.5,6.5C296.7,238.3,297.2,235.5,295.4,231z"/>
			<path fill="#006F89" d="M78.7,102.2c0,0,5.8-3.3,8.4-9.8c2.7-6.5-0.4-14.1-0.4-14.1s-5.8,2.7-8,8.6c-2.2,5.9-1.8,14.7-1.8,14.7
				l-4.4,1.5c0,0,5.5,0.3,7.4,6.6C79.9,109.6,80.5,106.8,78.7,102.2z"/>
			<path fill="#006F89" d="M233.6,563c0,0-1.4-10.7-9.5-18.7c-8.1-8-21.4-8.1-21.4-8.1s0.4,10.3,7.8,17.2
				c7.4,6.9,20.8,11.8,20.8,11.8l-0.4,7.5c0,0,3.9-8,14.4-7C245.3,565.8,241.5,563.2,233.6,563z"/>
			<path fill="#006F89" d="M381.3,491.3c0,0-1-7.3-6.4-12.7s-14.5-5.5-14.5-5.5s0.3,7,5.3,11.7s14.2,8.1,14.2,8.1l-0.3,5.1
				c0,0,2.6-5.4,9.8-4.8C389.3,493.1,386.7,491.4,381.3,491.3z"/>
			<path fill="#006F89" d="M317.8,637.3c0,0-1-7.3-6.4-12.7c-5.5-5.4-14.5-5.5-14.5-5.5s0.3,7,5.3,11.7c5.1,4.7,14.2,8.1,14.2,8.1
				L316,644c0,0,2.6-5.4,9.8-4.8C325.8,639.2,323.2,637.4,317.8,637.3z"/>
			<path fill="#006F89" d="M406.4,754.1c0,0,0-7.3-4.7-13.4c-4.7-6.1-13.7-7.4-13.7-7.4s-0.7,7,3.7,12.3c4.4,5.4,12.9,9.9,12.9,9.9
				l-1,5c0,0,3.3-5,10.4-3.4C414.1,757,411.7,754.9,406.4,754.1z"/>
			<path fill="#006F89" d="M455.9,985.4c0,0-1.8-7.1-7.9-11.8c-6.1-4.8-15.1-3.8-15.1-3.8s1.1,6.9,6.7,11c5.6,4.1,15,6.3,15,6.3
				l0.3,5.1c0,0,2-5.7,9.2-5.9C464.1,986.3,461.3,984.9,455.9,985.4z"/>
			<path fill="#006F89" d="M74.3,501.1c0,0,2.7-6.8,0.6-14.2c-2.1-7.4-10-11.9-10-11.9s-3.2,6.2-1.1,12.8s8.4,13.9,8.4,13.9
				l-2.8,4.3c0,0,5-3.4,10.9,0.7C80.3,506.6,78.9,503.8,74.3,501.1z"/>
			<path fill="#006F89" d="M546.5,1117.9c0,0,6.3-8.6,17.1-11.8c10.8-3.1,22.5,3.1,22.5,3.1s-5.2,8.8-15,11.3
				c-9.8,2.5-23.8,0.4-23.8,0.4l-3.2,6.7c0,0,0.4-8.8-9.2-12.9C534.9,1114.7,539.5,1114.3,546.5,1117.9z"/>
			<path fill="#006F89" d="M1207.7,590.1c0,0,2.5-6.6,8.9-10.5c6.4-3.9,14.9-1.9,14.9-1.9s-1.8,6.5-7.7,9.8s-15.1,4.4-15.1,4.4
				l-0.9,4.8c0,0-1.3-5.7-8.1-6.7C1199.7,590,1202.6,589,1207.7,590.1z"/>
			<path fill="#006F89" d="M1133.1,616.5c0,0,4.3-5.6,11.5-7.5s14.8,2.4,14.8,2.4s-3.6,5.7-10.1,7.2s-15.7-0.1-15.7-0.1l-2.2,4.4
				c0,0,0.4-5.8-5.9-8.7C1125.5,614.1,1128.6,613.9,1133.1,616.5z"/>
			<path fill="#006F89" d="M1163.8,570.6c0,0,2.4-6.7,8.7-10.7c6.3-4,14.8-2.2,14.8-2.2s-1.7,6.5-7.4,10s-15,4.7-15,4.7l-0.8,4.9
				c0,0-1.4-5.7-8.3-6.5C1155.8,570.7,1158.6,569.6,1163.8,570.6z"/>
			<path fill="#006F89" d="M1261.3,561.3c0,0-0.9-7,2.9-13.4s12.2-8.7,12.2-8.7s1.4,6.6-2.1,12.2c-3.6,5.6-11.3,11-11.3,11l1.5,4.7
				c0,0-3.8-4.4-10.3-2.1C1254.3,565,1256.3,562.7,1261.3,561.3z"/>
			<path fill="#006F89" d="M1039.7,607.6c0,0,3.2-6.3,10-9.5c6.8-3.2,15-0.3,15-0.3s-2.5,6.3-8.7,8.9c-6.1,2.6-15.5,2.7-15.5,2.7
				l-1.4,4.7c0,0-0.6-5.8-7.4-7.5C1031.8,606.7,1034.7,606,1039.7,607.6z"/>
			<path fill="#006F89" d="M1182,484.8c0,0-0.3-7.1,4-13.2c4.3-6.1,12.9-7.7,12.9-7.7s0.9,6.7-3.1,12c-4,5.3-12.1,10-12.1,10
				l1.2,4.8c0,0-3.4-4.7-10.1-2.9C1174.7,487.9,1176.9,485.8,1182,484.8z"/>
			<path fill="#006F89" d="M1237.8,405.7c0,0-2-6.8,0.6-13.7c2.7-7,10.6-10.6,10.6-10.6s2.5,6.3-0.1,12.4
				c-2.6,6.2-9.3,12.7-9.3,12.7l2.3,4.4c0,0-4.5-3.7-10.5-0.3C1231.5,410.5,1233.1,407.9,1237.8,405.7z"/>
			<path fill="#006F89" d="M1244.3,119.6c0,0-6.3-3.2-9.5-10c-3.2-6.7-0.3-15-0.3-15s6.3,2.5,8.9,8.6c2.7,6.1,2.7,15.5,2.7,15.5
				l4.7,1.4c0,0-5.8,0.7-7.5,7.4C1243.4,127.5,1242.7,124.5,1244.3,119.6z"/>
		</g>
		<path id="XMLID_5_" fill="#042B35" d="M178.1,898.6c0,0,13.3-2,16.8-8.2c3.5-6.1,2.2-21.1,6.9-25.1c4.7-4,12.7,0.3,7.3,9.5
			c-5.4,9.3-7.3,11.4-5.2,13.2c2.1,1.7,9.5-0.9,10.7-8.4c1.3-7.5,4.9-13.8,13.8-11.2c8.9,2.6,4,14.9-3.8,22.1
			c-7.8,7.3-19.6,2.4-24.9,7.7c-5.3,5.3-8.6,9.3-8.6,9.3L178.1,898.6z"/>
		<g>
			<g>
				<path id="XMLID_20_" fill="#042B35" d="M273.6,989.7c0,0,0.3-6.5,5.2-9.9c5-3.4,9.6,1.9,9,4.7c-0.6,2.8-4,4.8-4,4.8
					s2.3,4.9,9.8-1.1s16.1-4.4,18.9,1.7c2.8,6.1-10.1,9.9-19.5,6.9c-9.4-2.9-16.1,9.3-16.1,9.3L273.6,989.7z"/>
				<path id="XMLID_19_" fill="#042B35" d="M256.8,951.7c0,0-2.8-28.9,8.1-29.2c10.9-0.2,10.5,14.3,7.7,22.3c0,0-1.5,2.4,0,2.8
					c1.5,0.4,6.3-3.6,7.6-13.4c1.3-9.8,18.3-21.4,26.8-11.1c8.5,10.2-2,20.4-13.4,22.8c-11.4,2.4-17.7,7.6-16.1,8.8
					c1.5,1.2,9.3-4.6,16,1c6.8,5.6-3.9,15.3-28.9,10L256.8,951.7z"/>
			</g>
		</g>
		<g>
			<g>
				<path id="XMLID_24_" fill="#0D5A73" d="M846.9,940c0,0-4.7,0.2-7.5-3.1s0.8-7.1,2.8-6.8c2.1,0.3,3.7,2.6,3.7,2.6s3.4-2-1.5-7
					c-4.9-5-4.3-11.4,0-13.8c4.2-2.4,7.8,6.7,6.3,13.6c-1.5,7,7.8,11,7.8,11L846.9,940z"/>
				<path id="XMLID_23_" fill="#0D5A73" d="M820.5,954.7c0,0-20.8,3.9-21.7-3.9c-0.9-7.9,9.6-8.5,15.6-7.1c0,0,1.8,0.9,2-0.2
					c0.2-1.1-3-4.3-10.2-4.6c-7.2-0.3-16.7-11.8-9.8-18.7c6.8-6.9,14.9,0.1,17.4,8.2c2.5,8.1,6.7,12.3,7.4,11.1
					c0.7-1.2-3.9-6.4-0.3-11.7c3.6-5.3,11.4,1.8,9.2,20.3L820.5,954.7z"/>
			</g>
		</g>
	</g>
</g>
</svg>
