<?xml version="1.0" encoding="utf-8"?>
<!-- Generator: Adobe Illustrator 25.2.2, SVG Export Plug-In . SVG Version: 6.00 Build 0)  -->
<svg version="1.1" xmlns="http://www.w3.org/2000/svg" xmlns:xlink="http://www.w3.org/1999/xlink" x="0px" y="0px"
	 viewBox="0 0 600.5 357.2" style="enable-background:new 0 0 600.5 357.2;" xml:space="preserve">
<style type="text/css">
	.st0{display:none;}
	.st1{display:inline;fill:#00D8AE;}
	.st2{display:inline;fill:#D8A522;}
	.st3{display:inline;fill:#03547E;}
	.st4{display:inline;fill:#D17431;}
	.st5{display:inline;fill:#036347;}
	.st6{display:inline;fill:#FFFFFF;}
	.st7{font-family:'Roboto-Bold';}
	.st8{font-size:14px;}
	.st9{display:inline;}
	.st10{fill:#FFFFFF;}
	.st11{font-size:36px;}
	.st12{fill:#00D8AE;}
	.st13{fill:#D8A522;}
	.st14{fill:#03547E;}
	.st15{fill:#D17431;}
	.st16{fill:#036347;}
</style>
<g id="Layer_1" class="st0">
	<circle class="st1" cx="301.6" cy="183.6" r="129.4"/>
	<circle class="st2" cx="511.3" cy="270.3" r="80.4"/>
	<circle class="st3" cx="511.3" cy="96.9" r="80.4"/>
	<circle class="st4" cx="91.8" cy="270.3" r="80.4"/>
	<circle class="st5" cx="91.8" cy="96.9" r="80.4"/>
	<text transform="matrix(1 0 0 1 454.6953 276.9103)" class="st6 st7 st8">Energy Production</text>
	<text transform="matrix(1 0 0 1 36.5604 104.8907)" class="st6 st7 st8">Natural Resources</text>
	<text transform="matrix(1 0 0 1 42.7323 276.988)" class="st6 st7 st8">Transportation</text>
	<text transform="matrix(1 0 0 1 470.8232 100.8883)" class="st6 st7 st8">Employment</text>
	<text transform="matrix(1 0 0 1 250.291 153.5548)" class="st9"><tspan x="0" y="0" class="st10 st7 st11">Ocean</tspan><tspan x="39.5" y="43.2" class="st10 st7 st11">&amp;</tspan><tspan x="-23.3" y="86.4" class="st10 st7 st11">Economy</tspan></text>
</g>
<g id="Layer_1_copy">
	<circle class="st12" cx="301.6" cy="183.6" r="129.4"/>
	<circle class="st13" cx="511.3" cy="270.3" r="80.4"/>
	<circle class="st14" cx="511.3" cy="96.9" r="80.4"/>
	<circle class="st15" cx="91.8" cy="270.3" r="80.4"/>
	<circle class="st16" cx="91.8" cy="96.9" r="80.4"/>
	<g>
		<path class="st10" d="M461.6,272.6h-3.9v2.7h4.6v1.6h-6.7v-10h6.7v1.7h-4.6v2.4h3.9V272.6z"/>
		<path class="st10" d="M465.1,269.5l0.1,0.9c0.5-0.7,1.2-1,2.1-1c0.8,0,1.4,0.2,1.8,0.7s0.6,1.1,0.6,2.1v4.8h-2v-4.7
			c0-0.4-0.1-0.7-0.3-0.9c-0.2-0.2-0.5-0.3-0.9-0.3c-0.6,0-1,0.2-1.3,0.7v5.2h-2v-7.4H465.1z"/>
		<path class="st10" d="M474.6,277c-1.1,0-2-0.3-2.6-1c-0.7-0.7-1-1.6-1-2.7v-0.2c0-0.7,0.1-1.4,0.4-2c0.3-0.6,0.7-1,1.2-1.4
			c0.5-0.3,1.1-0.5,1.8-0.5c1,0,1.8,0.3,2.4,1s0.9,1.5,0.9,2.7v0.8h-4.7c0.1,0.5,0.3,0.9,0.6,1.2s0.7,0.4,1.2,0.4
			c0.8,0,1.4-0.3,1.8-0.8l1,1.1c-0.3,0.4-0.7,0.7-1.2,1C475.7,276.9,475.2,277,474.6,277z M474.3,271c-0.4,0-0.7,0.1-1,0.4
			c-0.2,0.3-0.4,0.6-0.5,1.1h2.7v-0.2c0-0.4-0.1-0.8-0.4-1C475.1,271.1,474.8,271,474.3,271z"/>
		<path class="st10" d="M482.9,271.4c-0.3,0-0.5-0.1-0.7-0.1c-0.7,0-1.2,0.3-1.5,0.8v4.8h-2v-7.4h1.9l0.1,0.9c0.4-0.7,0.9-1,1.6-1
			c0.2,0,0.4,0,0.6,0.1L482.9,271.4z"/>
		<path class="st10" d="M483.4,273.2c0-1.1,0.3-2,0.8-2.7s1.3-1,2.2-1c0.8,0,1.4,0.3,1.9,0.8l0.1-0.7h1.8v7.2c0,0.6-0.1,1.2-0.4,1.7
			s-0.7,0.8-1.2,1.1s-1.2,0.4-1.9,0.4c-0.5,0-1.1-0.1-1.6-0.3c-0.5-0.2-0.9-0.5-1.2-0.8l0.9-1.2c0.5,0.6,1.1,0.8,1.8,0.8
			c0.5,0,0.9-0.1,1.2-0.4c0.3-0.3,0.4-0.7,0.4-1.2v-0.4c-0.5,0.5-1.1,0.8-1.8,0.8c-0.9,0-1.6-0.3-2.2-1
			C483.7,275.3,483.4,274.4,483.4,273.2L483.4,273.2z M485.4,273.3c0,0.7,0.1,1.2,0.4,1.6c0.3,0.4,0.6,0.6,1.1,0.6
			c0.6,0,1-0.2,1.3-0.7v-3.1c-0.3-0.5-0.7-0.7-1.3-0.7c-0.5,0-0.8,0.2-1.1,0.6C485.5,272,485.4,272.5,485.4,273.3z"/>
		<path class="st10" d="M494.5,274.1l1.4-4.6h2.1l-3,8.5l-0.2,0.4c-0.4,1-1.2,1.4-2.2,1.4c-0.3,0-0.6,0-0.9-0.1v-1.5l0.3,0
			c0.4,0,0.7-0.1,0.8-0.2s0.3-0.3,0.4-0.6l0.2-0.6l-2.6-7.4h2.1L494.5,274.1z"/>
		<path class="st10" d="M504.4,273.4v3.5h-2.1v-10h3.9c0.7,0,1.4,0.1,2,0.4s1,0.7,1.3,1.2c0.3,0.5,0.5,1.1,0.5,1.7
			c0,1-0.3,1.7-1,2.3c-0.7,0.6-1.6,0.8-2.8,0.8H504.4z M504.4,271.7h1.8c0.5,0,1-0.1,1.2-0.4c0.3-0.3,0.4-0.6,0.4-1.1
			c0-0.5-0.1-0.9-0.4-1.2s-0.7-0.5-1.2-0.5h-1.9V271.7z"/>
		<path class="st10" d="M515.4,271.4c-0.3,0-0.5-0.1-0.7-0.1c-0.7,0-1.2,0.3-1.5,0.8v4.8h-2v-7.4h1.9l0.1,0.9c0.4-0.7,0.9-1,1.6-1
			c0.2,0,0.4,0,0.6,0.1L515.4,271.4z"/>
		<path class="st10" d="M515.8,273.1c0-0.7,0.1-1.4,0.4-2c0.3-0.6,0.7-1,1.2-1.3c0.5-0.3,1.1-0.5,1.8-0.5c1,0,1.8,0.3,2.4,0.9
			c0.6,0.6,1,1.4,1.1,2.5l0,0.5c0,1.1-0.3,2-1,2.7c-0.6,0.7-1.5,1-2.5,1s-1.9-0.3-2.6-1S515.8,274.4,515.8,273.1L515.8,273.1z
			 M517.8,273.3c0,0.7,0.1,1.2,0.4,1.6c0.3,0.4,0.6,0.6,1.1,0.6c0.5,0,0.9-0.2,1.1-0.6c0.3-0.4,0.4-1,0.4-1.8c0-0.7-0.1-1.2-0.4-1.6
			c-0.3-0.4-0.6-0.6-1.1-0.6c-0.5,0-0.9,0.2-1.1,0.6C517.9,271.9,517.8,272.5,517.8,273.3z"/>
		<path class="st10" d="M523.7,273.2c0-1.2,0.3-2.1,0.8-2.8c0.5-0.7,1.2-1,2.1-1c0.7,0,1.3,0.3,1.8,0.8v-3.8h2v10.5h-1.8l-0.1-0.8
			c-0.5,0.6-1.1,0.9-1.9,0.9c-0.9,0-1.6-0.3-2.1-1C524,275.3,523.7,274.4,523.7,273.2z M525.7,273.3c0,0.7,0.1,1.2,0.4,1.6
			c0.2,0.4,0.6,0.6,1.1,0.6c0.6,0,1-0.3,1.3-0.8v-2.9c-0.2-0.5-0.7-0.8-1.3-0.8C526.2,271,525.7,271.8,525.7,273.3z"/>
		<path class="st10" d="M536.3,276.2c-0.5,0.6-1.2,0.9-2,0.9c-0.8,0-1.4-0.2-1.8-0.7s-0.6-1.1-0.6-2v-4.8h2v4.8
			c0,0.8,0.4,1.2,1.1,1.2c0.7,0,1.1-0.2,1.4-0.7v-5.2h2v7.4h-1.9L536.3,276.2z"/>
		<path class="st10" d="M542.8,275.5c0.4,0,0.7-0.1,0.9-0.3c0.2-0.2,0.3-0.5,0.4-0.8h1.9c0,0.5-0.1,1-0.4,1.4
			c-0.3,0.4-0.6,0.7-1.1,1c-0.5,0.2-1,0.3-1.5,0.3c-1.1,0-1.9-0.3-2.5-1c-0.6-0.7-0.9-1.6-0.9-2.8v-0.1c0-1.1,0.3-2,0.9-2.7
			c0.6-0.7,1.4-1,2.5-1c0.9,0,1.7,0.3,2.2,0.8c0.6,0.5,0.8,1.2,0.9,2.1h-1.9c0-0.4-0.1-0.7-0.4-0.9c-0.2-0.2-0.5-0.4-0.9-0.4
			c-0.5,0-0.8,0.2-1,0.5c-0.2,0.3-0.4,0.9-0.4,1.6v0.2c0,0.8,0.1,1.3,0.3,1.6C542,275.3,542.4,275.5,542.8,275.5z"/>
		<path class="st10" d="M549.4,267.7v1.8h1.3v1.4h-1.3v3.7c0,0.3,0.1,0.5,0.2,0.6c0.1,0.1,0.3,0.2,0.6,0.2c0.2,0,0.4,0,0.6,0v1.5
			c-0.4,0.1-0.8,0.2-1.2,0.2c-1.4,0-2.1-0.7-2.1-2.1v-4h-1.1v-1.4h1.1v-1.8H549.4z"/>
		<path class="st10" d="M551.8,267.6c0-0.3,0.1-0.5,0.3-0.7s0.5-0.3,0.8-0.3c0.3,0,0.6,0.1,0.8,0.3c0.2,0.2,0.3,0.4,0.3,0.7
			c0,0.3-0.1,0.5-0.3,0.7c-0.2,0.2-0.5,0.3-0.8,0.3c-0.3,0-0.6-0.1-0.8-0.3C551.9,268.1,551.8,267.9,551.8,267.6z M553.9,276.9h-2
			v-7.4h2V276.9z"/>
		<path class="st10" d="M555.2,273.1c0-0.7,0.1-1.4,0.4-2c0.3-0.6,0.7-1,1.2-1.3c0.5-0.3,1.1-0.5,1.8-0.5c1,0,1.8,0.3,2.4,0.9
			c0.6,0.6,1,1.4,1.1,2.5l0,0.5c0,1.1-0.3,2-1,2.7c-0.6,0.7-1.5,1-2.5,1s-1.9-0.3-2.6-1S555.2,274.4,555.2,273.1L555.2,273.1z
			 M557.2,273.3c0,0.7,0.1,1.2,0.4,1.6c0.3,0.4,0.6,0.6,1.1,0.6c0.5,0,0.9-0.2,1.1-0.6c0.3-0.4,0.4-1,0.4-1.8c0-0.7-0.1-1.2-0.4-1.6
			c-0.3-0.4-0.6-0.6-1.1-0.6c-0.5,0-0.9,0.2-1.1,0.6C557.3,271.9,557.2,272.5,557.2,273.3z"/>
		<path class="st10" d="M565.2,269.5l0.1,0.9c0.5-0.7,1.2-1,2.1-1c0.8,0,1.4,0.2,1.8,0.7s0.6,1.1,0.6,2.1v4.8h-2v-4.7
			c0-0.4-0.1-0.7-0.3-0.9c-0.2-0.2-0.5-0.3-0.9-0.3c-0.6,0-1,0.2-1.3,0.7v5.2h-2v-7.4H565.2z"/>
	</g>
	<g>
		<path class="st10" d="M45.5,104.9h-2.1l-4-6.5v6.5h-2.1v-10h2.1l4,6.6v-6.6h2V104.9z"/>
		<path class="st10" d="M51.5,104.9c-0.1-0.2-0.2-0.4-0.2-0.7c-0.5,0.5-1.1,0.8-1.9,0.8c-0.7,0-1.3-0.2-1.8-0.6s-0.7-0.9-0.7-1.6
			c0-0.8,0.3-1.4,0.9-1.8s1.4-0.6,2.5-0.6h0.9v-0.4c0-0.3-0.1-0.6-0.3-0.8s-0.5-0.3-0.8-0.3c-0.3,0-0.6,0.1-0.8,0.2S49,99.4,49,99.7
			h-2c0-0.4,0.1-0.8,0.4-1.2s0.6-0.7,1.1-0.9s1-0.3,1.6-0.3c0.9,0,1.6,0.2,2.2,0.7s0.8,1.1,0.8,1.9v3.2c0,0.7,0.1,1.2,0.3,1.6v0.1
			H51.5z M49.9,103.5c0.3,0,0.6-0.1,0.8-0.2s0.4-0.3,0.5-0.5v-1.3h-0.7c-1,0-1.5,0.3-1.6,1l0,0.1c0,0.2,0.1,0.4,0.3,0.6
			S49.6,103.5,49.9,103.5z"/>
		<path class="st10" d="M57.1,95.7v1.8h1.3v1.4h-1.3v3.7c0,0.3,0.1,0.5,0.2,0.6s0.3,0.2,0.6,0.2c0.2,0,0.4,0,0.6,0v1.5
			c-0.4,0.1-0.8,0.2-1.2,0.2c-1.4,0-2.1-0.7-2.1-2.1v-4H54v-1.4h1.1v-1.8H57.1z"/>
		<path class="st10" d="M63.9,104.1c-0.5,0.6-1.2,0.9-2,0.9c-0.8,0-1.4-0.2-1.8-0.7s-0.6-1.1-0.6-2v-4.8h2v4.8
			c0,0.8,0.4,1.2,1.1,1.2c0.7,0,1.1-0.2,1.4-0.7v-5.2h2v7.4h-1.9L63.9,104.1z"/>
		<path class="st10" d="M71.4,99.3c-0.3,0-0.5-0.1-0.7-0.1c-0.7,0-1.2,0.3-1.5,0.8v4.8h-2v-7.4h1.9l0.1,0.9c0.4-0.7,0.9-1,1.6-1
			c0.2,0,0.4,0,0.6,0.1L71.4,99.3z"/>
		<path class="st10" d="M76.5,104.9c-0.1-0.2-0.2-0.4-0.2-0.7c-0.5,0.5-1.1,0.8-1.9,0.8c-0.7,0-1.3-0.2-1.8-0.6s-0.7-0.9-0.7-1.6
			c0-0.8,0.3-1.4,0.9-1.8s1.4-0.6,2.5-0.6h0.9v-0.4c0-0.3-0.1-0.6-0.3-0.8s-0.5-0.3-0.8-0.3c-0.3,0-0.6,0.1-0.8,0.2S74,99.4,74,99.7
			h-2c0-0.4,0.1-0.8,0.4-1.2s0.6-0.7,1.1-0.9s1-0.3,1.6-0.3c0.9,0,1.6,0.2,2.2,0.7s0.8,1.1,0.8,1.9v3.2c0,0.7,0.1,1.2,0.3,1.6v0.1
			H76.5z M74.8,103.5c0.3,0,0.6-0.1,0.8-0.2s0.4-0.3,0.5-0.5v-1.3h-0.7c-1,0-1.5,0.3-1.6,1l0,0.1c0,0.2,0.1,0.4,0.3,0.6
			S74.5,103.5,74.8,103.5z"/>
		<path class="st10" d="M81.8,104.9h-2V94.4h2V104.9z"/>
		<path class="st10" d="M90.7,101.2h-1.6v3.6H87v-10h3.7c1.2,0,2.1,0.3,2.7,0.8s1,1.3,1,2.2c0,0.7-0.1,1.2-0.4,1.7s-0.7,0.8-1.3,1.1
			l2.2,4.1v0.1h-2.2L90.7,101.2z M89.1,99.6h1.7c0.5,0,0.9-0.1,1.2-0.4s0.4-0.6,0.4-1.1c0-0.5-0.1-0.8-0.4-1.1s-0.7-0.4-1.2-0.4
			h-1.6V99.6z"/>
		<path class="st10" d="M99.2,105c-1.1,0-2-0.3-2.6-1s-1-1.6-1-2.7v-0.2c0-0.7,0.1-1.4,0.4-2s0.7-1,1.2-1.4s1.1-0.5,1.8-0.5
			c1,0,1.8,0.3,2.4,1s0.9,1.5,0.9,2.7v0.8h-4.7c0.1,0.5,0.3,0.9,0.6,1.2s0.7,0.4,1.2,0.4c0.8,0,1.4-0.3,1.8-0.8l1,1.1
			c-0.3,0.4-0.7,0.7-1.2,1S99.8,105,99.2,105z M99,99c-0.4,0-0.7,0.1-1,0.4s-0.4,0.6-0.5,1.1h2.7v-0.2c0-0.4-0.1-0.8-0.4-1
			S99.4,99,99,99z"/>
		<path class="st10" d="M107.4,102.8c0-0.2-0.1-0.4-0.4-0.6s-0.6-0.3-1.2-0.4c-1.8-0.4-2.6-1.1-2.6-2.2c0-0.7,0.3-1.2,0.8-1.6
			s1.3-0.7,2.1-0.7c0.9,0,1.7,0.2,2.3,0.7s0.8,1,0.8,1.7h-2c0-0.3-0.1-0.5-0.3-0.7s-0.5-0.3-0.9-0.3c-0.3,0-0.6,0.1-0.8,0.2
			s-0.3,0.3-0.3,0.6c0,0.2,0.1,0.4,0.3,0.5s0.6,0.3,1,0.3s0.9,0.2,1.2,0.3c1,0.4,1.6,1,1.6,2c0,0.7-0.3,1.2-0.9,1.6
			s-1.3,0.6-2.2,0.6c-0.6,0-1.2-0.1-1.7-0.3s-0.9-0.5-1.1-0.9s-0.4-0.8-0.4-1.2h1.9c0,0.4,0.1,0.6,0.4,0.8s0.6,0.3,1,0.3
			c0.4,0,0.7-0.1,0.9-0.2S107.4,103.1,107.4,102.8z"/>
		<path class="st10" d="M110.3,101.1c0-0.7,0.1-1.4,0.4-2s0.7-1,1.2-1.3s1.1-0.5,1.8-0.5c1,0,1.8,0.3,2.4,0.9s1,1.4,1.1,2.5l0,0.5
			c0,1.1-0.3,2-1,2.7s-1.5,1-2.5,1s-1.9-0.3-2.6-1S110.3,102.4,110.3,101.1L110.3,101.1z M112.2,101.3c0,0.7,0.1,1.2,0.4,1.6
			c0.3,0.4,0.6,0.6,1.1,0.6c0.5,0,0.9-0.2,1.1-0.6c0.3-0.4,0.4-1,0.4-1.8c0-0.7-0.1-1.2-0.4-1.6s-0.6-0.6-1.1-0.6
			c-0.5,0-0.9,0.2-1.1,0.6S112.2,100.5,112.2,101.3z"/>
		<path class="st10" d="M122.9,104.1c-0.5,0.6-1.2,0.9-2,0.9c-0.8,0-1.4-0.2-1.8-0.7s-0.6-1.1-0.6-2v-4.8h2v4.8
			c0,0.8,0.4,1.2,1.1,1.2c0.7,0,1.1-0.2,1.4-0.7v-5.2h2v7.4H123L122.9,104.1z"/>
		<path class="st10" d="M130.5,99.3c-0.3,0-0.5-0.1-0.7-0.1c-0.7,0-1.2,0.3-1.5,0.8v4.8h-2v-7.4h1.9l0.1,0.9c0.4-0.7,0.9-1,1.6-1
			c0.2,0,0.4,0,0.6,0.1L130.5,99.3z"/>
		<path class="st10" d="M134.4,103.4c0.4,0,0.7-0.1,0.9-0.3s0.3-0.5,0.4-0.8h1.9c0,0.5-0.1,1-0.4,1.4s-0.6,0.7-1.1,1s-1,0.3-1.5,0.3
			c-1.1,0-1.9-0.3-2.5-1s-0.9-1.6-0.9-2.8v-0.1c0-1.1,0.3-2,0.9-2.7s1.4-1,2.5-1c0.9,0,1.7,0.3,2.2,0.8s0.8,1.2,0.9,2.1h-1.9
			c0-0.4-0.1-0.7-0.4-0.9s-0.5-0.4-0.9-0.4c-0.5,0-0.8,0.2-1,0.5s-0.4,0.9-0.4,1.6v0.2c0,0.8,0.1,1.3,0.3,1.6
			C133.6,103.3,133.9,103.4,134.4,103.4z"/>
		<path class="st10" d="M142,105c-1.1,0-2-0.3-2.6-1s-1-1.6-1-2.7v-0.2c0-0.7,0.1-1.4,0.4-2s0.7-1,1.2-1.4s1.1-0.5,1.8-0.5
			c1,0,1.8,0.3,2.4,1s0.9,1.5,0.9,2.7v0.8h-4.7c0.1,0.5,0.3,0.9,0.6,1.2s0.7,0.4,1.2,0.4c0.8,0,1.4-0.3,1.8-0.8l1,1.1
			c-0.3,0.4-0.7,0.7-1.2,1S142.6,105,142,105z M141.8,99c-0.4,0-0.7,0.1-1,0.4s-0.4,0.6-0.5,1.1h2.7v-0.2c0-0.4-0.1-0.8-0.4-1
			S142.2,99,141.8,99z"/>
		<path class="st10" d="M150.2,102.8c0-0.2-0.1-0.4-0.4-0.6s-0.6-0.3-1.2-0.4c-1.8-0.4-2.6-1.1-2.6-2.2c0-0.7,0.3-1.2,0.8-1.6
			s1.3-0.7,2.1-0.7c0.9,0,1.7,0.2,2.3,0.7s0.8,1,0.8,1.7h-2c0-0.3-0.1-0.5-0.3-0.7s-0.5-0.3-0.9-0.3c-0.3,0-0.6,0.1-0.8,0.2
			s-0.3,0.3-0.3,0.6c0,0.2,0.1,0.4,0.3,0.5s0.6,0.3,1,0.3s0.9,0.2,1.2,0.3c1,0.4,1.6,1,1.6,2c0,0.7-0.3,1.2-0.9,1.6
			s-1.3,0.6-2.2,0.6c-0.6,0-1.2-0.1-1.7-0.3s-0.9-0.5-1.1-0.9s-0.4-0.8-0.4-1.2h1.9c0,0.4,0.1,0.6,0.4,0.8s0.6,0.3,1,0.3
			c0.4,0,0.7-0.1,0.9-0.2S150.2,103.1,150.2,102.8z"/>
	</g>
	<g>
		<path class="st10" d="M51.1,268.7h-3v8.3H46v-8.3h-3V267h8.1V268.7z"/>
		<path class="st10" d="M55.9,271.4c-0.3,0-0.5-0.1-0.7-0.1c-0.7,0-1.2,0.3-1.5,0.8v4.8h-2v-7.4h1.9l0.1,0.9c0.4-0.7,0.9-1,1.6-1
			c0.2,0,0.4,0,0.6,0.1L55.9,271.4z"/>
		<path class="st10" d="M60.9,277c-0.1-0.2-0.2-0.4-0.2-0.7c-0.5,0.5-1.1,0.8-1.9,0.8c-0.7,0-1.3-0.2-1.8-0.6
			c-0.5-0.4-0.7-0.9-0.7-1.6c0-0.8,0.3-1.4,0.9-1.8c0.6-0.4,1.4-0.6,2.5-0.6h0.9V272c0-0.3-0.1-0.6-0.3-0.8s-0.5-0.3-0.8-0.3
			c-0.3,0-0.6,0.1-0.8,0.2c-0.2,0.2-0.3,0.4-0.3,0.7h-2c0-0.4,0.1-0.8,0.4-1.2c0.3-0.4,0.6-0.7,1.1-0.9c0.5-0.2,1-0.3,1.6-0.3
			c0.9,0,1.6,0.2,2.2,0.7s0.8,1.1,0.8,1.9v3.2c0,0.7,0.1,1.2,0.3,1.6v0.1H60.9z M59.3,275.6c0.3,0,0.6-0.1,0.8-0.2s0.4-0.3,0.5-0.5
			v-1.3h-0.7c-1,0-1.5,0.3-1.6,1l0,0.1c0,0.2,0.1,0.4,0.3,0.6C58.7,275.5,59,275.6,59.3,275.6z"/>
		<path class="st10" d="M65.9,269.6l0.1,0.9c0.5-0.7,1.2-1,2.1-1c0.8,0,1.4,0.2,1.8,0.7c0.4,0.5,0.6,1.1,0.6,2.1v4.8h-2v-4.7
			c0-0.4-0.1-0.7-0.3-0.9c-0.2-0.2-0.5-0.3-0.9-0.3c-0.6,0-1,0.2-1.3,0.7v5.2h-2v-7.4H65.9z"/>
		<path class="st10" d="M76,274.9c0-0.2-0.1-0.4-0.4-0.6c-0.2-0.1-0.6-0.3-1.2-0.4c-1.8-0.4-2.6-1.1-2.6-2.2c0-0.7,0.3-1.2,0.8-1.6
			c0.5-0.4,1.3-0.7,2.1-0.7c0.9,0,1.7,0.2,2.3,0.7c0.6,0.4,0.8,1,0.8,1.7h-2c0-0.3-0.1-0.5-0.3-0.7s-0.5-0.3-0.9-0.3
			c-0.3,0-0.6,0.1-0.8,0.2s-0.3,0.3-0.3,0.6c0,0.2,0.1,0.4,0.3,0.5c0.2,0.1,0.6,0.3,1,0.3c0.5,0.1,0.9,0.2,1.2,0.3
			c1,0.4,1.6,1,1.6,2c0,0.7-0.3,1.2-0.9,1.6s-1.3,0.6-2.2,0.6c-0.6,0-1.2-0.1-1.7-0.3c-0.5-0.2-0.9-0.5-1.1-0.9
			c-0.3-0.4-0.4-0.8-0.4-1.2h1.9c0,0.4,0.1,0.6,0.4,0.8c0.2,0.2,0.6,0.3,1,0.3c0.4,0,0.7-0.1,0.9-0.2S76,275.2,76,274.9z"/>
		<path class="st10" d="M85.8,273.4c0,1.1-0.3,2.1-0.8,2.7c-0.5,0.7-1.2,1-2.1,1c-0.7,0-1.4-0.3-1.8-0.8v3.5h-2v-10.2H81l0.1,0.7
			c0.5-0.6,1.1-0.9,1.9-0.9c0.9,0,1.6,0.3,2.1,1c0.5,0.7,0.8,1.6,0.8,2.8V273.4z M83.8,273.2c0-0.7-0.1-1.2-0.4-1.6
			c-0.2-0.4-0.6-0.6-1.1-0.6c-0.6,0-1,0.2-1.3,0.7v3c0.2,0.5,0.7,0.7,1.3,0.7C83.4,275.5,83.8,274.8,83.8,273.2z"/>
		<path class="st10" d="M86.7,273.2c0-0.7,0.1-1.4,0.4-2s0.7-1,1.2-1.3s1.1-0.5,1.8-0.5c1,0,1.8,0.3,2.4,0.9c0.6,0.6,1,1.4,1.1,2.5
			l0,0.5c0,1.1-0.3,2-1,2.7c-0.6,0.7-1.5,1-2.5,1s-1.9-0.3-2.6-1S86.7,274.5,86.7,273.2L86.7,273.2z M88.7,273.4
			c0,0.7,0.1,1.2,0.4,1.6c0.3,0.4,0.6,0.6,1.1,0.6c0.5,0,0.9-0.2,1.1-0.6c0.3-0.4,0.4-1,0.4-1.8c0-0.7-0.1-1.2-0.4-1.6
			s-0.6-0.6-1.1-0.6c-0.5,0-0.9,0.2-1.1,0.6C88.8,272,88.7,272.6,88.7,273.4z"/>
		<path class="st10" d="M99.1,271.4c-0.3,0-0.5-0.1-0.7-0.1c-0.7,0-1.2,0.3-1.5,0.8v4.8h-2v-7.4h1.9l0.1,0.9c0.4-0.7,0.9-1,1.6-1
			c0.2,0,0.4,0,0.6,0.1L99.1,271.4z"/>
		<path class="st10" d="M102.8,267.8v1.8h1.3v1.4h-1.3v3.7c0,0.3,0.1,0.5,0.2,0.6c0.1,0.1,0.3,0.2,0.6,0.2c0.2,0,0.4,0,0.6,0v1.5
			c-0.4,0.1-0.8,0.2-1.2,0.2c-1.4,0-2.1-0.7-2.1-2.1v-4h-1.1v-1.4h1.1v-1.8H102.8z"/>
		<path class="st10" d="M109.4,277c-0.1-0.2-0.2-0.4-0.2-0.7c-0.5,0.5-1.1,0.8-1.9,0.8c-0.7,0-1.3-0.2-1.8-0.6
			c-0.5-0.4-0.7-0.9-0.7-1.6c0-0.8,0.3-1.4,0.9-1.8c0.6-0.4,1.4-0.6,2.5-0.6h0.9V272c0-0.3-0.1-0.6-0.3-0.8s-0.5-0.3-0.8-0.3
			c-0.3,0-0.6,0.1-0.8,0.2c-0.2,0.2-0.3,0.4-0.3,0.7h-2c0-0.4,0.1-0.8,0.4-1.2c0.3-0.4,0.6-0.7,1.1-0.9c0.5-0.2,1-0.3,1.6-0.3
			c0.9,0,1.6,0.2,2.2,0.7s0.8,1.1,0.8,1.9v3.2c0,0.7,0.1,1.2,0.3,1.6v0.1H109.4z M107.8,275.6c0.3,0,0.6-0.1,0.8-0.2
			s0.4-0.3,0.5-0.5v-1.3h-0.7c-1,0-1.5,0.3-1.6,1l0,0.1c0,0.2,0.1,0.4,0.3,0.6C107.2,275.5,107.5,275.6,107.8,275.6z"/>
		<path class="st10" d="M115,267.8v1.8h1.3v1.4H115v3.7c0,0.3,0.1,0.5,0.2,0.6c0.1,0.1,0.3,0.2,0.6,0.2c0.2,0,0.4,0,0.6,0v1.5
			c-0.4,0.1-0.8,0.2-1.2,0.2c-1.4,0-2.1-0.7-2.1-2.1v-4h-1.1v-1.4h1.1v-1.8H115z"/>
		<path class="st10" d="M117.4,267.7c0-0.3,0.1-0.5,0.3-0.7s0.5-0.3,0.8-0.3c0.3,0,0.6,0.1,0.8,0.3s0.3,0.4,0.3,0.7
			c0,0.3-0.1,0.5-0.3,0.7s-0.5,0.3-0.8,0.3s-0.6-0.1-0.8-0.3S117.4,268,117.4,267.7z M119.5,277h-2v-7.4h2V277z"/>
		<path class="st10" d="M120.8,273.2c0-0.7,0.1-1.4,0.4-2s0.7-1,1.2-1.3s1.1-0.5,1.8-0.5c1,0,1.8,0.3,2.4,0.9c0.6,0.6,1,1.4,1.1,2.5
			l0,0.5c0,1.1-0.3,2-1,2.7c-0.6,0.7-1.5,1-2.5,1s-1.9-0.3-2.6-1S120.8,274.5,120.8,273.2L120.8,273.2z M122.7,273.4
			c0,0.7,0.1,1.2,0.4,1.6c0.3,0.4,0.6,0.6,1.1,0.6c0.5,0,0.9-0.2,1.1-0.6c0.3-0.4,0.4-1,0.4-1.8c0-0.7-0.1-1.2-0.4-1.6
			s-0.6-0.6-1.1-0.6c-0.5,0-0.9,0.2-1.1,0.6C122.9,272,122.7,272.6,122.7,273.4z"/>
		<path class="st10" d="M130.8,269.6l0.1,0.9c0.5-0.7,1.2-1,2.1-1c0.8,0,1.4,0.2,1.8,0.7c0.4,0.5,0.6,1.1,0.6,2.1v4.8h-2v-4.7
			c0-0.4-0.1-0.7-0.3-0.9c-0.2-0.2-0.5-0.3-0.9-0.3c-0.6,0-1,0.2-1.3,0.7v5.2h-2v-7.4H130.8z"/>
	</g>
	<g>
		<path class="st10" d="M477.7,96.6h-3.9v2.7h4.6v1.6h-6.7v-10h6.7v1.7h-4.6V95h3.9V96.6z"/>
		<path class="st10" d="M481.3,93.5l0.1,0.8c0.5-0.6,1.2-1,2.1-1c1,0,1.6,0.4,2,1.1c0.5-0.8,1.3-1.1,2.2-1.1c0.8,0,1.4,0.2,1.8,0.7
			c0.4,0.5,0.6,1.2,0.6,2.1v4.7h-2v-4.7c0-0.4-0.1-0.7-0.2-0.9S487.4,95,487,95c-0.6,0-1,0.3-1.2,0.8l0,5.1h-2v-4.7
			c0-0.4-0.1-0.7-0.3-0.9c-0.2-0.2-0.5-0.3-0.9-0.3c-0.6,0-1,0.2-1.2,0.7v5.2h-2v-7.4H481.3z"/>
		<path class="st10" d="M498.2,97.3c0,1.1-0.3,2.1-0.8,2.7c-0.5,0.7-1.2,1-2.1,1c-0.7,0-1.4-0.3-1.8-0.8v3.5h-2V93.5h1.8l0.1,0.7
			c0.5-0.6,1.1-0.9,1.9-0.9c0.9,0,1.6,0.3,2.1,1s0.8,1.6,0.8,2.8V97.3z M496.3,97.1c0-0.7-0.1-1.2-0.4-1.6c-0.2-0.4-0.6-0.6-1.1-0.6
			c-0.6,0-1,0.2-1.3,0.7v3c0.2,0.5,0.7,0.7,1.3,0.7C495.8,99.4,496.3,98.7,496.3,97.1z"/>
		<path class="st10" d="M501.5,100.9h-2V90.4h2V100.9z"/>
		<path class="st10" d="M502.9,97.1c0-0.7,0.1-1.4,0.4-2c0.3-0.6,0.7-1,1.2-1.3c0.5-0.3,1.1-0.5,1.8-0.5c1,0,1.8,0.3,2.4,0.9
			c0.6,0.6,1,1.4,1.1,2.5l0,0.5c0,1.1-0.3,2-1,2.7c-0.6,0.7-1.5,1-2.5,1s-1.9-0.3-2.6-1S502.9,98.4,502.9,97.1L502.9,97.1z
			 M504.8,97.3c0,0.7,0.1,1.2,0.4,1.6c0.3,0.4,0.6,0.6,1.1,0.6c0.5,0,0.9-0.2,1.1-0.6c0.3-0.4,0.4-1,0.4-1.8c0-0.7-0.1-1.2-0.4-1.6
			c-0.3-0.4-0.6-0.6-1.1-0.6c-0.5,0-0.9,0.2-1.1,0.6C505,95.9,504.8,96.5,504.8,97.3z"/>
		<path class="st10" d="M513.7,98.1l1.4-4.6h2.1l-3,8.5l-0.2,0.4c-0.4,1-1.2,1.4-2.2,1.4c-0.3,0-0.6,0-0.9-0.1v-1.5l0.3,0
			c0.4,0,0.7-0.1,0.8-0.2c0.2-0.1,0.3-0.3,0.4-0.6l0.2-0.6l-2.6-7.4h2.1L513.7,98.1z"/>
		<path class="st10" d="M519.9,93.5l0.1,0.8c0.5-0.6,1.2-1,2.1-1c1,0,1.6,0.4,2,1.1c0.5-0.8,1.3-1.1,2.2-1.1c0.8,0,1.4,0.2,1.8,0.7
			c0.4,0.5,0.6,1.2,0.6,2.1v4.7h-2v-4.7c0-0.4-0.1-0.7-0.2-0.9s-0.5-0.3-0.9-0.3c-0.6,0-1,0.3-1.2,0.8l0,5.1h-2v-4.7
			c0-0.4-0.1-0.7-0.3-0.9c-0.2-0.2-0.5-0.3-0.9-0.3c-0.6,0-1,0.2-1.2,0.7v5.2h-2v-7.4H519.9z"/>
		<path class="st10" d="M533.5,101c-1.1,0-2-0.3-2.6-1c-0.7-0.7-1-1.6-1-2.7v-0.2c0-0.7,0.1-1.4,0.4-2s0.7-1,1.2-1.4
			s1.1-0.5,1.8-0.5c1,0,1.8,0.3,2.4,1s0.9,1.5,0.9,2.7v0.8h-4.7c0.1,0.5,0.3,0.9,0.6,1.2s0.7,0.4,1.2,0.4c0.8,0,1.4-0.3,1.8-0.8
			l1,1.1c-0.3,0.4-0.7,0.7-1.2,1S534.2,101,533.5,101z M533.3,94.9c-0.4,0-0.7,0.1-1,0.4c-0.2,0.3-0.4,0.6-0.5,1.1h2.7v-0.2
			c0-0.4-0.1-0.8-0.4-1C534.1,95.1,533.7,94.9,533.3,94.9z"/>
		<path class="st10" d="M539.5,93.5l0.1,0.9c0.5-0.7,1.2-1,2.1-1c0.8,0,1.4,0.2,1.8,0.7s0.6,1.1,0.6,2.1v4.8h-2v-4.7
			c0-0.4-0.1-0.7-0.3-0.9c-0.2-0.2-0.5-0.3-0.9-0.3c-0.6,0-1,0.2-1.3,0.7v5.2h-2v-7.4H539.5z"/>
		<path class="st10" d="M547.9,91.7v1.8h1.3v1.4h-1.3v3.7c0,0.3,0.1,0.5,0.2,0.6c0.1,0.1,0.3,0.2,0.6,0.2c0.2,0,0.4,0,0.6,0v1.5
			c-0.4,0.1-0.8,0.2-1.2,0.2c-1.4,0-2.1-0.7-2.1-2.1v-4h-1.1v-1.4h1.1v-1.8H547.9z"/>
	</g>
	<g>
		<path class="st10" d="M273.6,141.3c0,2.5-0.4,4.7-1.3,6.6s-2.2,3.4-3.8,4.4s-3.6,1.5-5.7,1.5c-2.1,0-4-0.5-5.7-1.5
			c-1.7-1-3-2.5-3.9-4.4s-1.4-4.1-1.4-6.5v-1.3c0-2.5,0.5-4.7,1.4-6.7s2.2-3.4,3.8-4.4c1.7-1,3.6-1.5,5.7-1.5s4,0.5,5.7,1.5
			s2.9,2.5,3.8,4.4s1.4,4.1,1.4,6.6V141.3z M268.3,140.2c0-2.7-0.5-4.7-1.4-6.1s-2.3-2.1-4.1-2.1c-1.8,0-3.1,0.7-4.1,2.1
			s-1.4,3.4-1.5,6.1v1.2c0,2.6,0.5,4.6,1.4,6.1s2.3,2.2,4.1,2.2c1.8,0,3.1-0.7,4.1-2.1s1.4-3.4,1.4-6.1V140.2z"/>
		<path class="st10" d="M285,149.8c0.9,0,1.7-0.3,2.3-0.8s0.9-1.2,0.9-2.1h4.8c0,1.3-0.4,2.5-1.1,3.5s-1.6,1.9-2.8,2.5
			s-2.5,0.9-4,0.9c-2.7,0-4.9-0.9-6.4-2.6s-2.4-4.1-2.4-7.2v-0.3c0-2.9,0.8-5.3,2.3-7s3.7-2.6,6.4-2.6c2.4,0,4.3,0.7,5.7,2
			s2.2,3.2,2.2,5.4h-4.8c0-1-0.3-1.8-0.9-2.4s-1.4-0.9-2.3-0.9c-1.2,0-2.1,0.4-2.7,1.3c-0.6,0.9-0.9,2.3-0.9,4.2v0.5
			c0,2,0.3,3.4,0.9,4.2C282.9,149.4,283.8,149.8,285,149.8z"/>
		<path class="st10" d="M304.6,153.9c-2.8,0-5.1-0.9-6.8-2.6s-2.6-4-2.6-6.8V144c0-1.9,0.4-3.6,1.1-5.1s1.8-2.7,3.1-3.5
			s2.9-1.2,4.6-1.2c2.6,0,4.6,0.8,6.1,2.5s2.2,4,2.2,7v2.1h-12.1c0.2,1.2,0.7,2.2,1.5,3c0.8,0.8,1.9,1.1,3.1,1.1
			c2,0,3.5-0.7,4.6-2.1l2.5,2.8c-0.8,1.1-1.8,1.9-3.1,2.5S306.2,153.9,304.6,153.9z M304,138.3c-1,0-1.8,0.3-2.5,1
			c-0.6,0.7-1,1.7-1.2,2.9h7.1v-0.4c0-1.1-0.3-2-0.9-2.6C306,138.6,305.1,138.3,304,138.3z"/>
		<path class="st10" d="M326.4,153.6c-0.2-0.5-0.4-1-0.5-1.7c-1.2,1.4-2.8,2.1-4.8,2.1c-1.9,0-3.4-0.5-4.6-1.6s-1.8-2.4-1.8-4.1
			c0-2,0.7-3.6,2.2-4.6s3.7-1.6,6.5-1.6h2.3v-1.1c0-0.9-0.2-1.6-0.7-2.1s-1.2-0.8-2.1-0.8c-0.9,0-1.5,0.2-2,0.6s-0.7,1-0.7,1.7H315
			c0-1.1,0.3-2.1,1-3.1s1.6-1.7,2.9-2.2s2.6-0.8,4.2-0.8c2.3,0,4.2,0.6,5.6,1.8s2.1,2.8,2.1,5v8.2c0,1.8,0.3,3.2,0.8,4.1v0.3H326.4z
			 M322.1,150c0.8,0,1.4-0.2,2.1-0.5s1.1-0.8,1.4-1.3v-3.3h-1.9c-2.5,0-3.9,0.9-4.1,2.6l0,0.3c0,0.6,0.2,1.2,0.7,1.6
			S321.4,150,322.1,150z"/>
		<path class="st10" d="M339.3,134.5l0.2,2.2c1.4-1.7,3.2-2.5,5.5-2.5c2,0,3.5,0.6,4.5,1.8s1.5,3,1.5,5.3v12.3h-5.1v-12.2
			c0-1.1-0.2-1.9-0.7-2.3s-1.2-0.7-2.3-0.7c-1.4,0-2.5,0.6-3.2,1.8v13.4h-5.1v-19H339.3z"/>
		<path class="st10" d="M291,189.9c0-1.2,0.3-2.3,1-3.3s1.9-2.1,3.6-3.4c-0.8-1-1.4-2-1.8-2.9s-0.7-1.8-0.7-2.8c0-2,0.6-3.6,1.9-4.9
			s3-1.9,5.1-1.9c1.9,0,3.5,0.6,4.7,1.7s1.8,2.6,1.8,4.3c0,2-1,3.8-3.1,5.4l-2,1.4l4.4,5.1c0.7-1.4,1-2.9,1-4.5h4.3
			c0,3.3-0.8,6-2.3,8.1l3.8,4.4h-5.8l-1.3-1.5c-1.9,1.2-4.1,1.9-6.5,1.9c-2.5,0-4.6-0.7-6.1-2S291,192,291,189.9z M299.6,193
			c1.2,0,2.4-0.3,3.5-1l-5-5.8l-0.4,0.3c-1,0.9-1.6,1.9-1.6,3.1c0,1,0.3,1.8,1,2.5C297.7,192.7,298.6,193,299.6,193z M297.8,177.5
			c0,0.9,0.5,2,1.5,3.3l1.4-0.9c0.7-0.4,1.2-0.9,1.4-1.3c0.3-0.4,0.4-0.9,0.4-1.5s-0.2-1.1-0.6-1.5c-0.4-0.4-1-0.7-1.7-0.7
			c-0.7,0-1.3,0.2-1.7,0.7S297.8,176.7,297.8,177.5z"/>
		<path class="st10" d="M244.9,228.9h-10.1v6.9h11.9v4.2h-17.2v-25.6h17.1v4.3h-11.8v6.1h10.1V228.9z"/>
		<path class="st10" d="M256.9,236.2c0.9,0,1.7-0.3,2.3-0.8s0.9-1.2,0.9-2.1h4.8c0,1.3-0.4,2.5-1.1,3.5s-1.6,1.9-2.8,2.5
			s-2.5,0.9-4,0.9c-2.7,0-4.9-0.9-6.4-2.6s-2.4-4.1-2.4-7.2v-0.3c0-2.9,0.8-5.3,2.3-7s3.7-2.6,6.4-2.6c2.4,0,4.3,0.7,5.7,2
			s2.2,3.2,2.2,5.4h-4.8c0-1-0.3-1.8-0.9-2.4c-0.6-0.6-1.4-0.9-2.3-0.9c-1.2,0-2.1,0.4-2.7,1.3c-0.6,0.9-0.9,2.3-0.9,4.2v0.5
			c0,2,0.3,3.4,0.9,4.2C254.8,235.8,255.7,236.2,256.9,236.2z"/>
		<path class="st10" d="M267,230.3c0-1.9,0.4-3.6,1.1-5s1.8-2.6,3.1-3.4s3-1.2,4.8-1.2c2.6,0,4.7,0.8,6.3,2.4s2.5,3.7,2.7,6.4l0,1.3
			c0,2.9-0.8,5.3-2.4,7s-3.8,2.6-6.6,2.6s-4.9-0.9-6.6-2.6s-2.5-4.1-2.5-7.2V230.3z M272.1,230.6c0,1.8,0.3,3.2,1,4.1
			c0.7,1,1.7,1.4,2.9,1.4c1.2,0,2.2-0.5,2.9-1.4c0.7-0.9,1-2.5,1-4.5c0-1.8-0.3-3.1-1-4.1c-0.7-1-1.7-1.5-2.9-1.5
			c-1.2,0-2.2,0.5-2.9,1.5C272.4,227.1,272.1,228.6,272.1,230.6z"/>
		<path class="st10" d="M292.8,220.9l0.2,2.2c1.4-1.7,3.2-2.5,5.5-2.5c2,0,3.5,0.6,4.5,1.8c1,1.2,1.5,3,1.5,5.3V240h-5.1v-12.2
			c0-1.1-0.2-1.9-0.7-2.3s-1.2-0.7-2.3-0.7c-1.4,0-2.5,0.6-3.2,1.8V240h-5.1v-19H292.8z"/>
		<path class="st10" d="M307.5,230.3c0-1.9,0.4-3.6,1.1-5s1.8-2.6,3.1-3.4s3-1.2,4.8-1.2c2.6,0,4.7,0.8,6.3,2.4s2.5,3.7,2.7,6.4
			l0,1.3c0,2.9-0.8,5.3-2.4,7s-3.8,2.6-6.6,2.6s-4.9-0.9-6.6-2.6s-2.5-4.1-2.5-7.2V230.3z M312.6,230.6c0,1.8,0.3,3.2,1,4.1
			c0.7,1,1.7,1.4,2.9,1.4c1.2,0,2.2-0.5,2.9-1.4c0.7-0.9,1-2.5,1-4.5c0-1.8-0.3-3.1-1-4.1c-0.7-1-1.7-1.5-2.9-1.5
			c-1.2,0-2.2,0.5-2.9,1.5C313,227.1,312.6,228.6,312.6,230.6z"/>
		<path class="st10" d="M333.4,220.9l0.2,2.1c1.3-1.7,3.2-2.5,5.5-2.5c2.4,0,4.1,1,5,2.9c1.3-1.9,3.2-2.9,5.7-2.9
			c2.1,0,3.6,0.6,4.6,1.8s1.5,3,1.5,5.4V240h-5.1v-12.1c0-1.1-0.2-1.9-0.6-2.4s-1.2-0.7-2.2-0.7c-1.5,0-2.6,0.7-3.2,2.2l0,13.1h-5.1
			v-12.1c0-1.1-0.2-1.9-0.7-2.4s-1.2-0.7-2.2-0.7c-1.4,0-2.5,0.6-3.1,1.8V240h-5.1v-19H333.4z"/>
		<path class="st10" d="M366.9,232.8l3.5-11.8h5.4l-7.6,22l-0.4,1c-1.1,2.5-3,3.7-5.6,3.7c-0.7,0-1.5-0.1-2.2-0.3v-3.8l0.8,0
			c1,0,1.7-0.1,2.2-0.4s0.8-0.8,1.1-1.5l0.6-1.6l-6.7-19.1h5.5L366.9,232.8z"/>
	</g>
</g>
</svg>
