<svg id="fish" xmlns="http://www.w3.org/2000/svg" viewBox="0 0 700.67 306.92"><defs><style>.cls-1{fill:#94e0f1;}.cls-2{fill:#e3f0ff;}.cls-3{fill:#cde6ff;}.cls-4{fill:#fff;}</style></defs><g id="Layer_4_copy" data-name="Layer 4 copy"><path class="cls-1" d="M870.14,465.16c-22.64-24.41-75.61-63.62-140.57-86.23a315,315,0,0,0-72-16.31C646,348.84,622.3,327.54,576.15,306c-22.24,46.73-66.73,52.56-91.75,52.56-4.08,2.72-8.16,9.44-11.26,15.58-55.37,8.93-104,21.69-139.78,35.56-35.46-8.31-108.91-28-152-56.7,5.56,33.37,47.27,77.85,66.73,97.32,0,0-61.17,35.64-66.73,83.91,31.93-17.83,119.94-29.19,150.57-32.7,14.44,7.27,30.87,14.8,48.71,22.28,15.13,29.75,50.59,32.74,92.67,60,11.93-3,25.45-10,35.43-15.8a771.94,771.94,0,0,0,85.85,18.65c-5.51,8.28-14.83,23-12.85,24.95,4.18,6.26,41.28-11,59.5-20q9.39.49,18.36.51A409.7,409.7,0,0,0,718.41,588h0C839.74,570.37,882,500.6,882,483.64,882,480,877.81,473.43,870.14,465.16Z" transform="translate(-181.33 -305.96)"/></g><g id="Layer_4_copy_3" data-name="Layer 4 copy 3"><path class="cls-1" d="M667.91,378s-13.9-35.61-91.76-72c-22.24,46.73-66.73,52.56-91.75,52.56-8.34,5.56-16.68,27.81-16.68,27.81Z" transform="translate(-181.33 -305.96)"/><path class="cls-1" d="M523.33,558.71s-27.81,19.46-50.05,25c-47.27-30.59-86.2-30.59-97.32-72.3C428.79,517,523.33,558.71,523.33,558.71Z" transform="translate(-181.33 -305.96)"/><path class="cls-1" d="M651.22,586.52s-63.94,33.36-69.51,25C578.93,608.76,598.4,581,598.4,581Z" transform="translate(-181.33 -305.96)"/><path class="cls-1" d="M248.06,450.28c-19.46-19.47-61.17-63.95-66.73-97.32,58.39,38.93,172.39,61.17,172.39,61.17L342.6,500.32s-122.34,12.13-161.27,33.87C186.89,485.92,248.06,450.28,248.06,450.28Z" transform="translate(-181.33 -305.96)"/><path class="cls-2" d="M270.31,455.84c0,30.58,241.89,136.24,389.26,136.24A409.7,409.7,0,0,0,718.41,588c11.58-28.42,26.1-71.43,27.26-110.57Z" transform="translate(-181.33 -305.96)"/><path class="cls-3" d="M745.76,472.52c0-28.9-8.26-65.29-16.19-93.59C699,368.28,665.76,361.3,631.76,361.3c-186.29,0-361.45,55.61-361.45,94.54l475.36,21.6C745.71,475.8,745.76,474.15,745.76,472.52Z" transform="translate(-181.33 -305.96)"/><path class="cls-1" d="M870.14,465.16c-22.64-24.41-75.61-63.62-140.57-86.23,7.93,28.3,16.19,64.69,16.19,93.59,0,1.63,0,3.28-.09,4.92C744.51,516.58,730,559.59,718.41,588,839.74,570.37,882,500.6,882,483.64,882,480,877.81,473.43,870.14,465.16Z" transform="translate(-181.33 -305.96)"/><path class="cls-1" d="M687.37,522.57c0-17.81-75.07,22.24-114,22.24,22.25,8.34,55.61,13.9,69.51,16.68C656.79,553.15,687.37,533.69,687.37,522.57Z" transform="translate(-181.33 -305.96)"/><ellipse class="cls-4" cx="611" cy="151.96" rx="15.99" ry="22.94"/><ellipse class="cls-1" cx="614.92" cy="151.96" rx="7.99" ry="12.74"/><path class="cls-1" d="M621.43,399.69c-26.68-3.14-31.41,20.54-2.44,24.39C583.5,433.31,580.07,387,621.43,399.69Z" transform="translate(-181.33 -305.96)"/><path class="cls-1" d="M596,454.91c-26.75-2.73-31.13,21-2.07,24.44C558.51,489.14,554.37,442.88,596,454.91Z" transform="translate(-181.33 -305.96)"/><path class="cls-1" d="M545.66,401.91c-30.59,5.56-27.81,33.37,5.56,27.81C515.07,452,495.61,401.91,545.66,401.91Z" transform="translate(-181.33 -305.96)"/><path class="cls-1" d="M545.66,479.77c-30.59,5.56-27.81,33.36,5.56,27.8C515.07,529.81,495.61,479.77,545.66,479.77Z" transform="translate(-181.33 -305.96)"/><path class="cls-1" d="M494.79,449.18c-26.94,4.9-24.49,29.39,4.9,24.49C467.85,493.27,450.71,449.18,494.79,449.18Z" transform="translate(-181.33 -305.96)"/><path class="cls-1" d="M445.4,476.49c-23.31,4.24-21.19,25.44,4.24,21.2C422.09,514.64,407.25,476.49,445.4,476.49Z" transform="translate(-181.33 -305.96)"/><path class="cls-1" d="M441.17,421.38c-23.32,4.24-21.2,25.43,4.23,21.19C417.85,459.53,403,421.38,441.17,421.38Z" transform="translate(-181.33 -305.96)"/><path class="cls-1" d="M395.28,451.94c-24.92-1.54-28.09,20.68-1,22.75C361.82,485.1,356.25,442.33,395.28,451.94Z" transform="translate(-181.33 -305.96)"/><path class="cls-1" d="M625,497.6c-23,.69-24.06,21.37,1,21C597.08,530.88,588.36,492.07,625,497.6Z" transform="translate(-181.33 -305.96)"/></g></svg>