<svg id="fishing_net" xmlns="http://www.w3.org/2000/svg" xmlns:xlink="http://www.w3.org/1999/xlink" viewBox="0 0 802 1199.08"><defs><style>.cls-1{fill:#f2f2f2;}.cls-2{opacity:0.1;}.cls-3{fill:url(#radial-gradient);}</style><radialGradient id="radial-gradient" cx="613.18" cy="757.75" r="444.18" gradientTransform="translate(626.36 -837.44) rotate(23.08) scale(1 1.94)" gradientUnits="userSpaceOnUse"><stop offset="0" stop-color="#fff"/><stop offset="0.3" stop-color="#fdfdfd"/><stop offset="0.44" stop-color="#f6f6f6"/><stop offset="0.55" stop-color="#e9e9e9"/><stop offset="0.63" stop-color="#d7d7d7"/><stop offset="0.71" stop-color="#bfbfbf"/><stop offset="0.78" stop-color="#a2a2a2"/><stop offset="0.84" stop-color="gray"/><stop offset="0.9" stop-color="#575757"/><stop offset="0.95" stop-color="#2c2c2c"/><stop offset="1"/></radialGradient></defs><g id="net"><path class="cls-1" d="M798.21,235.43l-89.61-3.19S596.19,391.69,305.21,760C-13.74,1163.71,190,1414.62,322,1428.07c250.33,25.51,548.49-94.87,604.29-515S798.21,235.43,798.21,235.43ZM923.33,918.91C868.82,1328,565.05,1449.84,320.51,1425c-128.91-13.1-329.6-262-18-655.12,284.26-358.6,402-524.88,402-524.88h97.11S977.85,509.85,923.33,918.91Z" transform="translate(-134.79 -232.24)"/><g class="cls-2"><path class="cls-3" d="M381.29,1430.4a608.26,608.26,0,0,1-61-3.08c-28.79-2.93-60-17.25-88-40.33-30.83-25.44-56-60-72.91-99.93-26.74-63.3-31.75-138.56-14.5-217.63,20.86-95.61,73.28-196.88,155.81-301C581.63,414,701.37,245.31,702.55,243.65l.7-1h99.56l.69,1c.44.66,44.68,67.83,81.61,184.14a1090.21,1090.21,0,0,1,44.51,212.94,1166,1166,0,0,1-4,278.43c-12,90-36.72,170.33-73.5,238.87-33.59,62.6-77.43,115.8-130.29,158.14-48.16,38.56-103.5,68-164.49,87.35-55.93,17.8-115.15,26.82-176,26.82Z" transform="translate(-134.79 -232.24)"/></g></g></svg>