<?xml version="1.0" encoding="utf-8"?>
<!-- Generator: Adobe Illustrator 25.2.1, SVG Export Plug-In . SVG Version: 6.00 Build 0)  -->
<svg version="1.1" id="fish_group" xmlns="http://www.w3.org/2000/svg" xmlns:xlink="http://www.w3.org/1999/xlink" x="0px" y="0px"
	 viewBox="0 0 920.7 540.5" style="enable-background:new 0 0 920.7 540.5;" xml:space="preserve">
<style type="text/css">
	.st0{fill:#8B7417;}
	.st1{fill:#E5BD92;}
	.st2{fill:#C39D6E;}
	.st3{fill:#FFFFFF;}
	.st4{fill:#94E0F1;}
	.st5{fill:#E3F0FF;}
	.st6{fill:#CDE6FF;}
	.st7{fill:#D7671E;}
	.st8{fill:#F7C191;}
	.st9{fill:#F7AA75;}
	.st10{fill:#F1E033;}
	.st11{fill:#F1E3B8;}
	.st12{fill:#F1D99A;}
</style>
<g>
	<g id="Layer_1">
		<path class="st0" d="M597.7,455.4c-13-14.1-43.6-36.7-81-49.7c-13.4-4.7-27.3-7.9-41.5-9.4c-6.7-7.9-20.3-20.2-46.9-32.6
			c-12.8,26.9-38.4,30.3-52.8,30.3c-2.4,1.6-4.7,5.4-6.5,9c-31.9,5.1-59.9,12.5-80.5,20.5c-20.4-4.8-62.7-16.1-87.6-32.7
			c3.2,19.2,27.2,44.8,38.4,56.1c0,0-35.2,20.5-38.4,48.3c18.4-10.3,69.1-16.8,86.8-18.8c8.3,4.2,17.8,8.5,28.1,12.8
			c8.7,17.1,29.1,18.9,53.4,34.5c6.9-1.7,14.7-5.7,20.4-9.1c16.3,4.5,32.8,8.1,49.5,10.7c-3.2,4.8-8.5,13.2-7.4,14.4
			c2.4,3.6,23.8-6.3,34.3-11.5c3.6,0.2,7.1,0.3,10.6,0.3c11.3,0,22.7-0.7,33.9-2.3c69.9-10.2,94.2-50.3,94.2-60.1
			C604.5,464,602.1,460.2,597.7,455.4z"/>
	</g>
	<g id="Layer_1_copy_5">
		<path class="st0" d="M481.2,405.2c0,0-8-20.5-52.9-41.5c-12.8,26.9-38.4,30.3-52.9,30.3c-4.8,3.2-9.6,16-9.6,16L481.2,405.2z"/>
		<path class="st0" d="M397.9,509.3c0,0-16,11.2-28.8,14.4c-27.2-17.6-49.7-17.6-56.1-41.7C343.4,485.3,397.9,509.3,397.9,509.3z"/>
		<path class="st0" d="M471.6,525.3c0,0-36.8,19.2-40,14.4c-1.6-1.6,9.6-17.6,9.6-17.6L471.6,525.3z"/>
		<path class="st0" d="M239.3,446.9c-11.2-11.2-35.2-36.8-38.4-56.1c33.6,22.4,99.3,35.2,99.3,35.2l-6.4,49.7c0,0-70.5,7-92.9,19.5
			C204.1,467.4,239.3,446.9,239.3,446.9z"/>
		<path class="st1" d="M252.1,450c0,17.6,139.4,78.5,224.3,78.5c11.3,0,22.7-0.7,33.9-2.3c6.7-16.4,15-41.2,15.7-63.7L252.1,450z"/>
		<path class="st2" d="M526,459.7c0-16.7-4.8-37.6-9.3-53.9c-17.6-6.1-36.8-10.2-56.3-10.2c-107.3,0-208.2,32-208.2,54.5L526,462.5
			C526,461.6,526,460.6,526,459.7z"/>
		<path class="st0" d="M597.7,455.4c-13-14.1-43.6-36.7-81-49.7c4.6,16.3,9.3,37.3,9.3,53.9c0,0.9,0,1.9,0,2.8
			c-0.7,22.5-9,47.3-15.7,63.7c69.9-10.2,94.2-50.3,94.2-60.1C604.5,464,602.1,460.2,597.7,455.4z"/>
		<path class="st0" d="M492.4,488.5c0-10.3-43.2,12.8-65.7,12.8c12.8,4.8,32,8,40,9.6C474.8,506.1,492.4,494.9,492.4,488.5z"/>
		<ellipse class="st3" cx="552.9" cy="451.3" rx="9.2" ry="13.2"/>
		<ellipse class="st0" cx="555.1" cy="451.3" rx="4.6" ry="7.3"/>
		<path class="st0" d="M454.4,417.7c-15.4-1.8-18.1,11.8-1.4,14C432.5,437.1,430.6,410.4,454.4,417.7z"/>
		<path class="st0" d="M439.7,449.5c-15.4-1.6-17.9,12.1-1.2,14.1C418.2,469.2,415.8,442.6,439.7,449.5z"/>
		<path class="st0" d="M410.8,419c-17.6,3.2-16,19.2,3.2,16C393.1,447.8,381.9,419,410.8,419z"/>
		<path class="st0" d="M410.8,463.8c-17.6,3.2-16,19.2,3.2,16C393.1,492.7,381.9,463.8,410.8,463.8z"/>
		<path class="st0" d="M381.5,446.2c-15.5,2.8-14.1,16.9,2.8,14.1C365.9,471.6,356,446.2,381.5,446.2z"/>
		<path class="st0" d="M353,462c-13.4,2.5-12.2,14.7,2.5,12.2C339.6,483.9,331,462,353,462z"/>
		<path class="st0" d="M350.5,430.2c-13.4,2.4-12.2,14.7,2.4,12.2C337.1,452.2,328.6,430.2,350.5,430.2z"/>
		<path class="st0" d="M324.1,447.8c-14.4-0.9-16.2,11.9-0.6,13.1C304.8,466.9,301.7,442.3,324.1,447.8z"/>
		<path class="st0" d="M456.5,474.1c-13.3,0.4-13.9,12.3,0.6,12.1C440.4,493.3,435.3,470.9,456.5,474.1z"/>
	</g>
</g>
<g>
	<g id="Layer_4">
		<path class="st4" d="M396.8,241.7c-13-14.1-43.6-36.7-81-49.7c-13.4-4.7-27.3-7.9-41.5-9.4c-6.7-7.9-20.3-20.2-46.9-32.6
			c-12.8,26.9-38.5,30.3-52.9,30.3c-2.4,1.6-4.7,5.4-6.5,9c-31.9,5.1-59.9,12.5-80.5,20.5C67.2,205,24.8,193.7,0,177.1
			c3.2,19.2,27.2,44.9,38.5,56.1c0,0-35.2,20.5-38.4,48.4c18.4-10.3,69.1-16.8,86.8-18.8c8.3,4.2,17.8,8.5,28.1,12.8
			c8.7,17.1,29.1,18.9,53.4,34.5c6.9-1.7,14.7-5.7,20.4-9.1c16.3,4.5,32.8,8.1,49.5,10.7c-3.2,4.8-8.5,13.2-7.4,14.4
			c2.4,3.6,23.8-6.3,34.3-11.5c3.6,0.2,7.1,0.3,10.6,0.3c11.3,0,22.7-0.7,33.9-2.4c69.9-10.2,94.3-50.4,94.3-60.1
			C403.7,250.3,401.3,246.5,396.8,241.7z"/>
	</g>
	<g id="Layer_4_copy_2">
		<path class="st4" d="M280.3,191.5c0,0-8-20.5-52.9-41.5c-12.8,26.9-38.5,30.3-52.9,30.3c-4.8,3.2-9.6,16-9.6,16L280.3,191.5z"/>
		<path class="st4" d="M197,295.6c0,0-16,11.2-28.8,14.4c-27.2-17.6-49.7-17.6-56.1-41.7C142.6,271.6,197,295.6,197,295.6z"/>
		<path class="st4" d="M270.7,311.6c0,0-36.8,19.2-40,14.4c-1.6-1.6,9.6-17.6,9.6-17.6L270.7,311.6z"/>
		<path class="st4" d="M38.4,233.1C27.2,221.9,3.2,196.3,0,177c33.6,22.4,99.3,35.2,99.3,35.2l-6.4,49.7c0,0-70.5,7-92.9,19.5
			C3.2,253.7,38.4,233.1,38.4,233.1z"/>
		<path class="st5" d="M51.3,236.3c0,17.6,139.4,78.5,224.3,78.5c11.3,0,22.7-0.7,33.9-2.3c6.7-16.4,15-41.2,15.7-63.7L51.3,236.3z"
			/>
		<path class="st6" d="M325.2,246c0-16.6-4.8-37.6-9.3-53.9c-17.6-6.1-36.8-10.2-56.4-10.2c-107.3,0-208.2,32-208.2,54.5l273.9,12.4
			C325.2,247.8,325.2,246.9,325.2,246z"/>
		<path class="st4" d="M396.8,241.7c-13-14.1-43.6-36.7-81-49.7c4.6,16.3,9.3,37.3,9.3,53.9c0,0.9,0,1.9,0,2.8
			c-0.7,22.6-9,47.3-15.7,63.7c69.9-10.2,94.3-50.3,94.3-60.1C403.7,250.3,401.3,246.5,396.8,241.7z"/>
		<path class="st4" d="M291.5,274.8c0-10.3-43.2,12.8-65.7,12.8c12.8,4.8,32,8,40,9.6C273.9,292.4,291.5,281.2,291.5,274.8z"/>
		<ellipse class="st3" cx="352" cy="237.6" rx="9.2" ry="13.2"/>
		<ellipse class="st4" cx="354.3" cy="237.6" rx="4.6" ry="7.3"/>
		<path class="st4" d="M253.6,204c-15.4-1.8-18.1,11.8-1.4,14C231.7,223.4,229.7,196.7,253.6,204z"/>
		<path class="st4" d="M238.9,235.8c-15.4-1.6-17.9,12.1-1.2,14.1C217.3,255.5,214.9,228.9,238.9,235.8z"/>
		<path class="st4" d="M209.9,205.3c-17.6,3.2-16,19.2,3.2,16C192.3,234.1,181.1,205.3,209.9,205.3z"/>
		<path class="st4" d="M209.9,250.1c-17.6,3.2-16,19.2,3.2,16C192.3,279,181.1,250.1,209.9,250.1z"/>
		<path class="st4" d="M180.6,232.5c-15.5,2.8-14.1,16.9,2.8,14.1C165.1,257.9,155.2,232.5,180.6,232.5z"/>
		<path class="st4" d="M152.1,248.2c-13.4,2.5-12.2,14.7,2.4,12.2C138.7,270.2,130.2,248.2,152.1,248.2z"/>
		<path class="st4" d="M149.7,216.5c-13.4,2.5-12.2,14.7,2.4,12.2C136.3,238.5,127.7,216.5,149.7,216.5z"/>
		<path class="st4" d="M123.3,234.1c-14.4-0.9-16.2,11.9-0.6,13.1C104,253.2,100.8,228.6,123.3,234.1z"/>
		<path class="st4" d="M255.7,260.4c-13.3,0.4-13.9,12.3,0.6,12.1C239.5,279.6,234.5,257.2,255.7,260.4z"/>
	</g>
</g>
<g>
	<g id="Layer_1_copy_4">
		<path class="st7" d="M913.9,300.3c-13-14-43.3-36.5-80.6-49.4c-13.3-4.7-27.2-7.9-41.2-9.4c-6.7-7.9-20.2-20.1-46.7-32.5
			c-12.8,26.8-38.2,30.1-52.6,30.1c-2.3,1.6-4.7,5.4-6.5,8.9c-31.7,5.1-59.6,12.4-80.1,20.4c-20.3-4.8-62.4-16-87.2-32.5
			c3.2,19.1,27.1,44.6,38.3,55.8c0,0-35.1,20.4-38.3,48.1c18.3-10.2,68.8-16.7,86.3-18.8c8.3,4.2,17.7,8.5,27.9,12.8
			c8.7,17,29,18.8,53.1,34.4c6.8-1.7,14.6-5.7,20.3-9.1c16.2,4.5,32.6,8.1,49.2,10.7c-3.2,4.8-8.5,13.2-7.4,14.3
			c2.4,3.6,23.7-6.3,34.1-11.5c3.6,0.2,7.1,0.3,10.5,0.3c11.3,0,22.6-0.7,33.7-2.3c69.5-10.1,93.8-50.1,93.8-59.8
			C920.7,308.8,918.3,305,913.9,300.3z"/>
	</g>
	<g id="Layer_1_copy">
		<path class="st7" d="M797.9,250.3c0,0-8-20.4-52.6-41.3c-12.8,26.8-38.2,30.1-52.6,30.1c-4.8,3.2-9.6,15.9-9.6,15.9L797.9,250.3z"
			/>
		<path class="st7" d="M715,353.9c0,0-15.9,11.2-28.7,14.4c-27.1-17.5-49.4-17.5-55.8-41.4C660.9,330,715,353.9,715,353.9z"/>
		<path class="st7" d="M788.4,369.8c0,0-36.7,19.1-39.9,14.4c-1.6-1.6,9.6-17.5,9.6-17.5L788.4,369.8z"/>
		<path class="st7" d="M557.3,291.7c-11.2-11.2-35.1-36.7-38.3-55.8c33.5,22.3,98.8,35.1,98.8,35.1l-6.4,49.4c0,0-70.1,7-92.5,19.4
			C522.2,312.2,557.3,291.7,557.3,291.7z"/>
		<path class="st8" d="M570,294.9c0,17.5,138.7,78.1,223.1,78.1c11.3,0,22.6-0.7,33.7-2.3c6.6-16.3,15-41,15.6-63.4L570,294.9z"/>
		<path class="st9" d="M842.6,304.5c0-16.6-4.7-37.4-9.3-53.6c-17.5-6.1-36.6-10.1-56.1-10.1c-106.8,0-207.2,31.9-207.2,54.2
			l272.5,12.4C842.5,306.4,842.6,305.4,842.6,304.5z"/>
		<path class="st7" d="M913.9,300.3c-13-14-43.3-36.5-80.6-49.4c4.5,16.2,9.3,37.1,9.3,53.6c0,0.9,0,1.9-0.1,2.8
			c-0.7,22.4-9,47.1-15.6,63.4c69.5-10.1,93.8-50.1,93.8-59.8C920.7,308.8,918.3,305,913.9,300.3z"/>
		<path class="st7" d="M809.1,333.2c0-10.2-43,12.8-65.3,12.8c12.8,4.8,31.9,8,39.8,9.6C791.6,350.7,809.1,339.5,809.1,333.2z"/>
		<ellipse class="st3" cx="869.3" cy="296.1" rx="9.2" ry="13.1"/>
		<ellipse class="st7" cx="871.5" cy="296.1" rx="4.6" ry="7.3"/>
		<path class="st7" d="M771.3,262.7c-15.3-1.8-18,11.8-1.4,14C749.5,282,747.6,255.5,771.3,262.7z"/>
		<path class="st7" d="M756.7,294.4c-15.3-1.6-17.8,12.1-1.2,14C735.2,314,732.8,287.5,756.7,294.4z"/>
		<path class="st7" d="M727.9,264c-17.5,3.2-15.9,19.1,3.2,15.9C710.3,292.7,699.2,264,727.9,264z"/>
		<path class="st7" d="M727.9,308.6c-17.5,3.2-15.9,19.1,3.2,15.9C710.3,337.3,699.2,308.6,727.9,308.6z"/>
		<path class="st7" d="M698.7,291.1c-15.5,2.8-14,16.9,2.8,14C683.2,316.4,673.4,291.1,698.7,291.1z"/>
		<path class="st7" d="M670.4,306.8c-13.4,2.4-12.2,14.6,2.4,12.1C657,328.6,648.5,306.8,670.4,306.8z"/>
		<path class="st7" d="M668,275.2c-13.4,2.4-12.2,14.6,2.4,12.2C654.6,297,646.1,275.2,668,275.2z"/>
		<path class="st7" d="M641.7,292.7c-14.3-0.9-16.1,11.9-0.6,13C622.5,311.7,619.3,287.2,641.7,292.7z"/>
		<path class="st7" d="M773.3,318.9c-13.2,0.4-13.8,12.2,0.6,12C757.3,337.9,752.3,315.7,773.3,318.9z"/>
	</g>
</g>
<g>
	<g id="Layer_1_copy_3">
		<path class="st10" d="M738.7,86.1c-12.2-13.2-40.9-34.4-76-46.7c-12.6-4.5-25.7-7.4-39-8.8c-6.3-7.4-19.1-19-44.1-30.6
			c-12,25.3-36.1,28.4-49.6,28.4c-2.2,1.5-4.4,5.1-6.1,8.4c-30,4.8-56.3,11.7-75.6,19.2C429.1,51.6,389.3,41,366,25.4
			c3,18.1,25.6,42.1,36.1,52.6c0,0-33.1,19.3-36.1,45.4c17.3-9.6,64.9-15.8,81.5-17.7c7.8,3.9,16.7,8,26.4,12.1
			c8.2,16.1,27.4,17.7,50.1,32.4c6.5-1.6,13.8-5.4,19.2-8.5c15.3,4.2,30.8,7.6,46.4,10.1c-3,4.5-8,12.4-7,13.5
			c2.3,3.4,22.3-6,32.2-10.8c3.4,0.2,6.7,0.3,9.9,0.3c10.7,0,21.3-0.7,31.8-2.2c65.6-9.5,88.5-47.3,88.5-56.5
			C745.1,94.1,742.8,90.6,738.7,86.1z"/>
	</g>
	<g id="Layer_1_copy_2">
		<path class="st10" d="M629.2,39c0,0-7.5-19.3-49.6-39c-12,25.3-36.1,28.4-49.6,28.4c-4.5,3-9,15.1-9,15.1L629.2,39z"/>
		<path class="st10" d="M551,136.7c0,0-15,10.5-27.1,13.5c-25.6-16.5-46.6-16.5-52.6-39.1C499.9,114.2,551,136.7,551,136.7z"/>
		<path class="st10" d="M620.2,151.8c0,0-34.6,18-37.6,13.5c-1.5-1.5,9-16.5,9-16.5L620.2,151.8z"/>
		<path class="st10" d="M402.1,78C391.6,67.5,369,43.4,366,25.4c31.6,21.1,93.3,33.1,93.3,33.1l-6,46.6c0,0-66.2,6.6-87.2,18.3
			C369,97.4,402.1,78,402.1,78z"/>
		<path class="st11" d="M414.1,81c0,16.5,130.9,73.7,210.6,73.7c10.7,0,21.3-0.7,31.8-2.2c6.3-15.4,14.1-38.6,14.7-59.8L414.1,81z"
			/>
		<path class="st12" d="M671.3,90.1c0-15.6-4.5-35.3-8.8-50.6c-16.5-5.8-34.5-9.5-52.9-9.5C508.9,29.9,414.1,60,414.1,81l257.2,11.7
			C671.3,91.9,671.3,91,671.3,90.1z"/>
		<path class="st10" d="M738.7,86.1c-12.2-13.2-40.9-34.4-76-46.7c4.3,15.3,8.8,35,8.8,50.6c0,0.9,0,1.8,0,2.7
			c-0.6,21.2-8.5,44.4-14.7,59.8c65.6-9.5,88.5-47.3,88.5-56.5C745.1,94.1,742.8,90.6,738.7,86.1z"/>
		<path class="st10" d="M639.8,117.2c0-9.6-40.6,12-61.7,12c12,4.5,30.1,7.5,37.6,9C623.2,133.7,639.8,123.2,639.8,117.2z"/>
		<ellipse class="st3" cx="696.5" cy="82.2" rx="8.7" ry="12.4"/>
		<ellipse class="st10" cx="698.7" cy="82.2" rx="4.3" ry="6.9"/>
		<path class="st10" d="M604.1,50.7c-14.4-1.7-17,11.1-1.3,13.2C583.6,68.9,581.7,43.9,604.1,50.7z"/>
		<path class="st10" d="M590.3,80.6c-14.5-1.5-16.8,11.4-1.1,13.2C570,99.1,567.8,74,590.3,80.6z"/>
		<path class="st10" d="M563.1,51.9c-16.5,3-15,18,3,15C546.5,79,536,51.9,563.1,51.9z"/>
		<path class="st10" d="M563.1,94c-16.5,3-15,18,3,15C546.5,121.1,536,94,563.1,94z"/>
		<path class="st10" d="M535.6,77.5c-14.6,2.6-13.2,15.9,2.7,13.2C521,101.3,511.7,77.5,535.6,77.5z"/>
		<path class="st10" d="M508.9,92.2c-12.6,2.3-11.5,13.8,2.3,11.5C496.2,112.9,488.2,92.2,508.9,92.2z"/>
		<path class="st10" d="M506.6,62.4c-12.6,2.3-11.5,13.8,2.3,11.5C494,83,485.9,62.4,506.6,62.4z"/>
		<path class="st10" d="M481.8,79c-13.5-0.8-15.2,11.2-0.5,12.3C463.7,96.9,460.7,73.8,481.8,79z"/>
		<path class="st10" d="M606,103.7c-12.5,0.4-13,11.6,0.5,11.4C590.9,121.7,586.2,100.7,606,103.7z"/>
	</g>
</g>
</svg>
