<?xml version="1.0" encoding="utf-8"?>
<!-- Generator: Adobe Illustrator 25.2.1, SVG Export Plug-In . SVG Version: 6.00 Build 0)  -->
<svg version="1.1" id="Layer_1" xmlns="http://www.w3.org/2000/svg" xmlns:xlink="http://www.w3.org/1999/xlink" x="0px" y="0px"
	 viewBox="0 0 600 400" style="enable-background:new 0 0 600 400;" xml:space="preserve">
<style type="text/css">
	.st0{fill:#F6F6F6;}
</style>
<g>
	<path class="st0" d="M585.6,125.43c-11.74,5.14-12.49,15.22-11.88,25.71c0.44,7.48,1.54,14.91,2.13,22.38
		c1.23,15.6-1.35,30.88-3.86,46.19c-1.56,9.52-3.18,19.09-3.77,28.7c-0.97,15.88,2.15,30.8,13.61,43.05
		c-0.25,0.44-0.49,0.87-0.74,1.31c-4.39-0.97-8.84-1.71-13.15-2.94c-16.61-4.74-29.85-15.07-42.82-25.91
		c-12.9-10.77-25.56-21.92-39.23-31.64c-7.13-5.07-16.15-7.55-24.45-10.86c-1.27-0.51-4.24,0.33-4.82,1.4
		c-10.66,19.99-27.68,32.87-48.03,41.01c-21.77,8.7-40.19,21.99-57.54,37.22c-18.91,16.61-38.27,32.63-60.02,45.49
		c-12.37,7.31-25.02,14-39.36,16.49c-21.5,3.74-40.16-3.15-56.78-16.25c-12.94-10.2-25.35-21.06-38.18-31.4
		c-7.11-5.73-15.08-10.48-21.72-16.69c-4.49-4.19-7.64-9.97-10.77-15.39c-1.6-2.77-3.1-4.54-6.27-5.63
		c-5.6-1.93-10.92-4.67-17.42-7.54c3.88,13.94,7.43,26.99,5.25,41.2c-8.82-2.65-14.88-7.84-19.7-14.6
		c-7.52-10.55-10.48-22.23-7.75-35.01c0.92-4.34-0.22-6.53-4.33-8.47c-4.42-2.09-8.23-5.46-12.33-8.25
		c-1.22-0.83-2.4-1.86-3.76-2.32c-16.39-5.55-28.01-17.56-39.81-29.32c-0.58-0.58-1.03-1.32-1.44-2.04
		c-2.12-3.66-3.72-7.91-0.1-10.97c3.46-2.93,7.17-0.5,10.33,1.97c2.49,1.95,5.09,3.75,7.65,5.61c0.58-0.54,1.17-1.08,1.75-1.61
		c-2.1-3.11-3.99-6.4-6.38-9.27c-2.12-2.53-4.92-4.48-7.23-6.87c-6.5-6.7-5.43-15.58,2.69-20.06c10.19-5.63,20.68-10.72,30.85-16.38
		c2.21-1.23,4.39-3.59,5.27-5.92c3.56-9.46,10.56-15.38,19.42-19c22.33-9.12,44.83-17.79,67.25-26.69
		c12.52-4.97,25.11-9.8,37.44-15.22c3.78-1.66,7.89-4.4,9.96-7.8c8.03-13.2,19.81-21.24,33.68-26.95
		c10.3-4.24,20.48-8.77,30.75-13.08c2.14-0.9,4.41-1.54,6.67-2.06c13.16-2.99,21.04,0.09,28.52,11.67
		c4.78,7.4,9.11,15.1,13.54,22.73c11.52,19.82,28.32,33.53,48.65,43.74c19.02,9.55,37.77,19.7,56.15,30.43
		c11.55,6.75,20.95,16.32,29.09,27.08c1.42,1.88,4.61,3.1,7.11,3.37c26.96,2.9,49.86-6.95,70.91-22.78
		c13.3-10.01,26.73-20.02,42.95-24.94c6.88-2.09,14.04-3.24,21.08-4.81C584.96,124.15,585.28,124.79,585.6,125.43z M556.32,144.78
		c-19.73,10.78-39.47,21.55-59.2,32.33c0.25,0.49,0.49,0.98,0.74,1.48c7.66-3.76,15.38-7.43,22.98-11.32
		c7.83-4,15.37-8.62,23.37-12.22c7.54-3.39,15.51-5.81,23.3-8.66c-0.16-0.51-0.33-1.02-0.49-1.53c-3.61,0-7.22,0-10.82,0
		c1.86-0.54,3.73-1.06,5.59-1.62c2.5-0.76,6.02-0.8,7.28-2.5c2.75-3.72,4.36-8.29,6.82-13.3c-26.15,7.75-45.12,26.02-66.57,40.13
		c6.02-3,11.74-6.53,17.52-9.95C536.12,152.12,545.42,146.6,556.32,144.78z M173.04,178.01c2.13-0.24,3.57-0.69,4.92-0.5
		c9.2,1.32,18.53,2.16,27.52,4.35c11.28,2.75,22.13,7.31,33.44,9.89c23.33,5.32,47.1,3.69,70.72,2.71
		c53.63-2.23,107.26-3.69,160.92-1.62c5.07,0.2,10.15,0.03,15.23,0.03c-0.9-0.71-1.85-0.93-2.82-0.99
		c-25.76-1.55-51.52-4.51-77.27-4.29c-40.29,0.34-80.57,2.79-120.85,4.43c-19.12,0.78-37.87-0.34-55.99-7.51
		c-14.69-5.81-29.68-10.85-44.54-16.23c1.11,0.52,2.65,0.19,3.99,0.57c10.05,2.83,20.07,5.77,30.07,8.75
		c12.24,3.65,24.24,9.14,36.73,10.61c15.1,1.78,30.63,0.82,45.91-0.08c59.6-3.52,119.17-5.8,178.73,0.42
		c4.74,0.49,9.49,0.92,15.47,1.49c-1.54-2.62-2.26-4.69-3.66-6.07c-4.64-4.56-10.46-3.9-16.39-3.72
		c-11.77,0.35-23.81,1.58-35.29-0.31c-34.98-5.76-65.79-21.67-94.74-41.62c-8.05-5.55-16.32-11.03-25.13-15.18
		c-15.62-7.36-32.55-10.36-49.53-13.12c-30.33-4.93-60.53-4.65-90.2,3.33c-37.67,10.13-73.77,24.79-109.54,40.23
		c-1.31,0.57-2.51,1.39-3.64,2.03c1.98,8.33,0.8,12.22-4.5,15.8c-6.1,4.11-12.44,4.01-18.64-0.16c-1.48-0.99-3.19-1.64-5.85-2.98
		c2.03,8,9.3,6.52,12.93,10.34c-2,0.24-4.05,0.42-5.67-0.33c-2.99-1.39-5.73-3.33-8.58-5.03c-2.89-1.73-5.55-1.95-8.12,1.49
		c5.4,7.43,10.78,14.84,16.57,22.81c3.54-10.62,7.52-13.81,14.93-12.83c6.08,0.8,10.38,4.81,10.38,10.25c0,2.2-0.43,5.44-1.88,6.41
		c-4.45,2.98-9.48,5.09-14.27,7.53c2.68,3.76,5.85,8.58,9.44,13.08c1.12,1.41,3.4,2.79,5.06,2.7c4.3-0.24,8.55-1.31,12.82-2.05
		c0.11,0.39,0.21,0.77,0.32,1.16c-4.06,1.05-8.15,1.97-12.16,3.19c-2.58,0.78-5.42,1.51-7.45,3.13c-3.38,2.7-6.51,3.11-10.02,0.78
		c-2.35-1.57-4.55-3.38-6.94-4.88c-2.37-1.48-4.9-2.72-8.43-4.64c0.71,2.01,0.76,2.56,1.05,2.91c14.69,17.72,43.3,21.44,62.14,8.11
		c7.5-5.3,10.4-13.26,7.57-21.92c-1.76-5.36-4.35-10.46-6.07-15.83c-0.97-3.01-0.94-6.35-1.36-9.54c0.56-0.06,1.11-0.12,1.67-0.18
		c6.65,14.97,16.33,29.45,6.85,46.92c10.19,2.13,16.94-1.62,20.73-10.31c4.3-9.86,9.29-19.42,13.71-29.23
		c0.56-1.24-0.01-3.91-1.02-4.77c-5.58-4.72-11.44-9.09-17.24-13.54c-1.42-1.09-2.98-2-4.48-2.99c10.73,3.14,19.51,9.2,27.27,16.85
		c2.42,2.39,1.7,4.35-0.08,6.96c-3.53,5.16-7.01,10.47-9.62,16.12c-4.53,9.8-7.82,20.19-12.68,29.8
		c-5.08,10.04-13.84,15.48-25.38,15.86c-1.52,0.05-3.03,0.37-5.38,0.66c6.34,7.23,13.16,12.2,21.27,14.22
		c6.85,1.71,12.32,5.3,18.17,8.76c9.14,5.4,18.4,10.89,28.22,14.8c27.57,10.98,56.58,14.74,86.1,15.08
		c28.09,0.33,53.57-6.41,76.68-23.67c17.66-13.19,37.36-23.66,56.18-35.29c13.16-8.13,26.07-16.75,39.64-24.13
		c16.8-9.14,34.14-15.31,53.91-7.87c9.36,3.52,20.64-4.56,22.95-14.29c0.72-3.04,0.23-4.75-3.38-4.92
		c-5.49-0.26-10.95-0.98-16.44-1.33c-55.64-3.54-111.26-2.5-166.86,0.74c-35.82,2.09-71.21,1.16-105.39-11.94
		C195.47,183.43,184.51,181.24,173.04,178.01z M168.52,303.7c18.86,23.25,41.48,41.03,69.44,51.34c7.41,2.73,15.17,2.91,23.95-0.92
		c-2.38-1.03-3.62-1.67-4.92-2.11c-25.58-8.75-48.3-22.05-67.33-41.52C184.06,304.76,175.8,305.54,168.52,303.7z M232.98,100.93
		c11.5,2.29,11.63,2.31,15.82-6.98c6.39-14.18,14.24-27.37,24.99-38.75c3.37-3.56,6.24-7.6,9.36-11.44
		c-5.63-4.08-15.02-3.49-18.73,1.02c-4.64,5.64-9.21,11.37-13.36,17.37C242.92,73.92,236.39,86.49,232.98,100.93z M573.29,288.65
		c-2.61-5.84-4.9-11.34-7.56-16.67c-0.65-1.31-2.38-2.22-3.78-3c-16.38-9.12-32.89-18.02-49.17-27.33
		c-7.91-4.52-15.39-9.77-23.07-14.69C540.95,272.54,557.77,284.82,573.29,288.65z M255.22,102.7c3.58,0.54,6.2,1.28,8.78,1.17
		c1.48-0.06,3.48-1.14,4.26-2.39c8.1-12.96,15.98-26.06,23.97-39.09c2.79-4.54,1.98-7.64-3.24-10.79
		C274.86,66.35,261.27,81.46,255.22,102.7z M248.51,50.42c-5.56,1.8-9.84,3.01-13.96,4.63c-1.39,0.54-2.73,1.93-3.47,3.27
		c-4.55,8.29-9.2,16.54-13.26,25.07c-2.77,5.82-4.64,12.06-7.02,18.42c10.99,0.96,11.5,0.42,14.52-7.92
		c2.25-6.21,4.8-12.38,7.95-18.17C237.78,67.45,242.97,59.55,248.51,50.42z M206.73,311.39c-0.38,0.52-0.77,1.03-1.15,1.55
		c2.02,1.66,3.88,3.58,6.08,4.95c13.21,8.25,26.33,16.67,39.85,24.39c5.09,2.91,11.05,4.46,16.79,5.98
		c3.66,0.97,7.71,0.92,11.04-2.99c-4.95-1.8-9.3-3.29-13.58-4.96c-14.33-5.58-27.64-12.99-39.95-22.22
		C220.15,313.87,214.05,310.7,206.73,311.39z M563.63,260.28c0.17-3.6,0.13-6.21,0.44-8.77c0.48-3.99-1.03-5.6-5.04-6.88
		c-15.34-4.89-30.49-10.39-45.7-15.69c-2.2-0.76-4.34-1.67-6.52-2.5c-1.96-0.75-3.93-1.5-5.9-2.25
		C520.21,238.43,540.37,250.84,563.63,260.28z M84.69,257.74c-6.64,15.95,3.13,42.19,18.16,45.63c-1.05-6.01-1.82-11.44-2.97-16.79
		c-1.11-5.18-3.1-10.21-3.82-15.42C95.22,265.08,91.53,260.01,84.69,257.74z M237.72,314.48c0.7,1.46,0.76,1.87,1,2.03
		c14.83,9.95,30.48,18.32,47.45,24.05c3.51,1.18,8.18-1.43,9.58-4.13c-12.39-6.31-25.13-12.02-37.03-19.15
		C251.74,313.11,245.16,315.1,237.72,314.48z M509.27,176.61c9.2-2.81,18.63-6.52,28.41-8.42c8.89-1.72,18.17-1.38,27.26-2.19
		c1.56-0.14,4.25-1.38,4.29-2.23c0.19-3.61-0.26-7.29-0.78-10.89c-0.38-2.62-1.96-3.5-4.71-2.65
		C544.07,156.33,526.34,166.39,509.27,176.61z M276.5,105.75c4.01,0.85,6.33,1.09,8.45,1.86c3.49,1.27,4.92-0.27,6.45-3.25
		c4.24-8.23,8.92-16.23,13.31-24.39c0.63-1.18,1.25-3.04,0.76-4.02c-1.45-2.88-3.46-5.47-6.22-9.65
		C291.39,79.95,284.25,92.33,276.5,105.75z M503.14,213.57c-0.17,0.46-0.35,0.92-0.52,1.38c1.34,0.81,2.61,1.76,4.02,2.41
		c7.09,3.24,14.02,6.97,21.37,9.47c10.33,3.52,20.96,6.19,31.52,8.99c1.44,0.38,4.09-0.05,4.74-1.05c2.83-4.31-0.09-8.89-5.08-9.7
		c-13.56-2.2-27.07-4.7-40.56-7.34C513.41,216.7,508.31,214.98,503.14,213.57z M509.6,206.45c1.58,1.34,1.99,1.99,2.51,2.09
		c17.08,3.36,34.17,6.68,51.28,9.9c0.87,0.16,2.35-0.48,2.86-1.22c3.45-5.04,1.55-9.16-4.47-9.4c-14.1-0.57-28.2-0.94-42.3-1.35
		C516.6,206.37,513.72,206.45,509.6,206.45z M507.99,197.72c1.54,0.65,1.85,0.91,2.13,0.89c18.8-1.48,37.58-2.42,56.28,1.09
		c3.5,0.66,3.61-1.98,4.16-4.24c0.69-2.85-0.82-3.99-3.31-4.41C547.23,187.65,527.95,190.62,507.99,197.72z M571.42,182.27
		c-0.52-3.45,1.9-8.16-4.27-8.22c-17.72-0.18-35.19,1.3-51.49,9.09c-3.32,1.59-6.35,3.77-10.53,6.3c11.93-2.6,22.32-5.79,32.93-6.91
		C548.84,181.37,559.83,182.27,571.42,182.27z M219.16,62.87c-15.95,9.77-27.65,27.01-26.74,41.25c3.56-0.42,7.74,1.35,9.84-3.43
		c4.26-9.7,8.5-19.4,12.78-29.09C216.21,68.96,217.5,66.38,219.16,62.87z M160.89,298.8c-0.54,0.54-1.07,1.08-1.61,1.62
		c8.29,19.64,57.04,60.36,77.38,56.92c-0.88-0.46-1.58-0.83-2.3-1.18c-0.74-0.36-1.49-0.72-2.26-1.03
		c-25.01-10.36-46.62-25.31-63.42-46.8C166.16,305.09,163.49,301.97,160.89,298.8z M311.67,327.43c-0.24-0.45-0.48-0.9-0.72-1.34
		c-7.56-4.11-15.04-8.37-22.7-12.29c-5.49-2.81-11.23-3.49-18.13,0.04c10.87,6.76,20.31,14.24,32.56,15.79
		C305.54,329.99,308.66,328.22,311.67,327.43z M327.35,313.26c-5.18-3.54-10.34-7.11-15.58-10.58c-0.75-0.5-2.03-0.89-2.76-0.59
		c-3.88,1.56-7.67,3.36-11.95,5.29c1.3,1.21,1.91,2.02,2.72,2.5c4.27,2.56,8.51,5.19,12.9,7.52
		C320.01,321.3,322.62,320.5,327.35,313.26z M23.8,178.25c-1.53,5.66-0.9,7.75,3.51,10.32c7.69,4.49,11.94,11.19,14.43,19.47
		c1.09,3.64,2.4,7.37,4.43,10.53c1.99,3.1,4.75,5.88,7.66,8.18c2.84,2.25,4.77,0.42,3.82-2.59c-1.17-3.7-3.03-7.35-5.31-10.5
		c-5.93-8.19-12.17-16.17-18.47-24.09C30.73,185.63,27.17,182.02,23.8,178.25z M194.47,309.34c9.46,15.35,55.97,41.87,69.14,40.23
		c-23.46-9-44.22-20.81-62.26-37.13C199.58,310.83,196.79,310.35,194.47,309.34z M418.11,155.05c-5.72-9.46-23.38-8.56-31.16,1.78
		c4.75,1.75,9.46,5.1,13.8,4.67C406.56,160.93,412.09,157.44,418.11,155.05z M287.46,47.5c-0.41-0.32-0.82-0.64-1.24-0.96
		c-0.59,0.27-1.3,0.4-1.74,0.82C270.02,61.42,258.57,77.63,250.24,96c-0.79,1.74-0.48,3.97-0.68,5.97c0.45,0.18,0.9,0.36,1.36,0.53
		c0.98-1.15,2.33-2.14,2.87-3.47c6.78-16.49,16.45-31.04,28.67-43.99C284.49,52.87,285.81,50.03,287.46,47.5z M368.35,145
		c0.08,0.78,0.16,1.57,0.23,2.35c2.91,1.24,6.4,4.16,8.64,3.4c6.88-2.35,13.28-6.11,20.96-9.85c-4.5-2.34-7.78-4.22-11.22-5.76
		c-1.22-0.55-3.21-0.91-4.16-0.29C377.86,138.04,373.14,141.58,368.35,145z M420.31,251.52c-3.71-3.17-7.03-6.14-10.52-8.89
		c-1.04-0.82-3.02-1.76-3.85-1.31c-3.82,2.06-7.39,4.59-11.12,7C404.41,260.18,408.83,260.88,420.31,251.52z M310.71,84.99
		c-3.7,7.32-7.35,14.49-10.96,21.68c-0.88,1.75-2.28,4.01,0.82,4.74c2.61,0.62,5.81,3.62,7.93-1.22c1.72-3.93,3.84-7.71,6-11.43
		C318.54,91.79,318.37,90.78,310.71,84.99z M375.88,129.93c-7.34-7.51-21.32-3.65-25.01,6.34c2.05,1.4,4.04,2.89,6.17,4.14
		c1.06,0.62,2.88,1.5,3.5,1.06C365.75,137.8,370.77,133.84,375.88,129.93z M343.22,300.33c-4.18-2.95-8-5.81-12.02-8.37
		c-1.21-0.77-3.29-1.39-4.4-0.87c-2.64,1.24-4.94,3.21-8.33,5.54c3.52,2.89,6.3,5.7,9.57,7.74
		C335.4,308.99,338.07,308.17,343.22,300.33z M566.45,204.14c-9.03-5.77-55.55-5.64-60.79,0
		C525.83,204.14,545.49,204.14,566.45,204.14z M130.95,284.74c3.68,9.49,23.28,25.57,31.14,26.47c-3.84-9-9.13-16.74-19.27-20.12
		C138.89,289.78,135.39,287.16,130.95,284.74z M228.81,101.44c7.97-19.35,16.46-38.42,29.69-54.91
		C247.35,51.37,225.27,91.98,228.81,101.44z M345.34,278.96c-2.3,1.53-5.13,3.43-7.97,5.32c2,2.21,3.89,4.53,6.03,6.59
		c1.17,1.12,2.65,2.15,4.18,2.59c1.54,0.45,3.79,0.78,4.89-0.01c2.58-1.85,4.66-4.39,6.94-6.65c-2.35-1.93-4.56-4.09-7.12-5.71
		C350.71,280.09,348.59,279.91,345.34,278.96z M491.02,223.65c0.58,0.74,0.79,1.21,1.14,1.43c21.28,12.91,42.54,25.84,63.89,38.62
		c2.04,1.22,4.67,1.47,7.02,2.17c0.29-0.69,0.58-1.39,0.88-2.08c-22.34-11.37-45.4-21.5-65.23-37.13c-1.67-1.32-3.68-2.23-5.59-3.21
		C492.71,223.22,492.01,223.54,491.02,223.65z M323.6,98.85c-2.63,4.8-5.15,8.98-7.19,13.39c-0.55,1.2-0.1,4.13,0.64,4.43
		c2.84,1.17,7.25,3.17,8.76,1.97c3.42-2.74,5.46-7.19,8.19-11.12C330.47,104.57,327.36,101.98,323.6,98.85z M355.43,119.95
		c-2.68-1.48-4.39-2.45-6.12-3.38c-9.3-5.02-9.38-5.06-14.64,3.95c-0.7,1.2-0.87,4.01-0.17,4.5c2.7,1.9,6.63,5.08,8.67,4.25
		C347.51,127.51,350.96,123.54,355.43,119.95z M496.74,217.37c-0.17,0.44-0.34,0.88-0.52,1.32c21.74,9.17,42.74,20.46,66.53,23.8
		c0.14-0.39,0.27-0.78,0.41-1.17C541.02,233.33,518.88,225.35,496.74,217.37z M437.56,239.94c-3.42-2.71-5.77-4.51-8.05-6.39
		c-4-3.32-8.25-3.17-12.18,1.07c-3.58,3.87,1.54,5.15,2.81,7.52c0.76,1.42,1.97,2.86,3.34,3.63c1.38,0.77,3.63,1.49,4.76,0.87
		C431.35,244.95,434.06,242.54,437.56,239.94z M43.05,166.35c5.87,7.2,18.63,6.48,22.21-0.37c0.84-1.6,0.81-4.41-0.08-5.9
		c-0.7-1.16-3.71-2.01-5.1-1.47C54.46,160.78,49.07,163.55,43.05,166.35z M398.13,262.73c-2.94-2.55-5.31-4.92-7.99-6.87
		c-2.8-2.04-13.16,2.09-14.05,5.4c-0.08,0.31-0.1,0.65-0.06,0.97c0.41,3.34,7.88,7.65,10.95,6.2
		C390.38,266.83,393.69,265.01,398.13,262.73z M507.36,194.6c20.24-6.03,40.72-9.17,61.86-6.72
		C559.48,180.25,520,184.71,507.36,194.6z M563.01,170.01c-21.32-2.8-40.92,1.33-58.28,14.41
		C523.31,176.11,542.71,171.16,563.01,170.01z M297.87,62.13c-7.45,4.38-26.4,37.23-24.72,43.5c1.71-2.11,3.19-3.46,4.09-5.12
		c2.36-4.36,4.26-8.97,6.72-13.26c3.79-6.62,7.93-13.04,11.82-19.61C296.61,66.25,296.96,64.59,297.87,62.13z M227.09,313.55
		c-0.19,0.6-0.39,1.2-0.58,1.8c16.13,10.74,32.02,21.97,51.7,25.67c-15.83-7.32-31.47-14.94-45.31-25.79
		C231.42,314.08,229.04,314.08,227.09,313.55z M124.66,234.46c-0.43-0.57-0.85-1.14-1.28-1.7c-8.78,3.78-19.59-0.35-27.35,7.81
		c7.71,1.84,15.46,2.62,22.94,0.35C121.3,240.21,122.78,236.69,124.66,234.46z M376.79,274.75c-4.37-6.63-9.79-8.21-15.84-5.06
		c-3.45,1.79-4.46,3.83-1.2,6.74c2.21,1.98,4.39,3.99,6.67,6.07C370.03,279.8,373.42,277.27,376.79,274.75z M558.39,220.89
		c-18.22-3.62-36.45-7.23-54.67-10.85c-0.08,0.43-0.17,0.85-0.25,1.28C521.52,216.16,539.24,222.63,558.39,220.89z M98.23,128.26
		c-8.37-0.34-16.39,6.81-16.39,14.6C92.4,141.53,96.41,137.96,98.23,128.26z M205.24,101.74c0.39,0.19,0.78,0.37,1.17,0.56
		c7-14.66,14.01-29.31,21.01-43.97C217.56,71.62,208.33,85.21,205.24,101.74z M157.84,114.11c10.32-1.98,12.03-4.66,9.26-14.02
		C156.1,102.39,156.36,102.32,157.84,114.11z M186.5,91.78c-10.59,2.55-12.93,6.79-9.69,16.96c2.23-1.01,5.64-1.46,6.3-3.06
		C184.84,101.55,185.35,96.91,186.5,91.78z M260.81,314.42c10.64,7.68,21.35,15.22,34.93,16.55
		C283.3,327.1,273.95,316.77,260.81,314.42z M431.62,169.45c-0.61-5.04-4.31-5.96-7.81-6.58c-4.26-0.75-8.26,0.05-11.81,3.98
		C418.79,169.38,424.74,172.07,431.62,169.45z M293.46,108.94c6.86-8.32,11.74-17.7,14.73-28.09
		C301.34,89.17,295.75,98.17,293.46,108.94z M84.88,244.07c10.5,5.6,25.2,6.07,29.67,0.93C104.6,246.57,95.48,240.89,84.88,244.07z
		 M148.56,107.69c-8.33,1.02-11.22,5.02-9.13,12.58C148.62,119.4,150.62,116.65,148.56,107.69z M312.84,321.65
		c-7.95-3.54-13.08-13.19-23.6-11.16C296.43,315.68,303.52,321.07,312.84,321.65z M123.05,126.56c7.73-1.43,8.61-2.71,8.3-11.59
		C122.97,115.32,121.08,117.84,123.05,126.56z M95.42,250.86c-7.92-1.8-15.26-6.65-25.35-4.97
		C78.86,251.08,86.79,252.83,95.42,250.86z M49.83,192.39c3.64,0.16,6.46,0.03,9.19,0.47c2.79,0.45,5.48,1.45,8.61,2.31
		c-0.7-5.37-3.83-7.23-7.91-7.71C55.84,187.01,52.24,187.67,49.83,192.39z M435.1,224.21c-0.42,1.02-0.84,2.05-1.26,3.07
		c2.69,1.82,5.22,4.05,8.16,5.24c1.07,0.43,3.14-1.6,4.75-2.51c-0.73-1.28-1.19-3.32-2.25-3.69
		C441.5,225.25,438.25,224.86,435.1,224.21z M19.85,204.22c1.69,7.55,8.67,12.01,18.22,11.22
		C32.23,211.84,26.39,208.25,19.85,204.22z M105.11,134.04c3.33-1.32,5.88-1.58,7.05-2.99c1.39-1.67,1.86-4.28,2.17-6.56
		c0.11-0.78-1.59-2.62-2.28-2.53c-1.48,0.18-3.6,0.96-4.12,2.1C106.69,126.76,106.23,129.81,105.11,134.04z M309.88,112.5
		c0.46,0.26,0.93,0.53,1.39,0.79c4.67-3.38,9.68-13.56,8.36-18.7C316.1,101.06,312.99,106.78,309.88,112.5z M313.04,300.59
		c6.01,3.99,11.04,7.34,16.07,10.68c0.25-0.4,0.51-0.79,0.76-1.19C323.16,302.14,318.41,299.08,313.04,300.59z M403.15,145.01
		c-8.37-0.82-18.65,3.71-21.26,9.18C388.92,151.15,395.56,148.28,403.15,145.01z M348.05,132.91c3.94-2.96,7.89-5.92,12.57-9.44
		C353.96,123.14,349.79,126.07,348.05,132.91z M363.92,141.98c0.58,0.79,1.16,1.57,1.74,2.36c3.99-3.23,7.98-6.46,11.96-9.69
		c-0.42-0.56-0.83-1.11-1.25-1.67C372.21,135.98,368.06,138.98,363.92,141.98z M333.99,287.17c-0.57,0.87-1.15,1.73-1.72,2.6
		c4.06,2.62,8.11,5.25,12.17,7.87c0.45-0.67,0.9-1.35,1.34-2.02C341.85,292.81,337.92,289.99,333.99,287.17z M419.86,160.03
		c-0.08-0.42-0.16-0.84-0.24-1.26c-5.34-0.35-10.09,1.07-14.18,4.52c0.17,0.52,0.34,1.05,0.51,1.57
		C410.58,163.25,415.22,161.64,419.86,160.03z M363.2,283.08c-3.22-2.73-6.43-5.47-9.65-8.2
		C353.77,280.4,357.81,283.68,363.2,283.08z M173.52,97.53c-4.5,3.91-4.66,8.92-0.73,11.98
		C173.06,105.11,173.29,101.32,173.52,97.53z M420.07,250.47c0.63-0.68,1.26-1.37,1.89-2.05c-2.82-3.61-4.73-8.18-9.48-9.73
		c-0.68,0.69-1.36,1.39-2.04,2.08C413.65,244.01,416.86,247.24,420.07,250.47z M400.32,260.78c-1.25-6.48-5.02-9.49-10.18-8.4
		C393.84,255.44,397.08,258.11,400.32,260.78z M328.05,120.37c0.73,0.55,1.46,1.1,2.19,1.66c2.47-3.64,4.95-7.27,7.42-10.91
		c-0.59-0.42-1.18-0.84-1.77-1.26C333.27,113.36,330.66,116.86,328.05,120.37z M72.42,140.77c-0.52-0.25-1.04-0.51-1.57-0.76
		c-1.63,2.92-3.26,5.83-4.89,8.75c0.55,0.3,1.1,0.61,1.66,0.91C71.39,147.94,72.73,144.82,72.42,140.77z M191.79,92.27
		c-0.8-0.19-1.61-0.38-2.41-0.57c-0.99,4.02-1.99,8.05-2.98,12.07c0.72,0.19,1.45,0.37,2.17,0.56
		C189.64,100.32,190.72,96.3,191.79,92.27z M437.99,236.79c0.36-0.58,0.72-1.15,1.08-1.73c-3.12-1.94-4.66-6.21-8.72-6.78
		c-0.44,0.62-0.89,1.25-1.33,1.87C432.01,232.36,435,234.57,437.99,236.79z M378.53,272.09c0.55-0.64,1.1-1.28,1.66-1.93
		c-2.69-2.2-5.38-4.39-8.07-6.59c-0.55,0.68-1.1,1.36-1.65,2.03C373.15,267.77,375.84,269.93,378.53,272.09z M154.16,105.74
		c-3.52,3.13-3.77,6.3-1.49,9.5c0.5,0,0.99,0.01,1.49,0.01C154.16,112.08,154.16,108.91,154.16,105.74z M81.04,135.86
		c-0.52-0.27-1.03-0.54-1.55-0.81c-3.45,2.53-4.44,6.04-4.41,9.96c0.57,0.24,1.14,0.48,1.71,0.71
		C78.21,142.44,79.62,139.15,81.04,135.86z M119.23,120.33c-0.51-0.05-1.02-0.11-1.52-0.16c-0.46,2.88-0.92,5.75-1.38,8.63
		c0.62,0.09,1.24,0.19,1.85,0.28C120.88,126.55,121.18,123.62,119.23,120.33z M59.68,204.65c0.1-0.56,0.2-1.12,0.3-1.68
		c-1.94-2.41-4-4.13-7.96,0.18C55.18,203.77,57.43,204.21,59.68,204.65z M99.13,134.77c0.79,0.28,1.59,0.57,2.38,0.85
		c0.91-2.78,1.82-5.57,2.72-8.35c-0.67-0.24-1.34-0.47-2.01-0.71C101.2,129.29,100.17,132.03,99.13,134.77z"/>
	<path class="st0" d="M131.88,259.3c3.39-6.62,6.89-11.53,8.41-16.99c1.41-5.05,0.58-10.7,0.97-16.07c0.15-2.09,0.32-4.65,1.54-6.12
		c8.14-9.83,19.15-15.14,31.43-16.82c8.95-1.22,18.23-0.87,27.3-0.24c8.25,0.57,11.95,4.58,10.49,11.95
		c-3.48,17.62-9.93,33.79-28.08,41.51c-12.58,5.35-25.38,5.54-37.47-1.47c-3.88-2.25-6.5-2.24-9.48,0.91
		C135.92,257.07,134.36,257.71,131.88,259.3z M187.55,225.18c-0.02-0.24-0.03-0.48-0.05-0.72c-7.44,0.77-14.94,1.17-22.3,2.42
		c-5.35,0.91-10.6,2.71-15.72,4.59c-1.2,0.44-1.69,2.83-2.51,4.32c1.16,0.35,2.37,1.12,3.47,0.99c14.65-1.84,29.2-1.96,43.63,1.86
		c1.21,0.32,3.67-0.8,4.23-1.92c1.65-3.3,2.64-6.94,3.89-10.44c-1.05-0.37-2.09-1.02-3.15-1.05
		C195.21,225.1,191.37,225.18,187.55,225.18z M146.37,226.59c0.23,0.45,0.45,0.89,0.68,1.34c1.24-0.1,2.5-0.12,3.73-0.32
		c9.84-1.58,19.64-3.62,29.54-4.64c6.74-0.69,13.62-0.08,20.43,0.16c5.52,0.2,5.48-4.29,6.05-7.51c0.76-4.32-3.12-2.95-5.2-2.95
		c-16.63,0.01-32.86,2.41-48.17,9.24C150.88,223.04,148.71,225.01,146.37,226.59z M194.24,242.43c-0.92-0.72-1.25-1.18-1.68-1.29
		c-13.83-3.86-27.83-4.41-41.94-1.91c-1.67,0.3-3.14,1.74-4.7,2.66c0.09,0.46,0.18,0.92,0.27,1.38c1.84,0.45,3.67,1.03,5.53,1.34
		c9.33,1.58,18.73,2.88,26.87,8.37c0.7,0.47,2.08,0.66,2.79,0.29C186.34,250.66,191.3,248,194.24,242.43z M148.37,221.08
		c15.57-7.49,32.22-9.72,49.15-10.8c1.54-0.1,3.05-0.72,4.58-1.1C182.34,205.76,163.65,206.53,148.37,221.08z M173.23,254.26
		c-8.59-4.86-17.41-8.7-27.65-6.06C154.16,252.93,162.79,257.46,173.23,254.26z"/>
</g>
</svg>
