<?xml version="1.0" encoding="utf-8"?>
<!-- Generator: Adobe Illustrator 25.2.1, SVG Export Plug-In . SVG Version: 6.00 Build 0)  -->
<svg version="1.1" id="Layer_1" xmlns="http://www.w3.org/2000/svg" xmlns:xlink="http://www.w3.org/1999/xlink" x="0px" y="0px"
	 viewBox="0 0 1080 1440" style="enable-background:new 0 0 1080 1440;" xml:space="preserve">
<style type="text/css">
	.st0{fill:#F6F6F6;}
</style>
<g>
	<path class="st0" d="M790.83,230c11.8,0.27,23.61,0.4,35.4,0.86c13.28,0.52,26.84-0.16,39.77,2.34
		c27.02,5.23,44.53,22.6,54.53,47.85c0.59,1.49,0.62,3.26,0.62,4.9c0.04,29.49,0.16,58.99-0.14,88.48
		c-0.04,3.91-1.96,7.96-3.62,11.67c-10.54,23.54-29.09,37.11-53.98,42.24c-5.82,1.2-11.92,1.34-17.9,1.36
		c-149.97,0.34-299.95,0.74-449.92,0.81c-54.32,0.03-108.64-0.83-162.96-1.14c-19.86-0.11-37.26-6.46-51.94-19.79
		c-12.82-11.64-19.8-26.18-19.91-43.67c-0.13-22.33-0.38-44.66-0.07-66.98c0.47-33.25,21.17-58.54,53.85-65.8
		c6.59-1.47,13.55-1.72,20.34-1.8c31.32-0.39,62.65-0.52,93.98-0.78c1.97-0.02,3.94-0.35,5.91-0.54C486.8,230,638.81,230,790.83,230
		z"/>
	<path class="st0" d="M308.79,1210c-5.64-1.82-11.23-3.83-16.94-5.41c-21.56-5.99-40.52-16.84-57.63-31.01
		c-23.49-19.45-47.63-38.36-66.6-62.47c-13.97-17.77-25.42-37.41-28.22-60.36c-1.97-16.16-2.49-32.58-2.52-48.89
		c-0.31-141.33-0.52-282.66-0.14-423.99c0.03-10.1,4.46-20.36,7.71-30.26c7.9-24.09,23.03-43.75,39.59-62.41
		c3.97-4.48,8.27-8.69,12.69-12.73c1.27-1.16,3.57-1.93,5.3-1.77c14.41,1.34,28.79,2.92,43.17,4.46c1.46,0.16,2.91,0.48,5.33,0.9
		c-2.97,3.59-5.41,6.65-7.96,9.62c-12.36,14.42-24.77,28.81-37.13,43.23c-11.82,13.8-18.86,30.1-24.44,47.12
		c-0.55,1.69-0.51,3.62-0.51,5.44c-0.23,134.83-0.5,269.66-0.54,404.5c-0.01,16.48,0.91,32.98,1.99,49.44
		c1.38,21.05,11.18,38.78,25,53.83c20.67,22.51,44.19,41.99,69.01,59.83c12.64,9.09,26.97,13.63,42.55,13.92
		c36.65,0.7,73.31,1.82,109.96,1.87c97.01,0.15,194.01-0.08,291.02-0.39c16.15-0.05,32.29-1.19,48.43-1.99
		c14.51-0.72,27-6.95,38.5-15.2c23.22-16.64,45.03-35.03,64.44-55.97c16.38-17.67,26.9-38.36,27.27-63.18
		c0.68-45.16,1.94-90.31,1.91-135.47c-0.07-96.83-1.32-193.66-0.97-290.48c0.11-30.44-9.56-55.96-29-78.57
		c-13.35-15.53-26.51-31.21-40.34-47.5c8.83-0.7,17.17-1.21,25.47-2.06c7.11-0.73,14.21-1.69,21.26-2.88
		c3.62-0.61,6.55-0.08,9.08,2.62c23.77,25.33,45.76,51.9,53.9,86.78c2.28,9.78,2.77,20.13,2.95,30.23
		c0.54,30.33,0.67,60.66,0.7,90.99c0.1,114.33-0.14,228.67,0.39,343c0.08,18.22-4.07,34.88-11.02,51.2
		c-9.24,21.71-21.86,41.11-39.81,56.79c-15.19,13.26-30.14,26.79-45.34,40.03c-20.57,17.91-45.02,28.08-70.99,35.13
		c-1.87,0.51-3.65,1.37-5.47,2.06C616.81,1210,462.8,1210,308.79,1210z"/>
	<path class="st0" d="M224.52,624.43c12.71,3.12,24.52,5.85,36.24,8.94c38.19,10.07,76.93,13.91,116.34,10.6
		c22.98-1.93,45.58-6.05,67.67-12.45c33.29-9.65,67.11-12.71,101.71-12.02c31.7,0.64,62.73,3.79,93.08,13.2
		c34.33,10.64,69.69,11.81,105.32,11.56c30.68-0.22,60.07-7.01,89.41-14.69c6.58-1.72,13.2-3.26,20.79-5.13c0,2.87,0,5.11,0,7.35
		c0.04,115.47,0.09,230.95,0.12,346.42c0,13.83-0.67,27.69,0.01,41.48c0.74,15-5,27.36-14.02,38.37
		c-5.77,7.05-12.44,13.48-19.35,19.45c-13.48,11.64-27.27,22.94-41.21,34.03c-7.43,5.9-15.86,8.61-25.83,8.6
		c-143.15-0.26-286.3-0.25-429.45,0.01c-9.04,0.02-16.73-2.27-23.7-7.28c-22.62-16.29-43.94-34.2-63.17-54.37
		c-8.18-8.58-12.59-19.49-12.71-31.74c-0.61-63.65-1.6-127.29-1.8-190.94c-0.21-67.98,0.33-135.97,0.54-203.95
		C224.52,629.72,224.52,627.57,224.52,624.43z M271.55,768.02c0,19.98,0.7,39.99-0.28,59.92c-0.53,10.64,5.03,16.04,12.69,20.3
		c3.35,1.86,8.07,2.48,11.93,1.96c11.87-1.61,17.51-8.02,17.8-20.83c0.77-34.11,1.17-68.24,1.46-102.36
		c0.07-7.96-0.68-15.96-1.46-23.9c-0.7-7.09-4.04-13.3-11-15.31c-5.53-1.6-11.89-1.93-17.57-0.99
		c-7.39,1.21-13.56,10.39-13.56,17.77C271.55,725.73,271.55,746.88,271.55,768.02z M315.79,930.99
		c-0.84-10.55-1.09-18.56-2.19-26.46c-1.91-13.73-16.67-21.83-28.82-15.56c-7.91,4.08-14.34,9.32-13.44,20.32
		c1,12.24,0.75,24.66,0.03,36.95c-0.44,7.52,2.26,12.45,7.72,17.05c11.11,9.35,30.07,4.39,33.65-9.64
		C314.82,945.52,315.04,936.92,315.79,930.99z"/>
</g>
</svg>
