<svg id="edu-ocean_logo" data-name="edu-ocean logo" xmlns="http://www.w3.org/2000/svg" viewBox="0 0 964.18826 976.28043"><defs><style>.cls-1{fill:#04bfad;}.cls-2{fill:#0378a6;}</style></defs><path class="cls-1" d="M326.62929,105.952c-5.344,1.34371-49.91491,14.80851-97.78725,69.44681-8.66127,10.03513-15.06383,22.7234-12.25532,51.57447,2.43875,25.05259,7.65958,36.766-2.12766,41.87234-13.27659,3.91489-16.93617-18.12766-20.93617-28.42553-9.87234,15.48936-17.3617,61.78723-38.97872,72.68085-24.90992,12.553-6.46808-61.44681,20.59574-104.68085-16.04,11.00782-44.24108,39.85592-54.04255,63.74468-22.383,54.55319-1.27659,117.70212-23.88059,126.30672-13.38138,5.09385-22.07686-40.77481-16.54494-82.47979C23.82077,456.76047,40.50162,601.1009,26.03326,585.81369A476.61165,476.61165,0,0,1,17.90587,497.952c0-204.9016,130.01342-379.43695,312.04487-445.61066,11.99769-4.21913,36.7641-7.22553,47.23173-6.79181C365.26757,53.86685,337.86333,90.63281,326.62929,105.952Z" transform="translate(-17.90587 -11.85978)"/><path class="cls-2" d="M673.86332,379.65409c31.161-48.17021,64.17021-177.19149-34.21277-275.74468C540.40909,4.49624,444.45309.54678,405.26757,23.22856c12.25532,7.14893,15.82979,8.68085,24,14.80851C379.73566,63.05834,323.05481,137.1009,327.13991,216.24983c-45.95744,25.53192-86.29787,102.6383-93.95744,121.02128,76.93617-14.6383,106.55318-8.85107,170.55318,31.65955,3.06384-31.14891-9.19148-119.48934-28.61622-141.42633,2.063-23.50982,32.2758-45.9779,40.10559-50.063,6.89362-20.766,20.68085-41.87234,26.04255-44.17021,5.12089-2.19467,42.12766,9.95745,64.80771,35.57687a.74808.74808,0,0,1-.87585,1.18909c-25.64766-13.0797-55.66467-18.29062-58.57015-16.59575-3.06383,1.78724-17.361,38.219-8.68085,48.25532,4.0851,4.72341,41.10638,6.383,48.766,4.85107a105.24749,105.24749,0,0,1,29.10639,39.57446c11.74468-42.383,33.92612-62.79438,47.48936-74.29787,29.70213-25.19149,70.21276-32.17021,72-26.80851,1.83837,5.51513-25.283,5.7701-58.72341,42.6383-37.3617,41.19149-40.59574,73.19149-38.80851,97.02127C559.82077,319.73919,608.3314,362.97324,673.86332,379.65409Z" transform="translate(-17.90587 -11.85978)"/><path class="cls-1" d="M239.37863,853.19479c3.83571,3.95621,37.782,35.82332,109.03632,49.96283,13.02131,2.48332,27.211,1.684,50.79246-15.17381,20.47681-14.63831,28.01047-25.01637,37.32634-19.09356,10.0287,9.54042-7.23093,23.731-14.14915,32.344,18.35035.805,62.19017-15.858,82.43283-2.58386,23.3262,15.2961-49.98046,36.32493-100.95415,34.504,17.553,8.38711,56.63678,18.38594,82.22579,14.92989,58.43594-7.89237,102.57133-57.7455,121.32513-42.47216,11.10209,9.04169-24.2736,39.50652-63.15713,55.56823,150.3349-21.14994,266.99695-107.7662,260.992-87.59263a476.61172,476.61172,0,0,1-72.02679,50.96939c-177.45,102.4508-393.60875,77.12356-541.93259-47.43345-9.65271-8.28074-24.63954-28.22588-29.49775-37.508C174.95246,845.77561,220.49483,851.1254,239.37863,853.19479Z" transform="translate(-17.90587 -11.85978)"/><path class="cls-2" d="M302.79461,415.63023c-57.29714-2.90112-185.53744,33.02271-221.69552,167.50147C44.6255,718.78391,89.18317,803.859,128.41892,826.45374c.0635-14.18789-.39706-18.04942.82454-28.18887,46.435,30.38526,138.89818,42.451,205.40061-.66123,45.09,27.03436,132.03631,23.417,151.78623,20.8589-51.14522-59.30953-60.94184-87.85223-57.85862-163.53316C400.064,667.85047,329.68662,722.6341,320.401,750.42491c-21.39161,9.96827-55.95592-4.96271-63.40862-9.701-21.43066,4.41294-46.60294,3.026-51.27381-.4684-4.46108-3.33749-12.44043-41.46235-1.59337-73.91356a.74808.74808,0,0,1,1.4677.164c1.49648,28.75138,11.9922,57.35233,14.91274,59.02112,3.0797,1.75974,41.77906-4.07446,46.13076-16.60982,2.048-5.89951-15.02537-38.79066-20.18184-44.65809a105.24752,105.24752,0,0,1,19.71931-44.9941c-42.57708,11.0203-71.3446,2.0163-88.08853-3.97806-36.66753-13.12705-62.96661-44.72093-59.21685-48.94957,3.85705-4.34965,17.63856,19.0107,66.28755,29.53681,54.35373,11.76044,83.68356-1.4388,103.42714-14.90148C307.92807,544.35143,321.11453,480.723,302.79461,415.63023Z" transform="translate(-17.90587 -11.85978)"/><path class="cls-1" d="M930.13523,555.13467c1.50833-5.29993,12.13291-50.63184-11.24908-119.40965-4.36-12.51845-12.14713-24.40736-38.53714-36.40065-22.91555-10.41428-35.67-11.74959-35.19868-22.77878,3.2479-13.45532,24.1671-5.60332,35.08532-3.91849-8.478-16.29438-44.82846-45.92929-43.4541-70.097C838.36527,274.681,893.23009,327.652,917.14,372.707c-1.51307-19.39493-12.3957-58.24186-28.18323-78.67456-36.053-46.66082-101.29474-59.95663-97.44454-83.83456,2.27929-14.13554,46.35045,1.26829,79.70207,26.91156C777.73041,117.49053,644.38751,59.76636,664.8608,54.88A476.61134,476.61134,0,0,1,745.015,91.77234c177.45,102.4508,263.59533,302.3134,229.88772,493.04411-2.345,12.49987-12.12456,35.45141-17.734,44.29979C955.92311,614.639,937.785,572.52321,930.13523,555.13467Z" transform="translate(-17.90587 -11.85978)"/><path class="cls-2" d="M519.48522,718.99709c26.13612,51.07134,121.36723,144.16878,255.90828,108.24322,135.71506-36.23905,187.1134-117.36465,187.06316-162.64119-12.31882,7.039-15.43273,9.36857-24.82455,13.38035,3.0969-55.40653-32.68541-141.51487-103.273-177.55153.86744-52.56627-45.73844-126.0553-57.82878-141.88017-25.79094,73.94783-45.61133,96.70329-112.69456,131.87361,25.44383,18.22782,108.07654,51.78462,136.7869,45.9308,19.32858,13.54154,23.68013,50.94061,23.303,59.764,14.537,16.353,25.92209,38.84631,25.23125,44.63862-.65981,5.53215-29.68723,31.5049-63.21433,38.33668a.74808.74808,0,0,1-.59186-1.35305c24.15119-15.67168,43.67248-39.06171,43.65742-42.42537-.01587-3.547-24.41812-34.1445-37.4499-31.6455-6.13314,1.17611-26.081,32.40769-28.58413,39.807a105.24752,105.24752,0,0,1-48.82568,5.41963c30.83239,31.36268,37.41847,60.77808,40.59916,78.27593,6.96541,38.31854-7.24616,76.89115-12.78315,75.75809-5.69543-1.16549,7.64447-24.7808-7.56414-72.17511-16.992-52.95193-43.08782-71.75269-64.61864-82.1198C628.39432,650.19079,566.69722,670.58521,519.48522,718.99709Z" transform="translate(-17.90587 -11.85978)"/></svg>