<svg xmlns="http://www.w3.org/2000/svg" viewBox="0 0 400 300"><defs><style>.cls-1{fill:#9adce5;}.cls-2{fill:#c3edf5;}.cls-3{fill:#e1f6fa;}.cls-4{fill:#23a859;}.cls-5{fill:#add65c;}.cls-6{fill:#4fb97a;}.cls-7{fill:#e8bc91;}.cls-8{fill:#a28b6d;}.cls-9{fill:#efd3b6;}.cls-10{fill:none;stroke:#967f65;stroke-linecap:round;stroke-miterlimit:10;stroke-width:4px;}.cls-11{fill:#ffc219;}.cls-12{fill:#fff;}</style></defs><g id="Layer_1" data-name="Layer 1"><rect class="cls-1" width="400" height="300"/><path class="cls-2" d="M206.52,143.81c-32.07-11.55-72,23.53-74.91,34.5s20.24,29.22,26.15,34.35c16.66,14.45,5.12,41.21,19.25,40.8,29.81-.86,32.21,30.29,49.93,31.14s60.86-10.3,70.24-7c35.73,12.8,37.19-18.93,51.95-24.37s30.07-9.17,24.59-29.84-34.17-41.34-34.17-57.36-71.7,0-82.25-15.61S247.35,158.51,206.52,143.81Z"/><path class="cls-3" d="M233.34,175.81c-6.06-2.35-18.56-17.28-28.57-18.51-9.45-1.16-25.61,9.62-34.36,13.64-15.46,7.1-20.7,11.42-17,22.25,2.74,8,14.28,7.81,18.51,12.72,7,8.17,8.3,19,21.15,20.72s19.67,30.47,36.46,27.55,25.55,12.77,35.77,13.87,37.44-13.4,54.74-13.4c11.05,0-2.17-30.41,12.8-24.93s17.15-5.11,16.06-11.32-10.44-17.62-20.08-19.71c-8.4-1.83-23.17-26-41.06-28.57S246.13,180.75,233.34,175.81Z"/><path class="cls-4" d="M347.12,215.93a5.49,5.49,0,0,1-.06-1l.07-1.35a.74.74,0,0,0-.11-.45l-1.34-2.29a.85.85,0,0,0-.52-.37l-5-1a.78.78,0,0,1-.4-.21L337,206.43a.75.75,0,0,0-.71-.21l-5.7,1.22h-6.15a.79.79,0,0,1-.58-.25l-1.74-1.92a.77.77,0,0,0-.58-.26h-6.08a.8.8,0,0,1-.4-.11l-4.33-2.56a.8.8,0,0,0-.72,0l-2.06.92a.74.74,0,0,1-.46.06l-5.73-1.06a.77.77,0,0,1-.59-.51L299,195.59a.78.78,0,0,0-.74-.52h-4.41a.8.8,0,0,1-.74-.53L292,191.27a.75.75,0,0,0-.21-.32L280.3,180.07a.76.76,0,0,0-.64-.21L263,182.23a.49.49,0,0,1-.17,0l-7.82-.64a.87.87,0,0,0-.39.07L239,188.74a.76.76,0,0,1-.59,0l-7.76-2.86a.8.8,0,0,0-.66.05l-1.76,1a.79.79,0,0,1-1-.19l-2.89-3.62a.82.82,0,0,0-.59-.29l-5.78-.19a.78.78,0,0,1-.69-.47l-3.71-8.45a.67.67,0,0,0-.22-.28l-6-4.94a.75.75,0,0,0-.69-.15l-3.64,1a.87.87,0,0,1-.36,0l-5-1a.75.75,0,0,0-.67.19l-17.81,15.87a.8.8,0,0,0-.26.58v5.87a.77.77,0,0,0,.44.69l3.23,1.62a.79.79,0,0,1,.41.5l1.09,4.06-.82,2.61a.77.77,0,0,0,.18.78l.27.28-.45,1.44a.78.78,0,0,0,.18.78l8.3,8.51,5.2,5.63a.64.64,0,0,0,.27.18l13.87,5.86a.64.64,0,0,1,.22.14l11,10a.77.77,0,0,0,.83.14l2.35-1a.75.75,0,0,1,.57,0l12.26,4.51.11.05,7.29,4.08a.86.86,0,0,0,.38.1h3.88a1,1,0,0,1,.24,0l11.3,3.7.16.07,5.95,3.49a.78.78,0,0,0,.78,0l7.16-4.09a.72.72,0,0,1,.41-.1l9.63.21a.69.69,0,0,1,.2,0l6,1.71a.76.76,0,0,0,.21,0h6.26a.76.76,0,0,0,.48-.17l6.2-5a.88.88,0,0,0,.28-.47l.8-4.4a.81.81,0,0,1,.14-.33l3.64-4.85a.79.79,0,0,1,.62-.31h3.8a.78.78,0,0,0,.68-.4l3.17-5.76a.77.77,0,0,0,.08-.54l-.32-1.51.24-.44a.78.78,0,0,0,.08-.54l0-.2a.79.79,0,0,1,.41-.12H320a.78.78,0,0,0,.77-.7l.51-4.76a.79.79,0,0,1,.81-.7l3.53.17a.76.76,0,0,0,.63-.28l1.8-2.16a.81.81,0,0,1,.42-.26l6.54-1.53a.77.77,0,0,1,.93.54l.52,1.82a.78.78,0,0,0,.75.56H344a.81.81,0,0,1,.64.33l1.06,1.52a.79.79,0,0,0,.62.36A.78.78,0,0,0,347.12,215.93Z"/><path class="cls-5" d="M179,188.88v-4.21l18.36-16.36,5.53,1.1,4.2-1.1,6.42,5.3,4,9.07,6.63.22,3.54,4.43,2.66-1.55,8.4,3.1,16.15-7.3,8.1.66L280,179.81,292,191.09l1.33,4h5.53l2.43,7.08,6.42,1.18,2.65-1.18L315.2,205h6.63l2.21,2.43h6.42l6.19-1.32,3.32,3.32,5.53,1.1,2.21,3.76h-1.36a.76.76,0,0,1-.64-.33l-1.32-1.88h-7.74l-.88-3.1-7.52,1.77L326,213.43l-4.65-.22-.66,6.19h-3.1l.66,3.09-3.53,6.42h-4.65l-4,5.31-.89,4.86-6.63,5.31H292l-6.19-1.77-9.95-.22-7.74,4.42-6.42-3.76-11.5-3.76H246l-7.52-4.2-12.61-4.64-3.09,1.32-11.5-10.39-14.16-6-5.31-5.75-8.62-8.85,1.32-4.2-1.54-5.75Z"/></g><g id="Layer_2" data-name="Layer 2"><path class="cls-6" d="M251.68,202.42l-9-16.28a2.15,2.15,0,0,1,2.77-3l11.42,5.2a2.15,2.15,0,0,0,2.73-.86l4.18-7a2.15,2.15,0,0,1,3.89.45l2.77,8.7a2.14,2.14,0,0,0,3.57.86l5.41-5.47a2.15,2.15,0,0,1,3.66,1.8l-.73,5.41a2.15,2.15,0,0,0,3.22,2.14l2.54-1.5a2.15,2.15,0,0,1,2.79,3.16l-5.13,6.68a2.13,2.13,0,0,1-1.7.84H253.56A2.14,2.14,0,0,1,251.68,202.42Z"/><polygon class="cls-7" points="261.57 203.53 263.96 81.36 235.31 97.27 249.63 203.53 261.57 203.53"/><polygon class="cls-8" points="306.62 85.51 207.93 109.15 211.11 123.77 306.62 127.45 306.62 85.51"/><polygon class="cls-8" points="293.9 134.91 199.59 131.71 212.4 164.09 293.9 147.99 293.9 134.91"/><path class="cls-5" d="M233.16,202.34,226.86,191a2.31,2.31,0,0,1,3.48-2.9l6.71,5.5a2.31,2.31,0,0,0,3.69-1.16l4.5-16a2.31,2.31,0,0,1,4.47.11l3.48,15.52a2.3,2.3,0,0,0,4.18.75l1.57-2.41a2.3,2.3,0,0,1,4.19,1.7l-.37,1.92a2.31,2.31,0,0,0,3.6,2.32l.21-.15a2.3,2.3,0,0,1,3.16,3.28l-2.43,3.17a2.3,2.3,0,0,1-1.83.9H235.18A2.3,2.3,0,0,1,233.16,202.34Z"/><path class="cls-9" d="M204.14,206.61h85.93S285.53,198,276,199.05s-8.47,5-19.56,3.73-22.18-10.09-30.84-7.87S221.12,206.61,204.14,206.61Z"/><line class="cls-10" x1="226.56" y1="110.75" x2="266.84" y2="103.47"/><line class="cls-10" x1="293.91" y1="118.39" x2="270.23" y2="116.86"/><line class="cls-10" x1="306.62" y1="105.44" x2="291.32" y2="106.61"/><line class="cls-10" x1="210.07" y1="119.01" x2="241.21" y2="116.86"/><line class="cls-10" x1="298.97" y1="94.78" x2="280.63" y2="98.2"/><line class="cls-10" x1="212.81" y1="139.45" x2="247.1" y2="140.47"/><line class="cls-10" x1="283.09" y1="144.54" x2="251.77" y2="148.84"/><line class="cls-10" x1="225.64" y1="152.96" x2="236.5" y2="150.8"/><path class="cls-2" d="M29.8,21C13,19.1-2.75,45.06,22.92,66.24c28.18,23.25-6.76,37.58,6.16,47.3,16.16,12.16,58.83-29.07,77.6-15s54.35.6,52.65-10.37-32.52-38-11.81-55.46c7.83-6.6-20-44.48-60.26-20.16C65.51,25.72,45.28,22.69,29.8,21Z"/><path class="cls-3" d="M44.56,33.32c5.76-.72,18.16,3.5,24.74-.59s20.37,5.49,25.1,6.17,32.71-4.38,28.6,16.8S95.78,75.23,106.68,81.81c15.21,9.18-12.28,18-25.49,8-17.57-13.34-25.58-.82-33.71-5-13-6.62,6.39-18,1.81-23.52C39.38,49.43,16.91,36.77,44.56,33.32Z"/><path class="cls-11" d="M59.71,46.76c-8.15,7.48-5.84,29.67,8.71,32.87s22.35-4.87,24.43-8.39c2.42-4.1,2.79-18.19-4.68-24.48C81.45,41.1,66.68,40.35,59.71,46.76Z"/><path class="cls-11" d="M69.58,23.15c-.94,3.34.6,13.26,3.11,13.61S77,25.5,75.36,22.43C74.56,21,70.54,19.78,69.58,23.15Z"/><path class="cls-11" d="M77.79,100.57c.95-3.34-.59-13.26-3.11-13.62S70.36,98.21,72,101.29C72.81,102.76,76.84,103.94,77.79,100.57Z"/><path class="cls-11" d="M35,66c3.34,1,13.26-.59,13.61-3.11s-11.26-4.32-14.33-2.66C32.79,61,31.61,65,35,66Z"/><path class="cls-11" d="M112.4,57.75c-3.34-.94-13.26.6-13.62,3.11s11.26,4.33,14.34,2.67C114.59,62.73,115.76,58.71,112.4,57.75Z"/><path class="cls-11" d="M98.16,31.58c-3,1.7-9,9.8-7.43,11.83s11-4.9,12-8.25C103.23,33.56,101.21,29.88,98.16,31.58Z"/><path class="cls-11" d="M49.22,92.13c3-1.69,9-9.79,7.43-11.82s-11,4.9-12,8.25C44.15,90.16,46.16,93.84,49.22,92.13Z"/><path class="cls-11" d="M43.41,37.39c1.7,3,9.8,9,11.83,7.43s-4.9-11-8.25-12C45.39,32.32,41.71,34.33,43.41,37.39Z"/><path class="cls-11" d="M104,86.33c-1.69-3-9.79-9-11.82-7.43s4.9,11,8.25,12C102,91.4,105.67,89.38,104,86.33Z"/><path class="cls-12" d="M145.34,63.51c-8.22-.23-12,7.49-14.15,10-3.08,3.59-8.47,3.08-11.53-1s-10.3,2.84-15.4,5.65-2.32-2.82-10.57-3.34-15.62,10-15.62,10H158.2C155.67,79.36,149.68,71.72,145.34,63.51Z"/><path class="cls-12" d="M18.32,54.38H66.56S64,50.81,61.05,51.19s-1.84,3.73-5.63,0-5.59-4.51-7.62-3.71-7.63,4.36-8.72,0-2.56-6.35-9.26-4.65-4.8,8-8.26,6.65-11.25-2.67-18.82,4.9Z"/><path class="cls-12" d="M117.46,27.05h40.43s-2.15-3-4.61-2.68-1.54,3.13-4.72,0-4.69-3.78-6.39-3.1-6.4,3.65-7.31,0-2.15-5.33-7.76-3.9-4,6.73-6.92,5.57-9.43-2.24-15.78,4.11Z"/><path class="cls-12" d="M215.59,119.1l-1.36-5.21.18,5.79a1.21,1.21,0,0,1-.17.74.65.65,0,0,1-.5.3.55.55,0,0,1-.5-.19,1.06,1.06,0,0,1-.21-.7l-.21-6.63a.94.94,0,0,1,.22-.77,1.2,1.2,0,0,1,.68-.27l.47,0a1.62,1.62,0,0,1,.61,0,.47.47,0,0,1,.29.28,4.49,4.49,0,0,1,.24.7l1.22,4.48.94-4.71a4.11,4.11,0,0,1,.18-.75.63.63,0,0,1,.27-.34,1.94,1.94,0,0,1,.61-.16l.47,0a1.08,1.08,0,0,1,.69.12.83.83,0,0,1,.27.71l.21,6.64a1.24,1.24,0,0,1-.16.74.69.69,0,0,1-.51.29.56.56,0,0,1-.5-.18,1.1,1.1,0,0,1-.21-.7l-.18-5.79-1,5.47c-.06.36-.12.62-.16.79a1.22,1.22,0,0,1-.26.47.77.77,0,0,1-.54.26.72.72,0,0,1-.45-.08.79.79,0,0,1-.3-.3,1.6,1.6,0,0,1-.17-.42C215.68,119.44,215.63,119.28,215.59,119.1Z"/><path class="cls-12" d="M225.15,118.52a4.79,4.79,0,0,1-1,.77,2.77,2.77,0,0,1-1,.34,1.74,1.74,0,0,1-.95-.14,1.53,1.53,0,0,1-.64-.57,1.91,1.91,0,0,1-.25-.86,1.82,1.82,0,0,1,.33-1.13,1.93,1.93,0,0,1,1-.72l.65-.22.89-.32.8-.33a1.69,1.69,0,0,0-.25-.89.91.91,0,0,0-.82-.2,1.67,1.67,0,0,0-.79.26,1.6,1.6,0,0,0-.44.54,4.89,4.89,0,0,1-.25.47.4.4,0,0,1-.34.14.52.52,0,0,1-.41-.12.58.58,0,0,1-.18-.41,1.45,1.45,0,0,1,.24-.83,2.05,2.05,0,0,1,.78-.73,4.21,4.21,0,0,1,2.8-.32,1.3,1.3,0,0,1,.76.69,3.55,3.55,0,0,1,.26,1.37c0,.37,0,.68,0,.94s0,.54,0,.85a3.29,3.29,0,0,0,.16.9,3.09,3.09,0,0,1,.14.6.62.62,0,0,1-.18.46.69.69,0,0,1-.45.25.53.53,0,0,1-.43-.18A3.54,3.54,0,0,1,225.15,118.52Zm-.16-2.25a6.47,6.47,0,0,1-.88.37l-.8.29a1.14,1.14,0,0,0-.41.31.73.73,0,0,0-.19.55.77.77,0,0,0,.26.58.75.75,0,0,0,.63.18,1.61,1.61,0,0,0,.75-.29,1.39,1.39,0,0,0,.49-.57,2.85,2.85,0,0,0,.16-1.19Z"/><path class="cls-12" d="M229.62,116.83l0,1.31a1.2,1.2,0,0,1-.17.73.71.71,0,0,1-.5.29.56.56,0,0,1-.5-.18,1.09,1.09,0,0,1-.21-.69l-.14-4.35c0-.7.19-1.08.64-1.12a.49.49,0,0,1,.51.19,1.48,1.48,0,0,1,.19.71,3,3,0,0,1,.48-.79,1.07,1.07,0,0,1,.69-.32,1.62,1.62,0,0,1,.86.15.68.68,0,0,1,.43.61.74.74,0,0,1-.16.49.61.61,0,0,1-.37.23A1.93,1.93,0,0,1,231,114a1.57,1.57,0,0,0-.51,0,.79.79,0,0,0-.49.24,1.27,1.27,0,0,0-.29.57,4.81,4.81,0,0,0-.12.86C229.61,116,229.61,116.36,229.62,116.83Z"/><path class="cls-12" d="M234.12,111.87a.67.67,0,0,1-.5-.14.72.72,0,0,1-.22-.55.78.78,0,0,1,.19-.57.7.7,0,0,1,.48-.26.6.6,0,0,1,.48.14.65.65,0,0,1,.23.54.82.82,0,0,1-.18.59A.71.71,0,0,1,234.12,111.87Zm.74,1.54.14,4.51a1.13,1.13,0,0,1-.18.73.65.65,0,0,1-.49.3.54.54,0,0,1-.5-.19,1,1,0,0,1-.22-.69l-.14-4.46a1.17,1.17,0,0,1,.17-.72.65.65,0,0,1,.49-.29.6.6,0,0,1,.51.18A1,1,0,0,1,234.86,113.41Z"/><path class="cls-12" d="M237.35,112.75v.18a2.94,2.94,0,0,1,.77-.88,2.2,2.2,0,0,1,1-.37,1.73,1.73,0,0,1,1,.17,1.39,1.39,0,0,1,.66.69,1.72,1.72,0,0,1,.2.59,5.91,5.91,0,0,1,.07.85l.09,2.9a1.13,1.13,0,0,1-.17.73.66.66,0,0,1-.48.3.56.56,0,0,1-.51-.19,1,1,0,0,1-.22-.69l-.08-2.6a2.78,2.78,0,0,0-.23-1.16.67.67,0,0,0-.77-.32,1.06,1.06,0,0,0-.66.32,1.62,1.62,0,0,0-.43.73,5.6,5.6,0,0,0-.06,1.31l.06,2a1.12,1.12,0,0,1-.17.73.7.7,0,0,1-.5.3.57.57,0,0,1-.5-.2,1,1,0,0,1-.21-.68l-.14-4.51a1.14,1.14,0,0,1,.15-.69.63.63,0,0,1,.46-.27.61.61,0,0,1,.33.06.6.6,0,0,1,.25.27A1.06,1.06,0,0,1,237.35,112.75Z"/><path class="cls-12" d="M246.4,114.47l-2.71.29a2.31,2.31,0,0,0,.22.92,1.33,1.33,0,0,0,.51.56,1.16,1.16,0,0,0,.69.13A1.59,1.59,0,0,0,246,116c.13-.11.24-.23.35-.34l.4-.48a.43.43,0,0,1,.3-.14.44.44,0,0,1,.35.09.5.5,0,0,1,.15.36,1.16,1.16,0,0,1-.14.51,2,2,0,0,1-.42.59,2.73,2.73,0,0,1-.73.52,3.18,3.18,0,0,1-1,.28,2.4,2.4,0,0,1-2.1-.63,3.23,3.23,0,0,1-.81-2.25,4.26,4.26,0,0,1,.14-1.3,3,3,0,0,1,.5-1.07,2.53,2.53,0,0,1,.84-.75,3,3,0,0,1,1.13-.35,2.28,2.28,0,0,1,1.4.24,2.06,2.06,0,0,1,.9.9,2.65,2.65,0,0,1,.33,1.21.9.9,0,0,1-.27.8A1.81,1.81,0,0,1,246.4,114.47Zm-2.73-.59,2.5-.28a1.88,1.88,0,0,0-.42-1.15,1,1,0,0,0-.88-.31,1.17,1.17,0,0,0-.84.5A2.31,2.31,0,0,0,243.67,113.88Z"/><path class="cls-12" d="M254.7,112.64l-1.56.17.08,2.68a1.33,1.33,0,0,1-.21.89.81.81,0,0,1-.6.37.68.68,0,0,1-.62-.23,1.29,1.29,0,0,1-.26-.84l-.23-7.29a1.37,1.37,0,0,1,.22-.93,1.18,1.18,0,0,1,.81-.36l2.18-.24a5.26,5.26,0,0,1,1.5,0,2,2,0,0,1,.9.44,2.15,2.15,0,0,1,.6.86,3.55,3.55,0,0,1,.24,1.2,3,3,0,0,1-.73,2.27A3.56,3.56,0,0,1,254.7,112.64Zm-.55-4.3-1.15.13.09,2.89,1.15-.12a3.23,3.23,0,0,0,1-.26,1.35,1.35,0,0,0,.6-.53,1.65,1.65,0,0,0,.18-.87,1.44,1.44,0,0,0-.35-1A1.89,1.89,0,0,0,254.15,108.34Z"/><path class="cls-12" d="M260.23,113.29l0,1.58a1.37,1.37,0,0,1-.22.89.83.83,0,0,1-.6.36.68.68,0,0,1-.6-.23,1.21,1.21,0,0,1-.26-.83l-.17-5.28c0-.86.23-1.31.78-1.37a.59.59,0,0,1,.61.23,1.67,1.67,0,0,1,.23.86,3.81,3.81,0,0,1,.59-1,1.33,1.33,0,0,1,.84-.39,1.83,1.83,0,0,1,1,.19.8.8,0,0,1,.52.73.9.9,0,0,1-.19.6.68.68,0,0,1-.45.27,2,2,0,0,1-.46-.07,1.79,1.79,0,0,0-.63-.06.89.89,0,0,0-.59.28,1.49,1.49,0,0,0-.34.69,5,5,0,0,0-.15,1C260.21,112.23,260.21,112.72,260.23,113.29Z"/><path class="cls-12" d="M268.63,111.79a4.86,4.86,0,0,1-.18,1.54,3.67,3.67,0,0,1-.62,1.27,3.24,3.24,0,0,1-2.34,1.29,3.23,3.23,0,0,1-1.34-.12,2.79,2.79,0,0,1-1.06-.66,3.26,3.26,0,0,1-.69-1.12,4.6,4.6,0,0,1-.27-1.49,4.92,4.92,0,0,1,.18-1.56,3.69,3.69,0,0,1,.61-1.26,3.14,3.14,0,0,1,1-.87,3.59,3.59,0,0,1,1.32-.42,3.18,3.18,0,0,1,1.36.13,2.58,2.58,0,0,1,1.06.65,3.11,3.11,0,0,1,.69,1.12A4.61,4.61,0,0,1,268.63,111.79ZM267,112a2.84,2.84,0,0,0-.49-1.7,1.26,1.26,0,0,0-1.21-.5,1.46,1.46,0,0,0-.83.37,1.92,1.92,0,0,0-.54.89,3.78,3.78,0,0,0-.15,1.3,3.51,3.51,0,0,0,.23,1.24,1.67,1.67,0,0,0,.58.77,1.28,1.28,0,0,0,.87.19,1.51,1.51,0,0,0,1.16-.76A3.13,3.13,0,0,0,267,112Z"/><path class="cls-12" d="M268.78,108l.17,0-.05-1.2c0-.33,0-.58,0-.77a1.47,1.47,0,0,1,.09-.49,1,1,0,0,1,.25-.36.63.63,0,0,1,.38-.17.61.61,0,0,1,.54.22.84.84,0,0,1,.22.44,4.64,4.64,0,0,1,.07.78l.05,1.37.57-.07a.61.61,0,0,1,.51.15.73.73,0,0,1,.19.5.65.65,0,0,1-.23.59,1.29,1.29,0,0,1-.7.24l-.29,0,.14,3.69a5.74,5.74,0,0,0,.05.72.7.7,0,0,0,.15.39.38.38,0,0,0,.37.12,1.43,1.43,0,0,0,.36-.1,1.87,1.87,0,0,1,.36-.11.41.41,0,0,1,.35.16.68.68,0,0,1,.17.46.91.91,0,0,1-.39.79,2.36,2.36,0,0,1-1.16.39,1.6,1.6,0,0,1-1.12-.18,1.38,1.38,0,0,1-.52-.82,7.45,7.45,0,0,1-.17-1.48l-.14-3.85-.2,0a.59.59,0,0,1-.52-.14.74.74,0,0,1-.2-.51.78.78,0,0,1,.17-.54A.75.75,0,0,1,268.78,108Z"/><path class="cls-12" d="M278.26,110.54l-3.29.36a2.52,2.52,0,0,0,.26,1.11,1.59,1.59,0,0,0,.62.68,1.4,1.4,0,0,0,.83.16,1.77,1.77,0,0,0,.55-.14,1.57,1.57,0,0,0,.48-.31,4.07,4.07,0,0,0,.42-.41l.49-.58a.58.58,0,0,1,.37-.17.51.51,0,0,1,.42.12.57.57,0,0,1,.18.43,1.53,1.53,0,0,1-.16.62,3,3,0,0,1-.52.72,3.13,3.13,0,0,1-.89.62,3.59,3.59,0,0,1-1.25.35,2.93,2.93,0,0,1-2.55-.77,3.93,3.93,0,0,1-1-2.73,5.44,5.44,0,0,1,.18-1.58,3.79,3.79,0,0,1,.6-1.3,3.21,3.21,0,0,1,1-.91,3.39,3.39,0,0,1,1.37-.42,2.79,2.79,0,0,1,1.7.28,2.71,2.71,0,0,1,1.1,1.1,3.36,3.36,0,0,1,.39,1.47,1.06,1.06,0,0,1-.33,1A2.19,2.19,0,0,1,278.26,110.54Zm-3.33-.72,3.05-.34a2.29,2.29,0,0,0-.51-1.4,1.26,1.26,0,0,0-1.08-.37,1.38,1.38,0,0,0-1,.61A2.78,2.78,0,0,0,274.93,109.82Z"/><path class="cls-12" d="M285.66,110.82a1.89,1.89,0,0,1-.16.76,2.49,2.49,0,0,1-.54.81,3,3,0,0,1-.93.68,3.61,3.61,0,0,1-1.28.36,2.78,2.78,0,0,1-2.41-.74,3.78,3.78,0,0,1-.94-2.6,5.25,5.25,0,0,1,.33-2.06,3.3,3.3,0,0,1,2.84-2.15,3,3,0,0,1,1.18.08,2.55,2.55,0,0,1,.92.45,2.21,2.21,0,0,1,.59.64,1.5,1.5,0,0,1,.22.69.86.86,0,0,1-.2.59.79.79,0,0,1-.53.28.43.43,0,0,1-.34-.08,1.41,1.41,0,0,1-.32-.35,2.35,2.35,0,0,0-.65-.7,1.24,1.24,0,0,0-.85-.17,1.5,1.5,0,0,0-1.15.77,3.27,3.27,0,0,0-.39,1.81,3.87,3.87,0,0,0,.14.94,2.21,2.21,0,0,0,.36.72,1.34,1.34,0,0,0,.54.41,1.39,1.39,0,0,0,.68.08,1.45,1.45,0,0,0,.84-.35,2.33,2.33,0,0,0,.59-.85,2.32,2.32,0,0,1,.31-.53.67.67,0,0,1,.43-.22.52.52,0,0,1,.5.2A.84.84,0,0,1,285.66,110.82Z"/><path class="cls-12" d="M285.94,104.9l.2,0,0-1.23q0-.5,0-.78a1.27,1.27,0,0,1,.11-.5,1,1,0,0,1,.3-.38.86.86,0,0,1,.44-.18.75.75,0,0,1,.63.23.78.78,0,0,1,.26.45,4.67,4.67,0,0,1,.07.79l0,1.4.66-.07a.76.76,0,0,1,.6.14.67.67,0,0,1,.22.51.66.66,0,0,1-.27.61,1.85,1.85,0,0,1-.83.26l-.34,0,.12,3.78a5.61,5.61,0,0,0,.06.74.7.7,0,0,0,.17.4.48.48,0,0,0,.43.12,2.25,2.25,0,0,0,.43-.11,1.74,1.74,0,0,1,.42-.12.53.53,0,0,1,.41.16.69.69,0,0,1,.19.47.91.91,0,0,1-.46.82,3.13,3.13,0,0,1-1.37.41,2.11,2.11,0,0,1-1.3-.18,1.38,1.38,0,0,1-.61-.83,6.93,6.93,0,0,1-.18-1.52l-.13-3.94-.24,0a.72.72,0,0,1-.6-.15.65.65,0,0,1-.23-.51.78.78,0,0,1,.2-.55A.93.93,0,0,1,285.94,104.9Z"/><path class="cls-12" d="M296,108.09l-3.66.41a3,3,0,0,0,.3,1.24,1.69,1.69,0,0,0,.69.75,1.46,1.46,0,0,0,.92.18,1.88,1.88,0,0,0,.61-.16,2.12,2.12,0,0,0,.53-.33,5.13,5.13,0,0,0,.47-.46l.55-.65a.59.59,0,0,1,.41-.19.58.58,0,0,1,.47.13.61.61,0,0,1,.2.48,1.76,1.76,0,0,1-.18.69,2.94,2.94,0,0,1-.58.8,3.57,3.57,0,0,1-1,.7,4.11,4.11,0,0,1-1.39.39,3.28,3.28,0,0,1-2.84-.86,4.3,4.3,0,0,1-1.1-3,6.05,6.05,0,0,1,.19-1.77,4.49,4.49,0,0,1,.67-1.45,3.68,3.68,0,0,1,1.14-1,4.09,4.09,0,0,1,1.53-.47,3.17,3.17,0,0,1,1.9.32A2.93,2.93,0,0,1,297,105a3.7,3.7,0,0,1,.45,1.64,1.2,1.2,0,0,1-.38,1.08A2.32,2.32,0,0,1,296,108.09Zm-3.7-.8,3.4-.37a2.56,2.56,0,0,0-.57-1.56,1.33,1.33,0,0,0-1.2-.41,1.56,1.56,0,0,0-1.14.67A3.18,3.18,0,0,0,292.25,107.29Z"/><path class="cls-12" d="M303.33,110v-.2a5.52,5.52,0,0,1-.69.83,2.88,2.88,0,0,1-.74.53,2.94,2.94,0,0,1-.89.25,2.21,2.21,0,0,1-1.2-.18,2.49,2.49,0,0,1-1-.77,3.9,3.9,0,0,1-.65-1.27,6.06,6.06,0,0,1-.25-1.64,5,5,0,0,1,.72-3,2.8,2.8,0,0,1,2.12-1.29,2.52,2.52,0,0,1,1.32.15,3.3,3.3,0,0,1,1.06.81l-.09-3a1.64,1.64,0,0,1,.19-1,.78.78,0,0,1,.61-.39.69.69,0,0,1,.64.22,1.36,1.36,0,0,1,.24.84l.29,8.9a1.43,1.43,0,0,1-.21.89.85.85,0,0,1-.6.36.7.7,0,0,1-.62-.24A1.25,1.25,0,0,1,303.33,110Zm-3.61-2.58a3.83,3.83,0,0,0,.27,1.37,1.77,1.77,0,0,0,.65.8,1.34,1.34,0,0,0,.87.2,1.58,1.58,0,0,0,.85-.37,2.13,2.13,0,0,0,.59-.92,3.81,3.81,0,0,0,.19-1.46,3.61,3.61,0,0,0-.27-1.36,1.9,1.9,0,0,0-.66-.82,1.38,1.38,0,0,0-.88-.21,1.54,1.54,0,0,0-.87.41,2.25,2.25,0,0,0-.57,1A4.31,4.31,0,0,0,299.72,107.42Z"/><path class="cls-12" d="M227.3,150.35l-.64-1.39-4.62.32-.44,1.49a4.77,4.77,0,0,1-.46,1.19.86.86,0,0,1-.72.35,1.05,1.05,0,0,1-.78-.27,1,1,0,0,1-.39-.69,1.67,1.67,0,0,1,.05-.49c0-.17.11-.4.21-.71l2.39-7.57c.07-.22.15-.48.25-.78a3.5,3.5,0,0,1,.32-.77,1.45,1.45,0,0,1,1.27-.74,1.49,1.49,0,0,1,1.36.55,3.38,3.38,0,0,1,.38.6c.1.21.24.5.4.85l3.47,7.12a3.55,3.55,0,0,1,.43,1.2,1,1,0,0,1-.27.74,1.13,1.13,0,0,1-.78.39,1,1,0,0,1-.47-.07.88.88,0,0,1-.34-.24,2.3,2.3,0,0,1-.32-.49Zm-4.77-2.84,3.39-.23-2-4.57Z"/><path class="cls-12" d="M233.29,148.36l.12,1.76a1.36,1.36,0,0,1-.24,1,1,1,0,0,1-.74.37,1,1,0,0,1-.78-.27,1.42,1.42,0,0,1-.36-.94l-.4-5.89c-.07-.95.24-1.45.93-1.49a.85.85,0,0,1,.78.28,1.86,1.86,0,0,1,.33,1,3.43,3.43,0,0,1,.71-1,1.59,1.59,0,0,1,1-.41,2.75,2.75,0,0,1,1.31.24,1,1,0,0,1,.69.84.82.82,0,0,1-.22.66.81.81,0,0,1-.56.29,2.5,2.5,0,0,1-.57-.1,2.39,2.39,0,0,0-.8-.09,1.18,1.18,0,0,0-.74.29,1.67,1.67,0,0,0-.41.76,5.41,5.41,0,0,0-.14,1.16A16.14,16.14,0,0,0,233.29,148.36Z"/><path class="cls-12" d="M243.59,146.92l-4.14.28a2.87,2.87,0,0,0,.38,1.25,2.15,2.15,0,0,0,.81.78,2,2,0,0,0,1.05.2,2.35,2.35,0,0,0,.69-.13A2.42,2.42,0,0,0,243,149a3.73,3.73,0,0,0,.51-.45c.16-.15.36-.36.61-.63a.66.66,0,0,1,.45-.17.74.74,0,0,1,.54.14.66.66,0,0,1,.24.49,1.47,1.47,0,0,1-.18.69,2.7,2.7,0,0,1-.63.78,4.11,4.11,0,0,1-1.1.66,4.72,4.72,0,0,1-1.56.34,4.22,4.22,0,0,1-3.25-.94,4.36,4.36,0,0,1-1.34-3.08,5,5,0,0,1,.16-1.75,3.63,3.63,0,0,1,.71-1.43,3.49,3.49,0,0,1,1.26-1,4.68,4.68,0,0,1,1.71-.43,4.1,4.1,0,0,1,2.17.38,3.48,3.48,0,0,1,1.42,1.26,3.56,3.56,0,0,1,.55,1.65,1.06,1.06,0,0,1-.38,1.07A2.85,2.85,0,0,1,243.59,146.92Zm-4.22-.92,3.83-.26a2.61,2.61,0,0,0-.69-1.59,1.76,1.76,0,0,0-1.37-.44,1.68,1.68,0,0,0-1.26.63A2.73,2.73,0,0,0,239.37,146Z"/><path class="cls-12" d="M252.63,148.89a6.38,6.38,0,0,1-1.42,1,4.33,4.33,0,0,1-1.58.41,3.08,3.08,0,0,1-1.45-.23,2.3,2.3,0,0,1-1-.8,2.24,2.24,0,0,1-.42-1.17,2.13,2.13,0,0,1,.45-1.52,2.75,2.75,0,0,1,1.45-.92l1-.28L251,145c.38-.12.78-.26,1.22-.42a2.29,2.29,0,0,0-.42-1.2,1.53,1.53,0,0,0-1.27-.31,2.59,2.59,0,0,0-1.19.31,2,2,0,0,0-.65.72c-.18.31-.3.52-.37.62a.72.72,0,0,1-.51.18.88.88,0,0,1-.63-.19.77.77,0,0,1-.3-.56,1.76,1.76,0,0,1,.32-1.11,2.88,2.88,0,0,1,1.17-1,5.73,5.73,0,0,1,2.06-.48,5.88,5.88,0,0,1,2.22.18,2.07,2.07,0,0,1,1.2,1,4.54,4.54,0,0,1,.45,1.87q.06.74.09,1.26c0,.35,0,.73.07,1.16a4,4,0,0,0,.28,1.22,4.22,4.22,0,0,1,.25.82.78.78,0,0,1-.26.62,1,1,0,0,1-.68.31.92.92,0,0,1-.66-.26A4.66,4.66,0,0,1,252.63,148.89Zm-.35-3a8.9,8.9,0,0,1-1.32.45c-.58.17-1,.29-1.21.37a1.64,1.64,0,0,0-.63.39.93.93,0,0,0-.26.75,1.13,1.13,0,0,0,.42.79,1.34,1.34,0,0,0,1,.27,2.47,2.47,0,0,0,1.14-.36,1.83,1.83,0,0,0,.73-.76,3.22,3.22,0,0,0,.18-1.6Z"/></g></svg>