<svg id="phytoplankton_less" xmlns="http://www.w3.org/2000/svg" viewBox="0 0 945.72 234.6"><defs><style>.cls-1{fill:#98a53d;}.cls-2{fill:#00a99d;}.cls-3{fill:#94e0f1;}.cls-4{fill:#fbb03b;}.cls-5{fill:#f1e033;}.cls-6{fill:#738457;}</style></defs><g id="Layer_35" data-name="Layer 35"><path class="cls-1" d="M182,567c-8.25-10.62-21.26-16.53-29.06-13.18a8.92,8.92,0,0,0-5.29,6.47c-1.17,5.08.88,12.09,6.11,18.83,8.26,10.62,21.27,16.52,29.07,13.18,4.68-2,6.41-6.9,5.27-12.78A30.59,30.59,0,0,0,182,567Z" transform="translate(-68.99 -451.78)"/><path class="cls-1" d="M136.68,469.5c-6.45-11.73-18.37-19.51-26.6-17.37a9,9,0,0,0-6.26,5.59c-2,4.86-1.06,12.09,3,19.53,6.46,11.73,18.37,19.51,26.61,17.37,4.95-1.29,7.44-5.86,7.25-11.84A30.26,30.26,0,0,0,136.68,469.5Z" transform="translate(-68.99 -451.78)"/><path class="cls-1" d="M294.14,632.51c-6.46-11.73-18.37-19.51-26.61-17.37a9,9,0,0,0-6.26,5.59c-2,4.85-1.06,12.09,3,19.52,6.45,11.74,18.37,19.51,26.6,17.37,4.95-1.28,7.44-5.85,7.25-11.83A30.2,30.2,0,0,0,294.14,632.51Z" transform="translate(-68.99 -451.78)"/><path class="cls-1" d="M404.94,528.37c-11.74-6.9-26.08-7.71-32-1.8a8.7,8.7,0,0,0-2.44,7.9c.86,5.15,5.46,10.92,12.9,15.3,11.74,6.9,26.08,7.71,32,1.8,3.58-3.55,3.31-8.71,0-13.76A31.52,31.52,0,0,0,404.94,528.37Z" transform="translate(-68.99 -451.78)"/><path class="cls-1" d="M516.14,512.37c5-1.29,7.44-5.85,7.25-11.84a30.26,30.26,0,0,0-4-13.28c-6.45-11.73-18.36-19.51-26.6-17.37a9,9,0,0,0-6.26,5.6c-2,4.85-1.06,12.08,3,19.52C496,506.73,507.9,514.51,516.14,512.37Z" transform="translate(-68.99 -451.78)"/><path class="cls-1" d="M747.58,487.79c-8.26-10.63-21.27-16.53-29.07-13.18a8.93,8.93,0,0,0-5.29,6.47c-1.17,5.08.89,12.09,6.12,18.83,8.25,10.62,21.26,16.52,29.06,13.18,4.68-2,6.42-6.9,5.27-12.78A30.55,30.55,0,0,0,747.58,487.79Z" transform="translate(-68.99 -451.78)"/><path class="cls-1" d="M672,660.91c-6.46-11.73-18.37-19.51-26.61-17.37a9,9,0,0,0-6.25,5.59c-2,4.85-1.06,12.09,3,19.52,6.46,11.74,18.37,19.51,26.61,17.38,4.94-1.29,7.44-5.86,7.25-11.84A30.22,30.22,0,0,0,672,660.91Z" transform="translate(-68.99 -451.78)"/><path class="cls-1" d="M688.75,522.05c-9.66-8.52-23.36-12-30.59-7.71a8.47,8.47,0,0,0-4.32,6.75c-.43,4.86,2.6,11,8.72,16.39,9.67,8.52,23.37,12,30.6,7.71,4.34-2.56,5.36-7.32,3.39-12.55A27.66,27.66,0,0,0,688.75,522.05Z" transform="translate(-68.99 -451.78)"/><path class="cls-1" d="M103.7,649c-8.37-9.79-21.45-15.12-29.21-11.92a8.42,8.42,0,0,0-5.21,6.08c-1.12,4.75,1,11.25,6.33,17.45,8.38,9.79,21.46,15.13,29.21,11.92,4.66-1.92,6.34-6.49,5.12-12A27.47,27.47,0,0,0,103.7,649Z" transform="translate(-68.99 -451.78)"/><path class="cls-1" d="M537.7,624c-8.37-9.79-21.45-15.12-29.21-11.92a8.42,8.42,0,0,0-5.21,6.08c-1.12,4.75,1,11.25,6.33,17.45,8.38,9.79,21.46,15.13,29.21,11.92,4.66-1.92,6.34-6.49,5.12-12A27.47,27.47,0,0,0,537.7,624Z" transform="translate(-68.99 -451.78)"/><path class="cls-1" d="M1014.37,639.49a30.4,30.4,0,0,0-6.1-12.52c-8.25-10.63-21.26-16.53-29.06-13.18a8.91,8.91,0,0,0-5.29,6.46c-1.17,5.09.89,12.1,6.12,18.84,8.25,10.62,21.26,16.52,29.06,13.18C1013.78,650.26,1015.51,645.37,1014.37,639.49Z" transform="translate(-68.99 -451.78)"/><path class="cls-1" d="M908.14,553.11c-6.45-11.73-18.37-19.51-26.6-17.37a9,9,0,0,0-6.26,5.59c-2,4.85-1.06,12.09,3,19.53,6.46,11.73,18.37,19.51,26.61,17.37,5-1.29,7.44-5.86,7.25-11.84A30.22,30.22,0,0,0,908.14,553.11Z" transform="translate(-68.99 -451.78)"/><path class="cls-1" d="M998.06,492.51c4.65-1.92,6.33-6.49,5.12-11.95A27.69,27.69,0,0,0,996.94,469c-8.38-9.79-21.46-15.13-29.22-11.92a8.42,8.42,0,0,0-5.21,6.08c-1.12,4.74,1,11.24,6.33,17.45C977.22,490.38,990.3,495.71,998.06,492.51Z" transform="translate(-68.99 -451.78)"/><path class="cls-1" d="M875.18,630.48C867.64,620,855,613.65,847.05,616.2a8.47,8.47,0,0,0-5.7,5.63c-1.5,4.64.1,11.29,4.88,17.91,7.54,10.45,20.14,16.84,28.14,14.28,4.8-1.53,6.84-5.95,6.08-11.49A27.62,27.62,0,0,0,875.18,630.48Z" transform="translate(-68.99 -451.78)"/><path class="cls-1" d="M361,465.22c-8.37-9.79-21.45-15.13-29.21-11.92a8.42,8.42,0,0,0-5.21,6.07c-1.12,4.75,1,11.25,6.33,17.45,8.38,9.79,21.45,15.13,29.21,11.93,4.66-1.93,6.34-6.5,5.12-12A27.61,27.61,0,0,0,361,465.22Z" transform="translate(-68.99 -451.78)"/></g><g id="Layer_35_copy" data-name="Layer 35 copy"><path class="cls-2" d="M183,584.82c-8,3.45-21.23-2.37-29.49-13a30.46,30.46,0,0,1-5.81-11.58c-1.17,5.08.88,12.09,6.11,18.83,8.26,10.62,21.27,16.52,29.07,13.18,4.68-2,6.41-6.9,5.27-12.78A9.24,9.24,0,0,1,183,584.82Z" transform="translate(-68.99 -451.78)"/><path class="cls-3" d="M183,584.82a9.24,9.24,0,0,0,5.15-5.35A30.59,30.59,0,0,0,182,567c-8.25-10.62-21.26-16.53-29.06-13.18a8.92,8.92,0,0,0-5.29,6.47,30.46,30.46,0,0,0,5.81,11.58C161.76,582.45,175,588.27,183,584.82Z" transform="translate(-68.99 -451.78)"/><path class="cls-4" d="M134.77,487.3c-8.49,2.2-20.6-5.52-27.06-17.26a30.1,30.1,0,0,1-3.89-12.32c-2,4.86-1.06,12.09,3,19.53,6.46,11.73,18.37,19.51,26.61,17.37,4.95-1.29,7.44-5.86,7.25-11.84A9.4,9.4,0,0,1,134.77,487.3Z" transform="translate(-68.99 -451.78)"/><path class="cls-5" d="M134.77,487.3a9.4,9.4,0,0,0,5.94-4.52,30.26,30.26,0,0,0-4-13.28c-6.45-11.73-18.37-19.51-26.6-17.37a9,9,0,0,0-6.26,5.59A30.1,30.1,0,0,0,107.71,470C114.17,481.78,126.28,489.5,134.77,487.3Z" transform="translate(-68.99 -451.78)"/><path class="cls-4" d="M292.22,650.31c-8.48,2.2-20.6-5.53-27.05-17.26a30.17,30.17,0,0,1-3.9-12.32c-2,4.85-1.06,12.09,3,19.52,6.45,11.74,18.37,19.51,26.6,17.37,4.95-1.28,7.44-5.85,7.25-11.83A9.41,9.41,0,0,1,292.22,650.31Z" transform="translate(-68.99 -451.78)"/><path class="cls-5" d="M292.22,650.31a9.41,9.41,0,0,0,5.94-4.52,30.2,30.2,0,0,0-4-13.28c-6.46-11.73-18.37-19.51-26.61-17.37a9,9,0,0,0-6.26,5.59,30.17,30.17,0,0,0,3.9,12.32C271.62,644.78,283.74,652.51,292.22,650.31Z" transform="translate(-68.99 -451.78)"/><path class="cls-2" d="M412.67,544.63c-6.14,6.08-20.63,5.42-32.36-1.48a31.59,31.59,0,0,1-9.85-8.68c.86,5.15,5.46,10.92,12.9,15.3,11.74,6.9,26.08,7.71,32,1.8,3.58-3.55,3.31-8.71,0-13.76A9,9,0,0,1,412.67,544.63Z" transform="translate(-68.99 -451.78)"/><path class="cls-3" d="M412.67,544.63a9,9,0,0,0,2.73-6.82,31.52,31.52,0,0,0-10.46-9.44c-11.74-6.9-26.08-7.71-32-1.8a8.7,8.7,0,0,0-2.44,7.9,31.59,31.59,0,0,0,9.85,8.68C392,550.05,406.53,550.71,412.67,544.63Z" transform="translate(-68.99 -451.78)"/><path class="cls-4" d="M517.45,505.05c-8.49,2.2-20.6-5.52-27.06-17.25a30.19,30.19,0,0,1-3.89-12.32c-2,4.85-1.06,12.08,3,19.52,6.46,11.73,18.37,19.51,26.61,17.37,5-1.29,7.44-5.85,7.25-11.84A9.37,9.37,0,0,1,517.45,505.05Z" transform="translate(-68.99 -451.78)"/><path class="cls-5" d="M517.45,505.05a9.37,9.37,0,0,0,5.94-4.52,30.26,30.26,0,0,0-4-13.28c-6.45-11.73-18.36-19.51-26.6-17.37a9,9,0,0,0-6.26,5.6,30.19,30.19,0,0,0,3.89,12.32C496.85,499.53,509,507.25,517.45,505.05Z" transform="translate(-68.99 -451.78)"/><path class="cls-2" d="M748.52,505.66c-8,3.45-21.23-2.37-29.48-13a30.49,30.49,0,0,1-5.82-11.58c-1.17,5.08.89,12.09,6.12,18.83,8.25,10.62,21.26,16.52,29.06,13.18,4.68-2,6.42-6.9,5.27-12.78A9.21,9.21,0,0,1,748.52,505.66Z" transform="translate(-68.99 -451.78)"/><path class="cls-3" d="M748.52,505.66a9.21,9.21,0,0,0,5.15-5.35,30.55,30.55,0,0,0-6.09-12.52c-8.26-10.62-21.27-16.53-29.07-13.18a8.93,8.93,0,0,0-5.29,6.47A30.49,30.49,0,0,0,719,492.66C727.29,503.29,740.49,509.11,748.52,505.66Z" transform="translate(-68.99 -451.78)"/><path class="cls-4" d="M670.07,678.71c-8.48,2.2-20.59-5.53-27.05-17.26a30,30,0,0,1-3.89-12.32c-2,4.85-1.06,12.09,3,19.52,6.46,11.74,18.37,19.51,26.61,17.38,4.94-1.29,7.44-5.86,7.25-11.84A9.43,9.43,0,0,1,670.07,678.71Z" transform="translate(-68.99 -451.78)"/><path class="cls-5" d="M670.07,678.71a9.43,9.43,0,0,0,5.95-4.52,30.22,30.22,0,0,0-4-13.28c-6.46-11.73-18.37-19.51-26.61-17.37a9,9,0,0,0-6.25,5.59A30,30,0,0,0,643,661.45C649.48,673.18,661.59,680.91,670.07,678.71Z" transform="translate(-68.99 -451.78)"/><path class="cls-6" d="M692.22,538.34c-7.44,4.39-21.32,1-31-7.48a27.55,27.55,0,0,1-7.4-9.77c-.43,4.86,2.6,11,8.72,16.39,9.67,8.52,23.37,12,30.6,7.71,4.34-2.56,5.36-7.32,3.39-12.55A8.87,8.87,0,0,1,692.22,538.34Z" transform="translate(-68.99 -451.78)"/><path class="cls-1" d="M692.22,538.34a8.87,8.87,0,0,0,4.33-5.7,27.66,27.66,0,0,0-7.8-10.59c-9.66-8.52-23.36-12-30.59-7.71a8.47,8.47,0,0,0-4.32,6.75,27.55,27.55,0,0,0,7.4,9.77C670.9,539.38,684.78,542.73,692.22,538.34Z" transform="translate(-68.99 -451.78)"/><path class="cls-6" d="M104.86,665.58c-8,3.3-21.26-2-29.63-11.75a27.58,27.58,0,0,1-6-10.71c-1.12,4.75,1,11.25,6.33,17.45,8.38,9.79,21.46,15.13,29.21,11.92,4.66-1.92,6.34-6.49,5.12-12A8.87,8.87,0,0,1,104.86,665.58Z" transform="translate(-68.99 -451.78)"/><path class="cls-1" d="M104.86,665.58a8.87,8.87,0,0,0,5.08-5A27.47,27.47,0,0,0,103.7,649c-8.37-9.79-21.45-15.12-29.21-11.92a8.42,8.42,0,0,0-5.21,6.08,27.58,27.58,0,0,0,6,10.71C83.6,663.62,96.87,668.88,104.86,665.58Z" transform="translate(-68.99 -451.78)"/><path class="cls-6" d="M538.86,640.58c-8,3.3-21.26-2-29.63-11.75a27.58,27.58,0,0,1-6-10.71c-1.12,4.75,1,11.25,6.33,17.45,8.38,9.79,21.46,15.13,29.21,11.92,4.66-1.92,6.34-6.49,5.12-12A8.87,8.87,0,0,1,538.86,640.58Z" transform="translate(-68.99 -451.78)"/><path class="cls-1" d="M538.86,640.58a8.87,8.87,0,0,0,5.08-5A27.47,27.47,0,0,0,537.7,624c-8.37-9.79-21.45-15.12-29.21-11.92a8.42,8.42,0,0,0-5.21,6.08,27.58,27.58,0,0,0,6,10.71C517.6,638.62,530.87,643.88,538.86,640.58Z" transform="translate(-68.99 -451.78)"/><path class="cls-2" d="M1009.22,644.84c-8,3.45-21.23-2.37-29.48-13a30.53,30.53,0,0,1-5.82-11.59c-1.17,5.09.89,12.1,6.12,18.84,8.25,10.62,21.26,16.52,29.06,13.18,4.68-2,6.41-6.9,5.27-12.78A9.24,9.24,0,0,1,1009.22,644.84Z" transform="translate(-68.99 -451.78)"/><path class="cls-3" d="M1009.22,644.84a9.24,9.24,0,0,0,5.15-5.35,30.4,30.4,0,0,0-6.1-12.52c-8.25-10.63-21.26-16.53-29.06-13.18a8.91,8.91,0,0,0-5.29,6.46,30.53,30.53,0,0,0,5.82,11.59C988,642.47,1001.19,648.29,1009.22,644.84Z" transform="translate(-68.99 -451.78)"/><path class="cls-4" d="M906.23,570.91c-8.49,2.2-20.6-5.52-27.06-17.26a30.15,30.15,0,0,1-3.89-12.32c-2,4.85-1.06,12.09,3,19.53,6.46,11.73,18.37,19.51,26.61,17.37,5-1.29,7.44-5.86,7.25-11.84A9.4,9.4,0,0,1,906.23,570.91Z" transform="translate(-68.99 -451.78)"/><path class="cls-5" d="M906.23,570.91a9.4,9.4,0,0,0,5.94-4.52,30.22,30.22,0,0,0-4-13.28c-6.45-11.73-18.37-19.51-26.6-17.37a9,9,0,0,0-6.26,5.59,30.15,30.15,0,0,0,3.89,12.32C885.63,565.39,897.74,573.11,906.23,570.91Z" transform="translate(-68.99 -451.78)"/><path class="cls-6" d="M998.09,485.6c-8,3.3-21.26-2-29.63-11.75a27.58,27.58,0,0,1-6-10.71c-1.12,4.74,1,11.24,6.33,17.45,8.38,9.79,21.46,15.12,29.22,11.92,4.65-1.92,6.33-6.49,5.12-11.95A8.92,8.92,0,0,1,998.09,485.6Z" transform="translate(-68.99 -451.78)"/><path class="cls-1" d="M998.09,485.6a8.92,8.92,0,0,0,5.09-5A27.69,27.69,0,0,0,996.94,469c-8.38-9.79-21.46-15.13-29.22-11.92a8.42,8.42,0,0,0-5.21,6.08,27.58,27.58,0,0,0,6,10.71C976.83,483.64,990.1,488.9,998.09,485.6Z" transform="translate(-68.99 -451.78)"/><path class="cls-6" d="M875,647.14c-8.24,2.63-21-3.7-28.57-14.14a27.72,27.72,0,0,1-5-11.17c-1.5,4.64.1,11.29,4.88,17.91,7.54,10.45,20.14,16.84,28.14,14.28,4.8-1.53,6.84-5.95,6.08-11.49A8.9,8.9,0,0,1,875,647.14Z" transform="translate(-68.99 -451.78)"/><path class="cls-1" d="M875,647.14a8.9,8.9,0,0,0,5.48-4.61,27.62,27.62,0,0,0-5.27-12C867.64,620,855,613.65,847.05,616.2a8.47,8.47,0,0,0-5.7,5.63,27.72,27.72,0,0,0,5,11.17C853.94,643.44,866.73,649.77,875,647.14Z" transform="translate(-68.99 -451.78)"/><path class="cls-6" d="M362.18,481.84c-8,3.3-21.26-2-29.64-11.75a27.58,27.58,0,0,1-5.94-10.72c-1.12,4.75,1,11.25,6.33,17.45,8.38,9.79,21.45,15.13,29.21,11.93,4.66-1.93,6.34-6.5,5.12-12A8.89,8.89,0,0,1,362.18,481.84Z" transform="translate(-68.99 -451.78)"/><path class="cls-1" d="M362.18,481.84a8.89,8.89,0,0,0,5.08-5A27.61,27.61,0,0,0,361,465.22c-8.37-9.79-21.45-15.13-29.21-11.92a8.42,8.42,0,0,0-5.21,6.07,27.58,27.58,0,0,0,5.94,10.72C340.92,479.88,354.19,485.14,362.18,481.84Z" transform="translate(-68.99 -451.78)"/></g></svg>