<svg id="phytoplankton" xmlns="http://www.w3.org/2000/svg" viewBox="0 0 1056.48 311.53"><defs><style>.cls-1{fill:#98a53d;}.cls-2{fill:#738457;}.cls-3{fill:#00a99d;}.cls-4{fill:#94e0f1;}.cls-5{fill:#fbb03b;}.cls-6{fill:#f1e033;}</style></defs><g id="phytoplankton_copy" data-name="phytoplankton copy"><path class="cls-1" d="M80.57,526.94c4.66-1.92,6.34-6.49,5.12-12a27.58,27.58,0,0,0-6.24-11.58c-8.37-9.79-21.45-15.12-29.21-11.92A8.42,8.42,0,0,0,45,497.57c-1.12,4.75,1,11.25,6.33,17.45C59.74,524.81,72.81,530.15,80.57,526.94Z" transform="translate(-44.74 -390.89)"/><path class="cls-1" d="M146,585c-8.25-10.62-21.26-16.53-29.06-13.18a8.92,8.92,0,0,0-5.29,6.47c-1.17,5.08.88,12.09,6.11,18.83,8.26,10.62,21.27,16.52,29.07,13.18,4.68-2,6.41-6.9,5.27-12.78A30.59,30.59,0,0,0,146,585Z" transform="translate(-44.74 -390.89)"/><path class="cls-1" d="M133.46,460.62c4.95-1.29,7.44-5.86,7.25-11.84a30.26,30.26,0,0,0-4-13.28c-6.45-11.73-18.37-19.51-26.6-17.37a9,9,0,0,0-6.26,5.59c-2,4.86-1.06,12.09,3,19.53C113.31,455,125.22,462.76,133.46,460.62Z" transform="translate(-44.74 -390.89)"/><path class="cls-1" d="M237.32,480.15c4.68-2,6.42-6.9,5.27-12.78a30.46,30.46,0,0,0-6.1-12.52c-8.25-10.62-21.26-16.53-29.06-13.18a9,9,0,0,0-5.29,6.47c-1.17,5.08.89,12.09,6.12,18.83C216.51,477.59,229.52,483.49,237.32,480.15Z" transform="translate(-44.74 -390.89)"/><path class="cls-1" d="M252.14,666.51c-6.46-11.73-18.37-19.51-26.61-17.37a9,9,0,0,0-6.26,5.59c-2,4.85-1.06,12.09,3,19.52,6.45,11.74,18.37,19.51,26.6,17.37,5-1.28,7.44-5.85,7.25-11.83A30.2,30.2,0,0,0,252.14,666.51Z" transform="translate(-44.74 -390.89)"/><path class="cls-1" d="M358.94,603.37c-11.74-6.9-26.08-7.71-32-1.8a8.7,8.7,0,0,0-2.44,7.9c.86,5.15,5.46,10.92,12.9,15.3,11.74,6.9,26.08,7.71,32,1.8,3.58-3.55,3.31-8.71,0-13.76A31.52,31.52,0,0,0,358.94,603.37Z" transform="translate(-44.74 -390.89)"/><path class="cls-1" d="M342.69,518.21c4.94-1.29,7.44-5.86,7.24-11.84a30.1,30.1,0,0,0-4-13.28c-6.46-11.73-18.37-19.51-26.61-17.37a9,9,0,0,0-6.26,5.6c-2,4.85-1.05,12.08,3,19.52C322.54,512.57,334.45,520.35,342.69,518.21Z" transform="translate(-44.74 -390.89)"/><path class="cls-1" d="M544.55,519.75c4.68-2,6.41-6.9,5.27-12.78a30.59,30.59,0,0,0-6.1-12.52c-8.25-10.62-21.26-16.52-29.06-13.18a8.92,8.92,0,0,0-5.29,6.47c-1.17,5.09.89,12.1,6.12,18.83C523.74,517.2,536.75,523.1,544.55,519.75Z" transform="translate(-44.74 -390.89)"/><path class="cls-1" d="M477.36,557.25c-6.45-11.73-18.36-19.51-26.6-17.37a9,9,0,0,0-6.26,5.6c-2,4.85-1.06,12.08,3,19.52,6.46,11.73,18.37,19.51,26.61,17.37,4.95-1.29,7.44-5.85,7.25-11.84A30.26,30.26,0,0,0,477.36,557.25Z" transform="translate(-44.74 -390.89)"/><path class="cls-1" d="M573.25,608.58C565,598,552,592.05,544.19,595.4a8.92,8.92,0,0,0-5.29,6.47c-1.18,5.08.88,12.09,6.11,18.83,8.26,10.62,21.27,16.52,29.06,13.18,4.69-2,6.42-6.9,5.27-12.78A30.43,30.43,0,0,0,573.25,608.58Z" transform="translate(-44.74 -390.89)"/><path class="cls-1" d="M706.58,425.79c-8.26-10.63-21.27-16.53-29.07-13.18a8.93,8.93,0,0,0-5.29,6.47c-1.17,5.08.89,12.09,6.12,18.83,8.25,10.62,21.26,16.52,29.06,13.18,4.68-2,6.42-6.9,5.27-12.78A30.55,30.55,0,0,0,706.58,425.79Z" transform="translate(-44.74 -390.89)"/><path class="cls-1" d="M643,664.91c-6.46-11.73-18.37-19.51-26.61-17.37a9,9,0,0,0-6.25,5.59c-2,4.85-1.06,12.09,3,19.52,6.46,11.74,18.37,19.51,26.61,17.38,4.94-1.29,7.44-5.86,7.25-11.84A30.22,30.22,0,0,0,643,664.91Z" transform="translate(-44.74 -390.89)"/><path class="cls-1" d="M759.23,646.64C751,636,738,630.12,730.17,633.46a8.9,8.9,0,0,0-5.29,6.47c-1.18,5.09.88,12.1,6.11,18.83,8.25,10.63,21.27,16.53,29.06,13.18,4.68-2,6.42-6.9,5.27-12.78A30.55,30.55,0,0,0,759.23,646.64Z" transform="translate(-44.74 -390.89)"/><path class="cls-1" d="M758.38,513a9.29,9.29,0,0,0-7.91,3.07c-3.63,3.85-5.44,10.93-4.35,19.29,1.71,13.19,10,24.56,18.47,25.41,5.09.5,9.1-2.91,11.12-8.57a29.84,29.84,0,0,0,1.13-13.79C775.13,525.18,766.86,513.8,758.38,513Z" transform="translate(-44.74 -390.89)"/><path class="cls-1" d="M441.82,461.49c4.66-1.92,6.34-6.49,5.12-11.95A27.47,27.47,0,0,0,440.7,438c-8.37-9.79-21.45-15.12-29.21-11.92a8.42,8.42,0,0,0-5.21,6.08c-1.12,4.75,1,11.25,6.33,17.45C421,459.36,434.07,464.7,441.82,461.49Z" transform="translate(-44.74 -390.89)"/><path class="cls-1" d="M239.82,574.49c4.66-1.92,6.34-6.49,5.12-12A27.47,27.47,0,0,0,238.7,551c-8.37-9.79-21.45-15.12-29.21-11.92a8.42,8.42,0,0,0-5.21,6.08c-1.12,4.75,1,11.25,6.33,17.45C219,572.36,232.07,577.7,239.82,574.49Z" transform="translate(-44.74 -390.89)"/><path class="cls-1" d="M665.7,548c-8.37-9.79-21.45-15.12-29.21-11.92a8.42,8.42,0,0,0-5.21,6.08c-1.12,4.75,1,11.25,6.33,17.45,8.38,9.79,21.46,15.13,29.21,11.92,4.66-1.92,6.34-6.49,5.12-12A27.47,27.47,0,0,0,665.7,548Z" transform="translate(-44.74 -390.89)"/><path class="cls-1" d="M103.7,669c-8.37-9.79-21.45-15.12-29.21-11.92a8.42,8.42,0,0,0-5.21,6.08c-1.12,4.75,1,11.25,6.33,17.45,8.38,9.79,21.46,15.13,29.21,11.92,4.66-1.92,6.34-6.49,5.12-12A27.47,27.47,0,0,0,103.7,669Z" transform="translate(-44.74 -390.89)"/><path class="cls-1" d="M452.7,678c-8.37-9.79-21.45-15.12-29.21-11.92a8.42,8.42,0,0,0-5.21,6.08c-1.12,4.75,1,11.25,6.33,17.45,8.38,9.79,21.46,15.13,29.21,11.92,4.66-1.92,6.34-6.49,5.12-12A27.47,27.47,0,0,0,452.7,678Z" transform="translate(-44.74 -390.89)"/><path class="cls-1" d="M842.61,497.08c4.8-1.54,6.85-5.95,6.08-11.5a27.59,27.59,0,0,0-5.26-12.05c-7.55-10.44-20.15-16.83-28.14-14.28a8.47,8.47,0,0,0-5.7,5.63c-1.5,4.64.1,11.3,4.88,17.92C822,493.24,834.62,499.63,842.61,497.08Z" transform="translate(-44.74 -390.89)"/><path class="cls-1" d="M905.27,566C897,555.34,884,549.44,876.21,552.79a8.91,8.91,0,0,0-5.29,6.46c-1.17,5.09.89,12.1,6.12,18.84,8.25,10.62,21.26,16.52,29.06,13.18,4.68-2,6.41-6.9,5.27-12.78A30.4,30.4,0,0,0,905.27,566Z" transform="translate(-44.74 -390.89)"/><path class="cls-1" d="M900.76,435.32c5-.88,7.9-5.23,8.2-11.21A30.11,30.11,0,0,0,906,410.55c-5.47-12.22-16.71-20.95-25.09-19.5a9.08,9.08,0,0,0-6.7,5.07c-2.36,4.67-2,11.95,1.42,19.7C881.15,428,892.38,436.77,900.76,435.32Z" transform="translate(-44.74 -390.89)"/><path class="cls-1" d="M996.55,451.17c4.69-2,6.42-6.9,5.27-12.78a30.37,30.37,0,0,0-6.09-12.52c-8.25-10.63-21.27-16.53-29.06-13.18a8.89,8.89,0,0,0-5.29,6.46c-1.18,5.09.88,12.1,6.11,18.84C975.75,448.61,988.76,454.51,996.55,451.17Z" transform="translate(-44.74 -390.89)"/><path class="cls-1" d="M1011.37,647.53c-6.46-11.74-18.37-19.51-26.61-17.37a9,9,0,0,0-6.26,5.59c-2,4.85-1,12.09,3,19.52,6.46,11.74,18.37,19.51,26.61,17.37,4.94-1.28,7.44-5.85,7.24-11.84A30,30,0,0,0,1011.37,647.53Z" transform="translate(-44.74 -390.89)"/><path class="cls-1" d="M1098.63,597.82a31.6,31.6,0,0,0-10.46-9.43c-11.73-6.9-26.08-7.71-32-1.8a8.66,8.66,0,0,0-2.43,7.9c.86,5.15,5.46,10.92,12.9,15.3,11.73,6.9,26.08,7.7,32,1.8C1102.21,608,1102,602.88,1098.63,597.82Z" transform="translate(-44.74 -390.89)"/><path class="cls-1" d="M1071.92,503.23c4.95-1.29,7.44-5.86,7.25-11.84a30.22,30.22,0,0,0-4-13.28c-6.45-11.73-18.37-19.51-26.6-17.37a9,9,0,0,0-6.26,5.59c-2,4.85-1.06,12.09,3,19.53C1051.77,497.59,1063.68,505.37,1071.92,503.23Z" transform="translate(-44.74 -390.89)"/><path class="cls-1" d="M999.06,555.51c4.65-1.92,6.33-6.49,5.12-12A27.69,27.69,0,0,0,997.94,532c-8.38-9.79-21.46-15.13-29.22-11.92a8.42,8.42,0,0,0-5.21,6.08c-1.12,4.74,1,11.24,6.33,17.45C978.22,553.38,991.3,558.71,999.06,555.51Z" transform="translate(-44.74 -390.89)"/><path class="cls-1" d="M853.18,650.48C845.64,640,833,633.65,825.05,636.2a8.47,8.47,0,0,0-5.7,5.63c-1.5,4.64.1,11.29,4.88,17.91,7.54,10.45,20.14,16.84,28.14,14.28,4.8-1.53,6.84-5.95,6.08-11.49A27.62,27.62,0,0,0,853.18,650.48Z" transform="translate(-44.74 -390.89)"/></g><g id="Layer_34" data-name="Layer 34"><path class="cls-2" d="M80.61,520c-8,3.3-21.26-2-29.64-11.75A27.55,27.55,0,0,1,45,497.57c-1.12,4.75,1,11.25,6.33,17.45,8.38,9.79,21.45,15.13,29.21,11.92,4.66-1.92,6.34-6.49,5.12-12A8.9,8.9,0,0,1,80.61,520Z" transform="translate(-44.74 -390.89)"/><path class="cls-1" d="M80.61,520a8.9,8.9,0,0,0,5.08-5,27.58,27.58,0,0,0-6.24-11.58c-8.37-9.79-21.45-15.12-29.21-11.92A8.42,8.42,0,0,0,45,497.57,27.55,27.55,0,0,0,51,508.28C59.35,518.07,72.62,523.33,80.61,520Z" transform="translate(-44.74 -390.89)"/><path class="cls-3" d="M147,602.82c-8,3.45-21.23-2.37-29.49-13a30.46,30.46,0,0,1-5.81-11.58c-1.17,5.08.88,12.09,6.11,18.83,8.26,10.62,21.27,16.52,29.07,13.18,4.68-2,6.41-6.9,5.27-12.78A9.24,9.24,0,0,1,147,602.82Z" transform="translate(-44.74 -390.89)"/><path class="cls-4" d="M147,602.82a9.24,9.24,0,0,0,5.15-5.35A30.59,30.59,0,0,0,146,585c-8.25-10.62-21.26-16.53-29.06-13.18a8.92,8.92,0,0,0-5.29,6.47,30.46,30.46,0,0,0,5.81,11.58C125.76,600.45,139,606.27,147,602.82Z" transform="translate(-44.74 -390.89)"/><path class="cls-5" d="M134.77,453.3c-8.49,2.2-20.6-5.52-27.06-17.26a30.1,30.1,0,0,1-3.89-12.32c-2,4.86-1.06,12.09,3,19.53,6.46,11.73,18.37,19.51,26.61,17.37,4.95-1.29,7.44-5.86,7.25-11.84A9.4,9.4,0,0,1,134.77,453.3Z" transform="translate(-44.74 -390.89)"/><path class="cls-6" d="M134.77,453.3a9.4,9.4,0,0,0,5.94-4.52,30.26,30.26,0,0,0-4-13.28c-6.45-11.73-18.37-19.51-26.6-17.37a9,9,0,0,0-6.26,5.59A30.1,30.1,0,0,0,107.71,436C114.17,447.78,126.28,455.5,134.77,453.3Z" transform="translate(-44.74 -390.89)"/><path class="cls-3" d="M237.44,472.72c-8,3.45-21.23-2.37-29.48-13a30.49,30.49,0,0,1-5.82-11.58c-1.17,5.08.89,12.09,6.12,18.83,8.25,10.62,21.26,16.52,29.06,13.18,4.68-2,6.42-6.9,5.27-12.78A9.21,9.21,0,0,1,237.44,472.72Z" transform="translate(-44.74 -390.89)"/><path class="cls-4" d="M237.44,472.72a9.21,9.21,0,0,0,5.15-5.35,30.46,30.46,0,0,0-6.1-12.52c-8.25-10.62-21.26-16.53-29.06-13.18a9,9,0,0,0-5.29,6.47A30.49,30.49,0,0,0,208,459.72C216.21,470.35,229.41,476.17,237.44,472.72Z" transform="translate(-44.74 -390.89)"/><path class="cls-5" d="M250.22,684.31c-8.48,2.2-20.6-5.53-27.05-17.26a30.17,30.17,0,0,1-3.9-12.32c-2,4.85-1.06,12.09,3,19.52,6.45,11.74,18.37,19.51,26.6,17.37,5-1.28,7.44-5.85,7.25-11.83A9.41,9.41,0,0,1,250.22,684.31Z" transform="translate(-44.74 -390.89)"/><path class="cls-6" d="M250.22,684.31a9.41,9.41,0,0,0,5.94-4.52,30.2,30.2,0,0,0-4-13.28c-6.46-11.73-18.37-19.51-26.61-17.37a9,9,0,0,0-6.26,5.59,30.17,30.17,0,0,0,3.9,12.32C229.62,678.78,241.74,686.51,250.22,684.31Z" transform="translate(-44.74 -390.89)"/><path class="cls-3" d="M366.67,619.63c-6.14,6.08-20.63,5.42-32.36-1.48a31.59,31.59,0,0,1-9.85-8.68c.86,5.15,5.46,10.92,12.9,15.3,11.74,6.9,26.08,7.71,32,1.8,3.58-3.55,3.31-8.71,0-13.76A9,9,0,0,1,366.67,619.63Z" transform="translate(-44.74 -390.89)"/><path class="cls-4" d="M366.67,619.63a9,9,0,0,0,2.73-6.82,31.52,31.52,0,0,0-10.46-9.44c-11.74-6.9-26.08-7.71-32-1.8a8.7,8.7,0,0,0-2.44,7.9,31.59,31.59,0,0,0,9.85,8.68C346,625.05,360.53,625.71,366.67,619.63Z" transform="translate(-44.74 -390.89)"/><path class="cls-5" d="M344,510.89c-8.48,2.2-20.59-5.52-27.05-17.26a30.13,30.13,0,0,1-3.9-12.31c-2,4.85-1.05,12.08,3,19.52,6.46,11.73,18.37,19.51,26.61,17.37,4.94-1.29,7.44-5.86,7.24-11.84A9.32,9.32,0,0,1,344,510.89Z" transform="translate(-44.74 -390.89)"/><path class="cls-6" d="M344,510.89a9.32,9.32,0,0,0,5.94-4.52,30.1,30.1,0,0,0-4-13.28c-6.46-11.73-18.37-19.51-26.61-17.37a9,9,0,0,0-6.26,5.6,30.13,30.13,0,0,0,3.9,12.31C323.4,505.37,335.51,513.09,344,510.89Z" transform="translate(-44.74 -390.89)"/><path class="cls-3" d="M544.67,512.33c-8,3.44-21.23-2.38-29.48-13a30.45,30.45,0,0,1-5.82-11.59c-1.17,5.09.89,12.1,6.12,18.83,8.25,10.63,21.26,16.53,29.06,13.18,4.68-2,6.41-6.9,5.27-12.78A9.29,9.29,0,0,1,544.67,512.33Z" transform="translate(-44.74 -390.89)"/><path class="cls-4" d="M544.67,512.33a9.29,9.29,0,0,0,5.15-5.36,30.59,30.59,0,0,0-6.1-12.52c-8.25-10.62-21.26-16.52-29.06-13.18a8.92,8.92,0,0,0-5.29,6.47,30.45,30.45,0,0,0,5.82,11.59C523.44,510,536.64,515.77,544.67,512.33Z" transform="translate(-44.74 -390.89)"/><path class="cls-5" d="M475.45,575.05c-8.49,2.2-20.6-5.52-27.06-17.25a30.19,30.19,0,0,1-3.89-12.32c-2,4.85-1.06,12.08,3,19.52,6.46,11.73,18.37,19.51,26.61,17.37,4.95-1.29,7.44-5.85,7.25-11.84A9.37,9.37,0,0,1,475.45,575.05Z" transform="translate(-44.74 -390.89)"/><path class="cls-6" d="M475.45,575.05a9.37,9.37,0,0,0,5.94-4.52,30.26,30.26,0,0,0-4-13.28c-6.45-11.73-18.36-19.51-26.6-17.37a9,9,0,0,0-6.26,5.6,30.19,30.19,0,0,0,3.89,12.32C454.85,569.53,467,577.25,475.45,575.05Z" transform="translate(-44.74 -390.89)"/><path class="cls-3" d="M574.2,626.45c-8,3.45-21.23-2.37-29.49-13a30.31,30.31,0,0,1-5.81-11.58c-1.18,5.08.88,12.09,6.11,18.83,8.26,10.62,21.27,16.52,29.06,13.18,4.69-2,6.42-6.9,5.27-12.78A9.2,9.2,0,0,1,574.2,626.45Z" transform="translate(-44.74 -390.89)"/><path class="cls-4" d="M574.2,626.45a9.2,9.2,0,0,0,5.14-5.35,30.43,30.43,0,0,0-6.09-12.52C565,598,552,592.05,544.19,595.4a8.92,8.92,0,0,0-5.29,6.47,30.31,30.31,0,0,0,5.81,11.58C553,624.08,566.17,629.9,574.2,626.45Z" transform="translate(-44.74 -390.89)"/><path class="cls-3" d="M707.52,443.66c-8,3.45-21.23-2.37-29.48-13a30.49,30.49,0,0,1-5.82-11.58c-1.17,5.08.89,12.09,6.12,18.83,8.25,10.62,21.26,16.52,29.06,13.18,4.68-2,6.42-6.9,5.27-12.78A9.21,9.21,0,0,1,707.52,443.66Z" transform="translate(-44.74 -390.89)"/><path class="cls-4" d="M707.52,443.66a9.21,9.21,0,0,0,5.15-5.35,30.55,30.55,0,0,0-6.09-12.52c-8.26-10.62-21.27-16.53-29.07-13.18a8.93,8.93,0,0,0-5.29,6.47A30.49,30.49,0,0,0,678,430.66C686.29,441.29,699.49,447.11,707.52,443.66Z" transform="translate(-44.74 -390.89)"/><path class="cls-5" d="M641.07,682.71c-8.48,2.2-20.59-5.53-27.05-17.26a30,30,0,0,1-3.89-12.32c-2,4.85-1.06,12.09,3,19.52,6.46,11.74,18.37,19.51,26.61,17.38,4.94-1.29,7.44-5.86,7.25-11.84A9.43,9.43,0,0,1,641.07,682.71Z" transform="translate(-44.74 -390.89)"/><path class="cls-6" d="M641.07,682.71a9.43,9.43,0,0,0,5.95-4.52,30.22,30.22,0,0,0-4-13.28c-6.46-11.73-18.37-19.51-26.61-17.37a9,9,0,0,0-6.25,5.59A30,30,0,0,0,614,665.45C620.48,677.18,632.59,684.91,641.07,682.71Z" transform="translate(-44.74 -390.89)"/><path class="cls-3" d="M760.17,664.52c-8,3.44-21.23-2.38-29.48-13a30.42,30.42,0,0,1-5.81-11.59c-1.18,5.09.88,12.1,6.11,18.83,8.25,10.63,21.27,16.53,29.06,13.18,4.68-2,6.42-6.9,5.27-12.78A9.26,9.26,0,0,1,760.17,664.52Z" transform="translate(-44.74 -390.89)"/><path class="cls-4" d="M760.17,664.52a9.26,9.26,0,0,0,5.15-5.36,30.55,30.55,0,0,0-6.09-12.52C751,636,738,630.12,730.17,633.46a8.9,8.9,0,0,0-5.29,6.47,30.42,30.42,0,0,0,5.81,11.59C738.94,662.14,752.14,668,760.17,664.52Z" transform="translate(-44.74 -390.89)"/><path class="cls-5" d="M768.5,554.34c-8.74-.87-17.21-12.27-18.93-25.46a29.93,29.93,0,0,1,.9-12.85c-3.63,3.85-5.44,10.93-4.35,19.29,1.71,13.19,10,24.56,18.47,25.41,5.09.5,9.1-2.91,11.12-8.57A9.6,9.6,0,0,1,768.5,554.34Z" transform="translate(-44.74 -390.89)"/><path class="cls-6" d="M768.5,554.34a9.6,9.6,0,0,0,7.21-2.18,29.84,29.84,0,0,0,1.13-13.79c-1.71-13.19-10-24.57-18.46-25.41a9.29,9.29,0,0,0-7.91,3.07,29.93,29.93,0,0,0-.9,12.85C751.29,542.07,759.76,553.47,768.5,554.34Z" transform="translate(-44.74 -390.89)"/><path class="cls-2" d="M441.86,454.58c-8,3.3-21.26-2-29.63-11.75a27.58,27.58,0,0,1-6-10.71c-1.12,4.75,1,11.25,6.33,17.45,8.38,9.79,21.46,15.13,29.21,11.92,4.66-1.92,6.34-6.49,5.12-11.95A8.87,8.87,0,0,1,441.86,454.58Z" transform="translate(-44.74 -390.89)"/><path class="cls-1" d="M441.86,454.58a8.87,8.87,0,0,0,5.08-5A27.47,27.47,0,0,0,440.7,438c-8.37-9.79-21.45-15.12-29.21-11.92a8.42,8.42,0,0,0-5.21,6.08,27.58,27.58,0,0,0,6,10.71C420.6,452.62,433.87,457.88,441.86,454.58Z" transform="translate(-44.74 -390.89)"/><path class="cls-2" d="M239.86,567.58c-8,3.3-21.26-2-29.63-11.75a27.58,27.58,0,0,1-5.95-10.71c-1.12,4.75,1,11.25,6.33,17.45,8.38,9.79,21.46,15.13,29.21,11.92,4.66-1.92,6.34-6.49,5.12-12A8.87,8.87,0,0,1,239.86,567.58Z" transform="translate(-44.74 -390.89)"/><path class="cls-1" d="M239.86,567.58a8.87,8.87,0,0,0,5.08-5A27.47,27.47,0,0,0,238.7,551c-8.37-9.79-21.45-15.12-29.21-11.92a8.42,8.42,0,0,0-5.21,6.08,27.58,27.58,0,0,0,5.95,10.71C218.6,565.62,231.87,570.88,239.86,567.58Z" transform="translate(-44.74 -390.89)"/><path class="cls-2" d="M666.86,564.58c-8,3.3-21.26-2-29.63-11.75a27.58,27.58,0,0,1-6-10.71c-1.12,4.75,1,11.25,6.33,17.45,8.38,9.79,21.46,15.13,29.21,11.92,4.66-1.92,6.34-6.49,5.12-12A8.87,8.87,0,0,1,666.86,564.58Z" transform="translate(-44.74 -390.89)"/><path class="cls-1" d="M666.86,564.58a8.87,8.87,0,0,0,5.08-5A27.47,27.47,0,0,0,665.7,548c-8.37-9.79-21.45-15.12-29.21-11.92a8.42,8.42,0,0,0-5.21,6.08,27.58,27.58,0,0,0,6,10.71C645.6,562.62,658.87,567.88,666.86,564.58Z" transform="translate(-44.74 -390.89)"/><path class="cls-2" d="M104.86,685.58c-8,3.3-21.26-2-29.63-11.75a27.58,27.58,0,0,1-6-10.71c-1.12,4.75,1,11.25,6.33,17.45,8.38,9.79,21.46,15.13,29.21,11.92,4.66-1.92,6.34-6.49,5.12-12A8.87,8.87,0,0,1,104.86,685.58Z" transform="translate(-44.74 -390.89)"/><path class="cls-1" d="M104.86,685.58a8.87,8.87,0,0,0,5.08-5A27.47,27.47,0,0,0,103.7,669c-8.37-9.79-21.45-15.12-29.21-11.92a8.42,8.42,0,0,0-5.21,6.08,27.58,27.58,0,0,0,6,10.71C83.6,683.62,96.87,688.88,104.86,685.58Z" transform="translate(-44.74 -390.89)"/><path class="cls-2" d="M453.86,694.58c-8,3.3-21.26-2-29.63-11.75a27.58,27.58,0,0,1-6-10.71c-1.12,4.75,1,11.25,6.33,17.45,8.38,9.79,21.46,15.13,29.21,11.92,4.66-1.92,6.34-6.49,5.12-12A8.87,8.87,0,0,1,453.86,694.58Z" transform="translate(-44.74 -390.89)"/><path class="cls-1" d="M453.86,694.58a8.87,8.87,0,0,0,5.08-5A27.47,27.47,0,0,0,452.7,678c-8.37-9.79-21.45-15.12-29.21-11.92a8.42,8.42,0,0,0-5.21,6.08,27.58,27.58,0,0,0,6,10.71C432.6,692.62,445.87,697.88,453.86,694.58Z" transform="translate(-44.74 -390.89)"/><path class="cls-2" d="M843.21,490.19c-8.23,2.63-21-3.7-28.57-14.14a27.72,27.72,0,0,1-5-11.17c-1.5,4.64.1,11.3,4.88,17.92,7.55,10.44,20.15,16.83,28.14,14.28,4.8-1.54,6.85-5.95,6.08-11.5A8.85,8.85,0,0,1,843.21,490.19Z" transform="translate(-44.74 -390.89)"/><path class="cls-1" d="M843.21,490.19a8.85,8.85,0,0,0,5.48-4.61,27.51,27.51,0,0,0-5.26-12c-7.55-10.45-20.15-16.84-28.14-14.29a8.47,8.47,0,0,0-5.7,5.63,27.72,27.72,0,0,0,5,11.17C822.19,486.49,835,492.82,843.21,490.19Z" transform="translate(-44.74 -390.89)"/><path class="cls-3" d="M906.22,583.84c-8,3.45-21.23-2.37-29.48-13a30.53,30.53,0,0,1-5.82-11.59c-1.17,5.09.89,12.1,6.12,18.84,8.25,10.62,21.26,16.52,29.06,13.18,4.68-2,6.41-6.9,5.27-12.78A9.24,9.24,0,0,1,906.22,583.84Z" transform="translate(-44.74 -390.89)"/><path class="cls-4" d="M906.22,583.84a9.24,9.24,0,0,0,5.15-5.35,30.4,30.4,0,0,0-6.1-12.52C897,555.34,884,549.44,876.21,552.79a8.91,8.91,0,0,0-5.29,6.46,30.53,30.53,0,0,0,5.82,11.59C885,581.47,898.19,587.29,906.22,583.84Z" transform="translate(-44.74 -390.89)"/><path class="cls-5" d="M902.67,428.13c-8.64,1.5-20.08-7.19-25.55-19.42a30.13,30.13,0,0,1-2.87-12.59c-2.36,4.67-2,11.95,1.42,19.7,5.48,12.22,16.71,20.95,25.09,19.5,5-.88,7.9-5.23,8.2-11.21A9.36,9.36,0,0,1,902.67,428.13Z" transform="translate(-44.74 -390.89)"/><path class="cls-6" d="M902.67,428.13a9.36,9.36,0,0,0,6.29-4A30.11,30.11,0,0,0,906,410.55c-5.47-12.22-16.71-20.95-25.09-19.5a9.08,9.08,0,0,0-6.7,5.07,30.13,30.13,0,0,0,2.87,12.59C882.59,420.94,894,429.63,902.67,428.13Z" transform="translate(-44.74 -390.89)"/><path class="cls-3" d="M996.68,443.74c-8,3.45-21.24-2.37-29.49-13a30.35,30.35,0,0,1-5.81-11.59c-1.18,5.09.88,12.1,6.11,18.84,8.26,10.62,21.27,16.52,29.06,13.18,4.69-2,6.42-6.9,5.27-12.78A9.2,9.2,0,0,1,996.68,443.74Z" transform="translate(-44.74 -390.89)"/><path class="cls-4" d="M996.68,443.74a9.2,9.2,0,0,0,5.14-5.35,30.37,30.37,0,0,0-6.09-12.52c-8.25-10.63-21.27-16.53-29.06-13.18a8.89,8.89,0,0,0-5.29,6.46,30.35,30.35,0,0,0,5.81,11.59C975.44,441.37,988.65,447.19,996.68,443.74Z" transform="translate(-44.74 -390.89)"/><path class="cls-5" d="M1009.45,665.33c-8.48,2.2-20.59-5.53-27.05-17.26a30.22,30.22,0,0,1-3.9-12.32c-2,4.85-1,12.09,3,19.52,6.46,11.74,18.37,19.51,26.61,17.37,4.94-1.28,7.44-5.85,7.24-11.84A9.36,9.36,0,0,1,1009.45,665.33Z" transform="translate(-44.74 -390.89)"/><path class="cls-6" d="M1009.45,665.33a9.36,9.36,0,0,0,5.94-4.53,30,30,0,0,0-4-13.27c-6.46-11.74-18.37-19.51-26.61-17.37a9,9,0,0,0-6.26,5.59,30.22,30.22,0,0,0,3.9,12.32C988.86,659.8,1001,667.53,1009.45,665.33Z" transform="translate(-44.74 -390.89)"/><path class="cls-3" d="M1095.9,604.65c-6.14,6.08-20.62,5.42-32.36-1.48a31.43,31.43,0,0,1-9.84-8.68c.86,5.15,5.46,10.92,12.9,15.3,11.73,6.9,26.08,7.7,32,1.8,3.58-3.55,3.32-8.71,0-13.77A9,9,0,0,1,1095.9,604.65Z" transform="translate(-44.74 -390.89)"/><path class="cls-4" d="M1095.9,604.65a9,9,0,0,0,2.73-6.83,31.6,31.6,0,0,0-10.46-9.43c-11.73-6.9-26.08-7.71-32-1.8a8.66,8.66,0,0,0-2.43,7.9,31.43,31.43,0,0,0,9.84,8.68C1075.28,610.07,1089.76,610.73,1095.9,604.65Z" transform="translate(-44.74 -390.89)"/><path class="cls-5" d="M1073.23,495.91c-8.49,2.2-20.6-5.52-27.06-17.26a30.15,30.15,0,0,1-3.89-12.32c-2,4.85-1.06,12.09,3,19.53,6.46,11.73,18.37,19.51,26.61,17.37,4.95-1.29,7.44-5.86,7.25-11.84A9.4,9.4,0,0,1,1073.23,495.91Z" transform="translate(-44.74 -390.89)"/><path class="cls-6" d="M1073.23,495.91a9.4,9.4,0,0,0,5.94-4.52,30.22,30.22,0,0,0-4-13.28c-6.45-11.73-18.37-19.51-26.6-17.37a9,9,0,0,0-6.26,5.59,30.15,30.15,0,0,0,3.89,12.32C1052.63,490.39,1064.74,498.11,1073.23,495.91Z" transform="translate(-44.74 -390.89)"/><path class="cls-2" d="M999.09,548.6c-8,3.3-21.26-2-29.63-11.75a27.58,27.58,0,0,1-6-10.71c-1.12,4.74,1,11.24,6.33,17.45,8.38,9.79,21.46,15.12,29.22,11.92,4.65-1.92,6.33-6.49,5.12-12A8.92,8.92,0,0,1,999.09,548.6Z" transform="translate(-44.74 -390.89)"/><path class="cls-1" d="M999.09,548.6a8.92,8.92,0,0,0,5.09-5A27.69,27.69,0,0,0,997.94,532c-8.38-9.79-21.46-15.13-29.22-11.92a8.42,8.42,0,0,0-5.21,6.08,27.58,27.58,0,0,0,6,10.71C977.83,546.64,991.1,551.9,999.09,548.6Z" transform="translate(-44.74 -390.89)"/><path class="cls-2" d="M853,667.14c-8.24,2.63-21-3.7-28.57-14.14a27.72,27.72,0,0,1-5-11.17c-1.5,4.64.1,11.29,4.88,17.91,7.54,10.45,20.14,16.84,28.14,14.28,4.8-1.53,6.84-5.95,6.08-11.49A8.9,8.9,0,0,1,853,667.14Z" transform="translate(-44.74 -390.89)"/><path class="cls-1" d="M853,667.14a8.9,8.9,0,0,0,5.48-4.61,27.62,27.62,0,0,0-5.27-12C845.64,640,833,633.65,825.05,636.2a8.47,8.47,0,0,0-5.7,5.63,27.72,27.72,0,0,0,5,11.17C831.94,663.44,844.73,669.77,853,667.14Z" transform="translate(-44.74 -390.89)"/></g></svg>