<?xml version="1.0" encoding="utf-8"?>
<!-- Generator: Adobe Illustrator 25.2.2, SVG Export Plug-In . SVG Version: 6.00 Build 0)  -->
<svg version="1.1" xmlns="http://www.w3.org/2000/svg" xmlns:xlink="http://www.w3.org/1999/xlink" x="0px" y="0px"
	 viewBox="0 0 1069.7 647.2" style="enable-background:new 0 0 1069.7 647.2;" xml:space="preserve">
<style type="text/css">
	.st0{display:none;}
	.st1{fill:#031527;stroke:#00D8AE;stroke-width:6.4479;stroke-miterlimit:10;}
	.st2{fill:none;stroke:#00D8AE;stroke-width:6.4479;stroke-miterlimit:10;}
	.st3{fill:#7CB563;}
	.st4{fill:#60B54A;}
	.st5{fill:#6FB54A;}
	.st6{fill:#7CB560;}
	.st7{fill:#8BC96D;}
	.st8{fill:#B3E089;}
</style>
<g id="Layer_1" class="st0">
	
		<image style="display:inline;overflow:visible;" width="800" height="800" xlink:href="F3D7A194.jpg"  transform="matrix(1 0 0 1 364.7143 4.0601)">
	</image>
</g>
<g id="Layer_9">
</g>
<g id="Layer_7">
	<circle class="st1" cx="765.7" cy="328.9" r="292.9"/>
</g>
<g id="Layer_10">
	<circle class="st2" cx="61.5" cy="338.7" r="52.4"/>
	<line class="st2" x1="650.2" y1="59.6" x2="44.6" y2="289.1"/>
	<line class="st2" x1="44.6" y1="388.4" x2="670.6" y2="606.1"/>
</g>
<g id="Layer_8">
	<circle class="st3" cx="46.2" cy="357.2" r="1.8"/>
	<circle class="st3" cx="30.4" cy="369.1" r="2.7"/>
	<circle class="st3" cx="52.2" cy="369.9" r="1.8"/>
	<circle class="st3" cx="61.9" cy="361" r="2.7"/>
	<circle class="st3" cx="40.9" cy="364.5" r="2.4"/>
	<circle class="st3" cx="44.8" cy="377.8" r="2.7"/>
	<circle class="st3" cx="67.8" cy="369.1" r="2.4"/>
	<circle class="st3" cx="71.4" cy="377.8" r="2.7"/>
	<circle class="st3" cx="77" cy="364.5" r="2.4"/>
	<circle class="st3" cx="81.4" cy="375.1" r="2.7"/>
	<circle class="st3" cx="62.6" cy="351.2" r="2.4"/>
	<circle class="st3" cx="73.6" cy="354.9" r="2.7"/>
	<circle class="st3" cx="81.8" cy="346.1" r="2.4"/>
	<circle class="st4" cx="85.3" cy="355.5" r="2.7"/>
	<circle class="st3" cx="59.7" cy="379" r="2.7"/>
	<circle class="st5" cx="40.9" cy="314" r="1.4"/>
	<circle class="st4" cx="54.9" cy="306.4" r="1.6"/>
	<circle class="st5" cx="53.6" cy="320.2" r="2.4"/>
	<circle class="st3" cx="42.5" cy="344.1" r="2.7"/>
	<circle class="st5" cx="60.2" cy="313.5" r="1.4"/>
	<circle class="st4" cx="44.8" cy="306.8" r="2.7"/>
	<circle class="st4" cx="64.6" cy="308" r="2.4"/>
	<circle class="st4" cx="30" cy="315.1" r="2.7"/>
	<circle class="st5" cx="34.4" cy="324.3" r="2.4"/>
	<circle class="st4" cx="25.3" cy="325.3" r="2.7"/>
	<circle class="st5" cx="49.8" cy="329.5" r="2.4"/>
	<circle class="st3" cx="27.3" cy="358.2" r="2.7"/>
	<circle class="st4" cx="21.2" cy="346.4" r="2.4"/>
	<circle class="st4" cx="23.5" cy="335.6" r="2.7"/>
	<circle class="st4" cx="35.6" cy="305.4" r="2.7"/>
	<circle class="st6" cx="75.8" cy="323.3" r="2.2"/>
	<circle class="st6" cx="84.2" cy="325.5" r="1.9"/>
	<circle class="st4" cx="94.9" cy="331.7" r="2.2"/>
	<circle class="st6" cx="85.8" cy="317.2" r="2.4"/>
	<circle class="st4" cx="94.3" cy="314" r="2.7"/>
	<circle class="st6" cx="69.6" cy="315.9" r="2.4"/>
	<circle class="st6" cx="78.1" cy="312.7" r="2.7"/>
	<circle class="st6" cx="79.4" cy="302.6" r="2.4"/>
	<circle class="st6" cx="86.7" cy="308.2" r="2.7"/>
	<circle class="st4" cx="93.9" cy="341.8" r="2.7"/>
	<circle class="st5" cx="59" cy="331.7" r="2.7"/>
	<circle class="st5" cx="66" cy="337.3" r="2.4"/>
	<circle class="st5" cx="74" cy="331.8" r="2.2"/>
	<circle class="st3" cx="71.4" cy="344.9" r="2.7"/>
	<circle class="st3" cx="32.7" cy="346.8" r="2.4"/>
	<circle class="st5" cx="35.6" cy="332.8" r="1.8"/>
	<circle class="st3" cx="49.5" cy="349.3" r="2.1"/>
	<circle class="st4" cx="50.1" cy="341.7" r="1.8"/>
	<circle class="st3" cx="40.9" cy="352.6" r="1.8"/>
	<circle class="st3" cx="54.4" cy="359.1" r="2.4"/>
	<circle class="st5" cx="63.6" cy="324.3" r="2.4"/>
	<circle class="st5" cx="42.8" cy="321.9" r="2.7"/>
	<circle class="st3" cx="56.3" cy="344.4" r="1.8"/>
	<circle class="st4" cx="91.2" cy="364.5" r="2.7"/>
	<circle class="st4" cx="94.2" cy="351" r="2.4"/>
	<circle class="st4" cx="100.7" cy="358.2" r="2.7"/>
	<circle class="st5" cx="82.6" cy="336.6" r="2.7"/>
	<circle class="st4" cx="104.3" cy="338.7" r="2.4"/>
	<circle class="st4" cx="102.7" cy="347.6" r="2.7"/>
	<circle class="st4" cx="101.9" cy="323.6" r="2.7"/>
	<circle class="st6" cx="69.7" cy="304.1" r="2.4"/>
	<circle class="st4" cx="51.7" cy="296.9" r="2.7"/>
	<circle class="st4" cx="64.4" cy="296.9" r="2.4"/>
</g>
<g id="Layer_2">
	
		<ellipse transform="matrix(0.9244 -0.3814 0.3814 0.9244 -104.1411 250.7067)" class="st4" cx="580.4" cy="388.1" rx="1.8" ry="4.6"/>
	
		<ellipse transform="matrix(0.9531 -0.3025 0.3025 0.9531 -85.8364 191.3278)" class="st4" cx="574.7" cy="372.8" rx="2.5" ry="5.7"/>
	<ellipse transform="matrix(0.9704 -0.2413 0.2413 0.9704 -69.1579 148.2605)" class="st4" cx="570.7" cy="356.5" rx="3" ry="6.1"/>
	<ellipse transform="matrix(0.384 -0.9233 0.9233 0.384 112.0679 683.5869)" class="st4" cx="568.3" cy="257.8" rx="7.1" ry="5.1"/>
	
		<ellipse transform="matrix(0.1319 -0.9913 0.9913 0.1319 218.3474 796.8763)" class="st4" cx="564.1" cy="273.8" rx="6.8" ry="4.6"/>
	
		<ellipse transform="matrix(4.040861e-02 -0.9992 0.9992 4.040861e-02 251.1457 841.1318)" class="st4" cx="563.5" cy="289.8" rx="6.8" ry="4.6"/>
	
		<ellipse transform="matrix(0.9991 -4.297512e-02 4.297512e-02 0.9991 -12.679 24.5302)" class="st4" cx="564.2" cy="307.2" rx="4.2" ry="6.8"/>
	
		<ellipse transform="matrix(0.9914 -0.1306 0.1306 0.9914 -37.3933 76.5739)" class="st4" cx="565.3" cy="323.5" rx="3.8" ry="6.1"/>
	
		<ellipse transform="matrix(0.9914 -0.1306 0.1306 0.9914 -39.5215 76.9974)" class="st4" cx="567.5" cy="339.9" rx="3.6" ry="5.8"/>
	
		<ellipse transform="matrix(0.5774 -0.8164 0.8164 0.5774 45.1608 574.3496)" class="st4" cx="577.4" cy="243.5" rx="7.1" ry="5.1"/>
	
		<ellipse transform="matrix(0.6099 -0.7925 0.7925 0.6099 47.0971 555.8049)" class="st4" cx="588.1" cy="230.1" rx="7.1" ry="5.1"/>
	
		<ellipse transform="matrix(0.6796 -0.7336 0.7336 0.6796 31.9854 509.3393)" class="st4" cx="599.1" cy="218.1" rx="7.1" ry="5.1"/>
	<ellipse transform="matrix(0.5831 -0.8124 0.8124 0.5831 228.567 636.0739)" class="st4" cx="734" cy="95.3" rx="4.6" ry="1.8"/>
	<ellipse transform="matrix(0.6492 -0.7606 0.7606 0.6492 171.6446 588.7012)" class="st4" cx="724" cy="108.3" rx="5.7" ry="2.5"/>
	<ellipse transform="matrix(0.6962 -0.7178 0.7178 0.6962 130.0217 547.8972)" class="st4" cx="712.3" cy="120.3" rx="6.1" ry="3"/>
	
		<ellipse transform="matrix(0.7726 -0.6349 0.6349 0.7726 27.7344 445.1556)" class="st4" cx="635.3" cy="183.9" rx="7.1" ry="5.1"/>
	
		<ellipse transform="matrix(0.7989 -0.6014 0.6014 0.7989 26.3254 424.6366)" class="st4" cx="648.3" cy="172.9" rx="6.8" ry="4.6"/>
	
		<ellipse transform="matrix(0.7726 -0.6349 0.6349 0.7726 47.2558 456.8302)" class="st4" cx="661.3" cy="162.4" rx="6.8" ry="4.6"/>
	<ellipse transform="matrix(0.7726 -0.6349 0.6349 0.7726 56.8273 462.401)" class="st4" cx="673.9" cy="151.9" rx="6.8" ry="4.2"/>
	
		<ellipse transform="matrix(0.7726 -0.6349 0.6349 0.7726 65.9095 468.6483)" class="st4" cx="687.2" cy="142.3" rx="6.1" ry="3.8"/>
	<ellipse transform="matrix(0.7726 -0.6349 0.6349 0.7726 75.5086 474.3889)" class="st4" cx="700" cy="131.8" rx="5.8" ry="3.6"/>
	<ellipse transform="matrix(0.7989 -0.6014 0.6014 0.7989 8.218 413.4228)" class="st4" cx="622.4" cy="194.4" rx="7.1" ry="5.1"/>
	
		<ellipse transform="matrix(0.7404 -0.6722 0.6722 0.7404 20.1709 463.7898)" class="st4" cx="610.5" cy="205.8" rx="7.4" ry="5.2"/>
</g>
<g id="Layer_2_copy">
	
		<ellipse transform="matrix(0.9944 -0.1056 0.1056 0.9944 -22.7228 67.7326)" class="st4" cx="628.3" cy="248.5" rx="2.1" ry="5.3"/>
	<ellipse transform="matrix(0.982 -0.1886 0.1886 0.982 -39.0591 123.8172)" class="st4" cx="631" cy="267.1" rx="2.8" ry="6.6"/>
	<ellipse transform="matrix(0.9681 -0.2507 0.2507 0.9681 -51.3536 168.4979)" class="st4" cx="635.8" cy="285.9" rx="3.4" ry="7"/>
	<ellipse transform="matrix(0.6285 -0.7778 0.7778 0.6285 -45.5723 678.679)" class="st4" cx="687.7" cy="387" rx="5.8" ry="8.2"/>
	
		<ellipse transform="matrix(0.8084 -0.5886 0.5886 0.8084 -90.3973 468.6407)" class="st4" cx="674.7" cy="373.2" rx="5.3" ry="7.8"/>
	<ellipse transform="matrix(0.859 -0.512 0.512 0.859 -89.1307 390.9685)" class="st4" cx="665.2" cy="357.3" rx="5.3" ry="7.8"/>
	
		<ellipse transform="matrix(0.8987 -0.4387 0.4387 0.8987 -82.3298 322.3198)" class="st4" cx="656.4" cy="339.3" rx="4.9" ry="7.8"/>
	<ellipse transform="matrix(0.9337 -0.358 0.358 0.9337 -72.3705 253.5592)" class="st4" cx="648.5" cy="322.2" rx="4.4" ry="7"/>
	<ellipse transform="matrix(0.9337 -0.358 0.358 0.9337 -66.4355 249.9265)" class="st4" cx="641.7" cy="304.4" rx="4.1" ry="6.6"/>
	
		<ellipse transform="matrix(0.4422 -0.8969 0.8969 0.4422 37.4633 853.2149)" class="st4" cx="704.7" cy="396.5" rx="5.8" ry="8.2"/>
	<ellipse transform="matrix(0.4058 -0.914 0.914 0.4058 60.0581 900.971)" class="st4" cx="722.9" cy="404.3" rx="5.8" ry="8.2"/>
	
		<ellipse transform="matrix(0.3207 -0.9472 0.9472 0.3207 114.4543 980.3796)" class="st4" cx="740.7" cy="410.4" rx="5.8" ry="8.2"/>
	
		<ellipse transform="matrix(0.436 -0.8999 0.8999 0.436 118.3783 1109.9872)" class="st4" cx="944.8" cy="460.5" rx="2.1" ry="5.3"/>
	
		<ellipse transform="matrix(0.359 -0.9333 0.9333 0.359 171.8206 1156.0599)" class="st4" cx="927.5" cy="452.9" rx="2.8" ry="6.6"/>
	<ellipse transform="matrix(0.299 -0.9543 0.9543 0.299 210.5977 1180.973)" class="st4" cx="909.1" cy="447.2" rx="3.4" ry="7"/>
	
		<ellipse transform="matrix(0.1896 -0.9819 0.9819 0.1896 227.7301 1126.2123)" class="st4" cx="796.1" cy="425.1" rx="5.8" ry="8.2"/>
	
		<ellipse transform="matrix(0.1476 -0.989 0.989 0.1476 270.5562 1172.0762)" class="st4" cx="815.3" cy="429.1" rx="5.3" ry="7.8"/>
	
		<ellipse transform="matrix(0.1896 -0.9819 0.9819 0.1896 251.4171 1169.6505)" class="st4" cx="834.3" cy="432.5" rx="5.3" ry="7.8"/>
	
		<ellipse transform="matrix(0.1896 -0.9819 0.9819 0.1896 262.698 1190.9355)" class="st4" cx="852.8" cy="436.3" rx="4.9" ry="7.8"/>
	
		<ellipse transform="matrix(0.1896 -0.9819 0.9819 0.1896 275.4911 1211.2155)" class="st4" cx="871.5" cy="438.7" rx="4.4" ry="7"/>
	
		<ellipse transform="matrix(0.1896 -0.9819 0.9819 0.1896 287.1386 1232.5751)" class="st4" cx="890.3" cy="442.3" rx="4.1" ry="6.6"/>
	
		<ellipse transform="matrix(0.1476 -0.989 0.989 0.1476 245.6786 1128.0914)" class="st4" cx="777.3" cy="421.5" rx="5.8" ry="8.2"/>
	<ellipse transform="matrix(0.2378 -0.9713 0.9713 0.2378 173.8643 1054.7136)" class="st4" cx="759" cy="416.6" rx="6" ry="8.5"/>
</g>
<g id="Layer_3">
	<path class="st4" d="M702.6,198.8c-8.9,0-35.3,8.7-37.5,16.5c-2.1,8,4.4,20.1,3.7,21.6c-0.6,1.4-10.7-14.9-5.9-23.8
		c4.8-8.9,33.1-22.7,38.1-20c-4-10.7,0.6-36.6,24-27.6c-3-13.4,20.1-20.1,25.3-12.8c-1.4-9.2,15-20.7,25.7-14
		c-2.8-10.7,22.9-27.2,37.5-1.4c1.7-10.1,32-25.1,38.5-23.6s19.9,12.5,17.7,18.2c-2.8-4.9-13.6-14.3-17.4-14.7
		c-3.9-0.4-38,15.1-33.2,26.5c4.8,11.4,13.4,33.1,22.2,32.9c8.8-0.1,35.9-8.5,37.1-19.1c1.2-10.6-1.8-12-4.4-16.8
		c11.5,13.4,6.8,20.8,4.7,23.6c-2.2,2.8-34.7,22.3-41.2,17.4c4.3,10.1,1.9,34.9-23.5,28.5c1,7-13.2,20.8-25.7,13.7
		c1.2,9.6-15.4,19-25.2,13c1.2,9.5-20.5,27.7-36.3,5.7c-10.2,11.5-32.2,20.8-38.4,18.9c-6.2-1.9-15.1-12.3-15.6-15.9
		c4.7,4.6,12.7,12.8,17.2,11.8s32-13,32-19C722,232.5,706.5,200.8,702.6,198.8z"/>
	<path class="st7" d="M754.6,237.9c-11.9,8.8-25.2-9.6-31.6-23.3c-6.4-13.8-17.2-34-5-41.6c12.2-7.6,22.9,10.6,30,24.3
		C755.2,211.1,763,231.7,754.6,237.9z"/>
	
		<ellipse transform="matrix(0.8834 -0.4686 0.4686 0.8834 -10.6006 368.9311)" class="st4" cx="736.1" cy="205.8" rx="7.7" ry="10.3"/>
	<path class="st7" d="M776.1,226.9c-11.9,8.8-25.2-9.6-31.6-23.3c-6.4-13.8-17.2-34-5-41.6c12.2-7.6,22.9,10.6,30,24.3
		C776.7,200.1,784.5,220.7,776.1,226.9z"/>
	
		<ellipse transform="matrix(0.8834 -0.4686 0.4686 0.8834 -2.9374 377.7287)" class="st4" cx="757.6" cy="194.8" rx="7.7" ry="10.3"/>
	<path class="st7" d="M800,214.3c-11.9,8.8-25.2-9.6-31.6-23.3c-6.4-13.8-17.2-34-5-41.6c12.2-7.6,22.9,10.6,30,24.3
		C800.6,187.4,808.3,208.1,800,214.3z"/>
	
		<ellipse transform="matrix(0.8834 -0.4686 0.4686 0.8834 5.7694 387.4263)" class="st4" cx="781.4" cy="182.1" rx="7.7" ry="10.3"/>
	<path class="st7" d="M823.8,202.1c-11.9,8.8-25.2-9.6-31.6-23.3c-6.4-13.8-17.2-34-5-41.6c12.2-7.6,22.9,10.6,30,24.3
		C824.3,175.2,832.1,195.9,823.8,202.1z"/>
	
		<ellipse transform="matrix(0.8834 -0.4686 0.4686 0.8834 14.2613 397.147)" class="st4" cx="805.2" cy="169.9" rx="7.7" ry="10.3"/>
</g>
<g id="Layer_3_copy">
	<path class="st4" d="M585.9,438.4c-4.1-5.1-21.4-16.3-26.9-13.9c-5.6,2.5-9.6,11.9-10.7,12.2c-1.1,0.3,3.6-13.1,10.9-14.5
		c7.4-1.4,28.5,8.5,29.2,12.7c4.3-7.3,21.4-16.6,27.1,1c6.4-7.9,21,2.3,19.1,8.7c4.6-5.1,18.9-0.9,20,8.3c4.8-6.6,26.3,0.6,18.2,21
		c6.6-3.7,29.3,6.8,31.5,11.2c2.2,4.4,2,17.3-2.3,18.7c1.5-3.9,2-14.5,0.4-16.9c-1.6-2.4-26.3-14.9-30.7-6.9
		c-4.3,8-12.8,23.1-8.7,28.1c4.1,5,21.6,16.8,28.2,12.5s6.1-6.6,7.6-10.3c-2.4,12.9-8.8,13.6-11.5,13.6c-2.7,0.1-29-9.7-29.2-15.7
		c-3.8,7.1-19.2,17.3-27.4-0.3c-3.5,3.8-18.1,2.1-19.8-8.5c-5,5.1-18.1,0-19.2-8.5c-4.9,5.1-25.5,1-20.1-18.3
		c-11.4-0.6-26.9-8.9-28.7-13.4c-1.8-4.5,0.1-14.4,1.9-16.4c-0.5,4.8-1.5,13.2,1.2,15.4c2.7,2.1,22.4,12.4,25.8,9.7
		C575.5,465.2,586.6,441.6,585.9,438.4z"/>
	<path class="st7" d="M587.5,486.6c-10.6-2.7-6.2-19-1.2-29c5-10.1,11.6-25.7,21.6-22.2s4.5,18.1-0.1,28.6
		C603.3,474.5,595,488.5,587.5,486.6z"/>
	
		<ellipse transform="matrix(0.3945 -0.9189 0.9189 0.3945 -61.8184 828.0759)" class="st4" cx="597.4" cy="460.9" rx="7.6" ry="5.7"/>
	<path class="st7" d="M603.8,493.9c-10.6-2.7-6.2-19-1.2-29c5-10.1,11.6-25.7,21.6-22.2c10,3.5,4.5,18.1-0.1,28.6
		S611.3,495.8,603.8,493.9z"/>
	
		<ellipse transform="matrix(0.3945 -0.9189 0.9189 0.3945 -58.6434 847.4958)" class="st4" cx="613.8" cy="468.2" rx="7.6" ry="5.7"/>
	<path class="st7" d="M622.2,501.8c-10.6-2.7-6.2-19-1.2-29c5-10.1,11.6-25.7,21.6-22.2s4.5,18.1-0.1,28.6S629.6,503.7,622.2,501.8z
		"/>
	
		<ellipse transform="matrix(0.3945 -0.9189 0.9189 0.3945 -54.7714 869.1329)" class="st4" cx="632.1" cy="476.1" rx="7.6" ry="5.7"/>
	<path class="st7" d="M640.3,509.8c-10.6-2.7-6.2-19-1.2-29c5-10.1,11.6-25.7,21.6-22.2c10,3.5,4.5,18.1-0.1,28.6
		S647.7,511.7,640.3,509.8z"/>
	
		<ellipse transform="matrix(0.3945 -0.9189 0.9189 0.3945 -51.2279 890.6122)" class="st4" cx="650.2" cy="484.2" rx="7.6" ry="5.7"/>
</g>
<g id="Layer_4">
	<path class="st8" d="M867.1,215c13.6-23.8,73.9-21.4,86.8,7.2c12.9,28.7,7.5,57.6-19.9,66.9c-27.4,9.3-63.5,13.7-71.6-21.7
		C854.4,232.1,862.9,222.3,867.1,215z"/>
	<g>
		<path class="st4" d="M887,262.1c-5.9-10.5-9.8-24.9,5.3-35.1c15.1-10.2,27.8,1.3,33.7,13.2c5.4,10.9,1.5,16.1,8.9,26.1
			c8.5-2,5.1-24.3,4-32.7c-1.2-8.4-13.8-26.6-30.1-28.3s-37.3,3.1-43.1,26.9c-3.7,15.1-0.3,28.2,15.5,39.3
			c13.3,9.4,25.1,11.1,29.9,9.5C901.3,277.5,891.6,270.3,887,262.1z"/>
		<path class="st7" d="M912.9,279.6c2.1-2.7,7.4-16.1-9.8-20.4c-17.2-4.3-11.1-18.5-7.9-22.7c3.2-4.3,15.4-8.1,20.4,5.8
			c5,13.9,10.7,25.8,19.2,23.9c0,0,0,0,0,0c-7.4-10-3.5-15.2-8.9-26.1c-5.9-11.9-18.6-23.4-33.7-13.2c-15.1,10.2-11.2,24.7-5.3,35.1
			c4.7,8.2,14.3,15.4,24.1,18.8C911.9,280.5,912.6,280.1,912.9,279.6z"/>
	</g>
	<path class="st8" d="M820.1,286.7c22.8,5.2,35.9,54.9,15.7,72.5s-45.1,20.5-59.5,0.5s-27-48.4-0.1-63.7
		C803.1,280.6,813.2,285.1,820.1,286.7z"/>
	<g>
		<path class="st4" d="M786.8,314.6c7-7.4,17.9-14.2,30-4.4c12.1,9.8,5.9,23-2.3,30.8c-7.5,7.1-12.7,5.2-19,13.8
			c3.7,6.4,21.1-1.9,27.6-4.9c6.6-3,18.2-17.9,15.6-31.6c-2.7-13.7-11.8-29.6-32.6-28.5c-13.2,0.7-23,6.8-28.1,22.4
			c-4.3,13.2-2.8,23.2-0.3,26.7C777.8,330.1,781.2,320.4,786.8,314.6z"/>
		<path class="st7" d="M778.9,340.1c2.7,1,15,2,14.2-13.1c-0.8-15.1,12.3-13.7,16.6-12.1c4.3,1.6,10.5,10.5,0.3,18.1
			c-10.1,7.6-18.4,15.2-14.7,21.6c0,0,0,0,0,0c6.3-8.5,11.5-6.7,19-13.8c8.2-7.8,14.4-21,2.3-30.8c-12.1-9.8-22.9-3-30,4.4
			c-5.5,5.8-9,15.5-9.3,24.3C777.9,339.5,778.4,339.9,778.9,340.1z"/>
	</g>
	<path class="st8" d="M979.5,374c3.6,27.2-45.8,61.8-73.5,46.8c-27.6-15-40.8-41.3-24.7-65.3c16.2-24,42.3-49.4,70.1-26
		C979.2,352.7,978.4,365.7,979.5,374z"/>
	<g>
		<path class="st4" d="M935.2,348.6c11.1,4.7,22.9,13.9,17.1,31.2c-5.9,17.3-22.9,15.8-34.8,9.9c-10.9-5.4-10.9-11.9-22.9-15.4
			c-5.6,6.7,10.6,22.4,16.6,28.4c6,6,27.1,12.8,41.1,4.3c14-8.5,27.8-25,18.1-47.5c-6.2-14.3-16.8-22.6-36.1-21.9
			c-16.3,0.6-26.7,6.3-29.5,10.5C914.5,345,926.5,344.9,935.2,348.6z"/>
		<path class="st7" d="M903.9,350.3c0,3.4,3.9,17.3,20.2,10.3c16.3-7,20,8,20,13.3c0,5.3-7.3,15.8-19.8,7.7
			c-12.5-8.1-24.2-14.1-29.8-7.4c0,0,0,0,0,0c12,3.5,12,10,22.9,15.4c11.9,5.9,29,7.4,34.8-9.9c5.9-17.3-6-26.4-17.1-31.2
			c-8.7-3.7-20.7-3.6-30.5-0.4C904.1,349,903.9,349.7,903.9,350.3z"/>
	</g>
	<path class="st8" d="M810.8,459.4c22.8,5.2,35.9,54.9,15.7,72.5c-20.2,17.7-45.1,20.5-59.5,0.5c-14.4-20-27-48.4-0.1-63.7
		C793.8,453.3,803.9,457.8,810.8,459.4z"/>
	<g>
		<path class="st4" d="M777.5,487.3c7-7.4,17.9-14.2,30-4.4c12.1,9.8,5.9,23-2.3,30.8c-7.5,7.1-12.7,5.2-19,13.8
			c3.7,6.4,21.1-1.9,27.6-4.9c6.6-3,18.2-17.9,15.6-31.6c-2.7-13.7-11.8-29.6-32.6-28.5c-13.2,0.7-23,6.8-28.1,22.4
			c-4.3,13.2-2.8,23.2-0.3,26.7C768.5,502.8,771.9,493.2,777.5,487.3z"/>
		<path class="st7" d="M769.6,512.9c2.7,1,15,2,14.2-13.1c-0.8-15.1,12.3-13.7,16.6-12.1c4.3,1.6,10.5,10.5,0.3,18.1
			c-10.1,7.6-18.4,15.2-14.7,21.6c0,0,0,0,0,0c6.3-8.5,11.5-6.7,19-13.8c8.2-7.8,14.4-21,2.3-30.8c-12.1-9.8-22.9-3-30,4.4
			c-5.5,5.8-9,15.5-9.3,24.3C768.6,512.2,769.1,512.7,769.6,512.9z"/>
	</g>
</g>
</svg>
