<svg id="Layer_3" data-name="Layer 3" xmlns="http://www.w3.org/2000/svg" viewBox="0 0 469.13 108.9"><defs><style>.cls-1{fill:#98a53d;}.cls-2{fill:#f1e033;}.cls-3{fill:#94e0f1;}</style></defs><circle class="cls-1" cx="49.58" cy="48.89" r="8.87"/><circle class="cls-2" cx="8.87" cy="63.34" r="8.87"/><circle class="cls-3" cx="17.4" cy="31.16" r="8.87"/><circle class="cls-1" cx="147.5" cy="64.52" r="8.87"/><circle class="cls-2" cx="186.08" cy="83.97" r="8.87"/><circle class="cls-3" cx="156.92" cy="100.03" r="8.87"/><circle class="cls-1" cx="104.68" cy="96.51" r="8.87"/><circle class="cls-2" cx="61.8" cy="91.21" r="8.87"/><circle class="cls-3" cx="83.84" cy="66.25" r="8.87"/><circle class="cls-1" cx="175.94" cy="40.7" r="8.87"/><circle class="cls-2" cx="213.23" cy="18.88" r="8.87"/><circle class="cls-3" cx="210.87" cy="52.09" r="8.87"/><circle class="cls-1" cx="84.99" cy="13.68" r="8.87"/><circle class="cls-2" cx="128.13" cy="11.36" r="8.87"/><circle class="cls-3" cx="110.83" cy="39.8" r="8.87"/><circle class="cls-1" cx="419.55" cy="60" r="8.87"/><circle class="cls-2" cx="460.26" cy="45.55" r="8.87"/><circle class="cls-3" cx="451.73" cy="77.73" r="8.87"/><circle class="cls-1" cx="321.63" cy="44.38" r="8.87"/><circle class="cls-2" cx="283.05" cy="24.93" r="8.87"/><circle class="cls-3" cx="312.21" cy="8.87" r="8.87"/><circle class="cls-1" cx="364.45" cy="12.39" r="8.87"/><circle class="cls-2" cx="407.32" cy="17.69" r="8.87"/><circle class="cls-3" cx="385.29" cy="42.64" r="8.87"/><circle class="cls-1" cx="293.19" cy="68.2" r="8.87"/><circle class="cls-2" cx="255.9" cy="90.02" r="8.87"/><circle class="cls-3" cx="258.26" cy="56.81" r="8.87"/><circle class="cls-1" cx="384.14" cy="95.22" r="8.87"/><circle class="cls-2" cx="341" cy="97.53" r="8.87"/><circle class="cls-3" cx="358.3" cy="69.1" r="8.87"/></svg>