<svg id="Layer_3" data-name="Layer 3" xmlns="http://www.w3.org/2000/svg" viewBox="0 0 500 500"><defs><style>.cls-1{fill:#98a53d;}.cls-2{fill:#f1e033;}.cls-3{fill:#94e0f1;}</style></defs><circle class="cls-1" cx="65.02" cy="67.46" r="8.87"/><circle class="cls-2" cx="24.3" cy="81.9" r="8.87"/><circle class="cls-3" cx="32.84" cy="49.73" r="8.87"/><circle class="cls-1" cx="162.93" cy="83.08" r="8.87"/><circle class="cls-2" cx="201.51" cy="102.53" r="8.87"/><circle class="cls-3" cx="172.35" cy="118.59" r="8.87"/><circle class="cls-1" cx="120.12" cy="115.07" r="8.87"/><circle class="cls-2" cx="77.24" cy="109.77" r="8.87"/><circle class="cls-3" cx="99.27" cy="84.81" r="8.87"/><circle class="cls-1" cx="191.37" cy="59.26" r="8.87"/><circle class="cls-2" cx="228.66" cy="37.44" r="8.87"/><circle class="cls-3" cx="226.31" cy="70.65" r="8.87"/><circle class="cls-1" cx="100.43" cy="32.24" r="8.87"/><circle class="cls-2" cx="143.57" cy="29.92" r="8.87"/><circle class="cls-3" cx="126.26" cy="58.36" r="8.87"/><circle class="cls-1" cx="434.98" cy="78.56" r="8.87"/><circle class="cls-2" cx="475.7" cy="64.11" r="8.87"/><circle class="cls-3" cx="467.16" cy="96.29" r="8.87"/><circle class="cls-1" cx="337.07" cy="62.94" r="8.87"/><circle class="cls-2" cx="298.49" cy="43.49" r="8.87"/><circle class="cls-3" cx="327.65" cy="27.43" r="8.87"/><circle class="cls-1" cx="379.88" cy="30.95" r="8.87"/><circle class="cls-2" cx="422.76" cy="36.25" r="8.87"/><circle class="cls-3" cx="400.73" cy="61.21" r="8.87"/><circle class="cls-1" cx="308.63" cy="86.76" r="8.87"/><circle class="cls-2" cx="271.34" cy="108.58" r="8.87"/><circle class="cls-3" cx="273.69" cy="75.37" r="8.87"/><circle class="cls-1" cx="399.57" cy="113.78" r="8.87"/><circle class="cls-2" cx="356.43" cy="116.1" r="8.87"/><circle class="cls-3" cx="373.74" cy="87.66" r="8.87"/></svg>