<svg id="plastic_bottle" xmlns="http://www.w3.org/2000/svg" viewBox="0 0 216.49 409.92"><defs><style>.cls-1{fill:#acc2e2;}.cls-2{fill:#8fabcc;}.cls-3{fill:#7d91bd;}.cls-4{fill:#5c75a1;}</style></defs><path class="cls-1" d="M623.71,331.5l2.61-8.63,2.32.7a1.39,1.39,0,0,0,1.73-.93l5-16.37a1.39,1.39,0,0,0-.93-1.74l-37.34-11.31a1.4,1.4,0,0,0-1.74.93l-5,16.37a1.41,1.41,0,0,0,.93,1.74l2.31.7L591,321.59a67.78,67.78,0,0,0-67.5,48.07l-1.9,6.3-7.13,65.61c-4,15.51-14.42,19.22-24.1,37.5L440.93,642.24c-.14.49-.28,1-.4,1.47,0,.16-.07.33-.11.49-.08.33-.16.65-.22,1s-.06.35-.09.53-.12.63-.17.94l-.06.57c0,.3-.09.6-.12.9l0,.53c0,.31-.06.63-.07.94s0,.35,0,.52,0,.63,0,.94,0,.34,0,.51,0,.63,0,.94l0,.47c0,.33,0,.65.07,1l.06.47c0,.32.07.64.11,1,0,.15.06.3.08.44.05.33.1.65.16,1l.09.41c.07.33.14.66.22,1l.09.35c.09.34.18.69.28,1,0,.11.07.22.11.33.1.34.21.69.33,1l.1.28c.13.35.25.7.39,1l.12.27c.14.35.28.7.44,1a2.56,2.56,0,0,1,.11.24c.17.35.33.7.51,1a2.12,2.12,0,0,0,.11.21c.18.35.37.7.57,1l.1.17q.3.53.63,1.05l.1.15c.23.35.45.7.69,1l.09.12c.25.35.5.69.76,1l.08.1c.27.34.54.68.82,1l.08.09c.29.33.57.65.87,1l.08.08c.3.32.61.64.93.94l.08.08c.32.31.64.61,1,.9l.08.06c.33.3.68.59,1,.87l.08.06c.35.28.71.55,1.07.81l.08.06c.37.26.74.52,1.12.77l.11.06c.37.25.75.48,1.13.71l.12.06c.38.23.77.44,1.17.65l.12.06c.4.21.8.41,1.21.6l.14.06,1.24.53.16.06c.37.15.74.29,1.12.42l.08,0,.07,0c27.8,8.41,18.26-6.44,40.26.22s5.83,13.73,33.62,22.16l.08,0,.07,0,1.16.27.18,0,1.32.24.15,0c.44.07.89.13,1.34.18h.13c.45.05.89.09,1.34.12h.13c.44,0,.89,0,1.34,0h.12l1.35,0h.1l1.35-.09h.1c.45,0,.89-.09,1.34-.15h.09c.44-.06.88-.13,1.31-.21l.11,0c.44-.08.87-.17,1.3-.27l.11,0q.63-.15,1.26-.33l.12,0,1.24-.38.12,0,1.21-.43.13-.05c.39-.15.77-.31,1.15-.48l.17-.07L555,700l.18-.09c.35-.17.7-.36,1.05-.55l.21-.11,1-.59.23-.13c.32-.2.63-.41.94-.62l.25-.16c.31-.21.61-.44.91-.66l.24-.18c.29-.21.57-.44.85-.67l.27-.22c.27-.22.54-.46.8-.7l.27-.24.73-.7c.1-.1.21-.19.3-.29.24-.24.46-.48.68-.72l.31-.33c.22-.24.42-.49.63-.74l.31-.35c.2-.25.4-.51.59-.77l.29-.37.55-.78c.09-.14.19-.27.29-.41s.34-.53.5-.8l.28-.44c.16-.26.31-.54.46-.81s.18-.31.26-.47.28-.54.41-.81.18-.34.26-.51.26-.58.39-.87.15-.33.22-.49l.36-.94.18-.47c.17-.48.33-1,.48-1.45l49.42-163.17c2.08-20.58-4.52-29.44.75-44.57l30.48-58.54,1.91-6.29A67.79,67.79,0,0,0,623.71,331.5Z" transform="translate(-439.62 -293.16)"/><path class="cls-2" d="M593.6,313,591,321.59a67.78,67.78,0,0,0-67.5,48.07l-1.9,6.3-7.13,65.61c-4,15.51-14.42,19.22-24.1,37.5L440.93,642.24c-.14.49-.28,1-.4,1.47,0,.16-.07.33-.11.49-.08.33-.16.65-.22,1s-.06.35-.09.53-.12.63-.17.94l-.06.57c0,.3-.09.6-.12.9l0,.53c0,.31-.06.63-.07.94s0,.35,0,.52,0,.63,0,.94,0,.34,0,.51,0,.63,0,.94l0,.47c0,.33,0,.65.07,1l.06.47c0,.32.07.64.11,1,0,.15.06.3.08.44.05.33.1.65.16,1l.09.41c.07.33.14.66.22,1l.09.35c.09.34.18.69.28,1,0,.11.07.22.11.33.1.34.21.69.33,1l.1.28c.13.35.25.7.39,1l.12.27c.14.35.28.7.44,1a2.56,2.56,0,0,1,.11.24c.17.35.33.7.51,1a2.12,2.12,0,0,0,.11.21c.18.35.37.7.57,1l.1.17q.3.53.63,1.05l.1.15c.23.35.45.7.69,1l.09.12c.25.35.5.69.76,1l.08.1c.27.34.54.68.82,1l.08.09c.29.33.57.65.87,1l.08.08c.3.32.61.64.93.94l.08.08c.32.31.64.61,1,.9l.08.06c.33.3.68.59,1,.87l.08.06c.35.28.71.55,1.07.81l.08.06c.37.26.74.52,1.12.77l.11.06c.37.25.75.48,1.13.71l.12.06c.38.23.77.44,1.17.65l.12.06c.4.21.8.41,1.22.6l.13.06,1.24.53.16.06c.37.15.74.29,1.12.42l.08,0,.07,0c27.8,8.41,18.26-6.44,40.26.22L610,317.91Z" transform="translate(-439.62 -293.16)"/><path class="cls-3" d="M651.28,415.24l1.91-6.29a67.79,67.79,0,0,0-29.48-77.45l2.61-8.63-16.36-5-109.65,362c22,6.66,5.83,13.73,33.62,22.16l.08,0,.07,0,1.16.27.18,0,1.32.24.15,0c.44.07.89.13,1.34.18h.13c.45.05.89.09,1.34.12h.13c.44,0,.89,0,1.34,0h.12l1.35,0h.1l1.35-.09h.1c.45,0,.89-.09,1.34-.15h.09c.44-.06.88-.13,1.31-.21l.11,0c.44-.08.87-.17,1.3-.27l.11,0q.63-.15,1.26-.33l.12,0,1.24-.38.12,0,1.21-.43.13-.05c.39-.15.77-.31,1.15-.48l.17-.07L555,700l.18-.09c.35-.17.7-.36,1.05-.55l.21-.11,1-.59.23-.13c.32-.2.63-.41.94-.62l.25-.16c.31-.21.61-.44.91-.66l.24-.18c.29-.21.57-.44.85-.67l.27-.22c.27-.22.54-.46.8-.7l.27-.24.73-.7c.1-.1.21-.19.3-.29.24-.24.46-.48.68-.72l.31-.33c.22-.24.42-.49.63-.74l.31-.35c.2-.25.4-.51.59-.77l.29-.37.55-.78c.09-.14.19-.27.29-.41s.34-.53.5-.8l.28-.44c.16-.26.31-.54.46-.81s.18-.31.26-.47.28-.54.41-.81.18-.34.26-.51.26-.58.39-.87.15-.33.22-.49l.36-.94.18-.47c.17-.48.33-1,.48-1.45l49.42-163.17c2.08-20.58-4.52-29.44.75-44.57Z" transform="translate(-439.62 -293.16)"/><rect class="cls-4" x="602.9" y="287.49" width="19.89" height="41.8" rx="1.39" transform="translate(-299.58 512.37) rotate(-73.15)"/></svg>