<svg id="plastic_straw" xmlns="http://www.w3.org/2000/svg" viewBox="0 0 143.25 228.87"><defs><style>.cls-1{fill:#ccc;}.cls-2{fill:#999;}</style></defs><g id="plastic_straw_copy" data-name="plastic_straw copy"><path class="cls-1" d="M633.08,422.75h1.12a20.22,20.22,0,0,0-1.53-6.82l-1.38.38a1.25,1.25,0,0,0,.79-1.73c-.38-.8-.81-1.61-1.3-2.44a1.25,1.25,0,0,0-1.39-.56h.05a.65.65,0,0,0,.38-1,51.52,51.52,0,0,0-3.28-4.4.65.65,0,0,0-.86-.13l-.55.36a1.1,1.1,0,0,0,.21-1.64c-.63-.71-1.29-1.43-2-2.17a1.11,1.11,0,0,0-1.41-.16l-.38.25h0a1.25,1.25,0,0,0,.09-1.83c-1.7-1.7-3.59-3.48-5.69-5.33C597,378.81,582,366.72,574.41,360.73a7.36,7.36,0,0,0-10.08.92l-1.68,1.9a8.41,8.41,0,0,0,1.21,12.27c11.71,8.92,34.36,26.3,42.45,33.45.54.48,1.05.94,1.53,1.4a1.26,1.26,0,0,0,1.55.12l.21-.14h0a1.08,1.08,0,0,0-.13,1.61c.69.72,1.31,1.43,1.86,2.12a1.08,1.08,0,0,0,1.45.22l.26-.17h0l-.68.45c-.23.13-.38.31-.28.51s.2.27.29.41a.66.66,0,0,0,.71.27l1-.28h0a1.24,1.24,0,0,0-.75,1.72,11.47,11.47,0,0,1,.78,2.19,1.21,1.21,0,0,0,1.33.93v0l-1.12.31a10.18,10.18,0,0,1,0,1.75h.89v0a1.09,1.09,0,0,0-1,.92,15.7,15.7,0,0,1-.63,2.64,1.12,1.12,0,0,0,1,1.47h-.91a.9.9,0,0,0-.83.55l-.12.29a.89.89,0,0,0,.54,1.19l.09,0h0a1.24,1.24,0,0,0-1.5.61c-.37.71-.77,1.45-1.22,2.22a1.27,1.27,0,0,0,.67,1.82v0a2.32,2.32,0,0,0-2.42,1c-1.56,2.39-3.46,5.05-5.73,8.06-12.66,16.76-90.24,107-110.25,130.3a8.17,8.17,0,0,0,.14,10.82l.88,1a7.16,7.16,0,0,0,10.81-.23C525.2,560.83,599,472.08,616.35,453.11c4.07-4.46,7.61-8.45,10.44-12.2a.81.81,0,0,0-.3-1.22v0l.09,0a1.26,1.26,0,0,0,1.43-.46c.54-.75,1-1.5,1.51-2.24a1.26,1.26,0,0,0-.65-1.87l-.06,0h0l.85.29a.89.89,0,0,0,1.07-.41,28.62,28.62,0,0,0,2.64-6,.91.91,0,0,0-.86-1.17h.26a1.12,1.12,0,0,0,1.1-.89,19.12,19.12,0,0,0,.33-3A1.14,1.14,0,0,0,633.08,422.75Z" transform="translate(-490.96 -359.15)"/></g><path class="cls-1" d="M614.37,422.74H634.2a20.22,20.22,0,0,0-1.53-6.82L614.34,421A10.18,10.18,0,0,1,614.37,422.74Z" transform="translate(-490.96 -359.15)"/><path class="cls-1" d="M616,395.54C597,378.81,582,366.72,574.41,360.73a7.36,7.36,0,0,0-10.08.92l-1.68,1.9a8.41,8.41,0,0,0,1.21,12.27c11.71,8.92,34.36,26.3,42.45,33.45.54.48,1.05.94,1.53,1.4a1.26,1.26,0,0,0,1.55.12l12.06-8a1.24,1.24,0,0,0,.2-1.92C620,399.17,618.06,397.39,616,395.54Z" transform="translate(-490.96 -359.15)"/><path class="cls-1" d="M603.19,443.59c-12.66,16.76-90.24,107-110.25,130.3a8.17,8.17,0,0,0,.14,10.82l.88,1a7.16,7.16,0,0,0,10.81-.23C525.2,560.83,599,472.08,616.35,453.11c4.07-4.46,7.61-8.45,10.44-12.2a.84.84,0,0,0-.4-1.29l-14.78-5a2.32,2.32,0,0,0-2.69.93C607.36,437.92,605.46,440.58,603.19,443.59Z" transform="translate(-490.96 -359.15)"/><path class="cls-1" d="M613.31,429.83l16.36,5.56a.89.89,0,0,0,1.07-.41,28.62,28.62,0,0,0,2.64-6,.91.91,0,0,0-.86-1.17h-18.8a.9.9,0,0,0-.83.55l-.12.29A.89.89,0,0,0,613.31,429.83Z" transform="translate(-490.96 -359.15)"/><path class="cls-2" d="M625.34,404.79c-.63-.71-1.29-1.43-2-2.17a1.11,1.11,0,0,0-1.41-.16l-12.29,8.15a1.09,1.09,0,0,0-.18,1.66c.69.72,1.31,1.43,1.86,2.12a1.08,1.08,0,0,0,1.45.22l12.34-8.18A1.1,1.1,0,0,0,625.34,404.79Z" transform="translate(-490.96 -359.15)"/><path class="cls-2" d="M615.65,420.63l15.64-4.32a1.25,1.25,0,0,0,.79-1.73c-.38-.8-.81-1.61-1.3-2.44a1.25,1.25,0,0,0-1.39-.56l-15.27,4.21a1.24,1.24,0,0,0-.77,1.73,11.47,11.47,0,0,1,.78,2.19A1.23,1.23,0,0,0,615.65,420.63Z" transform="translate(-490.96 -359.15)"/><path class="cls-2" d="M614.71,427.8h18.07a1.12,1.12,0,0,0,1.1-.89,19.12,19.12,0,0,0,.33-3,1.14,1.14,0,0,0-1.13-1.17h-17.7a1.1,1.1,0,0,0-1.1.94,15.7,15.7,0,0,1-.63,2.64A1.12,1.12,0,0,0,614.71,427.8Z" transform="translate(-490.96 -359.15)"/><path class="cls-2" d="M611.9,430.47c-.37.71-.77,1.45-1.22,2.22a1.26,1.26,0,0,0,.68,1.83l15.23,5.17a1.26,1.26,0,0,0,1.43-.46c.54-.75,1-1.5,1.51-2.24a1.26,1.26,0,0,0-.65-1.87l-15.47-5.26A1.26,1.26,0,0,0,611.9,430.47Z" transform="translate(-490.96 -359.15)"/><path class="cls-1" d="M629.82,410.6a51.52,51.52,0,0,0-3.28-4.4.65.65,0,0,0-.86-.13l-13.31,8.82h0c-.23.13-.38.31-.28.51s.2.27.29.41a.66.66,0,0,0,.71.27l16.35-4.51A.65.65,0,0,0,629.82,410.6Z" transform="translate(-490.96 -359.15)"/></svg>