<svg id="plastic_group" xmlns="http://www.w3.org/2000/svg" viewBox="0 0 934.03 795.55"><defs><style>.cls-1{fill:#5c75a1;}.cls-2{fill:#a3b1bd;}.cls-3{fill:#b3bcc2;}.cls-4{fill:#78889d;}.cls-5{fill:#b3c6cf;}.cls-6{fill:#90acc0;}.cls-7{fill:none;}.cls-8{fill:#ccc;}.cls-9{fill:#999;}.cls-10{fill:#8fabcc;}.cls-10,.cls-11{opacity:0.65;}.cls-11{fill:#7d91bd;}</style></defs><g id="plastic_group_copy" data-name="plastic_group copy"><path class="cls-1" d="M669.51,216.87a4.93,4.93,0,0,0,.34-.54l0,0,4.19-6.85,3.21-5.23a12.56,12.56,0,0,0-.67-3.68l37.89-66.23,5.82-10.18a8,8,0,0,0,.95-6.35,7.27,7.27,0,0,0-2.66-3.94l-.09-.07c-5-6.65-12.52-14.07-21.7-21-9.52-7.14-19.09-12.41-27-15.28l-.58-.2a7.87,7.87,0,0,0-8.08,2.31l-8.65,8.77-53.31,54a13,13,0,0,0-3.5.32l-4.36,4.72-5.38,5.83,0,0a4.69,4.69,0,0,0-.42.47c-5.18,6.9,9.42,26.59,32.61,44S664.34,223.77,669.51,216.87Zm-25.91-53,0,0-1.17-.87Z" transform="translate(-74.98 -61.09)"/><path class="cls-1" d="M752.42,626.63l-49.61-57.46a12.71,12.71,0,0,0,0-3.51l-4.35-4.72L693,555.1l0,0a4.52,4.52,0,0,0-.43-.45c-6.47-5.71-27.26,7.27-46.45,29s-29.49,44-23,49.67a4.74,4.74,0,0,0,.51.37l0,0L630,638.5l5,3.61a12.57,12.57,0,0,0,3.72-.37l63,43,9.69,6.62a8,8,0,0,0,6.25,1.45,7.3,7.3,0,0,0,4.14-2.34l.07-.08c7-4.44,15-11.35,22.63-20,7.88-8.91,13.9-18,17.39-25.73.08-.19.17-.38.25-.56a7.89,7.89,0,0,0-1.66-8.24ZM678,611.78l.89-1-.87,1Z" transform="translate(-74.98 -61.09)"/><path class="cls-1" d="M909.67,358.74c23.62-20.14,23.16-27.73,30.67-44.53.24-.55.5-1.11.76-1.69,8.33-18,12-18.64,4.62-46.64-6.14-23.16-58.52,7.64-64-9.23-3.64-11.2-8-49.22-27.84-65.65-10-8.31-24-11.1-43.79-2.09-59,26.82-3.49,31.16-19.07,73.34s-44.91,34.56-77.9,64.49-20.52,43-6.65,49.54c13.07,6.13,21.32-22,45.23-21.74a32.63,32.63,0,0,1,4.52.35l6.54,1,2,.33c22.36,3.64,35.68,7.48,33,18.16-2.24,8.94-11.63,13.46-18.62,19.81a26.14,26.14,0,0,0-5.93,7.38c-5.7,11.18-10.58,19.67,4.73,27.19s33.91,11.92,44.06-10.22-1.83-25.14,14.39-34.33S885.28,379.54,909.67,358.74Zm-195.9,1c-12.41-5.47,6.5-43.14,32.88-45.19C765.11,313.11,726.18,365.21,713.77,359.73Zm80.82,54.69s20-23.78,21.11-32.37C815.32,406,803.6,414,794.59,414.42Z" transform="translate(-74.98 -61.09)"/><path class="cls-1" d="M247,506.15c-42.91-13.42-36.78-43.11-68.34-74.54s-44-18.31-49.82-4.14c-5.46,13.37,23,20.18,24,44.08a31.69,31.69,0,0,1-.13,4.53c-.22,2.28-.45,4.45-.68,6.58-.07.69-.14,1.4-.22,2.07-2.5,22.51-5.67,36-16.47,33.87-9-1.79-14-10.93-20.73-17.59a26.08,26.08,0,0,0-7.67-5.55c-11.45-5.12-20.17-9.57-26.91,6.1S69.85,536,92.47,545.05s25-3.1,35,12.64,7.15,48.54,29.16,71.84c21.3,22.57,28.86,21.73,46,28.37l1.72.68c18.4,7.41,19.23,11.08,46.81,2.25,22.83-7.3-10.59-58.05,6-64.38,11-4.2,48.75-10.51,64.16-31.12,7.79-10.43,9.87-24.52-.13-43.85C291.45,463.92,289.92,519.57,247,506.15ZM145.74,433.93c4.84-12.67,43.42,4.31,46.8,30.55C194.9,482.85,140.9,446.61,145.74,433.93ZM95.21,517.41s24.76,18.75,33.4,19.45C104.69,537.69,96.1,526.39,95.21,517.41Z" transform="translate(-74.98 -61.09)"/><path class="cls-1" d="M530.36,478.47a24.32,24.32,0,0,0-2-3c-.5-.67-1-1.36-1.66-2.08-1-1.12-2-2.29-3.29-3.53-9.67-9.67-17.27-16.59-20.86-19.78a3.18,3.18,0,0,0-4.36.13l-1.86,1.86a3.71,3.71,0,0,0,.2,5.44c5.6,4.84,17.35,15.06,21.44,19.14.4.4.76.78,1.09,1.15a14.11,14.11,0,0,1,1.63,2.1l-1.69,1,2-.42a5.78,5.78,0,0,1,.73,2.53l-3.33.7,3.29.21a8.37,8.37,0,0,1-.81,2.58l-3-.19,2.56,1.05a25.44,25.44,0,0,1-1.43,2.25l.56.24a.77.77,0,0,0-.92.25c-.92,1.26-2.05,2.66-3.42,4.26-7.15,8.34-50.88,53.26-61.55,64.2a3.81,3.81,0,0,0-.24,5l1,1.21a3.28,3.28,0,0,0,4.95.21c10.86-11.55,52.69-56,62.38-65.31,2.1-2,4-3.88,5.48-5.62a.78.78,0,0,0-.3-1.23l1,.41a26.81,26.81,0,0,0,1.64-2.16,14.82,14.82,0,0,0,2-3.94,9.76,9.76,0,0,0,.43-2.61,10.31,10.31,0,0,0-.58-3.58A15.14,15.14,0,0,0,530.36,478.47Z" transform="translate(-74.98 -61.09)"/><path class="cls-1" d="M201.59,284.15a18,18,0,0,0,2.09,2.28,28,28,0,0,0,3.25,2.58c.79.55,1.65,1.1,2.58,1.66,1.46.87,3.08,1.74,4.9,2.64,14.12,7,25,11.75,30.06,13.91a3.66,3.66,0,0,0,4.71-1.75l1.34-2.71a4.28,4.28,0,0,0-2.22-5.87c-7.89-3.22-24.49-10.05-30.46-13-.58-.29-1.11-.57-1.62-.85a17.21,17.21,0,0,1-2.54-1.69l1.48-1.69-2,1.21a6.8,6.8,0,0,1-1.73-2.49l3.38-2-3.67,1a9.7,9.7,0,0,1-.06-3.12l3.34-.9-3.18-.2a28.55,28.55,0,0,1,.73-3l-.7,0a.91.91,0,0,0,.91-.62c.54-1.71,1.26-3.66,2.17-5.91,4.73-11.74,35.92-76.89,43.53-92.78a4.38,4.38,0,0,0-1.59-5.59l-1.5-1a3.77,3.77,0,0,0-5.48,1.6c-7.61,16.6-36.91,80.49-44,94.29-1.55,3-2.89,5.68-3.92,8.15a.9.9,0,0,0,.78,1.23l-1.24-.08c-.4,1-.72,2-1,3a16.69,16.69,0,0,0-.7,5,11.21,11.21,0,0,0,.49,3A12.25,12.25,0,0,0,201.59,284.15Z" transform="translate(-74.98 -61.09)"/><path class="cls-1" d="M551.84,345.58c0-.25,0-.5-.06-.75s0-.29,0-.43-.07-.48-.1-.72,0-.31-.07-.46-.09-.5-.14-.76,0-.28-.08-.42-.12-.52-.19-.78-.06-.27-.1-.4c-.1-.39-.22-.78-.34-1.17l-42-130.55c-8-14.57-16.47-17.41-19.9-29.82l-6.64-52.67-1.62-5a54.53,54.53,0,0,0-54.94-37.74L423.4,77l1.85-.6A1.11,1.11,0,0,0,426,75l-4.22-13.1a1.11,1.11,0,0,0-1.4-.73l-29.88,9.61a1.12,1.12,0,0,0-.72,1.41L394,85.26a1.12,1.12,0,0,0,1.41.73l1.85-.6,2.22,6.91A54.52,54.52,0,0,0,376.8,155l1.62,5,25.32,46.66c4.45,12.09-.74,19.3,1.22,35.83l42,130.55c.13.39.27.77.41,1.15l.15.38.3.75.19.39c.1.23.21.47.32.7l.21.4.34.65c.07.13.15.25.22.37s.25.44.38.65.16.23.23.35l.42.63c.08.12.16.22.24.33s.29.42.45.62l.24.3c.16.2.32.41.49.6l.25.29c.17.19.34.39.52.58l.25.26.55.57.25.23c.2.18.39.37.6.55l.22.19c.21.19.43.38.65.55l.22.18.69.53.2.14.74.51.2.13c.25.16.51.33.77.48l.18.11.81.45.17.09c.28.15.57.3.85.43l.15.07.9.4.14.06c.3.12.61.25.92.36l.12,0c.32.12.64.23,1,.33l.1,0c.33.11.66.2,1,.29l.1,0,1,.24.09,0,1,.2h.09c.35.06.7.11,1.06.15h.07l1.08.1h.09c.35,0,.71,0,1.08.05H471l1.07-.05h.1l1.08-.11.11,0c.35,0,.71-.1,1.07-.16l.12,0,1.06-.22.14,0,.93-.23.06,0,.06,0c22.23-7.16,9.13-12.62,26.73-18.28s10.14,6.41,32.38-.73l.06,0H536l.89-.36.13-.05c.34-.14.66-.29,1-.45l.11-.05,1-.49.09,0,.94-.54.09-.05c.31-.19.61-.39.91-.59l.08-.05c.3-.2.6-.42.89-.63l.06-.05L543,366l.07,0c.28-.23.55-.47.81-.71l.06-.05c.27-.24.52-.49.77-.74l.07-.06c.25-.25.49-.51.73-.77l.06-.07c.24-.26.47-.52.69-.79l.06-.08c.23-.27.44-.54.65-.82l.06-.08q.32-.41.6-.84l.07-.09c.19-.28.36-.56.54-.84l.08-.13c.17-.28.33-.56.49-.85l.08-.13c.16-.28.3-.57.44-.85l.09-.17c.14-.28.27-.56.39-.85l.09-.19c.12-.28.23-.56.34-.84l.09-.22c.11-.28.2-.56.3-.85a2.09,2.09,0,0,0,.08-.23c.09-.27.17-.55.25-.83a2.76,2.76,0,0,0,.08-.27c.08-.27.14-.55.21-.83,0-.09,0-.19.07-.28.06-.27.11-.54.16-.8,0-.11,0-.22.07-.33l.12-.79c0-.12,0-.24.05-.35s.06-.52.08-.78,0-.25,0-.38,0-.52,0-.78,0-.25,0-.38,0-.5,0-.76,0-.27,0-.41,0-.5,0-.75S551.85,345.72,551.84,345.58ZM402.23,83.78l20.88-6.72-12.8,4.12Z" transform="translate(-74.98 -61.09)"/><path class="cls-1" d="M479.7,679.32a.66.66,0,0,0-.92.17l-4.61,6.65a.66.66,0,0,0,.17.92l12.18,8.43-4.59-3.17-6.65-4.61-2.43,3.51a32.08,32.08,0,0,0-37.38,11.88l-1.77,2.56L421,734.19c-4.05,6.41-9.28,6.57-16.29,13.4L358.76,814l-.4.6-.12.21-.24.41-.12.22-.21.4c0,.08-.07.17-.11.25s-.13.26-.18.39-.06.15-.1.23-.11.28-.16.41a2.25,2.25,0,0,0-.08.24c-.05.14-.11.28-.15.42a1.55,1.55,0,0,0-.07.23c0,.14-.09.28-.13.43a1.6,1.6,0,0,1-.05.21c0,.15-.07.3-.11.45a1.7,1.7,0,0,1,0,.22l-.09.45,0,.21c0,.15-.05.31-.06.46a1.36,1.36,0,0,0,0,.2c0,.16,0,.32-.05.48a1,1,0,0,1,0,.17c0,.17,0,.34,0,.5v.17c0,.17,0,.34,0,.51v.14l0,.53s0,.09,0,.14,0,.36.05.53a.69.69,0,0,0,0,.13c0,.18,0,.36.07.54a.43.43,0,0,1,0,.11c0,.18.07.37.11.55a.29.29,0,0,0,0,.09c0,.19.08.38.13.57a.19.19,0,0,1,0,.08c.05.19.11.38.17.56a.14.14,0,0,0,0,.07c.06.19.12.38.19.57a.14.14,0,0,1,0,.06c.07.19.15.38.23.57a.14.14,0,0,0,0,.06c.08.19.16.37.25.56l0,.05c.09.19.19.37.29.56l0,0c.1.19.2.37.31.55l0,0,.34.54,0,0c.12.17.24.35.37.52l0,0,.4.51,0,0c.14.16.27.32.42.48l0,0c.14.15.28.31.43.46l.05,0c.15.16.3.3.46.45l.05,0,.48.41.07.06.44.35,0,0,0,0c11.3,7.82,9.16-.25,18.11,5.94s.63,7,11.93,14.85l0,0,0,0,.49.28.07,0,.56.3.07,0,.57.28.06,0,.59.25.06,0,.59.22.06,0c.2.06.4.13.61.18l.05,0c.2.06.41.11.61.15l.05,0,.62.12h0l.62.1h.05l.62.06h.06l.61,0h.74l.6,0h.07l.59-.05h.08l.58-.08h.09l.55-.1.11,0,.54-.12.12,0,.51-.15.14,0,.5-.17.14,0,.48-.18.15-.06.46-.2.16-.07.43-.21.18-.09.41-.22.19-.11.39-.24.19-.11.38-.26.18-.13.36-.27.19-.14.34-.29.19-.16.33-.3.18-.17.31-.31.19-.19.3-.34.17-.19.29-.36.15-.19c.15-.19.29-.38.43-.58l45.92-66.36c3.92-9,2.23-13.92,6.8-20l22.22-22,1.77-2.56a32.09,32.09,0,0,0-2-39.17l2.42-3.51.94.65a.66.66,0,0,0,.92-.17l4.61-6.65a.66.66,0,0,0-.17-.92Z" transform="translate(-74.98 -61.09)"/><path class="cls-1" d="M1009,569.62c0-.2,0-.4,0-.61,0,0,0,0,0-.06,0-.2,0-.4,0-.61v-.06c0-.2-.05-.41-.07-.61v0c0-.21-.06-.42-.1-.62v0c0-.21-.09-.41-.13-.62v0c0-.21-.11-.41-.17-.62v0c-.06-.2-.12-.4-.19-.6l0,0c-.07-.2-.14-.4-.22-.6l0,0c-.08-.2-.16-.39-.25-.59a.08.08,0,0,1,0-.05c-.09-.19-.18-.39-.28-.57l0-.06c-.1-.19-.2-.38-.31-.56l0-.06-.33-.55a.18.18,0,0,1,0-.07l-.32-.47,0,0,0,0c-8.43-10.85-8.82-2.51-15.49-11.1s1.51-6.9-6.91-17.76l0,0,0,0-.37-.42-.06-.06c-.14-.16-.29-.31-.44-.46l0,0-.47-.43,0-.05-.49-.41,0,0-.51-.38,0,0-.53-.36,0,0-.54-.33,0,0-.56-.31,0,0-.56-.28,0,0-.57-.25,0,0-.58-.22,0,0-.59-.19-.06,0-.58-.16-.07,0-.57-.13-.08,0-.58-.1-.09,0-.55-.07-.11,0-.55,0h-.12l-.54,0h-.81l-.51,0h-.17l-.5,0-.17,0-.47.07-.2,0-.46.09-.2,0-.45.11-.22.06-.44.13-.21.06-.42.15-.23.08-.41.17-.23.1-.4.19-.23.1-.38.21-.24.12-.39.23-.22.13-.39.27a1.37,1.37,0,0,0-.2.13l-.58.43-63.75,49.47c-6.44,7.38-6.32,12.61-12.49,17l-27.8,14.26L857.63,613a32.1,32.1,0,0,0-9.82,38l-3.37,2.61-.7-.9a.67.67,0,0,0-.93-.12l-6.39,5a.65.65,0,0,0-.12.92L847.62,673a.67.67,0,0,0,.93.12l6.4-5a.66.66,0,0,0,.11-.92l-.7-.9,3.37-2.62a32.07,32.07,0,0,0,39.22-.09l2.47-1.91,20.71-23.38c5.79-4.89,10.82-3.47,19.57-7.88L1003.45,581c.19-.15.38-.3.56-.46l.18-.16.35-.32c.06,0,.12-.12.18-.18l.32-.31.18-.2.29-.32.16-.2c.1-.11.2-.22.29-.34l.14-.2.27-.35.13-.2.25-.38.12-.19.24-.39.1-.2c.08-.13.15-.26.22-.4s.06-.13.1-.19.13-.28.2-.42l.08-.18.18-.45.06-.16.18-.47c0-.05,0-.11,0-.16l.15-.48a1,1,0,0,0,0-.14c0-.17.09-.34.14-.52a.61.61,0,0,1,0-.13c0-.18.07-.35.11-.52s0-.09,0-.13l.09-.54a.37.37,0,0,0,0-.11c0-.18,0-.37.07-.56,0,0,0-.06,0-.09,0-.19,0-.38,0-.58v-.08c0-.2,0-.4,0-.59ZM847.78,657.85l1.62,2.09,3.26,4.2Z" transform="translate(-74.98 -61.09)"/></g><g id="Layer_10" data-name="Layer 10"><path class="cls-2" d="M643.6,163.85c19,14.28,31.86,30.38,31.75,39l39.16-68.45,5.82-10.18a8,8,0,0,0,.95-6.35,7.27,7.27,0,0,0-2.66-3.94l-.09-.07c-5-6.65-12.52-14.07-21.7-21-9.52-7.14-19.09-12.41-27-15.28l-.58-.2a7.87,7.87,0,0,0-8.08,2.31l-8.65,8.77-55,55.73C605.84,141.9,624.71,149.69,643.6,163.85Z" transform="translate(-74.98 -61.09)"/><path class="cls-2" d="M585.55,153.89c-5.18,6.9,9.42,26.59,32.61,44s46.18,25.9,51.35,19a4.93,4.93,0,0,0,.34-.54L586,153.42A4.69,4.69,0,0,0,585.55,153.89Z" transform="translate(-74.98 -61.09)"/><path class="cls-3" d="M636.9,172.88c22.63,17,37.06,36.12,33,43.45l0,0,4.19-6.85,3.21-5.23c-.09-8.75-13.67-25.43-33.64-40.4-19.79-14.85-39.44-23.21-48-21l-4.36,4.72-5.38,5.83,0,0C591.85,147.42,614.28,155.92,636.9,172.88Z" transform="translate(-74.98 -61.09)"/><path class="cls-2" d="M636.9,172.88c-22.62-17-45-25.46-50.93-19.46l83.88,62.91C674,209,659.53,189.85,636.9,172.88Z" transform="translate(-74.98 -61.09)"/><ellipse class="cls-4" cx="627.53" cy="185.38" rx="13.12" ry="47.48" transform="translate(27.72 515.07) rotate(-53.13)"/><path class="cls-2" d="M678,611.76c-15.76,17.84-32.83,29.33-41.4,28.54l65.11,44.49,9.69,6.62a8,8,0,0,0,6.25,1.45,7.3,7.3,0,0,0,4.14-2.34l.07-.08c7-4.44,15-11.35,22.63-20,7.88-8.91,13.9-18,17.39-25.73.08-.19.17-.38.25-.56a7.89,7.89,0,0,0-1.66-8.24l-8.05-9.32-51.17-59.26C702.89,575.87,693.63,594.07,678,611.76Z" transform="translate(-74.98 -61.09)"/><path class="cls-2" d="M692.56,554.69c-6.47-5.71-27.26,7.27-46.45,29s-29.49,44-23,49.67a4.74,4.74,0,0,0,.51.37L693,555.14A4.52,4.52,0,0,0,692.56,554.69Z" transform="translate(-74.98 -61.09)"/><path class="cls-3" d="M669.53,604.36c-18.72,21.2-39,34.06-45.94,29.37l0,0L630,638.5l5,3.61c8.73.62,26.43-11.6,43-30.3,16.38-18.55,26.28-37.46,24.8-46.15l-4.35-4.72L693,555.1l0,0C698.51,561.49,688.25,583.17,669.53,604.36Z" transform="translate(-74.98 -61.09)"/><path class="cls-2" d="M669.53,604.36c18.72-21.19,29-42.87,23.46-49.22l-69.4,78.59C630.56,638.42,650.81,625.56,669.53,604.36Z" transform="translate(-74.98 -61.09)"/><ellipse class="cls-4" cx="657.82" cy="594.02" rx="47.48" ry="13.12" transform="translate(-297.85 632.77) rotate(-48.55)"/></g><g id="Layer_9" data-name="Layer 9"><path class="cls-5" d="M706.47,376.28c13.07,6.13,21.32-22,45.23-21.74,8.16-5.33,17-9.23,27.14-8.68,14.79.81,29.69-3.36,34.94,17.39h0s.4,1.35.85,3.46a62.1,62.1,0,0,1,1.18,8.13,36.46,36.46,0,0,1-.11,7.16.06.06,0,0,1,0,0c-.38,23.93-12.1,31.94-21.11,32.37a2.82,2.82,0,0,1-1.66-.32c-5.49-1.54-16.43-8.4-13.74-19.9a26.14,26.14,0,0,0-5.93,7.38c-5.7,11.18-10.58,19.67,4.73,27.19s33.91,11.92,44.06-10.22-1.83-25.14,14.39-34.33,48.84-4.68,73.23-25.48c23.62-20.14,23.16-27.73,30.67-44.53-.87-12.46-1.05-24.48-14.88-25.7-19.4-1.72-25.06,3.09-37.65-7.45s-10.92-8.29-16.19-23.92-5.8-13.27-8.54-31.76-7.05-13.91-8.34-21.33a74.38,74.38,0,0,1-.86-13.05c-10-8.31-24-11.1-43.79-2.09-59,26.82-3.49,31.16-19.07,73.34s-44.91,34.56-77.9,64.49S692.6,369.78,706.47,376.28Zm177.69-13.49c-5.53,1.84-36.11.31-43.48-20.05,6.83,2.63,35.52,6.55,39.44,7.14l-28-.21S889.69,360.94,884.16,362.79ZM858.34,246.72c3.71-.65-.59,3.92.71,11.33s1.61,23.91,2.9,31.33,5,14.4,10.43,16,9.51,3.44,18.16,1.93,28.77-6.82,21.1-1.4c-9.25,6.55-8.31,1.72-21.26,7.79s-23.64,10.49-31.06,11.78-16.06,2.79-16.12-4.84,8.33-11.28,8.41-17.83,1.16-.38,1.64-19.57S854.64,247.36,858.34,246.72ZM797,318.51c4.3-4.57,7.15-10.16,11.82-19.88s15.53-20.53,10.69-33.69-8.6-32.88-6.4-35.81,2.85.77,4.57,10.66,3.17,10.91,5.27,15.64,1.87-25.8,6.39-29.13c21.57-15.93,2.58,44.12-6.17,59.64s-14,29.18-22,34.4-13.16,4.83-15.85,4S792.7,323.08,797,318.51Zm-50.34-4c18.46-1.43-20.47,50.67-32.88,45.19S720.27,316.59,746.65,314.54Z" transform="translate(-74.98 -61.09)"/><path class="cls-6" d="M852.07,349.67l28,.21c-3.92-.59-32.61-4.51-39.44-7.14,7.37,20.36,38,21.89,43.48,20.05S852.07,349.67,852.07,349.67Z" transform="translate(-74.98 -61.09)"/><path class="cls-6" d="M843.2,320.65c.06,7.63,8.71,6.13,16.12,4.84s18.11-5.7,31.06-11.78,12-1.24,21.26-7.79c7.67-5.42-12.45-.11-21.1,1.4s-12.79-.32-18.16-1.93-9.14-8.6-10.43-16-1.61-23.91-2.9-31.33,3-12-.71-11.33-4.61,17.35-5.09,36.53-1.56,13-1.64,19.57S843.15,313,843.2,320.65Z" transform="translate(-74.98 -61.09)"/><path class="cls-6" d="M863.08,225.38c2.74,18.49,3.27,16.12,8.54,31.76s3.6,13.38,16.19,23.92,18.25,5.73,37.65,7.45c13.83,1.22,14,13.24,14.88,25.7.24-.55.5-1.11.76-1.69,8.33-18,12-18.64,4.62-46.64-6.14-23.16-58.52,7.64-64-9.23-3.64-11.2-8-49.22-27.84-65.65a74.38,74.38,0,0,0,.86,13.05C856,211.47,860.33,206.9,863.08,225.38Z" transform="translate(-74.98 -61.09)"/><path class="cls-6" d="M785.28,324.37c2.69.8,7.85,1.18,15.85-4s13.27-18.87,22-34.4,27.74-75.57,6.17-59.64c-4.52,3.33-4.3,33.85-6.39,29.13s-3.55-5.75-5.27-15.64-2.37-13.59-4.57-10.66,1.56,22.64,6.4,35.81-6,24-10.69,33.69-7.52,15.31-11.82,19.88S782.6,323.56,785.28,324.37Z" transform="translate(-74.98 -61.09)"/><path class="cls-6" d="M756.22,354.89l6.54,1,2,.33c22.36,3.64,35.68,7.48,33,18.16-2.24,8.94-11.63,13.46-18.62,19.81-2.69,11.5,8.25,18.36,13.74,19.9a2.82,2.82,0,0,0,1.66.32s20-23.78,21.11-32.37a.06.06,0,0,0,0,0,36.46,36.46,0,0,0,.11-7.16,62.1,62.1,0,0,0-1.18-8.13c-.45-2.11-.85-3.46-.85-3.46h0c-5.25-20.75-20.15-16.58-34.94-17.39-10.11-.55-19,3.35-27.14,8.68A32.63,32.63,0,0,1,756.22,354.89Z" transform="translate(-74.98 -61.09)"/><path class="cls-5" d="M128.84,427.47c-5.46,13.37,23,20.18,24,44.08,5.73,7.87,10.07,16.54,10,26.66-.06,14.82,4.85,29.49-15.6,35.78h0s-1.33.46-3.41,1a62.06,62.06,0,0,1-8.07,1.6,36.33,36.33,0,0,1-7.15.25h0c-23.92.83-32.51-10.47-33.4-19.45a2.8,2.8,0,0,1,.24-1.67c1.25-5.56,7.56-16.83,19.17-14.73a26.08,26.08,0,0,0-7.67-5.55c-11.45-5.12-20.17-9.57-26.91,6.1S69.85,536,92.47,545.05s25-3.1,35,12.64,7.15,48.54,29.16,71.84c21.3,22.57,28.86,21.73,46,28.37,12.4-1.5,24.39-2.28,24.91-16.15.74-19.46-4.35-24.88,5.54-38s7.72-11.33,23.07-17.38,13-6.46,31.28-10.14,13.54-7.74,20.88-9.41a74.94,74.94,0,0,1,13-1.51c7.79-10.43,9.87-24.52-.13-43.85-29.77-57.56-31.3-1.91-74.22-15.33S210.22,463,178.66,431.61,134.63,413.3,128.84,427.47Zm22.47,176.78c-2.12-5.43-2.14-36,17.83-44.43-2.29,6.95-4.75,35.8-5.14,39.75l-1.21-28S153.43,609.68,151.31,604.25ZM265.93,572.6c.83,3.67-3.95-.39-11.29,1.28s-23.8,2.82-31.14,4.48-14.12,5.78-15.46,11.23-2.95,9.67-1,18.23,8.27,28.39,2.46,21c-7-8.91-2.13-8.22-8.85-20.84S189,584.91,187.31,577.57s-3.61-15.91,4-16.35,11.68,7.75,18.24,7.5.44,1.13,19.62.64S265.1,568.93,265.93,572.6ZM191.12,515c4.78,4.06,10.51,6.62,20.46,10.8s21.28,14.47,34.18,9,32.41-10.25,35.45-8.2-.64,2.88-10.42,5.1-10.74,3.72-15.35,6,25.85.57,29.41,4.91c17,20.74-43.93,4.81-59.88-3.15s-29.85-12.52-35.46-20.25-5.5-12.9-4.83-15.63S186.34,510.9,191.12,515Zm1.42-50.48c2.36,18.37-51.64-17.87-46.8-30.55S189.16,438.24,192.54,464.48Z" transform="translate(-74.98 -61.09)"/><path class="cls-6" d="M162.79,571.55l1.21,28c.39-4,2.85-32.8,5.14-39.75-20,8.38-19.95,39-17.83,44.43S162.79,571.55,162.79,571.55Z" transform="translate(-74.98 -61.09)"/><path class="cls-6" d="M191.32,561.22c-7.62.44-5.68,9-4,16.35s6.6,17.79,13.33,30.42,1.85,11.93,8.85,20.84c5.81,7.38-.52-12.45-2.46-21s-.33-12.79,1-18.23,8.12-9.56,15.46-11.23,23.8-2.82,31.14-4.48,12.12,2.39,11.29-1.28-17.57-3.73-36.75-3.24-13.07-.9-19.62-.64S198.94,560.78,191.32,561.22Z" transform="translate(-74.98 -61.09)"/><path class="cls-6" d="M287.47,576.25c-18.32,3.68-15.93,4.08-31.28,10.14s-13.18,4.27-23.07,17.38-4.8,18.52-5.54,38c-.52,13.87-12.51,14.65-24.91,16.15l1.72.68c18.4,7.41,19.23,11.08,46.81,2.25,22.83-7.3-10.59-58.05,6-64.38,11-4.2,48.75-10.51,64.16-31.12a74.94,74.94,0,0,0-13,1.51C301,568.51,305.79,572.57,287.47,576.25Z" transform="translate(-74.98 -61.09)"/><path class="cls-6" d="M184.68,503.56c-.67,2.73-.78,7.9,4.83,15.63S209,531.49,225,539.44s76.88,23.89,59.88,3.15c-3.56-4.34-34-2.58-29.41-4.91s5.56-3.83,15.35-6,13.45-3,10.42-5.1-22.54,2.7-35.45,8.2-24.23-4.79-34.18-9S195.9,519,191.12,515,185.35,500.84,184.68,503.56Z" transform="translate(-74.98 -61.09)"/><path class="cls-6" d="M152.72,476.08c-.22,2.28-.45,4.45-.68,6.58-.07.69-.14,1.4-.22,2.07-2.5,22.51-5.67,36-16.47,33.87-9-1.79-14-10.93-20.73-17.59-11.61-2.1-17.92,9.17-19.17,14.73a2.8,2.8,0,0,0-.24,1.67s24.76,18.75,33.4,19.45h0a36.33,36.33,0,0,0,7.15-.25,62.06,62.06,0,0,0,8.07-1.6c2.08-.56,3.41-1,3.41-1h0c20.45-6.29,15.54-21,15.6-35.78,0-10.12-4.31-18.79-10-26.66A31.69,31.69,0,0,1,152.72,476.08Z" transform="translate(-74.98 -61.09)"/></g><g id="Layer_11" data-name="Layer 11"><path class="cls-7" d="M518.46,483.66l3.29.21a5.59,5.59,0,0,0,0-.91Z" transform="translate(-74.98 -61.09)"/><path class="cls-7" d="M520.73,479.88l-1.69,1,2-.42C521,480.25,520.85,480.06,520.73,479.88Z" transform="translate(-74.98 -61.09)"/><path class="cls-7" d="M517.94,486.26l2.56,1.05c.16-.3.3-.58.44-.86Z" transform="translate(-74.98 -61.09)"/><path class="cls-8" d="M521.75,483.87l10.27.64a10.31,10.31,0,0,0-.58-3.58l-9.65,2A5.59,5.59,0,0,1,521.75,483.87Z" transform="translate(-74.98 -61.09)"/><path class="cls-8" d="M521.06,480.43l9.3-2a24.32,24.32,0,0,0-2-3l-7.67,4.43C520.85,480.06,521,480.25,521.06,480.43Z" transform="translate(-74.98 -61.09)"/><path class="cls-8" d="M523.45,469.84c-9.67-9.67-17.27-16.59-20.86-19.78a3.18,3.18,0,0,0-4.36.13l-1.86,1.86a3.71,3.71,0,0,0,.2,5.44c5.6,4.84,17.35,15.06,21.44,19.14.4.4.76.78,1.09,1.15l7.64-4.41C525.78,472.25,524.69,471.08,523.45,469.84Z" transform="translate(-74.98 -61.09)"/><path class="cls-8" d="M515.29,494.31c-7.15,8.34-50.88,53.26-61.55,64.2a3.81,3.81,0,0,0-.24,5l1,1.21a3.28,3.28,0,0,0,4.95.21c10.86-11.55,52.69-56,62.38-65.31,2.1-2,4-3.88,5.48-5.62a.78.78,0,0,0-.3-1.23l-7.35-3a.77.77,0,0,0-.92.25C517.79,491.31,516.66,492.71,515.29,494.31Z" transform="translate(-74.98 -61.09)"/><path class="cls-8" d="M520.5,487.31l9.12,3.75a14.82,14.82,0,0,0,2-3.94l-10.65-.67C520.8,486.73,520.66,487,520.5,487.31Z" transform="translate(-74.98 -61.09)"/><path class="cls-9" d="M528.4,475.45c-.5-.67-1-1.36-1.66-2.08l-7.64,4.41a14.11,14.11,0,0,1,1.63,2.1Z" transform="translate(-74.98 -61.09)"/><path class="cls-9" d="M521.79,483l9.65-2a15.14,15.14,0,0,0-1.08-2.46l-9.3,2A5.78,5.78,0,0,1,521.79,483Z" transform="translate(-74.98 -61.09)"/><path class="cls-9" d="M520.94,486.45l10.65.67a9.76,9.76,0,0,0,.43-2.61l-10.27-.64A8.37,8.37,0,0,1,520.94,486.45Z" transform="translate(-74.98 -61.09)"/><path class="cls-9" d="M520.5,487.31a25.44,25.44,0,0,1-1.43,2.25l8.91,3.66a26.81,26.81,0,0,0,1.64-2.16Z" transform="translate(-74.98 -61.09)"/><path class="cls-7" d="M214.76,276.38l-3.67,1a6.54,6.54,0,0,0,.29,1Z" transform="translate(-74.98 -61.09)"/><path class="cls-7" d="M213.68,281.35l1.48-1.69-2,1.21C213.28,281,213.48,281.19,213.68,281.35Z" transform="translate(-74.98 -61.09)"/><path class="cls-7" d="M214.37,273.35l-3.18-.2c-.07.38-.12.75-.16,1.1Z" transform="translate(-74.98 -61.09)"/><path class="cls-8" d="M211.09,277.37l-11.45,3.08a12.25,12.25,0,0,0,2,3.7l9.79-5.77A6.54,6.54,0,0,1,211.09,277.37Z" transform="translate(-74.98 -61.09)"/><path class="cls-8" d="M213.11,280.87l-9.43,5.56a28,28,0,0,0,3.25,2.58l6.75-7.66C213.48,281.19,213.28,281,213.11,280.87Z" transform="translate(-74.98 -61.09)"/><path class="cls-8" d="M214.41,293.31c14.12,7,25,11.75,30.06,13.91a3.66,3.66,0,0,0,4.71-1.75l1.34-2.71a4.28,4.28,0,0,0-2.22-5.87c-7.89-3.22-24.49-10.05-30.46-13-.58-.29-1.11-.57-1.62-.85l-6.71,7.63C211,291.54,212.59,292.41,214.41,293.31Z" transform="translate(-74.98 -61.09)"/><path class="cls-8" d="M214.3,263.59c4.73-11.74,35.92-76.89,43.53-92.78a4.38,4.38,0,0,0-1.59-5.59l-1.5-1a3.77,3.77,0,0,0-5.48,1.6c-7.61,16.6-36.91,80.49-44,94.29-1.55,3-2.89,5.68-3.92,8.15a.9.9,0,0,0,.78,1.23l9.14.59a.91.91,0,0,0,.91-.62C212.67,267.79,213.39,265.84,214.3,263.59Z" transform="translate(-74.98 -61.09)"/><path class="cls-8" d="M211.19,273.15l-11.34-.73a16.69,16.69,0,0,0-.7,5l11.88-3.2C211.07,273.9,211.12,273.53,211.19,273.15Z" transform="translate(-74.98 -61.09)"/><path class="cls-9" d="M206.93,289c.79.55,1.65,1.1,2.58,1.66l6.71-7.63a17.21,17.21,0,0,1-2.54-1.69Z" transform="translate(-74.98 -61.09)"/><path class="cls-9" d="M211.38,278.38l-9.79,5.77a18,18,0,0,0,2.09,2.28l9.43-5.56A6.8,6.8,0,0,1,211.38,278.38Z" transform="translate(-74.98 -61.09)"/><path class="cls-9" d="M211,274.25l-11.88,3.2a11.21,11.21,0,0,0,.49,3l11.45-3.08A9.7,9.7,0,0,1,211,274.25Z" transform="translate(-74.98 -61.09)"/><path class="cls-9" d="M211.19,273.15a28.55,28.55,0,0,1,.73-3l-11.08-.71c-.4,1-.72,2-1,3Z" transform="translate(-74.98 -61.09)"/></g><path class="cls-10" d="M397.22,85.39l2.22,6.91A54.52,54.52,0,0,0,376.8,155l1.62,5,25.32,46.66c4.45,12.09-.74,19.3,1.22,35.83l42,130.55c.13.39.27.77.41,1.15l.15.38.3.75.19.39c.1.23.21.47.32.7l.21.4.34.65c.07.13.15.25.22.37s.25.44.38.65.16.23.23.35l.42.63c.08.12.16.22.24.33s.29.42.45.62l.24.3c.16.2.32.41.49.6l.25.29c.17.19.34.39.52.58l.25.26.55.57.25.23c.2.18.39.37.6.55l.22.19c.21.19.43.38.65.55l.22.18.69.53.2.14.74.51.2.13c.25.16.51.33.77.48l.18.11.81.45.17.09c.28.15.57.3.85.43l.15.07.9.4.14.06c.3.12.61.25.92.36l.12,0c.32.12.64.23,1,.33l.1,0c.33.11.66.2,1,.29l.1,0,1,.24.09,0,1,.2h.09c.35.06.7.11,1.06.15h.07l1.08.1h.09c.35,0,.71,0,1.08.05H471l1.07-.05h.1l1.08-.11.11,0c.35,0,.71-.1,1.07-.16l.12,0,1.06-.22.14,0,.93-.23.06,0,.06,0c22.23-7.16,9.13-12.62,26.73-18.28L410.31,81.18Z" transform="translate(-74.98 -61.09)"/><path class="cls-11" d="M482.18,126.65l-1.62-5a54.53,54.53,0,0,0-54.94-37.74L423.4,77l-13.09,4.21,93.17,289.64c17.6-5.66,10.14,6.41,32.38-.73l.06,0H536l.89-.36.13-.05c.34-.14.66-.29,1-.45l.11-.05,1-.49.09,0,.94-.54.09-.05c.31-.19.61-.39.91-.59l.08-.05c.3-.2.6-.42.89-.63l.06-.05L543,366l.07,0c.28-.23.55-.47.81-.71l.06-.05c.27-.24.52-.49.77-.74l.07-.06c.25-.25.49-.51.73-.77l.06-.07c.24-.26.47-.52.69-.79l.06-.08c.23-.27.44-.54.65-.82l.06-.08q.32-.41.6-.84l.07-.09c.19-.28.36-.56.54-.84l.08-.13c.17-.28.33-.56.49-.85l.08-.13c.16-.28.3-.57.44-.85l.09-.17c.14-.28.27-.56.39-.85l.09-.19c.12-.28.23-.56.34-.84l.09-.22c.11-.28.2-.56.3-.85a2.09,2.09,0,0,0,.08-.23c.09-.27.17-.55.25-.83a2.76,2.76,0,0,0,.08-.27c.08-.27.14-.55.21-.83,0-.09,0-.19.07-.28.06-.27.11-.54.16-.8,0-.11,0-.22.07-.33l.12-.79c0-.12,0-.24.05-.35s.06-.52.08-.78,0-.25,0-.38,0-.52,0-.78,0-.25,0-.38,0-.5,0-.76,0-.27,0-.41,0-.5,0-.75,0-.28,0-.42,0-.5-.06-.75,0-.29,0-.43-.07-.48-.1-.72,0-.31-.07-.46-.09-.5-.14-.76,0-.28-.08-.42-.12-.52-.19-.78-.06-.27-.1-.4c-.1-.39-.22-.78-.34-1.17l-42-130.55c-8-14.57-16.47-17.41-19.9-29.82Z" transform="translate(-74.98 -61.09)"/><rect class="cls-1" x="391.04" y="65.56" width="33.63" height="16" rx="1.12" transform="translate(-77.91 67.35) rotate(-17.83)"/><path class="cls-10" d="M475.28,687.71l-2.43,3.51a32.08,32.08,0,0,0-37.38,11.88l-1.77,2.56L421,734.19c-4.05,6.41-9.28,6.57-16.29,13.4L358.76,814l-.4.6-.12.21-.24.41-.12.22-.21.4c0,.08-.07.17-.11.25s-.13.26-.18.39-.06.15-.1.23-.11.28-.16.41a2.25,2.25,0,0,0-.08.24c-.05.14-.11.28-.15.42a1.55,1.55,0,0,0-.07.23c0,.14-.09.28-.13.43a1.6,1.6,0,0,1-.05.21c0,.15-.07.3-.11.45a1.7,1.7,0,0,1,0,.22l-.09.45,0,.21c0,.15-.05.31-.06.46a1.36,1.36,0,0,0,0,.2c0,.16,0,.32-.05.48a1,1,0,0,1,0,.17c0,.17,0,.34,0,.5v.17c0,.17,0,.34,0,.51v.14l0,.53s0,.09,0,.14,0,.36.05.53a.69.69,0,0,0,0,.13c0,.18,0,.36.07.54a.43.43,0,0,1,0,.11c0,.18.07.37.11.55a.29.29,0,0,0,0,.09c0,.19.08.38.13.57a.19.19,0,0,1,0,.08c.05.19.11.38.17.56a.14.14,0,0,0,0,.07c.06.19.12.38.19.57a.14.14,0,0,1,0,.06c.07.19.15.38.23.57a.14.14,0,0,0,0,.06c.08.19.16.37.25.56l0,.05c.09.19.19.37.29.56l0,0c.1.19.2.37.31.55l0,0,.34.54,0,0c.12.17.24.35.37.52l0,0,.4.51,0,0c.14.16.27.32.42.48l0,0c.14.15.28.31.43.46l.05,0c.15.16.3.3.46.45l.05,0,.48.41.07.06.44.35,0,0,0,0c11.3,7.82,9.16-.25,18.11,5.94L481.93,692.32Z" transform="translate(-74.98 -61.09)"/><path class="cls-11" d="M486.44,742.16l1.77-2.56a32.09,32.09,0,0,0-2-39.17l2.42-3.51-6.65-4.6L380.05,839.54c8.94,6.19.63,7,11.93,14.85l0,0,0,0,.49.28.07,0,.56.3.07,0,.57.28.06,0,.59.25.06,0,.59.22.06,0c.2.06.4.13.61.18l.05,0c.2.06.41.11.61.15l.05,0,.62.12h0l.62.1h.05l.62.06h.06l.61,0h.74l.6,0h.07l.59-.05h.08l.58-.08h.09l.55-.1.11,0,.54-.12.12,0,.51-.15.14,0,.5-.17.14,0,.48-.18.15-.06.46-.2.16-.07.43-.21.18-.09.41-.22.19-.11.39-.24.19-.11.38-.26.18-.13.36-.27.19-.14.34-.29.19-.16.33-.3.18-.17.31-.31.19-.19.3-.34.17-.19.29-.36.15-.19c.15-.19.29-.38.43-.58l45.92-66.36c3.92-9,2.23-13.92,6.8-20Z" transform="translate(-74.98 -61.09)"/><rect class="cls-1" x="479.9" y="678.55" width="9.42" height="19.79" rx="0.66" transform="matrix(0.57, -0.82, 0.82, 0.57, -432.25, 634.08)"/><g id="bottle"><path class="cls-10" d="M854.36,666.34l3.37-2.62a32.07,32.07,0,0,0,39.22-.09l2.47-1.91,20.71-23.38c5.79-4.89,10.82-3.47,19.57-7.88L1003.45,581c.19-.15.38-.3.56-.46l.18-.16.35-.32c.06,0,.12-.12.18-.18l.32-.31.18-.2.29-.32.16-.2c.1-.11.2-.22.29-.34l.14-.2.27-.35.13-.2.25-.38.12-.19.24-.39.1-.2c.08-.13.15-.26.22-.4s.06-.13.1-.19.13-.28.2-.42l.08-.18.18-.45.06-.16.18-.47c0-.05,0-.11,0-.16l.15-.48a1,1,0,0,0,0-.14c0-.17.09-.34.14-.52a.61.61,0,0,1,0-.13c0-.18.07-.35.11-.52s0-.09,0-.13l.09-.54a.37.37,0,0,0,0-.11c0-.18,0-.37.07-.56,0,0,0-.06,0-.09,0-.19,0-.38,0-.58v-.08c0-.2,0-.4,0-.59v-.07c0-.2,0-.4,0-.61,0,0,0,0,0-.06,0-.2,0-.4,0-.61v-.06c0-.2-.05-.41-.07-.61v0c0-.21-.06-.42-.1-.62v0c0-.21-.09-.41-.13-.62v0c0-.21-.11-.41-.17-.62v0c-.06-.2-.12-.4-.19-.6l0,0c-.07-.2-.14-.4-.22-.6l0,0c-.08-.2-.16-.39-.25-.59a.08.08,0,0,1,0-.05c-.09-.19-.18-.39-.28-.57l0-.06c-.1-.19-.2-.38-.31-.56l0-.06-.33-.55a.18.18,0,0,1,0-.07l-.32-.47,0,0,0,0c-8.43-10.85-8.82-2.51-15.49-11.1L849.4,659.94Z" transform="translate(-74.98 -61.09)"/><path class="cls-11" d="M860.09,611.05,857.63,613a32.1,32.1,0,0,0-9.82,38l-3.37,2.61,5,6.39L990.84,550.18c-6.67-8.6,1.51-6.9-6.91-17.76l0,0,0,0-.37-.42-.06-.06c-.14-.16-.29-.31-.44-.46l0,0-.47-.43,0-.05-.49-.41,0,0-.51-.38,0,0-.53-.36,0,0-.54-.33,0,0-.56-.31,0,0-.56-.28,0,0-.57-.25,0,0-.58-.22,0,0-.59-.19-.06,0-.58-.16-.07,0-.57-.13-.08,0-.58-.1-.09,0-.55-.07-.11,0-.55,0h-.12l-.54,0h-.81l-.51,0h-.17l-.5,0-.17,0-.47.07-.2,0-.46.09-.2,0-.45.11-.22.06-.44.13-.21.06-.42.15-.23.08-.41.17-.23.1-.4.19-.23.1-.38.21-.24.12-.39.23-.22.13-.39.27a1.37,1.37,0,0,0-.2.13l-.58.43-63.75,49.47c-6.44,7.38-6.32,12.61-12.49,17Z" transform="translate(-74.98 -61.09)"/><rect class="cls-1" x="840.97" y="652.94" width="9.42" height="19.79" rx="0.66" transform="translate(-303.77 596.57) rotate(-37.81)"/></g></svg>