<svg id="plastic_bag" xmlns="http://www.w3.org/2000/svg" viewBox="0 0 388.65 507.77"><defs><style>.cls-1{fill:#90acc0;}.cls-2{fill:#b3c6cf;}</style></defs><path class="cls-1" d="M691.22,477.67c-49.55-70.54-5.55-108.51-16.81-193.16S628.89,205.24,603.53,220c-23.91,13.94,11.43,57.58-15,95a60.43,60.43,0,0,1-5.48,6.74c-3,3.2-5.89,6.25-8.73,9.22-.92,1-1.85,2-2.76,2.88C541.47,365.19,520.88,382,507,366.15c-11.65-13.28-8.54-33-10.95-51a50.19,50.19,0,0,0-5.18-17.39c-11.42-21.16-19.48-38.13-48-22.17S387,316.1,410.89,356.24s41.65,24.52,38.46,60.13S403.5,498.5,409.72,559.64c6,59.2,18.49,66.75,36.81,96.9.6,1,1.21,2,1.82,3,19.32,32.75,16.3,39.3,68.53,58.11,43.23,15.56,51.73-100.61,84.32-90.87,21.64,6.47,86.38,41,133.88,27.65,24-6.75,43.65-25.72,51-66.79C808.12,465.4,740.77,548.21,691.22,477.67ZM621.67,249.58c22.17-13.61,61,57.27,35.45,101.11C639.25,381.37,599.5,263.18,621.67,249.58ZM447.33,317.44s15.74,57.42,28,68.58C438.05,359.34,438.2,332.12,447.33,317.44Z" transform="translate(-401.76 -211.35)"/><path class="cls-2" d="M603.53,220c-23.91,13.94,11.43,57.58-15,95-.49,18.68-4,36.91-15.9,52.26-17.39,22.45-27.06,50.49-65.51,36.15l0,0s-2.56-.85-6.38-2.44a116.87,116.87,0,0,1-14.12-7,70.65,70.65,0,0,1-11.17-8l-.06-.06c-37.32-26.68-37.17-53.9-28-68.58a5.42,5.42,0,0,1,2.32-2.27c8.4-7,31.16-16.75,46.36,0a50.19,50.19,0,0,0-5.18-17.39c-11.42-21.16-19.48-38.13-48-22.17S387,316.1,410.89,356.24s41.65,24.52,38.46,60.13S403.5,498.5,409.72,559.64c6,59.2,18.49,66.75,36.81,96.9,20.61,12.21,39.74,25,56.75,4.55,23.85-28.73,22.44-42.9,52.79-51.27s25-8.19,55.37.54,27.24,5.32,59.39,21.13,29.63,4.06,42.73,10.11a142.49,142.49,0,0,1,21.52,12.87c24-6.75,43.65-25.72,51-66.79,22-122.28-45.35-39.47-94.9-110s-5.55-108.51-16.81-193.16S628.89,205.24,603.53,220ZM431.14,515c3.12-10.73,38.87-57.29,79-46.71-11.59,7.89-49.05,48.88-54.25,54.42l30.9-44S428,525.71,431.14,515Zm211.21,85.8c-3,6.55-5.55-5.2-18.65-11.25S584.23,566,571.13,560s-28.22-7.72-36.62-1-15.78,11.25-22.84,26.53-20.6,52.82-20.8,34.81c-.23-21.72,6.36-15,10.89-42S511,529.57,517,516.47s13.1-28.38,25.2-20.15,8.7,25.43,19,32.7-.65,2.23,29.08,23.9S645.37,594.23,642.35,600.78ZM596,425.77c2.52,11.76,8.23,22.34,18.48,40.31s15.45,46.86,41.49,53.58,61.23,22.28,63.45,28.94-4.33,3.64-21.8-4.42-20.66-6.89-30.4-8.73,38.63,31.07,39,41.82c1.61,51.38-72.39-44-87.34-74.74s-30.74-53.92-30.24-72.22,6.72-26,10.92-29.4S593.46,414,596,425.77Zm61.14-75.08c-17.87,30.68-57.62-87.51-35.45-101.11S682.65,306.85,657.12,350.69Z" transform="translate(-401.76 -211.35)"/><path class="cls-1" d="M486.81,478.68l-30.9,44c5.2-5.54,42.66-46.53,54.25-54.42-40.15-10.58-75.9,36-79,46.71S486.81,478.68,486.81,478.68Z" transform="translate(-401.76 -211.35)"/><path class="cls-1" d="M542.24,496.32c-12.1-8.23-19.15,7.05-25.2,20.15s-10.74,34.77-15.28,61.81-11.12,20.31-10.89,42c.2,18,13.75-19.52,20.8-34.81s14.45-19.82,22.84-26.53,23.52-5,36.62,1,39.47,23.51,52.57,29.56,15.62,17.8,18.65,11.25-22.34-26.2-52.07-47.86S571.46,536.29,561.2,529,554.33,504.55,542.24,496.32Z" transform="translate(-401.76 -211.35)"/><path class="cls-1" d="M670.83,631.49c-32.15-15.81-29-12.4-59.39-21.13s-25-8.9-55.37-.54-28.94,22.54-52.79,51.27c-17,20.47-36.14,7.66-56.75-4.55.6,1,1.21,2,1.82,3,19.32,32.75,16.3,39.3,68.53,58.11,43.23,15.56,51.73-100.61,84.32-90.87,21.64,6.47,86.38,41,133.88,27.65a142.49,142.49,0,0,0-21.52-12.87C700.46,635.55,703,647.31,670.83,631.49Z" transform="translate(-401.76 -211.35)"/><path class="cls-1" d="M599.51,400.91c-4.2,3.36-10.41,11.09-10.92,29.4s15.29,41.48,30.24,72.22,88.95,126.12,87.34,74.74c-.34-10.75-48.71-43.67-39-41.82s12.93.67,30.4,8.73,24,11.08,21.8,4.42S682,526.38,656,519.66s-31.24-35.61-41.49-53.58-16-28.55-18.48-40.31S603.71,397.55,599.51,400.91Z" transform="translate(-401.76 -211.35)"/><path class="cls-1" d="M583.05,321.8c-3,3.2-5.89,6.25-8.73,9.22-.92,1-1.85,2-2.76,2.88C541.47,365.19,520.88,382,507,366.15c-11.65-13.28-8.54-33-10.95-51-15.2-16.76-38-7-46.36,0a5.42,5.42,0,0,0-2.32,2.27s15.74,57.42,28,68.58l.06.06a70.65,70.65,0,0,0,11.17,8,116.87,116.87,0,0,0,14.12,7c3.82,1.59,6.38,2.44,6.38,2.44l0,0c38.45,14.34,48.12-13.7,65.51-36.15,11.89-15.35,15.41-33.58,15.9-52.26A60.43,60.43,0,0,1,583.05,321.8Z" transform="translate(-401.76 -211.35)"/></svg>