<svg xmlns="http://www.w3.org/2000/svg" viewBox="0 0 168.47 211.45"><defs><style>.cls-1{opacity:0.8;}.cls-2{fill:#78889d;}.cls-3{fill:#a3b1bd;}.cls-4{fill:#b3bcc2;}</style></defs><g id="plastic_cup" class="cls-1"><path class="cls-2" d="M647.39,455.22a8.35,8.35,0,0,0,0-1c-.86-13.84-39.25-22.72-85.75-19.84s-83.5,16.45-82.64,30.28a6.7,6.7,0,0,0,.15,1h-.09l2,12.75,1.53,9.74a20.67,20.67,0,0,0,4.65,3.81l22.67,120.54L513.42,631a12.86,12.86,0,0,0,5.45,8.76,11.78,11.78,0,0,0,7.37,2h.17c13,2.95,30,4.18,48.41,3,19.09-1.18,36.3-4.7,49-9.48l.92-.36a12.66,12.66,0,0,0,7.47-11.25L633.68,604l8.92-121.7a20.69,20.69,0,0,0,3.94-4.05L647,468l.51-12.75Z" transform="translate(-479 -433.84)"/><path class="cls-3" d="M566,502.53c-38.19,2.37-70.66-4-79.49-14.61l23.43,124.59L513.42,631a12.86,12.86,0,0,0,5.45,8.76,11.78,11.78,0,0,0,7.37,2h.17c13,2.95,30,4.18,48.41,3,19.09-1.18,36.3-4.7,49-9.48l.92-.36a12.66,12.66,0,0,0,7.47-11.25L633.68,604l9.2-125.52C635.08,490,603.86,500.18,566,502.53Z" transform="translate(-479 -433.84)"/><path class="cls-3" d="M647.41,454.22c-.86-13.84-39.25-22.72-85.75-19.84s-83.5,16.45-82.64,30.28a6.7,6.7,0,0,0,.15,1l168.22-10.44A8.35,8.35,0,0,0,647.41,454.22Z" transform="translate(-479 -433.84)"/><path class="cls-4" d="M564.77,484.5c-45.37,2.81-83-5.57-85.6-18.84h-.09l2,12.75,1.53,9.74c9.23,10.62,43.23,16.86,83.28,14.38,39.7-2.46,72.45-12.71,80.65-24.26L647,468l.51-12.75h-.08C646.45,468.71,610.14,481.68,564.77,484.5Z" transform="translate(-479 -433.84)"/><path class="cls-3" d="M564.77,484.5c45.37-2.82,81.68-15.79,82.62-29.28L479.17,465.66C481.77,478.93,519.4,487.31,564.77,484.5Z" transform="translate(-479 -433.84)"/><ellipse class="cls-2" cx="563.21" cy="459.44" rx="76.32" ry="21.09" transform="translate(-506.37 -398.08) rotate(-3.55)"/></g></svg>