<?xml version="1.0" encoding="utf-8"?>
<!-- Generator: Adobe Illustrator 25.2.1, SVG Export Plug-In . SVG Version: 6.00 Build 0)  -->
<svg version="1.1" id="Layer_1" xmlns="http://www.w3.org/2000/svg" xmlns:xlink="http://www.w3.org/1999/xlink" x="0px" y="0px"
	 viewBox="0 0 700 400" style="enable-background:new 0 0 700 400;" xml:space="preserve">
<style type="text/css">
	.st0{fill:#F6F6F6;}
</style>
<g>
	<path class="st0" d="M649.95,147.23c-0.72,6.19-4.74,9.97-9.58,13.19c-12.32,8.21-25.3,15.61-36.78,24.86
		c-13.97,11.26-29.26,20.01-44.67,28.99c-31.65,18.44-63.98,35.41-97.77,49.51c-22.64,9.45-46.58,13.58-70.94,15.4
		c-10.45,0.78-20.95,1.19-31.35,2.43c-4.49,0.54-9.13,2.13-13.09,4.33c-14.83,8.26-29.4,16.97-44.07,25.51
		c-1.12,0.65-2.26,1.25-4.09,2.26c-5.65-13.19,0.21-24.95,3.16-37.62c-12.3-0.91-24.64-1.19-36.76-2.97
		c-6.9-1.01-11.38,0.95-16.23,5.38c-7.74,7.05-16.22,13.29-24.28,19.99c-2.56,2.13-5.14,2.6-7.65,0.55
		c-3.18-2.6-6.84-5.09-8.94-8.46c-8.79-14.1-17.16-28.48-25.49-42.86c-1.64-2.84-2.38-6.19-3.63-9.27c-1.32-3.26-1.09-5.9,3.66-7.36
		c-6.17-3.47-11.45-6.74-17-9.49c-6.92-3.42-13.99-1.12-21.04,0.07c-29.59,5-59.32,8.5-89.42,7.64c-0.82-0.02-1.65-0.14-3.94-0.34
		c1.78-3.44,3.2-6.37,4.79-9.2c2.33-4.15,4.79-8.24,7.19-12.35c1.93-3.28,3.64-6.72,5.83-9.81c5.76-8.13,12.75-15.58,17.32-24.31
		c4.73-9.03,7.43-19.16,10.59-28.95c4.75-14.72,9.21-29.54,13.63-44.37c1.22-4.1,1.88-8.37,3.04-13.66
		c2.12,2.01,3.84,3.37,5.25,5.02c16.49,19.33,29.93,40.76,43.03,62.44c3.35,5.54,6.71,11.17,10.79,16.15
		c5.03,6.15,11.87,8.11,20.16,5.94c-0.72-2.5-1.99-4.85-1.92-7.14c0.1-3.27,0.19-7.37,2.09-9.57c2.85-3.31,7.54-4.41,11.88-2.07
		c3.04,1.64,6.16,3.51,8.49,5.98c7.97,8.47,17.22,10.79,28.57,8.42c15.29-3.2,30.78-5.44,46.19-8.1c0.76-0.13,1.51-0.37,0.97-0.23
		c0.2-2.63-0.26-4.77,0.56-6.15c11.01-18.41,22.19-36.71,33.33-55.04c0.34-0.55,0.7-1.09,1.27-1.99c9.35,3.66,16.99,9.7,24.29,16.21
		c6.83,6.1,13.62,12.26,20.13,18.7c3.38,3.35,6.88,3.77,11.31,2.97c22.26-4.04,44.51-8.11,66.85-11.67
		c26.45-4.22,53.11-7.26,79.45-12.07c18.76-3.43,37.15-8.87,55.66-13.58c11.05-2.81,22.15-4.93,33.57-3.14
		c8.36,1.31,13.06,5.77,14.17,12.61c0.54,3.35-0.07,5.47-3.99,5.75c-4.31,0.31-8.59,1.02-12.9,1.39
		c-7.62,0.65-12.94,4.22-14.79,11.86c-2.09,8.68-3.89,17.43-5.85,26.32c13.85-2.15,27.24-4.81,39.05-12.3
		c1.84-1.17,2.83-3.62,4.53-5.11c1.99-1.75,4.66-4.65,6.45-4.28c2.57,0.54,4.92,3.35,6.76,5.66c1.24,1.56,1.46,3.94,2.14,5.96
		C649.95,145.9,649.95,146.56,649.95,147.23z M640.78,138.85c-1.98,2.83-3.84,5.5-5.7,8.17c-0.84,1.2-1.41,2.83-2.55,3.52
		c-10.12,6.05-20.18,12.24-30.6,17.74c-5.44,2.87-11.22,4.19-16.65-1.54c-1.94-2.04-2.66-3.16-1.92-5.69
		c1.38-4.78,2.52-9.63,3.76-14.46c3.41-13.25,5.14-27.39,19.01-35.19c-3.34,0.25-6.42,0.86-9.52,1.33
		c-5.2,0.79-9.29,2.66-11.37,8.17c-0.71,1.9-3.43,3.36-5.55,4.35c-3.8,1.77-7.83,3.02-12.28,4.68c1.27,1.38,1.69,1.89,2.16,2.34
		c5.95,5.63,7.39,10.05,4.88,15.79c-2.66,6.08-7.68,7.15-13.69,6.32c-4.03-0.55-7.26,1.66-7.99,5.26
		c-0.82,4.03-0.88,8.56,0.12,12.52c1.35,5.37,4.02,10.41,6.14,15.62c-17.66,3.86-27.53-8.94-26.96-34.79
		c-2.68,0.88-5.27,2.34-7.93,2.48c-6.08,0.32-8.23,4.03-9.19,9.17c-0.39,2.12-0.92,4.25-0.95,6.38c-0.12,7.6-0.05,15.2-0.05,22.9
		c-7.11-1.91-11.31-6.22-11.72-13.36c-0.31-5.4,0-11.06,1.32-16.28c1.7-6.75,4.67-13.19,7.52-20.89c-3.73,2.24-6.64,3.99-9.55,5.73
		c-0.27-0.31-0.53-0.63-0.8-0.94c3.37-3.99,6.74-7.98,10.64-12.58c-6.64,0.33-13.75,5.62-15.81,10.12
		c-5.95,13.06-14.43,24.09-29.35,26.73c-21.78,3.87-43.76,6.62-65.67,9.78c-23.21,3.35-46.4,6.76-69.65,9.83
		c-8.53,1.13-17.62,3.31-25.67,1.52c-11.7-2.61-22.64-0.96-34.08,0.04c-18.04,1.59-36.3,3.17-54.29,2.07
		c-15.62-0.96-31.1-5.23-46.48-8.79c-16.25-3.76-29.28-11.44-30.94-30.38c-0.02-0.24-0.44-0.45-0.88-0.87
		c-7.36,0.33-13.47,3.54-16.93,10.17c-3.13,6-5.01,12.63-7.8,18.83c-1.13,2.51-2.8,5.08-4.9,6.79c-4.15,3.38-5.08,6.78-1.13,10.39
		c5.13,4.7,10.91,8.68,16.27,13.14c4.11,3.42,8.75,3.79,13.65,2.89c2.93-0.54,5.77-1.72,8.71-2.07c5.07-0.6,10.76-2.38,15.19-0.83
		c10.9,3.83,21.23,9.27,30.86,13.64c2.51,9.87-7.02,5.53-10.24,10.45c5.88-0.61,10.51-1.09,15.42-1.59
		c-0.72-0.95-1.4-1.85-2.09-2.76c0.25-0.29,0.5-0.58,0.75-0.87c12.7,8.5,25.41,17,38.11,25.51c-0.21,0.35-0.41,0.69-0.62,1.04
		c-0.98-0.44-2.05-0.76-2.94-1.34c-7.95-5.17-16.42-9.73-23.62-15.78c-6.16-5.18-12.36-2.78-18.68-2.68
		c-0.88,0.01-1.75,1.23-3.01,2.18c4.95,1.46,9.55-4.12,14.55,0.2c-4.94,0.98-9.12,1.81-13.85,2.74c1.97,3.15,3.25,5.19,4.51,7.21
		c4.1-1.7,7.86-3.25,11.62-4.8c-1.96-0.86-3.71-0.87-5.37-0.5c-1.88,0.41-3.69,1.16-6.21,1.98c4.69-6.66,12.05-6.15,15.88,0
		c-4.71,1.56-9.51,3.15-15.06,4.98c8.62,14.24,16.74,27.65,25.2,41.62c4.01-2.83,7.81-5.19,11.25-8
		c7.73-6.32,15.22-12.94,22.97-19.24c1.53-1.24,3.85-2.36,5.71-2.22c21.74,1.64,43.46,3.51,65.18,5.38
		c3.14,0.27,6.36,0.71,7.32,5.24c-1.72,0.69-3.3,1.66-5,1.96c-4.74,0.83-9.54,1.32-14.3,2.07c-1.58,0.25-4.07,0.42-4.51,1.37
		c-3.15,6.89-5.58,14.02-3.96,22.09c13.6-7.88,26.57-15.66,39.82-22.92c4.57-2.51,9.73-4.68,14.83-5.35
		c10.54-1.37,21.28-1.18,31.84-2.43c29.18-3.46,57.84-9.16,84.81-21.45c1.52-0.69,2.98-1.52,4.47-2.28
		c-19.76-0.73-36.16-6.29-46.45-25.16c3.3-1.22,5.93-2.13,8.5-3.17c1.15-0.47,3.1-1.15,3.14-1.82c0.37-6.33,5.52-6.84,9.77-8.14
		c15.27-4.67,30.65-2.65,46-0.39c3.24,0.48,6.47,1.03,9.71,1.54c-0.79-1.17-1.67-1.6-2.59-1.92c-12.52-4.38-17.14-10.49-16.12-23.52
		c1.13-14.47,7.17-27.24,15.75-38.83c0.3-0.4,1.05-0.47,2.99-1.28c-1.36,2.68-2,4.24-2.88,5.63c-6.86,10.85-11.78,22.41-12.69,35.36
		c-0.7,9.95,2.13,14.84,10.97,18.45c4.87,1.99,8.72,4.7,11.1,10.89c-3.68,0.19-7.06,0.87-10.29,0.43c-7.41-1-14.69-2.93-22.11-3.77
		c-9.97-1.14-19.99-1.12-29.55,2.61c-1.6,0.63-3.79,2.32-3.93,3.7c-0.94,9.48,8.65,21.36,18.35,23.41
		c7.65,1.62,14.45-0.6,21.07-4.18c4.91-2.66,9.93-5.13,15.06-7.76c1.11,2.04,1.85,3.39,2.69,4.93c3.39-1.83,6.46-3.45,9.5-5.13
		c20.36-11.25,41.13-21.81,60.93-33.96c19.12-11.74,37.29-25.05,55.75-37.85c3.51-2.44,6.8-5.41,9.54-8.68
		C645.11,147.51,644.75,143.69,640.78,138.85z M326.08,135.83c-0.24,0.26-0.49,0.51-0.73,0.77c-3.3-2.05-6.59-4.09-9.89-6.14
		c-0.23,0.34-0.47,0.69-0.7,1.03c3.41,3.26,6.83,6.52,10.24,9.78c-2.84-0.2-4.84-1.37-6.95-2.24c-2.09-0.87-4.29-1.45-6.44-2.15
		c-0.08,0.29-0.17,0.58-0.25,0.87c2.44,2.68,4.89,5.37,7.33,8.05c-0.28,0.33-0.56,0.66-0.83,0.99c-3.44-1.23-6.88-2.47-10.32-3.7
		c-0.12,0.26-0.23,0.53-0.35,0.79c2.61,1.82,5.22,3.64,8.08,5.64c-4.46,2.39-10.27-4.07-13.03,3.63c6.01,1.34,12.59,3.78,17.79,2.06
		c7.64-2.54,14.29-8.06,21.56-12.43c-2.57-8.46-5.71-16.45-14.56-20.97c2.15,4.54,4.3,9.09,6.45,13.63c-0.31,0.2-0.62,0.4-0.93,0.61
		c-4.44-4.16-8.88-8.32-13.32-12.48c-0.27,0.28-0.53,0.56-0.8,0.84C320.98,128.21,323.53,132.02,326.08,135.83z M102.44,186.8
		c0.08-0.38,0.17-0.76,0.25-1.13c-5.17-2.05-10.29-4.26-15.56-6.03c-1.08-0.36-3.26,0.45-3.97,1.42c-3.54,4.82-7.16,9.66-9.97,14.91
		c-2.8,5.23-4.67,10.95-7.44,17.67c7.49-0.61,13.11-1.06,18.73-1.52c-0.01-0.39-0.03-0.79-0.04-1.18c-3.31,0-6.61,0-9.92,0
		c-0.04-0.48-0.08-0.97-0.12-1.45c8.11-1.41,16.21-2.83,25.27-4.41c-10.01-2.49-19.28,1.95-28.22-1.17
		c9.92-5.64,20.68,0.84,31.88-2.64c-8.69-2.26-16.24-4.22-24.8-6.44c6.31-8.22,13.36-1.24,19.59-2.99c-3.4-2.12-6.37-3.96-9.34-5.8
		c0.18-0.42,0.35-0.84,0.53-1.26C93.69,185.46,98.06,186.13,102.44,186.8z M550.28,144.93c3.29,5.87,7.78,7.97,13.42,6.27
		c4.6-1.38,7.04-5.73,6.45-11.47c-0.48-4.58-4.38-8.07-9.51-8.5c-6.4-0.54-9.58,1.73-11.55,8.2c-0.18,0.61-0.17,1.55-0.57,1.79
		c-5.32,3.15-0.4,4.15,1.35,5.88C550.01,146.38,550.15,145.65,550.28,144.93z M341.89,163.83c9.4,4.18,20.5,2.16,23.57-4.09
		C357.93,154.6,345.76,156.58,341.89,163.83z M411.79,147.52c12.18,5.18,24.08,2.43,23.9-5.6
		C427.79,143.3,418.8,139.02,411.79,147.52z M469.06,153.17c-9.42-4.05-19.71-2.24-22.69,3.78
		C453.98,162.03,465.11,160.32,469.06,153.17z M300.19,178.76c0.09,0.64,0.19,1.28,0.28,1.92c6.03,0,12.09,0.36,18.07-0.22
		c1.81-0.17,3.37-2.94,5.04-4.52c-1.83-0.79-3.62-2.13-5.51-2.28C311.49,173.15,304.9,173.16,300.19,178.76z M407.62,165.41
		c-0.21-0.5-0.42-1-0.62-1.51c-6.34-1.62-12.73-2.71-19.03,0.46c-1.09,0.55-1.63,2.2-2.43,3.35c1.06,0.58,2.1,1.61,3.18,1.65
		c4.25,0.14,8.58,0.38,12.75-0.25C403.66,168.77,405.58,166.7,407.62,165.41z M325.24,105.45c14.17,7.57,19.64,22.26,31.05,33.14
		C352.32,125.55,332.51,104.23,325.24,105.45z M130.51,148.07c0.42-0.22,0.83-0.44,1.25-0.66c-2.73-12.99-10.92-23.38-17.19-34.67
		c-0.27-0.48-1.65-0.34-2.69-0.52C118.23,124.44,124.37,136.25,130.51,148.07z M136.15,136.9c-3.97-14.47-11.82-26.5-20.87-37.79
		c-0.4,0.25-0.8,0.49-1.21,0.74C121.43,112.2,128.79,124.55,136.15,136.9z M140.65,136.24c-0.05,9.99,13.94,35.31,19.29,35.58
		C153.53,159.99,146.88,147.73,140.65,136.24z M348.34,142.63c-2.46-12.15-15.24-28.66-23.16-29.4
		C336.65,120.17,340.59,132.81,348.34,142.63z M122.36,152.07c-0.76-4.4-8.2-12.11-15.13-12.53
		C112.66,144.04,118.09,148.54,122.36,152.07z M102.38,150.69c-0.23,0.43-0.45,0.87-0.68,1.3c6.03,3.4,12.06,6.8,18.09,10.2
		c0.27-0.51,0.53-1.02,0.8-1.53C114.96,156.51,109.56,151.89,102.38,150.69z M109.07,183.32c0.18-0.47,0.37-0.93,0.55-1.4
		c-5.99-2.25-11.98-4.5-17.96-6.76C95.96,181.58,102.88,181.54,109.07,183.32z M98.26,159.96c-0.33,0.71-0.67,1.42-1,2.13
		c5,1.89,10,3.78,15.01,5.67c0.27-0.7,0.53-1.4,0.8-2.09C108.13,163.76,103.2,161.86,98.26,159.96z M93.74,167.8
		c-0.21,0.69-0.42,1.37-0.62,2.06c5.64,1.61,11.29,3.22,16.93,4.83c0.21-0.69,0.42-1.38,0.63-2.07
		C105.02,171.01,99.38,169.4,93.74,167.8z"/>
	<path class="st0" d="M292.89,233.36c-10.49,0-20.98,0-31.47,0c-0.09,0.62-0.18,1.24-0.27,1.86c10.19,4.46,20.38,8.91,30.57,13.37
		c-0.11,0.44-0.23,0.89-0.34,1.33c-3.08,0.63-6.16,1.27-10.39,2.14c12.12,8.34,25.19,11.07,38.13,14.4
		c-6.52,3.22-13.28,1.97-19.84,1.43c-27.58-2.26-52.78-11.46-75.84-26.67c-1.81-1.19-3.9-2.1-5.37-3.62
		c-15.12-15.63-35.19-19.99-55.23-24.39c-6.97-1.53-14.08-2.47-21.05-4.03c-5.35-1.2-9.63-4.13-12.83-8.82
		c-2.57-3.76-1.51-6.85,1.95-8.07c3.68-1.29,8.26-2.1,11.89-1.1c20.15,5.59,40.03,12.18,60.22,17.64
		c9.56,2.59,19.64,3.17,29.39,5.13c6.8,1.37,13.44,3.57,20.16,5.34c11.4,3.01,22.82,5.92,34.2,8.99c2.28,0.62,4.42,1.76,6.62,2.67
		C293.23,231.76,293.06,232.56,292.89,233.36z"/>
	<path class="st0" d="M214.7,269.07c-1.87,0.7-3.74,1.4-6.54,2.45c0.61-1.94,0.9-2.89,1.18-3.77c-1.42,0.26-3.1,0.57-4.77,0.88
		c-0.22-0.37-0.43-0.75-0.65-1.12c3.04-2.25,6.09-4.49,9.11-6.76c3.41-2.57,6.79-3.09,10.11,0.56c-2.95,6.45-6.28,13.18-15.48,13.98
		c2.45-1.93,4.89-3.85,7.34-5.78C214.9,269.35,214.8,269.21,214.7,269.07z"/>
	<path class="st0" d="M212.55,258.52c-3.86,2.33-7.72,4.67-11.58,7c-0.46-0.63-0.92-1.26-1.37-1.9c2.85-2.44,5.69-4.89,8.73-7.49
		c-5.01-3.14-7.56,2.76-11.88,3.15c0.85-4.35,4.06-6.4,7.27-6.45c2.88-0.04,5.8,2.17,8.7,3.39
		C212.46,257,212.51,257.76,212.55,258.52z"/>
	<path class="st0" d="M215.97,286.14c5.14-7.47,9.86-14.32,14.33-20.81C232,271.08,225.61,281.12,215.97,286.14z"/>
	<path class="st0" d="M210.11,280.68c3.2-2.51,6.77-4.68,9.48-7.63c2.57-2.81,4.24-6.44,6.82-10.52c0.15,1.4,0.73,2.85,0.36,3.99
		c-2.55,7.83-8.14,12.6-15.61,15.37C210.81,281.48,210.46,281.08,210.11,280.68z"/>
	<path class="st0" d="M236.75,267.99c2.1,5.98-3.73,14.05-13.52,19.58C225.64,279.63,236.69,277.69,236.75,267.99z"/>
	<path class="st0" d="M558.37,135.46c2.23,3.29,3.78,5.57,5.73,8.44c-1.03,2.25-3.97,2.28-6.63,1.33c-1.17-0.42-2.58-2.85-2.31-4
		C555.65,139.09,557.31,137.22,558.37,135.46z"/>
</g>
</svg>
