<?xml version="1.0" encoding="utf-8"?>
<!-- Generator: Adobe Illustrator 25.2.1, SVG Export Plug-In . SVG Version: 6.00 Build 0)  -->
<svg version="1.1" id="Layer_1" xmlns="http://www.w3.org/2000/svg" xmlns:xlink="http://www.w3.org/1999/xlink" x="0px" y="0px"
	 viewBox="0 0 1000 400" style="enable-background:new 0 0 1000 400;" xml:space="preserve">
<style type="text/css">
	.st0{fill:#F6F6F6;}
</style>
<g>
	<path class="st0" d="M82.5,116.89c2.55-5.58,7.52-7.19,12.85-6.54c10.22,1.24,20.7,2.08,30.46,5.06
		c31.98,9.76,62.47,23.14,90.62,41.37c7.13,4.62,13.9,5.04,22.19,3.46c23.22-4.41,46.63-7.93,70.04-11.26
		c40.9-5.81,81.84-11.32,122.79-16.75c14.03-1.86,28.14-3.14,42.23-4.51c2.9-0.28,4.17-1.23,5.13-4.19c1.14-3.52,3.1-7.08,5.59-9.82
		c13.78-15.16,27.69-30.21,41.83-45.03c5.98-6.27,9.25-6.51,16.83-2.21c14.73,8.37,26.47,20.1,36.65,33.48
		c3.63,4.77,7.26,9.56,10.56,14.57c1.88,2.86,4.08,3.73,7.42,3.74c29.5,0.13,59.01-0.14,88.48,0.81
		c51.73,1.68,103.06,6.81,152.92,21.86c22.48,6.79,43.81,16.14,63.02,29.68c5.82,4.11,10.3,10.12,15.39,15.27c0,2.67,0,5.33,0,8
		c-14.14,36.98-42.51,58.41-78.33,71.74c-41.68,15.51-84.96,23.44-129.11,27.29c-7.47,0.65-14.92,1.46-22.39,2.11
		c-7.74,0.67-13.77,4.07-18.59,10.28c-9.71,12.49-22.15,21.58-36.73,27.62c-15.41,6.38-19.09,4.76-24.79-10.88
		c-2.68-7.34-4.71-14.92-7.43-22.25c-0.58-1.57-2.77-3.51-4.32-3.62c-61.52-4.15-120.96-19.05-180.17-34.95
		c-9.61-2.58-16.7-2.16-24.12,5.02c-6.77,6.55-14.88,11.75-22.72,17.09c-1.97,1.34-5.48,1.94-7.7,1.17
		c-25.49-8.81-50.89-17.88-76.26-27.05c-7.56-2.73-9.58-11.12-4.45-17.51c1.12-1.39,2.83-2.29,4.13-3.55
		c1.23-1.2,2.28-2.58,3.41-3.88c-1.46-0.99-2.8-2.51-4.41-2.89c-8.74-2.05-17.55-3.83-26.33-5.68c-1.46-0.31-2.97-0.42-4.42-0.78
		c-12.8-3.21-23.7-0.82-35.16,6.84c-30.03,20.08-63.16,33.6-98.84,40.09c-8.6,1.56-17.57,1.24-26.38,1.58
		c-9.29,0.37-10.8-5.52-8.12-13.05c1.47-4.13,4.03-8.16,6.98-11.43c15.82-17.55,31.81-34.95,48.04-52.13
		c2.9-3.07,1.73-5.17-0.08-7.26c-6.22-7.16-12.6-14.19-19.08-21.12c-7.73-8.27-15.91-16.15-23.36-24.67
		c-5.22-5.98-9.55-12.74-14.28-19.15C82.5,120.89,82.5,118.89,82.5,116.89z M206.05,189.4c0.06,0.76,0.12,1.53,0.18,2.29
		c4.69,1.39,9.31,3.07,14.07,4.12c28.95,6.34,58.09,11.91,86.88,18.9c55.49,13.47,110.79,27.71,166.18,41.61
		c41.92,10.53,84.31,19.1,127.54,20.34c33.57,0.96,67.27-0.61,100.85-2.29c18.4-0.92,36.69-4.31,55-6.8
		c2.04-0.28,3.88-1.99,5.81-3.04c-1.58-1.84-2.89-4.07-4.81-5.41c-1.5-1.04-3.79-1.43-5.68-1.32c-4.98,0.27-9.94,0.88-14.89,1.5
		c-20.02,2.5-39.9,3.05-59.19-4.28c-10.39-3.95-19.11-10.15-25.02-19.77c-3.43-5.58-3.75-11.45-0.12-17
		c4.66-7.13,10.87-11.86,19.87-12.61c19.58-1.63,38.95,0.24,58.23,3.27c4.82,0.76,6.76-0.45,7.89-5.15
		c2.97-12.42,8.87-23.3,18.57-31.86c5.03-4.44,9.62-4.19,14.43,0.71c3.47,3.54,2.99,7.39-1.54,12.2c-0.91,0.97-1.9,1.87-2.8,2.86
		c-18.05,19.83-13.09,48.07,10.62,60.3c13.34,6.88,27.36,8.22,41.74,4.23c19.71-5.47,37.49-14.99,52.97-28.17
		c7.75-6.61,14.41-14.7,20.64-22.82c4.19-5.46,2.92-10.51-2.28-15.04c-3.12-2.72-6.59-5.1-10.17-7.2
		c-17.82-10.47-37.24-16.91-57.09-22.18c-52.36-13.91-105.9-18.47-159.8-19.62c-69.6-1.48-138.87,4.05-207.89,12.15
		c-60.19,7.06-120.27,15.24-180.28,23.71c-20.39,2.88-40.46,8.05-60.62,12.4C212.11,186.13,209.14,188.05,206.05,189.4z
		 M201.35,171.29c-12.98-11.77-73.16-38.72-88.41-39.28c7.07,7.19,13.55,13.81,20.06,20.4c10.07,10.17,20.3,20.19,30.19,30.53
		c5.66,5.92,5.46,6.18,0.07,12.63c-2.88,3.45-5.89,6.79-8.89,10.13c-11.77,13.14-23.6,26.23-35.3,39.42c-1.55,1.74-2.52,4-3.76,6.01
		c0.34,0.42,0.68,0.84,1.03,1.27c32.85-5.77,61.27-22.59,91.7-37.13c-2.68-1.77-4.64-2.93-6.45-4.29
		c-3.98-2.98-8.34-5.63-11.74-9.19c-8.95-9.39-7.16-20.09,4.04-26.54C196.29,173.87,198.78,172.64,201.35,171.29z M499.03,122.66
		c0.53,0.7,1.07,1.41,1.6,2.11c0.63,0.06,1.27,0.2,1.89,0.16c20.59-1.25,41.18-2.47,61.77-3.8c4.64-0.3,5.74-2.05,2.84-5.61
		c-7.24-8.86-14.94-17.34-22.67-25.78c-1.74-1.9-4.22-3.3-6.62-4.32c-0.98-0.41-3.15,0.41-3.93,1.37
		c-2.69,3.31-4.55,7.39-7.55,10.34C517.46,105.86,508.17,114.18,499.03,122.66z M690.3,222.94c-0.03,0.17-0.05,0.34-0.08,0.52
		c-2.83,0-5.66-0.13-8.47,0.04c-1.98,0.12-4.05,0.34-5.86,1.07c-1.69,0.69-3.09,2.11-4.62,3.2c1.2,1.28,2.21,2.87,3.64,3.78
		c17.9,11.41,37.23,13.69,57.51,8.26c3-0.8,7.67-3.15,7.86-5.13c0.42-4.46-4.51-5.21-7.98-5.75
		C718.33,226.76,704.31,224.91,690.3,222.94z M378.37,252.8c-0.3-0.64-0.61-1.27-0.91-1.91c-1.88-0.6-3.73-1.32-5.64-1.78
		c-13.88-3.39-27.74-6.82-41.66-10.02c-4.19-0.96-8.59-1.9-12.79-1.55c-3.08,0.26-5.98,2.64-8.95,4.08
		c2.09,1.88,3.88,4.54,6.34,5.51c14.51,5.75,29.15,11.15,43.8,16.55c1.3,0.48,3.3,0.76,4.3,0.1
		C368.13,260.3,373.21,256.5,378.37,252.8z M648.79,300.13c-0.13-0.45-0.25-0.9-0.38-1.34c-7.62,0-15.27-0.36-22.86,0.16
		c-3.5,0.24-4.43,4.6-2.91,10.06c0.98,3.51,3.25,5.19,6.69,3.91C636.81,310.15,642.94,305.31,648.79,300.13z"/>
	<path class="st0" d="M847.54,185.37c-0.04,8.95-5.46,15.23-13.11,15.18c-8.31-0.05-17.16-8.36-16.98-15.94
		c0.18-7.81,7.98-14.54,16.81-14.49C842.73,170.17,847.58,175.74,847.54,185.37z"/>
</g>
</svg>
