<?xml version="1.0" encoding="utf-8"?>
<!-- Generator: Adobe Illustrator 25.2.1, SVG Export Plug-In . SVG Version: 6.00 Build 0)  -->
<svg version="1.1" id="Layer_1" xmlns="http://www.w3.org/2000/svg" xmlns:xlink="http://www.w3.org/1999/xlink" x="0px" y="0px"
	 viewBox="0 0 1000 1000" style="enable-background:new 0 0 1000 1000;" xml:space="preserve">
<style type="text/css">
	.st0{fill:#F6F6F6;}
</style>
<g>
	<path class="st0" d="M495,45.71c3.33,0,6.67,0,10,0c9.78,2.5,19.93,4.04,29.26,7.69c27.42,10.73,46.59,31.08,61.14,55.93
		c22.77,38.9,33.34,81.38,35.38,126.14c2.91,64.08,0.26,127.97-8.2,191.52c-5.8,43.55-12.38,87.02-19.73,130.34
		c-8.04,47.43-17.94,94.56-33.07,140.3c-7.72,23.33-17.57,45.96-26.68,68.82c-1.66,4.16-0.88,6.22,3.36,7.29
		c3.06,0.78,6.06,1.78,9.09,2.69c3.31,0.99,5.94,0.15,7.59-2.98c1.7-3.24,3.44-6.47,4.93-9.8c18.59-41.5,30.54-85.14,40.87-129.24
		c19.25-82.16,32.05-165.35,39.26-249.42c4.2-49.02,6.19-98.09,3.99-147.29c-1.94-43.42-10.5-85.14-30.04-124.27
		c-2.5-5.02-4.61-10.23-7.03-15.64c0.73-0.46,1.13-0.76,1.57-1c4.07-2.26,8.09-4.65,12.24-6.74c36.44-18.37,71.43-15.93,104.34,8.25
		c25.92,19.04,41.65,45.52,51.62,75.5c13.64,41,13.77,83.25,9.51,125.6c-3.12,31.06-11.15,61.21-19.97,91.07
		c-26.92,91.2-62.4,179.05-104.65,264.16c-23.05,46.43-47.6,92.03-81.73,131.63c-0.3,0.35-0.44,0.83-0.76,1.45
		c10.5,6.82,20.9,13.66,31.45,20.26c0.91,0.57,3.18-0.03,4.23-0.84c8.29-6.42,16.86-12.57,24.58-19.65
		c81.83-74.99,151.47-160.11,210.37-254.08c24.69-39.4,45.44-80.58,55.58-126.43c5.95-26.93,10.64-53.94,7.52-81.69
		c-0.27-2.42-0.25-4.86-0.4-7.94c2.18,1.08,3.85,1.75,5.34,2.68c3.81,2.38,7.83,4.53,11.26,7.38
		c24.32,20.17,38.83,46.63,47.58,76.42c2.74,9.32,3.5,19.22,5.17,28.86c0,11.33,0,22.67,0,34c-0.3,1.45-0.77,2.89-0.88,4.36
		c-1.5,19.71-5.81,38.78-12.74,57.27c-13.75,36.68-36.38,67.51-63.15,95.56c-36.06,37.78-77.34,69.29-120.29,98.65
		c-49.67,33.95-100.89,65.19-157.12,87.39c-3.3,1.3-6.55,2.73-10.21,4.27c3.69,4.27,7.47,7.71,10.08,11.88
		c4.63,7.4,9.72,14.85,12.5,23c4.74,13.89,0.87,26.12-10.6,35.81c-12.44,10.5-27.41,14.41-42.93,15.64
		c-26.04,2.06-52.17,3.04-78.26,4.5c-2.14,0.12-4.27,0.44-6.4,0.67c-13,0-26,0-39,0c-2.8-0.25-5.6-0.65-8.4-0.72
		c-24.17-0.65-48.28-1.81-71.96-7.23c-12.46-2.85-24.28-7.09-33.74-16.26c-4.74-4.6-7.28-10.1-8.06-16.69
		c-1.76-14.73,3.14-27.19,12.43-38.26c3.61-4.3,7.31-8.52,11.29-13.15c-4.84-1.9-9.19-3.43-13.4-5.28
		c-94.28-41.52-178.95-97.78-254.98-167.11c-24.96-22.76-47.53-47.66-63.69-77.73c-11.77-21.91-22.42-44.28-27-68.96
		c-1.63-8.78-2.35-17.74-3.49-26.61c0-11.67,0-23.33,0-35c0.29-1.11,0.78-2.21,0.83-3.33c0.89-20.02,6.9-38.58,16.2-56.15
		c9.51-17.95,20.77-34.6,37.09-47.15c4.33-3.33,9.41-5.68,15-8.98c0,10.1-0.05,18.76,0.01,27.42c0.16,25.61,3.43,50.8,10.37,75.48
		c11.41,40.59,30.22,77.83,52.43,113.36c56.28,90.02,122.73,171.81,200.15,244.55c11.74,11.03,24.44,21.04,36.13,31.03
		c11.9-7.6,22.76-14.53,33.85-21.61c-0.95-1.25-1.97-2.74-3.13-4.12c-20.87-24.85-38.26-52.05-53.77-80.46
		c-52.41-96-93.72-196.67-126.07-301.07c-9.17-29.58-16.98-59.54-21.88-90.16c-5.11-31.97-4.59-64.07-1.24-96.18
		c3.41-32.62,14.04-62.67,33.46-89.17c19.84-27.08,45.38-45.29,80.03-47.83c24.1-1.77,45.16,6.9,64.97,18.7
		c-4.31,8.32-9,16.05-12.48,24.29c-16.3,38.59-24.62,79.06-26.87,120.75c-3.24,60.11,1.27,119.96,8.44,179.54
		c5.65,46.92,12.77,93.7,20.72,140.29c9.13,53.5,21.1,106.46,38.9,157.84c6.3,18.19,14.52,35.72,21.82,53.57
		c1.34,3.27,3.29,4.66,6.95,3.46c3.79-1.23,7.71-2.05,11.58-3.02c3.66-0.92,4.54-2.82,2.54-6.18c-1.87-3.14-3.84-6.31-5.08-9.72
		c-9.09-24.82-19.23-49.33-26.76-74.62c-22.52-75.68-35.41-153.38-44.95-231.58c-5.48-44.94-9.13-90.14-12.38-135.31
		c-2.74-38.1-2.35-76.27,4.15-114.13c5.41-31.54,14.13-61.98,30.12-89.94c14.55-25.45,33.39-46.77,61.21-57.97
		C472.71,50.15,484.09,48.5,495,45.71z"/>
	<path class="st0" d="M621.7,780.94c1.97-3.38,3.76-6.88,5.94-10.13c50.29-75.09,87.6-156.72,120.88-240.34
		c23.08-58,43.11-117.01,58.01-177.72c9.02-36.75,11.31-73.99,10.54-111.54c-0.27-12.95-1.77-25.87-2.88-38.79
		c-0.44-5.1,1.08-6.87,5.82-5.16c4.35,1.56,8.59,3.64,12.54,6.03c31.29,18.97,49.92,47.25,59.5,81.96
		c12.04,43.62,9.17,87.04-2.49,130.21c-9.37,34.7-25.63,66.38-44.07,96.92c-44.76,74.12-96.63,142.85-157.34,204.74
		c-19.6,19.98-39.53,39.62-59.35,59.38c-1.87,1.86-3.99,3.47-6,5.2C622.43,781.44,622.07,781.19,621.7,780.94z"/>
	<path class="st0" d="M186.82,194.61c-1.03,7.88-2.26,14.92-2.82,22.02c-4.96,62.4,3.47,123.1,21.85,182.84
		c34.5,112.17,78.34,220.34,136.23,322.57c9.75,17.22,20.95,33.62,31.43,50.43c1.71,2.74,3.17,5.63,3.8,9.16
		c-3.81-3.36-7.71-6.64-11.42-10.11c-81.05-75.73-151.06-160.53-209.09-255.1c-18.13-29.55-34.51-60-44.22-93.6
		c-10.14-35.08-14.83-70.7-10.56-107.15c4.46-37.98,17.44-71.98,46.56-98.4C159.59,207.29,172.11,200.07,186.82,194.61z"/>
</g>
</svg>
