<?xml version="1.0" encoding="utf-8"?>
<!-- Generator: Adobe Illustrator 25.2.1, SVG Export Plug-In . SVG Version: 6.00 Build 0)  -->
<svg version="1.1" id="Layer_1" xmlns="http://www.w3.org/2000/svg" xmlns:xlink="http://www.w3.org/1999/xlink" x="0px" y="0px"
	 viewBox="0 0 400 280" style="enable-background:new 0 0 400 280;" xml:space="preserve">
<style type="text/css">
	.st0{fill:url(#SVGID_1_);}
	.st1{fill:url(#SVGID_2_);}
	.st2{fill:url(#SVGID_3_);}
	.st3{fill:url(#SVGID_4_);}
	.st4{fill:url(#SVGID_5_);}
	.st5{fill:url(#SVGID_6_);}
	.st6{fill:url(#SVGID_7_);}
	.st7{fill:#FFFFFF;}
	.st8{fill:#00B5BC;}
	.st9{fill:#C9E6F7;}
	.st10{fill:#253F3F;}
	.st11{fill:#74ACAC;}
	.st12{fill:#213469;}
	.st13{fill:#427272;}
	.st14{fill:#385354;}
	.st15{fill:#1B2622;}
	.st16{fill:#576E67;}
	.st17{fill:#192D2C;}
	.st18{fill:#3D3D42;}
	.st19{fill:#2B2B2D;}
	.st20{fill:#8B8992;}
	.st21{fill:#AFADB3;}
	.st22{fill:#6ECACC;}
	.st23{fill:#92D5DB;}
	.st24{fill:#C4E6EA;}
	.st25{fill:#FF6500;}
</style>
<g>
	
		<linearGradient id="SVGID_1_" gradientUnits="userSpaceOnUse" x1="199.8" y1="759.1505" x2="199.8" y2="567.7798" gradientTransform="matrix(1 0 0 1 0 -512)">
		<stop  offset="0.4635" style="stop-color:#CBD2C3"/>
		<stop  offset="0.5391" style="stop-color:#C0CFC2"/>
		<stop  offset="0.6747" style="stop-color:#A2C7C0"/>
		<stop  offset="0.8535" style="stop-color:#6BBCBD"/>
		<stop  offset="0.9947" style="stop-color:#02B4BA"/>
	</linearGradient>
	<rect x="-0.1" y="0.5" class="st0" width="399.8" height="279.9"/>
	<g>
		
			<linearGradient id="SVGID_2_" gradientUnits="userSpaceOnUse" x1="129.4605" y1="594.0938" x2="231.7" y2="594.0938" gradientTransform="matrix(1 0 0 1 0 -512)">
			<stop  offset="5.347590e-03" style="stop-color:#D4EDEF"/>
			<stop  offset="1" style="stop-color:#72C6CC"/>
		</linearGradient>
		<path class="st1" d="M129.5,89.6h102.2c-2.2-0.3-3.3-2.2-5.5-2.6c-1.8-0.3-3.3,0.9-4.8,0.6c-1.2-0.2-2.5-1.1-3.1-2.1
			c-0.5-0.8,0-1.1-1.3-1.3c-0.9-0.2-1.8-0.1-2.6,0.3c-1.5,0.6-2.7,1.9-4.1,2.8c-1.3,0.9-3.4,2.7-4.7,1.5c-0.9-0.8-1-1.5-2.2-2.1
			c-0.9-0.4-1.7-0.9-2.8-1c-1.8-0.1-2.7,0.8-4.4-0.1c-0.8-0.4-1.3-1.1-2.4-0.9c-0.5,0.1-0.9,0.5-1.4,0.7c-1.1,0.2-3.1,0.2-4-0.4
			c-0.7-0.4-0.9-1-1.3-1.7c-0.7-1.5-1.3-2.1-3-2.8c-2.4-1-4.2-0.5-6.4,0.1c-2.5,0.7-3.5-0.8-4.8-2.6c-1.2-1.7-2.7-3.2-4.8-3.4
			c-1.5-0.1-3.8,0.4-4.9,1.5c-1,0.9-1.1,2.4-1.9,3.5c-0.8,1.2-2,1.7-3.5,1.7c-0.8,0-1.1-0.4-1.8-0.6c-0.9-0.2-1,0.2-1.8,0.3
			c-0.9,0.1-2.1-0.7-2.9,0.2c-0.8,0.9-0.5,2.5-2.4,1.5c-0.7-0.4-0.9-1.2-1.5-1.7c-0.3-0.3-1-0.5-1.4-0.7c-2.3-1.3-5.3-0.5-7.1,1.6
			c-0.9,1-0.8,2.4-1.4,3.4c-0.5,0.7-0.5,0.5-1.2,0.9c-0.4,0.2-1.4,0.7-1.8,0.7c-0.7-0.1-0.7-0.9-1.4-1.2c-1.1-0.5-2.6,0.7-3.3,1.5
			C129.3,88,129.5,88.4,129.5,89.6L129.5,89.6z"/>
		
			<linearGradient id="SVGID_3_" gradientUnits="userSpaceOnUse" x1="98.0935" y1="548.4412" x2="98.6681" y2="571.425" gradientTransform="matrix(1 0 0 1 0 -512)">
			<stop  offset="5.347590e-03" style="stop-color:#D4EDEF"/>
			<stop  offset="1" style="stop-color:#72C6CC"/>
		</linearGradient>
		<path class="st2" d="M2.2,66.7h193.3c-4.1-0.7-6.2-4.1-10.3-4.9c-3.3-0.6-6.2,1.6-9.1,1.1c-2.2-0.4-4.7-2.1-5.9-4
			c-1-1.5,0.1-2-2.6-2.5c-1.6-0.3-3.4-0.1-4.9,0.5c-2.8,1.2-5.2,3.7-7.7,5.4c-2.6,1.7-6.5,5-8.8,2.9c-1.6-1.5-1.9-2.8-4.1-3.9
			c-1.7-0.8-3.3-1.7-5.2-1.8c-3.3-0.3-5.1,1.4-8.3-0.3c-1.6-0.8-2.5-2.1-4.5-1.8c-0.9,0.2-1.6,1-2.7,1.3c-2.1,0.4-5.8,0.3-7.5-0.7
			c-1.3-0.8-1.8-1.9-2.4-3.2c-1.3-2.9-2.4-4-5.6-5.3c-4.5-1.8-8-1-12.1,0.1c-4.7,1.3-6.5-1.6-9-4.9c-2.3-3.1-5-6.1-9.1-6.4
			c-2.9-0.2-7.2,0.8-9.3,2.8c-1.9,1.8-2.1,4.6-3.5,6.7C61.4,50,59,51,56.4,51c-1.5,0-2-0.7-3.4-1.1c-1.7-0.5-1.8,0.3-3.4,0.5
			c-1.7,0.2-3.9-1.4-5.5,0.3c-1.5,1.6-0.9,4.6-4.6,2.8c-1.4-0.7-1.7-2.2-2.8-3.1c-0.6-0.5-1.9-1.1-2.6-1.4c-4.5-2.4-10-0.9-13.4,3.1
			c-1.6,1.9-1.5,4.5-2.7,6.4c-0.9,1.4-1,0.9-2.3,1.6c-0.7,0.3-2.6,1.4-3.4,1.3c-1.4-0.2-1.3-1.7-2.6-2.3c-2.2-0.9-4.9,1.3-6.2,2.7
			C1.8,63.6,2.2,64.4,2.2,66.7L2.2,66.7z"/>
		
			<linearGradient id="SVGID_4_" gradientUnits="userSpaceOnUse" x1="303.2501" y1="527.4449" x2="303.2501" y2="577.7133" gradientTransform="matrix(1 0 0 1 0 -512)">
			<stop  offset="5.347590e-03" style="stop-color:#D4EDEF"/>
			<stop  offset="1" style="stop-color:#72C6CC"/>
		</linearGradient>
		<path class="st3" d="M347.7,46.7L347.7,46.7c1.6-6.1-5.8-12.6-11.5-10.6c-2.7,0.9-4.3,4-5.6,6.3l0,0c-1.9-0.3-5.6-1.8-6.1,1.4l0,0
			c-2.2,0.2-4.5-0.6-6.1,1.4c-0.9,1.1-0.5,2-0.8,3.1c-0.6,2-0.2,0.8-1.9,1.2c-1.2,0.3-1.5-0.4-1.9,1.6l0,0
			c-2.8-0.9-7.7,8.3-10.1,2.7c-0.8-1.9,1.2-5.1-2.9-4c-1.5,0.4-2.5,2.1-4.3,2.1l0,0c0.1,0.4-0.1,0.9-0.1,1.2l0,0
			c-1.9-1.4-7.3-6.9-9.4-3.3l0,0c-1-0.6-2.7-0.8-3.8-0.3c-2.3,1-1.2,2.9-2.3,4.1c-1.6,2-2.9-0.5-4.3-0.9c-1.7-0.4-3.3,1.5-5.1,1.7
			c-2,0.1-3.4,0.1-4.9-1.2c-2.4-2-3.7-2.5-7.5-2.2c-0.3,0-0.7,0.1-1,0.3c-0.8,0.5-0.6,1.3-1.3,1.9c-1.3,1.2-3,0.6-4.5,0.5
			c-2,0-2.7,1-4.5,1.4c-2.4,0.6-5.2,0-7.6,0.5c-2.5,0.5-4.8,1.5-6.7,2.6v0.1H373l0,0v-0.1c-1.3-1.4-1.9-2.2-3.2-3.6
			c-0.9,0-1.7-0.1-2.1-0.3c-2.4-0.7-3.3-3-4.7-4.9c-2.1-2.7-8.5-4.7-10.5-1.3l0,0C351.2,47.5,349.2,45.4,347.7,46.7z"/>
	</g>
	<g>
		
			<linearGradient id="SVGID_5_" gradientUnits="userSpaceOnUse" x1="273.9895" y1="610.0074" x2="280.8492" y2="646.0206" gradientTransform="matrix(1 0 0 1 0 -512)">
			<stop  offset="5.347590e-03" style="stop-color:#D4EDEF"/>
			<stop  offset="1" style="stop-color:#B1E0E3"/>
		</linearGradient>
		<path class="st4" d="M399.7,67.6c-2.4-1.7-5.4-2.2-8.8-1c-5.2,1.8-4.7,5.5-8.5,8.4c-2.1,1.6-4.4,1.1-6.8,1.4
			c-2.9,0.4-2.7,0-5.2,2.1c-3.9,3.3-5.9,5.4-11.5,5.6c-7.1,0.3-12.8-3.9-19.9-3.9c-6.1,0-11.7,1.1-14.8,5.6c-2,2.9-3.6,5.8-7.4,7.2
			c-4.1,1.4-6.3-1.5-10-2.5c-11.5-3-27.9,0.1-34.8,10.7c-1.2,1.8-1.1,4.3-2.6,6c-1.7,1.9-4.7,2-6.6,3.4c-4.3,3.1-5.3,10.1-8.1,14.6
			c-3.8,6.4-6.7,10.8-14.9,8.7c-3.8-1-8.3-4.6-12.1-4c-4.1,0.7-6,4.8-8.6,7.3c-2.1,2.1-5.6,3.1-7.2,5.5c-1.6,2.4-0.8,4.7-2.9,6.9
			c-1.7,1.8-5.2,3.2-7.4,3.9c-6,1.8-12.1,0.1-18.2,2.6c-5.3,2.2-11,6.7-15.3,10.3c-5.3,4.4-6.9,10.1-9.5,16.2
			c13.1,5.1,27,8.1,41.2,8.1c27.7,0,55.8-6.1,83.5-2.1h116.3L399.7,67.6L399.7,67.6z"/>
		
			<linearGradient id="SVGID_6_" gradientUnits="userSpaceOnUse" x1="313.4501" y1="644.9489" x2="313.4501" y2="714.2878" gradientTransform="matrix(1 0 0 1 0 -512)">
			<stop  offset="5.347590e-03" style="stop-color:#D4EDEF"/>
			<stop  offset="1" style="stop-color:#72C6CC"/>
		</linearGradient>
		<path class="st5" d="M399.7,98.3c-2.7-2.7-7.4-4.2-11-3c-3.1,1-6.1,5-8.9,6.8c-5.4,3.5-5.4,0-11.3-0.5c-1.9-0.2-4.8,1.1-6.8,1.3
			c-3.2,0.4-6.2,0.1-9.3,1.2c-10.9,3.6-8.7,15.3-16.9,20.8c-2.5,1.7-6,4.2-8.8,4.9c-5.6,1.4-9.8-3.4-15.9-1.9
			c-4.6,1.1-9.5,3.8-13.1,6.8c-3.7,3-3.7,6.9-6.6,10.3c-3.5,3.9-10.1,3-13.7,6.9c-3.5,3.7-3.7,5-9.2,6.7c-9.3,3-18.2,4.6-23.9,12.9
			c-2.7,3.9-4.4,6.6-8.2,9.5c-3.2,2.5-7.3,5.7-9.1,9.3c3.6,0.3,6.6-0.7,10.1-1.1c6-0.7,12.1-0.3,18.2-1.1c7.4-0.9,14.8-1.5,22.2-2.1
			c7.6-0.7,15-2.6,22.6-2.9h99.8L399.7,98.3L399.7,98.3z"/>
	</g>
	
		<linearGradient id="SVGID_7_" gradientUnits="userSpaceOnUse" x1="119.65" y1="642.1356" x2="119.65" y2="721.3692" gradientTransform="matrix(1 0 0 1 0 -512)">
		<stop  offset="5.347590e-03" style="stop-color:#D4EDEF"/>
		<stop  offset="1" style="stop-color:#72C6CC"/>
	</linearGradient>
	<path class="st6" d="M230.1,183.5c-3.9-4.4-6.2-4.7-11.7-6.1c-8.7-2.3-15-9.6-24.3-11c-3.7-0.5-7.6-0.1-11.2-1.1
		c-3.2-0.8-5.8-2.3-9-2.9c-8.6-1.5-13.1-2.6-16.7-11.5c-2.6-6.4-6.7-13.9-14.1-15.1c-8.4-1.3-13.5,8-21.8,3.8
		c-3.3-1.7-4.3-4.4-7.7-6c-4.2-1.9-6.1-3.3-9.3-6.5c-8.3-8.3-13.8-3.8-23.8-4.2c-6.5-0.3-5.2-3.3-8-7.3c-2.4-3.3-7-4.1-10.7-3.9
		c-3,0.2-6.9-0.5-9.9,0.5c-4.3,1.5-7.6,6.1-12.3,1.2c-3.7-3.8-3.4-9.9-7.8-13.6c-1.8-1.5-5.5-4.3-7.7-4.8c-1.9-0.5-3.2,0.7-5.2,0.1
		c-2.7-0.9-2.9-2.5-4.6-4.4c-3-3.6-10.1-5.9-14.5-2.8v106.2c10.4-2,20.9-3.2,31.6-3.1c12.9,0.1,25.6,1.3,38.5,1.3
		c13.9,0,27.6-0.3,41.5,1.3c13.2,1.5,24.4,3,37.8,1c11.2-1.7,21.4,0.3,32.6-0.1c19.6-0.8,38.1-5.5,57.7-3.1
		C236.7,188.5,233,186.7,230.1,183.5z"/>
	<rect x="-0.1" y="171.5" class="st7" width="399.8" height="79.4"/>
	<path class="st8" d="M399.1,170h-0.5v-0.2h-0.4v-0.2h-0.3v0.2h-0.2v0.2h-1.5v-0.2H396v-0.1h-0.2v0.1h-0.2v0.2h-1.1v-0.2h-0.1v0.2
		H394v-0.2h-0.1v0.2h-0.3v-0.2h-0.1v0.2h-0.3v-0.2h-0.1v0.2h-15v-0.9h1v-1.2h-0.7v-0.5h-0.7v-1.3h-0.6V166H377v0.2h-0.1v-0.3h-0.2
		v0.3h-0.4v-0.1H376v0.1h-0.2v1.3h-0.2v0.5h-0.5v1.2h0.8v0.9h-2.7v0.3h0.5c0,1.5,0.8,2.2,0.8,2.2h21.8c-0.1-0.4-0.2-0.5,0.4-0.9
		s0.7-0.7,0.7-0.7l1-0.3v-0.3h0.8L399.1,170L399.1,170z"/>
	<rect x="-0.1" y="179.7" class="st9" width="399.8" height="71.2"/>
	<path class="st8" d="M31.5,177.2v0.5h1.6v0.6l2.1,0.7c0,0,0.2,0.5,1.5,1.4s1.1,1.2,0.9,2h60.1c0,0,1.7-1.4,1.7-4.6h1v-0.5h-5.7
		v-1.9h1.7v-2.5h-0.6v-1.1h-0.7v-3.6h-0.5v-0.3h-0.9v0.3h-1.2v-0.9H92v0.9h-0.3v-0.5h-0.3v0.5h-1.6v3.6H88v1.1h-0.3v2.5H90v1.9h-7.3
		v-5.8h1.1v-1.7h-0.6v-0.5h0.5h0.1h1.1H85h1.1h0.1h1.1h0.1h0.5v0.1h0.2v0.4h1v-0.4h0.2v-1.7h-1l-5.9-3.6l0,0h-0.1l0,0l0,0l0,0h-0.1
		h0.1l0,0L72,168l0,0v0.3h-0.2v1H72l0,0l0,0v0.5h0l-0.1,0.5l0.1,0.1l0.1,0.1h0.1v0.1c0,0,0,0.1-0.1,0.1s-0.1,0.1-0.1,0.2
		c0,0.1,0.1,0.2,0.2,0.2l0,0c0.1,0,0.1,0,0.1-0.1c0.1,0,0.1-0.1,0.1-0.2l0,0l0,0c0,0.1,0,0.1-0.1,0.1l-0.1,0.1
		c-0.1,0-0.1-0.1-0.1-0.1c0-0.1,0-0.1,0.1-0.1s0.1-0.1,0.1-0.1v-0.1h0.1l0.1-0.1l0.1-0.1l-0.1-0.5h-0.1v-0.6h0.9h0.1h1.1h0.1h1.1
		h0.1h1.1H77h1.1h0.1H79h0.1h1.1h0.1h1.1h0.1H82v0.5h-0.8v1.7h0.6v5.8h-37v-0.5h-0.3v0.5h-0.7v-0.5h-0.3v0.5h-0.7v-0.5h-0.3v0.5
		h-0.7v-0.5h-0.3v0.5H39v-0.5h-0.4v-0.2h-0.5v0.2h-0.6v0.5h-3.2v-0.5h-0.5v-0.4h-0.6v0.4h-0.8v0.5L31.5,177.2L31.5,177.2z
		 M91.1,169.5h-0.8v-1h0.8V169.5z M92.3,169.5h-0.8v-1h0.8V169.5z M93.5,169.5h-0.8v-1h0.8V169.5z M94.7,169.5h-0.8v-1h0.8V169.5z
		 M88.9,173.3c0-0.1,0.1-0.2,0.2-0.2h0.2c0.1,0,0.2,0.1,0.2,0.2v0.2c0,0.1-0.1,0.2-0.2,0.2h-0.2c-0.1,0-0.2-0.1-0.2-0.2V173.3z
		 M95.6,173.3c0-0.1,0.1-0.2,0.2-0.2H96c0.1,0,0.2,0.1,0.2,0.2v0.2c0,0.1-0.1,0.2-0.2,0.2h-0.2c-0.1,0-0.2-0.1-0.2-0.2
		C95.6,173.5,95.6,173.3,95.6,173.3z M94.5,173.3c0-0.1,0.1-0.2,0.2-0.2h0.2c0.1,0,0.2,0.1,0.2,0.2v0.2c0,0.1-0.1,0.2-0.2,0.2h-0.2
		c-0.1,0-0.2-0.1-0.2-0.2V173.3z M93.4,173.3c0-0.1,0.1-0.2,0.2-0.2h0.2c0.1,0,0.2,0.1,0.2,0.2v0.2c0,0.1-0.1,0.2-0.2,0.2h-0.2
		c-0.1,0-0.2-0.1-0.2-0.2V173.3z M92.2,173.3c0-0.1,0.1-0.2,0.2-0.2h0.2c0.1,0,0.2,0.1,0.2,0.2v0.2c0,0.1-0.1,0.2-0.2,0.2h-0.2
		c-0.1,0-0.2-0.1-0.2-0.2V173.3z M91.1,173.3c0-0.1,0.1-0.2,0.2-0.2h0.2c0.1,0,0.2,0.1,0.2,0.2v0.2c0,0.1-0.1,0.2-0.2,0.2h-0.2
		c-0.1,0-0.2-0.1-0.2-0.2V173.3z M90,173.3c0-0.1,0.1-0.2,0.2-0.2h0.2c0.1,0,0.2,0.1,0.2,0.2v0.2c0,0.1-0.1,0.2-0.2,0.2h-0.2
		c-0.1,0-0.2-0.1-0.2-0.2V173.3z M87.5,169.1l0.5-0.5v0.5H87.5z M87.4,168.1l0.5,0.5l-0.5,0.5V168.1z M87.5,168H88v0.5L87.5,168z
		 M87.3,168.1v0.9l-0.5-0.5L87.3,168.1z M86.8,168.5l-0.5-0.5h0.9L86.8,168.5z M86.3,169.1l0.5-0.5l0.5,0.5H86.3z M86.2,168.1
		l0.5,0.5l-0.5,0.5V168.1z M86.1,168.1v0.9l-0.5-0.5L86.1,168.1z M85.6,168.5l-0.5-0.5H86L85.6,168.5z M85.1,169.1l0.5-0.5l0.5,0.5
		H85.1z M85,168.1l0.5,0.5L85,169V168.1z M84.9,168.1v0.9l-0.5-0.5L84.9,168.1z M84.4,168.5L84,168h0.9L84.4,168.5z M84,169.1
		l0.5-0.5l0.5,0.5H84z M83.9,168.1l0.5,0.5l-0.5,0.5V168.1z M82.5,164l5.8,3.6h-0.4v0.3h-0.5h-0.1h-1.1h-0.1H85h-0.1h-1.1h-0.1v-0.3
		h-1.3L82.5,164L82.5,164z M81.4,168.1v0.9l-0.5-0.5L81.4,168.1z M80.9,168.5l-0.5-0.5h0.9L80.9,168.5z M80.4,169.1l0.5-0.5l0.5,0.5
		H80.4z M80.4,168.1l0.5,0.5l-0.5,0.5V168.1z M80.2,168.1v0.9l-0.5-0.5L80.2,168.1z M79.7,168.5l-0.5-0.5h0.9L79.7,168.5z
		 M79.3,169.1l0.5-0.5l0.5,0.5H79.3z M79.2,168.1l0.5,0.5l-0.5,0.5V168.1z M79.1,168.1v0.9l-0.5-0.5L79.1,168.1z M78.6,168.5
		l-0.5-0.5H79L78.6,168.5z M78.1,169.1l0.5-0.5l0.5,0.5H78.1z M78,168.1l0.5,0.5L78,169V168.1z M77.9,168.1v0.9l-0.5-0.5L77.9,168.1
		z M77.4,168.5l-0.5-0.5h0.9L77.4,168.5z M76.9,169.1l0.5-0.5l0.5,0.5H76.9z M76.9,168.1l0.5,0.5l-0.5,0.5V168.1z M76.7,168.1v0.9
		l-0.5-0.5L76.7,168.1z M76.2,168.5l-0.5-0.5h0.9L76.2,168.5z M75.8,169.1l0.5-0.5l0.5,0.5H75.8z M75.7,168.1l0.5,0.5l-0.5,0.5
		V168.1z M75.6,168.1v0.9l-0.5-0.5L75.6,168.1z M75.1,168.5l-0.5-0.5h0.9L75.1,168.5z M74.6,169.1l0.5-0.5l0.5,0.5H74.6z
		 M74.5,168.1l0.5,0.5l-0.5,0.5V168.1z M74.4,168.1v0.9l-0.5-0.5L74.4,168.1z M73.9,168.5l-0.5-0.5h0.9L73.9,168.5z M73.4,169.1
		l0.5-0.5l0.5,0.5H73.4z M73.3,168.1l0.5,0.5l-0.5,0.5V168.1z M72.5,168.9l0.2-0.2l0.5,0.5h-0.7V168.9L72.5,168.9z M72.8,168.6
		l0.5-0.5v0.9L72.8,168.6z M72.5,168.4l0.1,0.1l-0.1,0.1V168.4z M72.5,168.2l-0.2-0.2h0.9l-0.5,0.5L72.5,168.2L72.5,168.2
		L72.5,168.2L72.5,168.2z M72.2,168.2v-0.1V168.2L72.2,168.2z M72.1,169.2L72.1,169.2l0.1,0.5h-0.1V169.2z M82.4,167.6h-0.8v0.3
		h-0.1h-1.1h-0.1h-1.1h-0.1H78h-0.1h-1.1h-0.1h-1.1h-0.1h-1.1h-0.1h-1.1h-0.1H72l10.2-3.9L82.4,167.6L82.4,167.6z M82,176.7h0.3v0.5
		H82V176.7z M82,176.1h0.3v0.6H82V176.1z M82,175.4h0.3v0.6H82V175.4z M82,174.8h0.3v0.6H82V174.8z M82,174.1h0.3v0.6H82V174.1z
		 M82,173.5h0.3v0.6H82V173.5z M82,172.9h0.3v0.6H82V172.9z M82,172.2h0.3v0.6H82V172.2z M82,171.5h0.3v0.6H82V171.5z M82,171.4h0.3
		v0.1H82V171.4z"/>
	<path class="st10" d="M212.3,178.5h-12.7c-3.1-1.1-7-2.3-10.2-2.8h-3.3c0,0-4.3-3.2-5-3.5c-0.1-0.1-1.7-0.1-4.1-0.1v-2.5h-1.3v-0.5
		h-6.5l-1.2-1.7h2.9v-0.6h-3.3l-1.4-1.9h1.8v-0.1h-1.9l-0.8-1.1h-4.1v1.1h-1.9v0.1h1.9v1.9H158v0.6h3.3v1.7H151v-1.7h-11.5v1.7h-1
		v1.3h0.4v1.9c-1,0-1.6,0-1.6,0v3.5h-2.2c0,0-1.4,1.5-2.4,2.8h-2.4c-1.2,1.4,0.7,5.9,0.7,5.9s64.1,1.7,69.1,0
		c3.5-1.2,9.4-3.7,12.4-5.1C213,179.2,212.8,178.5,212.3,178.5z M136.6,178.7h-0.9v-0.6h0.9V178.7L136.6,178.7z M136.6,176.9h-0.9
		v-0.6h0.9V176.9L136.6,176.9z M138.2,178.7h-0.9v-0.6h0.9V178.7z M138.2,176.9h-0.9v-0.6h0.9V176.9z M138.2,172.9h0.9v0.4h-0.9
		V172.9z M139.8,178.7h-0.9v-0.6h0.9V178.7z M139.8,176.9h-0.9v-0.6h0.9V176.9z M139.8,172.9h0.9v0.4h-0.9V172.9z M141.3,178.7h-0.9
		v-0.6h0.9V178.7z M141.3,176.9h-0.9v-0.6h0.9V176.9z M141.3,172.9h0.9v0.4h-0.9V172.9z M142.9,178.7H142v-0.6h0.9V178.7z
		 M142.9,176.9H142v-0.6h0.9V176.9z M142.9,172.9h0.9v0.4h-0.9V172.9z M144.5,178.7h-0.9v-0.6h0.9V178.7z M144.5,176.9h-0.9v-0.6
		h0.9V176.9z M144.5,172.9h0.9v0.4h-0.9V172.9z M146,178.7h-0.9v-0.6h0.9V178.7z M146,176.9h-0.9v-0.6h0.9V176.9z M146,172.9h0.9
		v0.4H146V172.9z M147.6,178.7h-0.9v-0.6h0.9V178.7z M147.6,176.9h-0.9v-0.6h0.9V176.9z M147.6,172.9h0.9v0.4h-0.9V172.9z
		 M149.1,178.7h-0.9v-0.6h0.9V178.7z M149.1,176.9h-0.9v-0.6h0.9V176.9z M149.1,172.9h0.9v0.4h-0.9V172.9z M150.7,178.7h-0.9v-0.6
		h0.9V178.7z M150.7,176.9h-0.9v-0.6h0.9V176.9z M150.7,172.9h0.9v0.4h-0.9V172.9z M152.3,178.7h-0.9v-0.6h0.9V178.7z M152.3,176.9
		h-0.9v-0.6h0.9V176.9z M152.3,172.9h0.9v0.4h-0.9V172.9z M153.8,178.7h-0.9v-0.6h0.9V178.7z M153.8,176.9h-0.9v-0.6h0.9V176.9z
		 M153.8,172.9h0.9v0.4h-0.9V172.9z M155.4,178.7h-0.9v-0.6h0.9V178.7z M155.4,176.9h-0.9v-0.6h0.9V176.9z M155.4,172.9h0.9v0.4
		h-0.9V172.9z M157,178.7h-0.9v-0.6h0.9V178.7z M157,176.9h-0.9v-0.6h0.9V176.9z M157,172.9h0.9v0.4H157V172.9z M158.5,178.7h-0.9
		v-0.6h0.9V178.7z M158.5,176.9h-0.9v-0.6h0.9V176.9z M159.4,173.3h-0.9v-0.4h0.9V173.3z M161,173.3h-0.9v-0.4h0.9V173.3z
		 M181.7,172.9l1.4,0.9h-1.4l-0.3-0.9H181.7z M166.8,173.3h-0.9v-0.4h0.9V173.3z M167.9,178.7H167v-0.6h0.9V178.7z M167.9,177.1H167
		v-0.6h0.9V177.1z M168.3,173.3h-0.9v-0.4h0.9V173.3L168.3,173.3z M169.5,178.7h-0.9v-0.6h0.9V178.7z M169.5,177.1h-0.9v-0.6h0.9
		V177.1z M169.9,173.3H169v-0.4h0.9V173.3z M171,178.7h-0.9v-0.6h0.9V178.7z M171,177.1h-0.9v-0.6h0.9V177.1z M171.5,173.3h-0.9
		v-0.4h0.9V173.3z M172.6,178.7h-0.9v-0.6h0.9V178.7z M172.6,177.1h-0.9v-0.6h0.9V177.1z M173,173.3h-0.9v-0.4h0.9V173.3z
		 M174.2,178.7h-0.9v-0.6h0.9V178.7z M174.2,177.1h-0.9v-0.6h0.9V177.1z M174.6,173.3h-0.9v-0.4h0.9V173.3z M175.7,178.7h-0.9v-0.6
		h0.9V178.7z M175.7,177.1h-0.9v-0.6h0.9V177.1z M176.2,173.3h-0.9v-0.4h0.9V173.3z M177.3,178.7h-0.9v-0.6h0.9V178.7z M177.3,177.1
		h-0.9v-0.6h0.9V177.1z M177.7,173.3h-0.9v-0.4h0.9V173.3z M178.8,178.7H178v-0.6h0.9L178.8,178.7L178.8,178.7z M178.8,177.1H178
		v-0.6h0.9L178.8,177.1L178.8,177.1z M179.3,173.3h-0.9v-0.4h0.9V173.3z M180.4,178.7h-0.9v-0.6h0.9V178.7z M180.4,177.1h-0.9v-0.6
		h0.9V177.1z M180.8,173.3H180v-0.4h0.9L180.8,173.3L180.8,173.3z M182,178.7h-0.9v-0.6h0.9V178.7z M182,177.1h-0.9v-0.6h0.9V177.1z
		 M183.6,178.7h-0.9v-0.6h0.9V178.7z M183.6,177.1h-0.9v-0.6h0.9V177.1z M185.1,178.7h-0.9v-0.6h0.9V178.7z M185.1,177.1h-0.9v-0.6
		h0.9V177.1z M186.7,178.7h-0.9v-0.6h0.9V178.7z M186.7,177.1h-0.9v-0.6h0.9V177.1z M188.2,178.7h-0.9v-0.6h0.9V178.7z M188.2,177.1
		h-0.9v-0.6h0.9V177.1z M189.8,178.7h-0.9v-0.6h0.9V178.7z M189.8,177.1h-0.9v-0.6h0.9V177.1z M191,177.3v-0.8h0.4l3.5,0.8H191z"/>
	<path class="st10" d="M324.3,171.5H318c-1.5-0.5-3.5-1.1-5-1.4h-1.6c0,0-2.1-1.6-2.5-1.7c-0.1,0-0.8,0-2-0.1V167h-0.7v-0.3H303
		l-0.6-0.9h1.4v-0.3h-1.6l-0.7-0.9h0.9v-0.1h-0.9l-0.4-0.5H299v0.5h-0.9v0.1h0.9v0.9h-1.6v0.3h1.6v0.9h-5v-0.9h-5.7v0.9h-0.5v0.7
		h0.2v0.9c-0.5,0-0.8,0-0.8,0v1.7h-1.1c0,0-0.7,0.7-1.2,1.4h-1.2c-0.6,0.7,0.3,2.9,0.3,2.9s31.7,0.8,34.1,0c1.7-0.6,4.6-1.8,6.1-2.5
		C324.6,171.8,324.5,171.5,324.3,171.5z M286.9,171.6h-0.4v-0.3h0.4V171.6z M286.9,170.7h-0.4v-0.3h0.4V170.7z M287.7,171.6h-0.4
		v-0.3h0.4V171.6z M287.7,170.7h-0.4v-0.3h0.4V170.7z M287.7,168.7h0.4v0.2h-0.4V168.7z M288.4,171.6H288v-0.3h0.4V171.6z
		 M288.4,170.7H288v-0.3h0.4V170.7z M288.4,168.7h0.4v0.2h-0.4V168.7z M289.2,171.6h-0.4v-0.3h0.4V171.6z M289.2,170.7h-0.4v-0.3
		h0.4V170.7z M289.2,168.7h0.4v0.2h-0.4V168.7z M290,171.6h-0.4v-0.3h0.4V171.6z M290,170.7h-0.4v-0.3h0.4V170.7z M290,168.7h0.4
		v0.2H290V168.7z M290.8,171.6h-0.4v-0.3h0.4V171.6z M290.8,170.7h-0.4v-0.3h0.4V170.7z M290.8,168.7h0.4v0.2h-0.4V168.7z
		 M291.5,171.6h-0.4v-0.3h0.4V171.6z M291.5,170.7h-0.4v-0.3h0.4V170.7z M291.5,168.7h0.4v0.2h-0.4V168.7z M292.3,171.6h-0.4v-0.3
		h0.4V171.6z M292.3,170.7h-0.4v-0.3h0.4V170.7z M292.3,168.7h0.4v0.2h-0.4V168.7z M293.1,171.6h-0.4v-0.3h0.4V171.6z M293.1,170.7
		h-0.4v-0.3h0.4V170.7z M293.1,168.7h0.4v0.2h-0.4V168.7z M293.9,171.6h-0.4v-0.3h0.4V171.6z M293.9,170.7h-0.4v-0.3h0.4V170.7z
		 M293.9,168.7h0.4v0.2h-0.4V168.7z M294.6,171.6h-0.4v-0.3h0.4V171.6z M294.6,170.7h-0.4v-0.3h0.4V170.7z M294.6,168.7h0.4v0.2
		h-0.4V168.7z M295.4,171.6H295v-0.3h0.4V171.6z M295.4,170.7H295v-0.3h0.4V170.7z M295.4,168.7h0.4v0.2h-0.4V168.7z M296.2,171.6
		h-0.4v-0.3h0.4V171.6z M296.2,170.7h-0.4v-0.3h0.4V170.7z M296.2,168.7h0.4v0.2h-0.4V168.7z M296.9,171.6h-0.4v-0.3h0.4V171.6z
		 M296.9,170.7h-0.4v-0.3h0.4V170.7z M296.9,168.7h0.4v0.2h-0.4V168.7z M297.7,171.6h-0.4v-0.3h0.4V171.6z M297.7,170.7h-0.4v-0.3
		h0.4V170.7z M298.1,168.9h-0.4v-0.2h0.4V168.9z M298.9,168.9h-0.4v-0.2h0.4V168.9z M309.1,168.7l0.7,0.5h-0.7l-0.1-0.5H309.1z
		 M301.8,168.9h-0.4v-0.2h0.4V168.9z M302.3,171.6h-0.4v-0.3h0.4V171.6z M302.3,170.8h-0.4v-0.3h0.4V170.8z M302.5,168.9h-0.4v-0.2
		h0.4V168.9z M303.1,171.6h-0.4v-0.3h0.4V171.6z M303.1,170.8h-0.4v-0.3h0.4V170.8z M303.3,168.9h-0.4v-0.2h0.4V168.9z M303.9,171.6
		h-0.4v-0.3h0.4V171.6z M303.9,170.8h-0.4v-0.3h0.4V170.8z M304.1,168.9h-0.4v-0.2h0.4V168.9z M304.7,171.6h-0.4v-0.3h0.4V171.6z
		 M304.7,170.8h-0.4v-0.3h0.4V170.8z M304.9,168.9h-0.4v-0.2h0.4V168.9z M305.4,171.6H305v-0.3h0.4V171.6z M305.4,170.8H305v-0.3
		h0.4V170.8z M305.6,168.9h-0.4v-0.2h0.4V168.9z M306.2,171.6h-0.4v-0.3h0.4V171.6z M306.2,170.8h-0.4v-0.3h0.4V170.8z M306.4,168.9
		H306v-0.2h0.4V168.9z M307,171.6h-0.4v-0.3h0.4V171.6z M307,170.8h-0.4v-0.3h0.4V170.8z M307.2,168.9h-0.4v-0.2h0.4V168.9z
		 M307.7,171.6h-0.4v-0.3h0.4V171.6z M307.7,170.8h-0.4v-0.3h0.4V170.8z M307.9,168.9h-0.4v-0.2h0.4V168.9z M308.5,171.6h-0.4v-0.3
		h0.4V171.6z M308.5,170.8h-0.4v-0.3h0.4V170.8z M308.7,168.9h-0.4v-0.2h0.4V168.9z M309.3,171.6h-0.4v-0.3h0.4V171.6z M309.3,170.8
		h-0.4v-0.3h0.4V170.8z M310.1,171.6h-0.4v-0.3h0.4V171.6z M310.1,170.8h-0.4v-0.3h0.4V170.8z M310.8,171.6h-0.4v-0.3h0.4V171.6z
		 M310.8,170.8h-0.4v-0.3h0.4V170.8z M311.6,171.6h-0.4v-0.3h0.4V171.6z M311.6,170.8h-0.4v-0.3h0.4V170.8z M312.4,171.6H312v-0.3
		h0.4V171.6z M312.4,170.8H312v-0.3h0.4V170.8z M313.1,171.6h-0.4v-0.3h0.4V171.6z M313.1,170.8h-0.4v-0.3h0.4V170.8z M313.7,170.9
		v-0.4h0.2l1.7,0.4H313.7z"/>
	<path class="st11" d="M241,183.8h-4.5v-3.5h-1.1v-2H235v2h-1.5v3.5h-1.3l-0.5-1.2l1.2-0.5l-7.3-17.8l-1.2,0.5l-1.4-3.5
		c-0.3-0.9-1.2-1.4-2.1-1.4h-1.6V155H218v-1h-4.7v1.1h-2.5v4.8h-0.7V159c0-0.6-0.5-1-1-1h-72.3v-2.9H136V154h-3.7v1.1H130v2.9h-6.3
		c-0.4,0-0.8,0.4-0.8,0.8v1.1h-2.3c-0.9,0-1.8,0.6-2.1,1.4l-9.3,22.5h-8.8v0.2H92v0.9h8.3v0.5h3.7l2.3,3.7H235l2.3-3.7h3.7V183.8
		L241,183.8z M231.6,182.1l-0.6-1.5l1-0.4l0.6,1.5L231.6,182.1z M230.9,180.4l-0.6-1.5l1-0.4l0.6,1.5L230.9,180.4z M230.2,178.7
		l-0.6-1.5l1-0.4l0.6,1.5L230.2,178.7z M229.4,176.9l-0.6-1.5l1-0.4l0.6,1.5L229.4,176.9z M228.7,175.2l-0.6-1.5l1-0.4l0.6,1.5
		L228.7,175.2z M228,173.4l-0.6-1.5l1-0.4l0.6,1.5L228,173.4z M227.3,171.7l-0.6-1.5l1-0.4l0.6,1.5L227.3,171.7z M226.6,169.9
		l-0.6-1.5l1-0.4l0.6,1.5L226.6,169.9z M225.9,168.2l-0.6-1.5l1-0.4l0.6,1.5L225.9,168.2z M148.7,181.8h-0.3c-0.2,0-0.3,0.2-0.3,0.3
		v1.6h-2.6v-1.6c0-0.2-0.2-0.3-0.3-0.3h-0.3c-0.2,0-0.3,0.2-0.3,0.3v1.6H142v-1.6c0-0.2-0.2-0.3-0.3-0.3h-0.3
		c-0.2,0-0.3,0.2-0.3,0.3v1.6h-2.6v-1.6c0-0.2-0.2-0.3-0.3-0.3h-0.3c-0.2,0-0.3,0.2-0.3,0.3v1.6H135v-1.6c0-0.2-0.2-0.3-0.3-0.3H134
		c-0.2,0-0.3,0.2-0.3,0.3v1.6h-2.6v-1.6c0-0.2-0.2-0.3-0.3-0.3h-0.3c-0.2,0-0.3,0.2-0.3,0.3v1.6h-1.7v-16.5H142v1.7h4.3v-1.7h1.2
		c1.1,0,2.1,0.9,2.1,2.1v14.5h-0.4v-1.6C149.1,182,148.9,181.8,148.7,181.8z M127,168.4h1.1v1.5H127V168.4z M127,170.2h1.1v1.5H127
		V170.2z M127,171.9h1.1v1.5H127V171.9z M127,173.7h1.1v1.5H127V173.7z M127,175.5h1.1v1.5H127V175.5z M127,177.3h1.1v1.5H127V177.3
		z M127,179h1.1v1.5H127V179z M128.1,180.8v1.5h-0.7v-0.2c0-0.2-0.1-0.3-0.3-0.3v-1H128.1z M128.1,182.6v1.2h-0.7v-1.2H128.1z
		 M136.8,162.7c0.2,0,0.4,0.2,0.4,0.4v1.5c0,0.2-0.2,0.4-0.4,0.4h-1.6c-0.2,0-0.4-0.2-0.4-0.4v-1.5c0-0.2,0.2-0.4,0.4-0.4H136.8z
		 M130.5,163.1c0-0.2,0.2-0.4,0.4-0.4h1.6c0.2,0,0.4,0.2,0.4,0.4v1.5c0,0.2-0.2,0.4-0.4,0.4h-1.6c-0.2,0-0.4-0.2-0.4-0.4V163.1z
		 M139.1,164.6v-1.5c0-0.2,0.2-0.4,0.4-0.4h1.6c0.2,0,0.4,0.2,0.4,0.4v1.5c0,0.2-0.2,0.4-0.4,0.4h-1.6
		C139.3,165,139.1,164.8,139.1,164.6z M158.5,164.6v-1.5c0-0.2,0.2-0.4,0.4-0.4h1.6c0.2,0,0.4,0.2,0.4,0.4v1.5
		c0,0.2-0.2,0.4-0.4,0.4h-1.6C158.7,165,158.5,164.8,158.5,164.6z M167.2,164.6v-1.5c0-0.2,0.2-0.4,0.4-0.4h1.6
		c0.2,0,0.4,0.2,0.4,0.4v1.5c0,0.2-0.2,0.4-0.4,0.4h-1.6C167.4,165,167.2,164.8,167.2,164.6z M174,164.6c0,0.2-0.2,0.4-0.4,0.4H172
		c-0.2,0-0.4-0.2-0.4-0.4v-1.5c0-0.2,0.2-0.4,0.4-0.4h1.6c0.2,0,0.4,0.2,0.4,0.4V164.6z M165.2,164.6c0,0.2-0.2,0.4-0.4,0.4h-1.6
		c-0.2,0-0.4-0.2-0.4-0.4v-1.5c0-0.2,0.2-0.4,0.4-0.4h1.6c0.2,0,0.4,0.2,0.4,0.4V164.6z M210.3,167.3v16.5h-1.9v-1.6
		c0-0.2-0.2-0.3-0.3-0.3h-0.3c-0.2,0-0.3,0.2-0.3,0.3v1.6h-2.6v-1.6c0-0.2-0.2-0.3-0.3-0.3h-0.3c-0.2,0-0.3,0.2-0.3,0.3v1.6h-2.6
		v-1.6c0-0.2-0.2-0.3-0.3-0.3h-0.3c-0.2,0-0.3,0.2-0.3,0.3v1.6h-2.6v-1.6c0-0.2-0.2-0.3-0.3-0.3H197c-0.2,0-0.3,0.2-0.3,0.3v1.6
		h-2.6v-1.6c0-0.2-0.2-0.3-0.3-0.3h-0.3c-0.2,0-0.3,0.2-0.3,0.3v1.6h-2.6v-1.6c0-0.2-0.2-0.3-0.3-0.3H190c-0.2,0-0.3,0.2-0.3,0.3
		v1.6h-0.6v-16.5H210.3z M204.9,164.6v-1.5c0-0.2,0.2-0.4,0.4-0.4h1.6c0.2,0,0.4,0.2,0.4,0.4v1.5c0,0.2-0.2,0.4-0.4,0.4h-1.6
		C205.1,165,204.9,164.8,204.9,164.6z M210.5,168.4h1.1v1.5h-1.1V168.4z M210.5,170.2h1.1v1.5h-1.1V170.2z M210.5,171.9h1.1v1.5
		h-1.1V171.9z M210.5,173.7h1.1v1.5h-1.1V173.7z M210.5,175.5h1.1v1.5h-1.1V175.5z M210.5,177.3h1.1v1.5h-1.1V177.3z M210.5,179h1.1
		v1.5h-1.1V179z M210.5,180.8h1.1v1h-0.2c-0.2,0-0.3,0.2-0.3,0.3v0.2h-0.5L210.5,180.8L210.5,180.8z M211.6,167.3v0.9h-1.1v-0.9
		H211.6z M210.5,182.6h0.5v1.2h-0.5V182.6z M211.8,181.8v-14.5h0.3c1.2,0,2.1,0.9,2.1,2.1v14.3h-2.1v-1.6
		C212.1,182,212,181.8,211.8,181.8z M187.5,183.7v-1.2h1.1v1.2H187.5z M188.6,182.4h-1.1v-1.5h1.1V182.4z M188.6,180.6h-1.1v-1.5
		h1.1V180.6z M188.6,178.8h-1.1v-1.5h1.1V178.8z M188.6,177.1h-1.1v-1.6h1.1V177.1z M188.6,175.3h-1.1v-1.5h1.1V175.3z M188.6,173.5
		h-1.1V172h1.1V173.5z M188.6,171.7h-1.1v-1.5h1.1V171.7z M188.6,169.9h-1.1v-1.5h1.1V169.9z M188.6,167.3v0.9h-1.1v-0.9H188.6z
		 M187.3,183.7h-0.6v-1.6c0-0.2-0.2-0.3-0.3-0.3h-0.3c-0.2,0-0.3,0.2-0.3,0.3v1.6h-0.9v-14.3c0-1.2,0.9-2.1,2.1-2.1h0.4L187.3,183.7
		L187.3,183.7z M216,164.6c0,0.2-0.2,0.4-0.4,0.4H214c-0.2,0-0.4-0.2-0.4-0.4v-1.5c0-0.2,0.2-0.4,0.4-0.4h1.6c0.2,0,0.4,0.2,0.4,0.4
		V164.6z M211.7,163.1v1.5c0,0.2-0.2,0.4-0.4,0.4h-1.6c-0.2,0-0.4-0.2-0.4-0.4v-1.5c0-0.2,0.2-0.4,0.4-0.4h1.6
		C211.5,162.7,211.7,162.9,211.7,163.1z M203.9,159.8v-1.5h2.7v1.5H203.9L203.9,159.8z M203.5,159.8h-2.7v-1.5h2.7V159.8z
		 M200.4,159.8h-2.7v-1.5h2.7V159.8z M197.3,159.8h-2.7v-1.5h2.7V159.8z M194.2,159.8h-2.7v-1.5h2.7V159.8z M191.1,159.8h-2.7v-1.5
		h2.7V159.8z M188,159.8h-2.7v-1.5h2.7V159.8z M184.9,159.8h-2.7v-1.5h2.7V159.8z M181.8,159.8H179v-1.5h2.7v1.5H181.8z
		 M178.6,159.8h-2.7v-1.5h2.7V159.8z M175.6,159.8h-2.7v-1.5h2.7V159.8z M172.4,159.8h-2.7v-1.5h2.7V159.8z M169.3,159.8h-2.7v-1.5
		h2.7V159.8z M166.2,159.8h-2.7v-1.5h2.7V159.8z M163.1,159.8h-2.7v-1.5h2.7V159.8z M160,159.8h-2.7v-1.5h2.7V159.8z M156.9,159.8
		h-2.7v-1.5h2.7V159.8z M153.8,159.8h-2.7v-1.5h2.7V159.8z M150.7,159.8H148v-1.5h2.7V159.8z M147.6,159.8h-2.7v-1.5h2.7V159.8z
		 M144.5,159.8h-2.7v-1.5h2.7V159.8z M141.4,159.8h-2.7v-1.5h2.7V159.8z M126.2,159.8v-1.5h2.7v1.5H126.2L126.2,159.8z M126.1,163.1
		c0-0.2,0.2-0.4,0.4-0.4h1.6c0.2,0,0.4,0.2,0.4,0.4v1.5c0,0.2-0.2,0.4-0.4,0.4h-1.6c-0.2,0-0.4-0.2-0.4-0.4
		C126.1,164.6,126.1,163.1,126.1,163.1z M127.5,167.3h0.6v0.9H127v-0.8C127.2,167.3,127.3,167.3,127.5,167.3z M225.5,164.5l0.6,1.5
		l-1,0.4l-0.6-1.5L225.5,164.5z M220.4,163.1v1.5c0,0.2-0.2,0.4-0.4,0.4h-1.6c-0.2,0-0.4-0.2-0.4-0.4v-1.5c0-0.2,0.2-0.4,0.4-0.4
		h1.6C220.2,162.7,220.4,162.9,220.4,163.1z M209.7,159v0.9H207v-1.5h2.1C209.4,158.4,209.7,158.6,209.7,159z M138.3,158.4v1.5h-1.5
		v-1.5H138.3z M129.9,159.8h-0.6v-1.5h0.6V159.8z M123.2,158.8c0-0.2,0.2-0.4,0.4-0.4h2.3v1.5h-2.7
		C123.2,159.9,123.2,158.8,123.2,158.8z M125.5,169.3c0-0.9,0.6-1.7,1.4-1.9v14.4h-0.2c-0.2,0-0.3,0.2-0.3,0.3v1.6h-0.8L125.5,169.3
		L125.5,169.3z"/>
	<g>
		<g>
			<path class="st12" d="M351.4,180.5l-0.6-2.1c-0.1-0.3-0.4-0.6-0.8-0.6h-2.9v-3.3h1v-0.7h-1h-29.2H316v4h-1.2v2.7H314v-1.7h-1v1.7
				h-0.7v-2.7h-0.8v2.7h-1.6c0.1,3,1.6,4.3,1.6,4.3h43.4c-0.2-0.7-0.4-1,0.8-1.9c1.2-0.8,1.4-1.3,1.4-1.3l1.7-0.5
				c0.1,0,0.2-0.2,0.2-0.3l0,0c0-0.2-0.1-0.3-0.3-0.3L351.4,180.5L351.4,180.5z"/>
			<circle class="st9" cx="316.1" cy="179.9" r="0.4"/>
			<circle class="st9" cx="317.9" cy="179.9" r="0.4"/>
			<circle class="st9" cx="319.7" cy="179.9" r="0.4"/>
			<circle class="st9" cx="321.5" cy="179.9" r="0.4"/>
			<circle class="st9" cx="323.2" cy="179.9" r="0.4"/>
			<circle class="st9" cx="325" cy="179.9" r="0.4"/>
			<circle class="st9" cx="339" cy="179.9" r="0.4"/>
			<circle class="st9" cx="340.7" cy="179.9" r="0.4"/>
			<circle class="st9" cx="342.4" cy="179.9" r="0.4"/>
			<circle class="st9" cx="344" cy="179.9" r="0.4"/>
			<circle class="st9" cx="345.6" cy="179.9" r="0.4"/>
			<path class="st9" d="M312.4,181.3v0.2h-0.1v-0.2c-0.3,0-0.5,0.3-0.5,0.5s0.3,0.5,0.5,0.5s0.5-0.3,0.5-0.5
				C312.9,181.6,312.7,181.4,312.4,181.3z M312.4,182.1c-0.1,0-0.3-0.1-0.3-0.3s0.1-0.3,0.3-0.3c0.1,0,0.3,0.1,0.3,0.3
				C312.6,182,312.5,182.1,312.4,182.1z"/>
			<path class="st9" d="M313.9,181.3v0.2h-0.1v-0.2c-0.3,0-0.5,0.3-0.5,0.5s0.3,0.5,0.5,0.5s0.5-0.3,0.5-0.5
				S314.1,181.4,313.9,181.3z M313.8,182.1c-0.1,0-0.3-0.1-0.3-0.3s0.1-0.3,0.3-0.3s0.3,0.1,0.3,0.3
				C314.1,182,313.9,182.1,313.8,182.1z"/>
			<path class="st9" d="M317.1,181.3v0.2H317v-0.2c-0.3,0-0.5,0.3-0.5,0.5s0.3,0.5,0.5,0.5s0.5-0.3,0.5-0.5
				C317.6,181.6,317.4,181.4,317.1,181.3z M317.1,182.1c-0.1,0-0.3-0.1-0.3-0.3s0.1-0.3,0.3-0.3c0.1,0,0.3,0.1,0.3,0.3
				C317.3,182,317.2,182.1,317.1,182.1z"/>
			<path class="st9" d="M319.2,181.3v0.2h-0.1v-0.2c-0.3,0-0.5,0.3-0.5,0.5s0.3,0.5,0.5,0.5s0.5-0.3,0.5-0.5
				C319.7,181.6,319.5,181.4,319.2,181.3z M319.1,182.1c-0.1,0-0.3-0.1-0.3-0.3s0.1-0.3,0.3-0.3c0.1,0,0.3,0.1,0.3,0.3
				S319.3,182.1,319.1,182.1z"/>
			<path class="st9" d="M321.3,181.3v0.2h-0.1v-0.2c-0.3,0-0.5,0.3-0.5,0.5s0.3,0.5,0.5,0.5s0.5-0.3,0.5-0.5
				C321.8,181.6,321.6,181.4,321.3,181.3z M321.2,182.1c-0.1,0-0.3-0.1-0.3-0.3s0.1-0.3,0.3-0.3c0.1,0,0.3,0.1,0.3,0.3
				S321.4,182.1,321.2,182.1z"/>
			<path class="st9" d="M323.4,181.3v0.2h-0.1v-0.2c-0.3,0-0.5,0.3-0.5,0.5s0.3,0.5,0.5,0.5s0.5-0.3,0.5-0.5
				S323.6,181.4,323.4,181.3z M323.3,182.1c-0.1,0-0.3-0.1-0.3-0.3s0.1-0.3,0.3-0.3c0.1,0,0.3,0.1,0.3,0.3
				C323.5,182,323.4,182.1,323.3,182.1z"/>
			<path class="st9" d="M338.2,181.3v0.2H338v-0.2c-0.3,0-0.5,0.3-0.5,0.5s0.3,0.5,0.5,0.5s0.5-0.3,0.5-0.5
				C338.6,181.6,338.4,181.4,338.2,181.3z M338.1,182.1c-0.1,0-0.3-0.1-0.3-0.3s0.1-0.3,0.3-0.3c0.1,0,0.3,0.1,0.3,0.3
				S338.2,182.1,338.1,182.1z"/>
			<path class="st9" d="M339.8,181.3v0.2h-0.1v-0.2c-0.3,0-0.5,0.3-0.5,0.5s0.3,0.5,0.5,0.5s0.5-0.3,0.5-0.5
				C340.3,181.6,340.1,181.4,339.8,181.3z M339.8,182.1c-0.1,0-0.3-0.1-0.3-0.3s0.1-0.3,0.3-0.3c0.1,0,0.3,0.1,0.3,0.3
				C340,182,339.9,182.1,339.8,182.1z"/>
			<path class="st9" d="M341.5,181.3v0.2h-0.1v-0.2c-0.3,0-0.5,0.3-0.5,0.5s0.3,0.5,0.5,0.5s0.5-0.3,0.5-0.5
				S341.7,181.4,341.5,181.3z M341.4,182.1c-0.1,0-0.3-0.1-0.3-0.3s0.1-0.3,0.3-0.3c0.1,0,0.3,0.1,0.3,0.3
				C341.6,182,341.5,182.1,341.4,182.1z"/>
			<path class="st9" d="M348.6,181.3v0.2h-0.1v-0.2c-0.3,0-0.5,0.3-0.5,0.5s0.3,0.5,0.5,0.5s0.5-0.3,0.5-0.5
				S348.8,181.4,348.6,181.3z M348.5,182.1c-0.1,0-0.3-0.1-0.3-0.3s0.1-0.3,0.3-0.3c0.1,0,0.3,0.1,0.3,0.3S348.6,182.1,348.5,182.1z
				"/>
			<path class="st9" d="M350.4,181.3v0.2h-0.1v-0.2c-0.3,0-0.5,0.3-0.5,0.5s0.3,0.5,0.5,0.5s0.5-0.3,0.5-0.5
				C350.9,181.6,350.7,181.4,350.4,181.3z M350.3,182.1c-0.1,0-0.3-0.1-0.3-0.3s0.1-0.3,0.3-0.3c0.1,0,0.3,0.1,0.3,0.3
				C350.6,182,350.5,182.1,350.3,182.1z"/>
			<path class="st9" d="M352.3,181.3v0.2h-0.1v-0.2c-0.3,0-0.5,0.3-0.5,0.5s0.3,0.5,0.5,0.5s0.5-0.3,0.5-0.5
				C352.7,181.6,352.5,181.4,352.3,181.3z M352.2,182.1c-0.1,0-0.3-0.1-0.3-0.3s0.1-0.3,0.3-0.3c0.1,0,0.3,0.1,0.3,0.3
				C352.4,182,352.3,182.1,352.2,182.1z"/>
			<path class="st9" d="M354.1,181.3v0.2H354v-0.2c-0.3,0-0.5,0.3-0.5,0.5s0.3,0.5,0.5,0.5s0.5-0.3,0.5-0.5
				C354.6,181.6,354.4,181.4,354.1,181.3z M354,182.1c-0.1,0-0.3-0.1-0.3-0.3s0.1-0.3,0.3-0.3c0.1,0,0.3,0.1,0.3,0.3
				S354.2,182.1,354,182.1z"/>
			<g>
				<rect x="316.5" y="174.7" class="st9" width="0.9" height="1.5"/>
				<rect x="317.9" y="174.7" class="st9" width="0.9" height="1.5"/>
				<rect x="320.6" y="174.7" class="st9" width="0.9" height="1.5"/>
				<rect x="321.9" y="174.7" class="st9" width="0.9" height="1.5"/>
				<rect x="323.2" y="174.7" class="st9" width="0.9" height="1.5"/>
			</g>
			<g>
				<rect x="326.4" y="174.7" class="st9" width="0.9" height="1.5"/>
				<rect x="327.8" y="174.7" class="st9" width="0.9" height="1.5"/>
				<rect x="330.5" y="174.7" class="st9" width="0.9" height="1.5"/>
				<rect x="331.8" y="174.7" class="st9" width="0.9" height="1.5"/>
				<rect x="333.1" y="174.7" class="st9" width="0.9" height="1.5"/>
			</g>
			<g>
				<rect x="336.4" y="174.7" class="st9" width="0.9" height="1.5"/>
				<rect x="337.7" y="174.7" class="st9" width="0.9" height="1.5"/>
				<rect x="340.4" y="174.7" class="st9" width="0.9" height="1.5"/>
				<rect x="341.7" y="174.7" class="st9" width="0.9" height="1.5"/>
				<rect x="343" y="174.7" class="st9" width="0.9" height="1.5"/>
			</g>
		</g>
		<path class="st13" d="M375.6,184.4h-8.3v-2h-8.1h0.1l-5.8-12.5h-0.1v-0.1h-0.9l-0.9-1.9h-1.3v-0.6v-0.1h-0.2H349h-0.2h-1.1h-0.2
			h-1.1h-0.2h-1.1h-0.2h-1.1h-0.2h-1.1h-0.2h-1.1H341h-1.1h-0.2h-1.1h-0.2h-1.1H337h-1.1h-0.2h-1.1h-0.2h-1.1H333h-1h-0.2h-1.1h-0.2
			h-1.1h-0.2H328h-0.2h-1.1h-0.2h-1.1h-0.2h-1.1h-0.2h-1.1h-0.2h-1.1h-0.2h-1.1H320h-1.1h-0.2h-1.1h-0.2h-1.1H316h-1.1h-0.2h-1.1
			h-0.2h-1.1H312h-1.1h-0.2h-1.1h-0.2v0.1v0.6h-2.1l-0.3,1.8h-1.2v0.1h-0.1l-2.9,12.6h-8.3v2v1v0.1h1.4l1.7,4.2h74.7l1.7-4.3h1.6
			V184.4L375.6,184.4z M305.1,171.1h1.1l-0.2,1.1h-1L305.1,171.1z M304.9,172.4h1l-0.2,1.1h-1L304.9,172.4z M304.7,173.7h1l-0.2,1.1
			h-1L304.7,173.7z M304.4,175h1l-0.2,1.1h-1L304.4,175z M304.2,176.3h1l-0.2,1.1h-1L304.2,176.3z M303.9,177.6h1l-0.2,1.1h-1
			L303.9,177.6z M303.7,178.9h1l-0.2,1.1h-1L303.7,178.9z M303.5,180.2h1l-0.2,1.1h-1L303.5,180.2z M310.8,169.9
			c0.1,0,0.3,0.1,0.3,0.3v0.9c0,0.1-0.1,0.3-0.3,0.3h-1c-0.1,0-0.3-0.1-0.3-0.3v-0.9c0-0.1,0.1-0.3,0.3-0.3H310.8z M313.5,169.9
			c0.1,0,0.3,0.1,0.3,0.3v0.9c0,0.1-0.1,0.3-0.3,0.3h-1c-0.1,0-0.3-0.1-0.3-0.3v-0.9c0-0.1,0.1-0.3,0.3-0.3H313.5z M312.9,173.9
			c0-0.6,0.5-1.1,1.1-1.1h1.1v7.6h-1v1.9H313v-8.4H312.9z M316.2,169.9c0.1,0,0.3,0.1,0.3,0.3v0.9c0,0.1-0.1,0.3-0.3,0.3H316h-0.8
			c-0.1,0-0.3-0.1-0.3-0.3v-0.9c0-0.1,0.1-0.3,0.3-0.3H316.2z M344,172.8c0.6,0,1.1,0.5,1.1,1.1v8.5h-0.6v-1.5h-0.9v1.5h-1.8v-1.5
			h-0.9v1.5h-1.8v-1.5h-0.9v1.5h-1.8v-1.5h-0.9v1.5h-1.8v-1.5h-0.9v1.5H331v-1.5h-0.9v1.5h-1.8v-1.5h-0.9v1.5h-1.8v-1.5h-0.9v1.5
			H323v-1.5h-0.9v1.5h-1.8v-1.5h-0.9v1.5h-3.5v-1.9h-0.2v-7.6L344,172.8L344,172.8z M318.9,169.9c0.1,0,0.3,0.1,0.3,0.3v0.9
			c0,0.1-0.1,0.3-0.3,0.3h-1c-0.1,0-0.3-0.1-0.3-0.3v-0.9c0-0.1,0.1-0.3,0.3-0.3H318.9z M321.6,169.9c0.1,0,0.3,0.1,0.3,0.3v0.9
			c0,0.1-0.1,0.3-0.3,0.3h-1c-0.1,0-0.3-0.1-0.3-0.3v-0.9c0-0.1,0.1-0.3,0.3-0.3H321.6z M336.2,169.9c0.1,0,0.3,0.1,0.3,0.3v0.9
			c0,0.1-0.1,0.3-0.3,0.3h-1c-0.1,0-0.3-0.1-0.3-0.3v-0.9c0-0.1,0.1-0.3,0.3-0.3H336.2z M338.8,169.9c0.1,0,0.3,0.1,0.3,0.3v0.9
			c0,0.1-0.1,0.3-0.3,0.3h-1c-0.1,0-0.3-0.1-0.3-0.3v-0.9c0-0.1,0.1-0.3,0.3-0.3H338.8z M341.6,169.9c0.1,0,0.3,0.1,0.3,0.3v0.9
			c0,0.1-0.1,0.3-0.3,0.3h-1c-0.1,0-0.3-0.1-0.3-0.3v-0.9c0-0.1,0.1-0.3,0.3-0.3H341.6z M344.2,169.9c0.1,0,0.3,0.1,0.3,0.3v0.9
			c0,0.1-0.1,0.3-0.3,0.3h-1c-0.1,0-0.3-0.1-0.3-0.3v-0.9c0-0.1,0.1-0.3,0.3-0.3H344.2z M348.1,169.9c0.1,0,0.3,0.1,0.3,0.3v0.9
			c0,0.1-0.1,0.3-0.3,0.3h-1c-0.1,0-0.3-0.1-0.3-0.3v-0.9c0-0.1,0.1-0.3,0.3-0.3H348.1z M354.5,172.3h-0.8l-0.5-1.1h0.8L354.5,172.3
			z M357.5,180.1h0.7l0.5,1.1H358L357.5,180.1z M357.4,179.9l-0.5-1.1h0.7l0.5,1.1H357.4z M356.8,178.7l-0.5-1.1h0.7l0.5,1.1H356.8z
			 M356.2,177.4l-0.5-1.1h0.7l0.5,1.1H356.2z M355.6,176.1l-0.5-1.1h0.7l0.5,1.1H355.6z M355,174.9l-0.5-1.1h0.7l0.5,1.1H355z
			 M354.4,173.6l-0.5-1.1h0.8l0.5,1.1H354.4z M315.2,173.7h0.7v1h-0.7V173.7z M315.2,174.8h0.7v1h-0.7V174.8z M315.2,175.9h0.7v1
			h-0.7V175.9z M315.2,177h0.7v1h-0.7V177z M315.2,178.1h0.7v1h-0.7V178.1z M315.2,179.2h0.7v1h-0.7V179.2z M315.9,172.8v0.7h-0.7
			v-0.7H315.9z M315.2,180.3h0.7v0.1h-0.7V180.3z M358.5,182.3l-0.5-1h0.6l0.5,1H358.5z M353.4,170l0.5,1.1h-0.8l-0.5-1.1H353.4z
			 M351.1,170.1v0.9c0,0.1-0.1,0.3-0.3,0.3h-1c-0.1,0-0.3-0.1-0.3-0.3v-0.9c0-0.1,0.1-0.3,0.3-0.3h1
			C351,169.9,351.1,170,351.1,170.1z M350.1,167.3v0.6H349v-0.6H350.1z M348.8,167.3v0.6h-1.1v-0.6H348.8z M347.5,167.3v0.6h-1.1
			v-0.6H347.5z M346.1,167.3v0.6H345v-0.6H346.1z M344.8,167.3v0.6h-1.1v-0.6H344.8z M343.5,167.3v0.6h-1.1v-0.6H343.5z
			 M342.1,167.3v0.6H341v-0.6H342.1z M340.8,167.3v0.6h-1.1v-0.6H340.8z M339.5,167.3v0.6h-1.1v-0.6H339.5z M338.1,167.3v0.6H337
			v-0.6H338.1z M336.8,167.3v0.6h-1.1v-0.6H336.8z M335.5,167.3v0.6h-1.1v-0.6H335.5z M334.2,167.3v0.6h-1.1v-0.6H334.2z
			 M332.8,167.3v0.6h-1.1v-0.6H332.8z M331.5,167.3v0.6h-1.1v-0.6H331.5z M330.2,167.3v0.6h-1.1v-0.6H330.2z M328.8,167.3v0.6h-1.1
			v-0.6H328.8z M327.5,167.3v0.6h-1.1v-0.6H327.5z M326.2,167.3v0.6h-1.1v-0.6H326.2z M324.8,167.3v0.6h-1.1v-0.6H324.8z
			 M323.5,167.3v0.6h-1.1v-0.6H323.5z M322.2,167.3v0.6h-1.1v-0.6H322.2z M320.8,167.3v0.6h-1.1v-0.6H320.8z M319.5,167.3v0.6h-1.1
			v-0.6H319.5z M318.2,167.3v0.6h-1.1v-0.6H318.2z M316.9,167.3v0.6h-1.1v-0.6H316.9z M315.5,167.3v0.6h-1.1v-0.6H315.5z
			 M314.2,167.3v0.6h-1.1v-0.6H314.2z M312.9,167.3v0.6h-1.1v-0.6H312.9z M311.5,167.3v0.6h-1.1v-0.6H311.5z M309.1,167.3h1.1v0.6
			h-1.1V167.3z M305.4,169.8h1.1l-0.2,1.1h-1.1L305.4,169.8z M303.2,181.5h1l-0.2,0.9h-1L303.2,181.5z"/>
	</g>
	<rect x="-0.1" y="189.9" class="st14" width="399.8" height="61"/>
	<rect x="-0.1" y="207.8" class="st10" width="399.8" height="72.7"/>
	<path class="st15" d="M220.2,243.1H3.5c-2.1,0-3.7-1.7-3.7-3.7v-0.1c0-2.1,1.7-3.7,3.7-3.7h216.7c2.1,0,3.7,1.7,3.7,3.7v0.1
		C224,241.4,222.3,243.1,220.2,243.1z"/>
	<path class="st15" d="M326.2,244.1h-92.8c-2.4,0-4.3-1.9-4.3-4.3v-0.1c0-2.4,1.9-4.3,4.3-4.3h92.8c2.4,0,4.3,1.9,4.3,4.3v0.1
		C330.5,242.2,328.6,244.1,326.2,244.1z"/>
	<rect x="229.2" y="242.5" class="st14" width="55.1" height="1.1"/>
	<rect x="-0.1" y="248.4" class="st16" width="399.8" height="32.1"/>
	<rect x="-0.1" y="266.6" class="st17" width="399.8" height="13.8"/>
	<path class="st14" d="M81.3,154.3l0.2-0.4l0.3-0.3l-0.4-1.6H81v-1.9h0.9v-3.4h-2.2l-34.7-11v-0.1h-0.4h-0.1v0.1l0,0v26.5h-1.1v0.7
		h-4.5v6h4.5v1.8h-0.5v1.1h-2v4.3h-1V174h-1v1.9h-0.7v6.4h5.1v0.9h-3v2.3h-1.6v2.7h1.6v7h0.9v-7h2.1v0.7h3.2v-0.7h1.4v7h0.9v-7h1.5
		v-2.7h-1.5v-2.3H46v-0.9h4.7v-6.4h-0.2v-1.2h-0.9v1.2H48v-4.3h-1.5v-1.1h-0.6v-1.8h4.2v-2.9c0.8-0.5,1.6-0.9,2.4-1.4
		c0.9-0.5,1.7-1,2.6-1.5c0.9-0.5,1.7-1,2.6-1.5c0.9-0.5,1.7-1,2.6-1.5c0.9-0.5,1.7-1,2.6-1.4c0.9-0.5,1.7-0.9,2.6-1.4
		s1.7-0.9,2.6-1.4s1.7-0.9,2.6-1.4s1.7-0.9,2.6-1.4s1.8-0.9,2.6-1.4c0.9-0.5,1.8-0.9,2.7-1.4c0.3-0.2,0.6-0.3,0.9-0.5v0.3h0.8v1.9
		H80l-0.4,1.6l0.3,0.3l0.2,0.4h0.4v0.2c0,0.2,0.1,0.4,0.3,0.5c0.2,0.1,0.4,0.3,0.3,0.5c0,0.3-0.3,0.5-0.5,0.5
		c-0.1,0-0.3-0.1-0.4-0.1c-0.1-0.1-0.2-0.3-0.2-0.4c0-0.1-0.1-0.1-0.1-0.1c-0.1,0-0.1,0.1-0.1,0.1c0,0.2,0.1,0.4,0.2,0.6
		s0.3,0.2,0.5,0.2l0,0c0.4,0,0.7-0.3,0.7-0.7c0-0.3-0.2-0.6-0.5-0.8c-0.1-0.1-0.2-0.1-0.2-0.3v-0.2L81.3,154.3L81.3,154.3z
		 M47.4,177.9c0-0.3,0.2-0.5,0.5-0.5h0.7c0.3,0,0.5,0.2,0.5,0.5v2.3c0,0.3-0.2,0.5-0.5,0.5h-0.7c-0.3,0-0.5-0.2-0.5-0.5V177.9z
		 M45.5,180.7c-0.3,0-0.5-0.2-0.5-0.5v-2.3c0-0.3,0.2-0.5,0.5-0.5h0.7c0.3,0,0.5,0.2,0.5,0.5v2.3c0,0.3-0.2,0.5-0.5,0.5H45.5z
		 M42.6,177.9c0-0.3,0.2-0.5,0.5-0.5h0.7c0.3,0,0.5,0.2,0.5,0.5v2.3c0,0.3-0.2,0.5-0.5,0.5h-0.7c-0.3,0-0.5-0.2-0.5-0.5V177.9z
		 M42,177.9v2.3c0,0.3-0.2,0.5-0.5,0.5h-0.7c-0.3,0-0.5-0.2-0.5-0.5v-2.3c0-0.3,0.2-0.5,0.5-0.5h0.7C41.8,177.5,42,177.7,42,177.9z
		 M50.1,163.2v-0.5h-1.2c-0.2-0.1-0.3-0.1-0.5-0.2c0.7-0.3,1.4-0.7,2-1C50.4,162.1,50.3,162.6,50.1,163.2L50.1,163.2z M78.4,150
		c-0.5-0.1-0.9-0.1-1.3-0.2c0.2-0.4,0.5-0.8,0.7-1.2C77.9,149.1,78.1,149.6,78.4,150z M76.8,149.8c-0.5-0.1-0.9-0.2-1.4-0.3
		c0.7-0.3,1.4-0.6,2.1-0.9C77.2,149,77,149.4,76.8,149.8z M75,149.9c0.2,0.5,0.5,1,0.7,1.5c-0.5-0.1-0.9-0.2-1.4-0.3
		C74.5,150.7,74.8,150.3,75,149.9z M75.3,149.8c0.5,0.1,0.9,0.2,1.4,0.3c-0.2,0.4-0.5,0.8-0.7,1.3C75.7,150.8,75.5,150.3,75.3,149.8
		z M74.1,151.1c-0.5-0.1-0.9-0.2-1.4-0.3c0.7-0.3,1.4-0.6,2.1-0.9C74.5,150.3,74.3,150.7,74.1,151.1z M72.3,151.2
		c0.1,0.3,0.3,0.5,0.4,0.8s0.3,0.5,0.4,0.8c-0.5-0.1-0.9-0.2-1.4-0.3C71.9,152,72.1,151.6,72.3,151.2z M72.5,151
		c0.5,0.1,0.9,0.2,1.4,0.3c-0.2,0.4-0.4,0.9-0.6,1.3C73.1,152.1,72.8,151.6,72.5,151z M71.4,152.4c-0.5-0.1-1-0.2-1.5-0.3
		c0.7-0.3,1.4-0.6,2.1-1C71.8,151.5,71.6,152,71.4,152.4z M69.6,152.4c0.3,0.6,0.6,1.1,0.9,1.7c-0.5-0.1-1-0.2-1.4-0.3
		C69.2,153.3,69.4,152.9,69.6,152.4z M70.7,154c-0.3-0.6-0.6-1.1-0.9-1.7c0.5,0.1,1,0.2,1.5,0.3C71.1,153.1,70.9,153.5,70.7,154z
		 M68.7,153.7c-0.5-0.1-1-0.3-1.5-0.4c0.7-0.3,1.4-0.7,2.1-1C69.1,152.8,68.9,153.2,68.7,153.7z M66.9,153.7
		c0.1,0.3,0.3,0.6,0.5,0.9c0.1,0.3,0.3,0.6,0.5,0.9c-0.5-0.1-1-0.3-1.5-0.4C66.5,154.6,66.7,154.2,66.9,153.7z M68.1,155.4
		c0-0.1-0.1-0.1-0.1-0.2c-0.3-0.5-0.5-1.1-0.8-1.6c0.5,0.1,1,0.3,1.5,0.4C68.4,154.4,68.2,154.9,68.1,155.4z M66.1,155
		c-0.5-0.1-1-0.3-1.5-0.4c0.7-0.3,1.4-0.7,2.1-1C66.4,154.1,66.2,154.6,66.1,155z M64.2,155c0.3,0.6,0.7,1.3,1,1.9
		c-0.5-0.1-1-0.3-1.5-0.5C63.8,156,64,155.5,64.2,155z M65.4,156.8c-0.2-0.3-0.3-0.6-0.5-1c-0.2-0.3-0.3-0.6-0.5-1
		c0.5,0.1,1,0.3,1.5,0.4C65.8,155.8,65.6,156.3,65.4,156.8z M63.4,156.4c-0.5-0.2-1-0.3-1.5-0.5c0.7-0.3,1.4-0.7,2.1-1
		C63.7,155.4,63.5,155.9,63.4,156.4z M61.6,156.5c0.3,0.6,0.6,1.2,0.9,1.8c-0.5-0.2-1-0.3-1.5-0.5c0.1-0.5,0.3-1,0.5-1.5
		C61.5,156.4,61.5,156.4,61.6,156.5z M62.5,157.5c-0.2-0.5-0.5-0.9-0.7-1.4c0.5,0.2,1,0.3,1.5,0.5c-0.2,0.5-0.3,1-0.5,1.5
		C62.7,158,62.6,157.7,62.5,157.5z M60.7,157.7c-0.5-0.2-1.1-0.3-1.6-0.5c0.7-0.3,1.4-0.7,2.1-1C61,156.7,60.9,157.2,60.7,157.7z
		 M59.9,159.7c-0.5-0.2-1-0.3-1.6-0.5c0.1-0.5,0.3-1.1,0.5-1.6C59.2,158.3,59.5,159,59.9,159.7z M59.1,157.5
		c0.5,0.2,1.1,0.4,1.6,0.5c-0.2,0.5-0.3,1.1-0.5,1.6C59.8,158.9,59.4,158.2,59.1,157.5z M58.1,159.1c-0.5-0.2-1.1-0.4-1.6-0.6
		c0.7-0.3,1.4-0.7,2.1-1C58.4,158,58.2,158.6,58.1,159.1z M56.3,159.2c0.3,0.7,0.7,1.3,1.1,2c-0.5-0.2-1.1-0.4-1.6-0.6
		c0.1-0.5,0.3-1.1,0.4-1.6C56.2,159,56.2,159.1,56.3,159.2z M56.4,158.8c0.5,0.2,1.1,0.4,1.6,0.6c-0.1,0.5-0.3,1.1-0.4,1.7
		C57.2,160.3,56.8,159.5,56.4,158.8z M55.4,160.5c-0.5-0.2-1.1-0.4-1.6-0.6c0.7-0.3,1.4-0.7,2.1-1C55.7,159.4,55.5,159.9,55.4,160.5
		z M53.5,160.3c0.4,0.8,0.8,1.5,1.2,2.3c-0.5-0.2-1.1-0.4-1.6-0.6C53.2,161.4,53.3,160.8,53.5,160.3z M53.7,160.1
		c0.5,0.2,1.1,0.4,1.6,0.6c-0.1,0.6-0.3,1.1-0.4,1.7C54.5,161.7,54.1,160.9,53.7,160.1z M52.8,161.8c-0.5-0.2-1.1-0.5-1.7-0.7
		c0.7-0.3,1.4-0.7,2-1C53,160.7,52.9,161.3,52.8,161.8z M52.3,163.9C52.3,163.9,52.3,163.8,52.3,163.9c-0.5-0.9-0.9-1.6-1.3-2.4
		c0.5,0.2,1.1,0.5,1.7,0.7C52.6,162.7,52.5,163.3,52.3,163.9z M50.8,161.6c0.4,0.8,0.9,1.6,1.3,2.4c-0.5-0.2-1.1-0.5-1.7-0.7
		C50.5,162.8,50.7,162.2,50.8,161.6z M53,162.3c0.5,0.2,1.1,0.4,1.6,0.6c-0.7,0.4-1.3,0.7-2,1.1C52.8,163.4,52.9,162.9,53,162.3z
		 M55.6,160.9c0.5,0.2,1.1,0.4,1.6,0.6c-0.7,0.4-1.3,0.7-2,1.1C55.4,162,55.5,161.4,55.6,160.9z M58.3,159.5c0.5,0.2,1,0.4,1.6,0.5
		c-0.7,0.4-1.3,0.7-2,1.1C58,160.5,58.1,160,58.3,159.5z M60.9,158.1c0.5,0.2,1,0.3,1.5,0.5c-0.7,0.4-1.3,0.7-2,1.1
		C60.6,159.2,60.7,158.6,60.9,158.1z M63.6,156.7c0.5,0.1,1,0.3,1.5,0.5c-0.7,0.4-1.3,0.7-2,1.1C63.2,157.8,63.4,157.2,63.6,156.7z
		 M66.2,155.4c0.5,0.1,1,0.3,1.5,0.4c-0.7,0.3-1.3,0.7-2,1.1C65.9,156.4,66,155.9,66.2,155.4z M68.9,154c0.5,0.1,1,0.2,1.5,0.3
		c-0.7,0.3-1.3,0.7-2,1.1C68.5,155,68.7,154.5,68.9,154z M71.5,152.7c0.5,0.1,0.9,0.2,1.4,0.3c-0.7,0.3-1.3,0.7-2,1.1
		C71.1,153.6,71.3,153.2,71.5,152.7z M74.2,151.4c0.5,0.1,0.9,0.2,1.4,0.3c-0.7,0.3-1.3,0.7-2,1.1C73.8,152.2,74,151.8,74.2,151.4z
		 M76.9,150.1c0.5,0.1,0.9,0.1,1.3,0.2c-0.7,0.3-1.3,0.7-2,1C76.5,150.9,76.7,150.5,76.9,150.1z M78.3,149.3
		c-0.1-0.3-0.3-0.5-0.4-0.8c0.5,0.1,0.9,0.1,1.4,0.2c-0.2,0.4-0.5,0.8-0.7,1.2C78.5,149.7,78.5,149.5,78.3,149.3z M78.1,148.3
		c0.5-0.2,1-0.5,1.5-0.7v0.7c0,0.1-0.1,0.1-0.1,0.2C79,148.5,78.6,148.4,78.1,148.3z M45,135.7l34.6,11v0.7
		c-0.6,0.3-1.2,0.5-1.8,0.8l0,0c-0.1,0-0.1,0-0.1,0.1c-0.1,0-0.1,0-0.1,0.1l0,0c-0.8,0.4-1.7,0.7-2.5,1.1l0,0c-0.1,0-0.1,0-0.1,0.1
		c-0.1,0-0.1,0-0.1,0.1l0,0c-0.8,0.4-1.6,0.7-2.5,1.1l0,0c-0.1,0-0.1,0-0.1,0.1c-0.1,0-0.1,0-0.1,0.1l0,0c-0.8,0.4-1.6,0.7-2.5,1.1
		l0,0c-0.1,0-0.1,0-0.1,0.1c-0.1,0-0.1,0-0.1,0.1l0,0c-0.8,0.4-1.6,0.7-2.5,1.1l0,0c-0.1,0-0.1,0-0.1,0.1c-0.1,0-0.1,0-0.1,0.1l0,0
		c-0.8,0.4-1.6,0.8-2.5,1.1l0,0c-0.1,0-0.1,0-0.1,0.1c-0.1,0-0.1,0-0.1,0.1l0,0c-0.8,0.4-1.6,0.8-2.4,1.1l0,0c-0.1,0-0.1,0-0.1,0.1
		c-0.1,0-0.1,0-0.1,0.1l0,0c-0.8,0.4-1.6,0.8-2.4,1.2l0,0c-0.1,0-0.1,0-0.1,0.1c-0.1,0-0.1,0-0.1,0.1l0,0c-0.8,0.4-1.6,0.8-2.4,1.2
		l0,0c-0.1,0-0.1,0.1-0.1,0.1c-0.1,0-0.1,0-0.1,0.1l0,0c-0.8,0.4-1.6,0.8-2.4,1.2l0,0c-0.1,0-0.1,0.1-0.1,0.1c-0.1,0-0.1,0-0.1,0.1
		l0,0c-0.8,0.4-1.6,0.8-2.4,1.2l0,0c-0.1,0-0.1,0.1-0.1,0.1c-0.1,0-0.1,0.1-0.1,0.1l0,0c-0.8,0.4-1.6,0.8-2.4,1.2l0,0
		c-0.1,0-0.1,0.1-0.1,0.1c-0.1,0-0.1,0.1-0.1,0.1l0,0c-0.2,0.1-0.4,0.2-0.6,0.3h-1.3v-0.7h-0.9v-26.2H45V135.7z M50.1,165.2
		c0.1-0.5,0.2-1,0.3-1.5c0.5,0.2,1.1,0.5,1.7,0.7c-0.6,0.4-1.3,0.7-1.9,1.1L50.1,165.2L50.1,165.2z M78.9,150
		c0.2-0.4,0.5-0.8,0.7-1.2l0,0v0.8C79.4,149.7,79.1,149.8,78.9,150z M80.5,150.2h0.4v1.9h-0.4V150.2z"/>
	<path class="st14" d="M83.9,128.8l0.4-0.7l0.6-0.5l-0.7-2.7h-0.7v-3.1H85V116h-3.7L22.9,97.5v-0.2h-0.7L22,97.2v0.1l0,0v44.6h-1.8
		v1.1h-7.5v10.1h7.5v3h-0.8v1.9H16v7.2h-1.6v-3.3h-1.7v3.3h-1.2v10.7h8.7v1.5h-5v3.9h-2.7v4.5h2.7v11.8h1.5v-11.8h3.5v1.1h5.4v-1.1
		h2.3v11.8h1.5v-11.8h2.4v-4.5h-2.4v-3.9h-4.7v-1.5h8v-10.7h-0.4v-2h-1.5v2H28V158h-2.6v-1.9h-1.1v-3h7.1v-4.8
		c1.3-0.8,2.7-1.5,4-2.3c1.5-0.8,2.9-1.7,4.3-2.5c1.5-0.8,2.9-1.7,4.4-2.5s2.9-1.6,4.4-2.4c1.5-0.8,2.9-1.6,4.4-2.4
		c1.5-0.8,2.9-1.6,4.4-2.4c1.5-0.8,2.9-1.6,4.4-2.4c1.5-0.8,2.9-1.6,4.4-2.4c1.5-0.8,2.9-1.6,4.4-2.3s2.9-1.5,4.4-2.3s3-1.5,4.5-2.3
		c0.5-0.3,1.1-0.5,1.6-0.8v0.6h1.3v3.1h-0.5l-0.7,2.7l0.6,0.5l0.4,0.7h0.7v0.3c0,0.4,0.2,0.7,0.5,0.8c0.4,0.1,0.6,0.5,0.6,0.9
		c0,0.5-0.4,0.9-0.9,0.9c-0.3,0-0.5-0.1-0.7-0.3S82,131,82,130.8c0-0.1-0.1-0.2-0.2-0.2s-0.2,0.1-0.2,0.2c0,0.4,0.1,0.7,0.4,0.9
		s0.6,0.4,0.9,0.4c0,0,0,0,0.1,0c0.7,0,1.2-0.6,1.3-1.3c0-0.5-0.3-1.1-0.8-1.3c-0.2-0.1-0.3-0.3-0.3-0.5v-0.3L83.9,128.8L83.9,128.8
		z M26.9,168.5c0-0.5,0.4-0.8,0.8-0.8H29c0.5,0,0.8,0.4,0.8,0.8v3.8c0,0.5-0.4,0.8-0.8,0.8h-1.3c-0.5,0-0.8-0.4-0.8-0.8
		C26.9,172.3,26.9,168.5,26.9,168.5z M23.8,173.1c-0.5,0-0.8-0.4-0.8-0.8v-3.8c0-0.5,0.4-0.8,0.8-0.8H25c0.5,0,0.8,0.4,0.8,0.8v3.8
		c0,0.5-0.4,0.8-0.8,0.8H23.8z M18.9,168.5c0-0.5,0.4-0.8,0.8-0.8H21c0.5,0,0.8,0.4,0.8,0.8v3.8c0,0.5-0.4,0.8-0.8,0.8h-1.3
		c-0.5,0-0.8-0.4-0.8-0.8C18.9,172.3,18.9,168.5,18.9,168.5z M17.9,168.5v3.8c0,0.5-0.4,0.8-0.8,0.8h-1.3c-0.5,0-0.8-0.4-0.8-0.8
		v-3.8c0-0.5,0.4-0.8,0.8-0.8h1.3C17.5,167.7,17.9,168.1,17.9,168.5z M31.5,143.8v-0.9h-2c-0.3-0.1-0.5-0.2-0.8-0.4
		c1.1-0.6,2.3-1.2,3.4-1.7C31.9,141.8,31.7,142.8,31.5,143.8L31.5,143.8z M79,121.6c-0.8-0.1-1.5-0.2-2.3-0.3c0.4-0.7,0.8-1.3,1.1-2
		C78.3,120.1,78.6,120.8,79,121.6z M76.3,121.2c-0.8-0.1-1.6-0.3-2.3-0.4c1.2-0.5,2.3-1.1,3.5-1.6C77.1,119.9,76.7,120.5,76.3,121.2
		z M73.3,121.4c0.4,0.8,0.8,1.7,1.2,2.5c-0.8-0.1-1.5-0.3-2.3-0.4C72.6,122.8,72.9,122,73.3,121.4z M73.7,121.2
		c0.8,0.1,1.6,0.3,2.3,0.4c-0.4,0.7-0.8,1.4-1.1,2.1C74.6,122.8,74.1,122,73.7,121.2z M71.8,123.4c-0.8-0.2-1.6-0.3-2.4-0.5
		c1.2-0.5,2.3-1.1,3.5-1.6C72.5,122,72.1,122.7,71.8,123.4z M68.7,123.5c0.2,0.5,0.4,0.9,0.7,1.3c0.2,0.5,0.4,0.9,0.7,1.3
		c-0.8-0.2-1.6-0.3-2.4-0.5C68,124.9,68.4,124.2,68.7,123.5z M69.2,123.2c0.8,0.2,1.6,0.3,2.4,0.5c-0.4,0.7-0.7,1.5-1.1,2.2
		C70.1,125,69.6,124.2,69.2,123.2z M67.3,125.6c-0.8-0.2-1.6-0.4-2.4-0.6c1.2-0.5,2.3-1.1,3.5-1.6C67.9,124.1,67.6,124.8,67.3,125.6
		z M64.2,125.6c0.5,0.9,0.9,1.9,1.4,2.9c-0.8-0.2-1.6-0.4-2.4-0.6C63.5,127.1,63.9,126.4,64.2,125.6z M66.1,128.2
		c-0.5-0.9-0.9-1.9-1.4-2.9c0.8,0.2,1.6,0.4,2.4,0.6C66.7,126.7,66.4,127.5,66.1,128.2z M62.8,127.8c-0.8-0.2-1.7-0.4-2.5-0.7
		c1.2-0.5,2.3-1.1,3.5-1.6C63.4,126.2,63.1,127,62.8,127.8z M59.7,127.8c0.3,0.5,0.5,1,0.8,1.5s0.5,1,0.8,1.5
		c-0.8-0.2-1.7-0.4-2.5-0.7C59,129.3,59.3,128.5,59.7,127.8z M61.6,130.6c-0.1-0.1-0.1-0.3-0.2-0.4c-0.5-0.9-0.9-1.8-1.3-2.7
		c0.8,0.2,1.7,0.5,2.5,0.7C62.3,129,61.9,129.8,61.6,130.6z M58.3,130c-0.9-0.2-1.7-0.5-2.5-0.7c1.1-0.5,2.3-1.1,3.5-1.7
		C58.9,128.4,58.6,129.2,58.3,130z M55.1,129.9c0.5,1.1,1.1,2.1,1.7,3.2c-0.8-0.2-1.7-0.5-2.5-0.7C54.5,131.6,54.8,130.7,55.1,129.9
		z M57.2,132.9c-0.3-0.5-0.5-1.1-0.8-1.6s-0.5-1.1-0.8-1.6c0.9,0.3,1.7,0.5,2.5,0.7C57.8,131.2,57.5,132.1,57.2,132.9z M53.8,132.2
		c-0.9-0.3-1.7-0.5-2.6-0.8c1.1-0.5,2.3-1.1,3.5-1.7C54.4,130.6,54.1,131.4,53.8,132.2z M50.8,132.4c0.5,1,1.1,2.1,1.6,3.1
		c-0.9-0.3-1.7-0.5-2.6-0.8c0.3-0.9,0.5-1.7,0.8-2.6C50.7,132.2,50.7,132.3,50.8,132.4z M52.2,134.2c-0.4-0.8-0.8-1.5-1.2-2.3
		c0.9,0.3,1.7,0.5,2.6,0.8c-0.3,0.9-0.6,1.7-0.8,2.6C52.6,134.9,52.4,134.5,52.2,134.2z M49.3,134.5c-0.9-0.3-1.8-0.6-2.6-0.9
		c1.1-0.6,2.3-1.1,3.5-1.7C49.9,132.8,49.6,133.6,49.3,134.5z M47.9,137.9c-0.9-0.3-1.7-0.6-2.6-0.9c0.3-0.9,0.5-1.8,0.8-2.7
		C46.7,135.5,47.3,136.7,47.9,137.9z M46.5,134.1c0.9,0.3,1.8,0.6,2.7,0.9c-0.3,0.9-0.5,1.8-0.8,2.7
		C47.8,136.5,47.1,135.3,46.5,134.1z M44.9,136.8c-0.9-0.3-1.8-0.7-2.7-1c1.1-0.6,2.3-1.1,3.5-1.7C45.3,135,45.1,135.9,44.9,136.8z
		 M41.8,137c0.6,1.1,1.2,2.2,1.8,3.3c-0.9-0.3-1.8-0.7-2.7-1c0.2-0.9,0.5-1.8,0.7-2.7C41.7,136.7,41.7,136.8,41.8,137z M42,136.3
		c0.9,0.3,1.8,0.7,2.7,1c-0.3,0.9-0.5,1.8-0.7,2.8C43.3,138.8,42.7,137.6,42,136.3z M40.4,139.1c-0.9-0.3-1.8-0.7-2.7-1.1
		c1.1-0.6,2.3-1.1,3.4-1.7C40.9,137.3,40.6,138.2,40.4,139.1z M37.1,138.8c0.7,1.3,1.4,2.6,2.1,3.9c-0.9-0.3-1.8-0.7-2.7-1.1
		C36.7,140.7,36.9,139.7,37.1,138.8z M37.5,138.6c0.9,0.4,1.8,0.7,2.7,1.1c-0.2,0.9-0.5,1.9-0.7,2.9
		C38.9,141.2,38.2,139.9,37.5,138.6z M36,141.4c-0.9-0.4-1.9-0.7-2.8-1.1c1.1-0.6,2.3-1.1,3.4-1.7C36.4,139.5,36.2,140.5,36,141.4z
		 M35.3,144.9c0,0,0-0.1-0.1-0.1c-0.7-1.3-1.4-2.7-2.1-4c0.9,0.4,1.9,0.8,2.8,1.1C35.6,143,35.4,143.9,35.3,144.9z M32.6,141
		c0.7,1.4,1.5,2.7,2.2,4.1c-0.9-0.4-1.9-0.7-2.8-1.1C32.2,143,32.4,142,32.6,141z M36.4,142.2c0.9,0.4,1.8,0.7,2.7,1.1
		c-1.1,0.6-2.2,1.3-3.3,1.9C36,144.1,36.2,143.1,36.4,142.2z M40.8,139.8c0.9,0.3,1.8,0.7,2.7,1c-1.1,0.6-2.2,1.2-3.3,1.9
		C40.3,141.7,40.5,140.8,40.8,139.8z M45.2,137.5c0.9,0.3,1.7,0.6,2.6,0.9c-1.1,0.6-2.2,1.2-3.3,1.9
		C44.7,139.3,44.9,138.4,45.2,137.5z M49.6,135.1c0.9,0.3,1.7,0.6,2.6,0.8c-1.1,0.6-2.2,1.2-3.3,1.8C49.1,136.9,49.4,136,49.6,135.1
		z M54.1,132.8c0.8,0.3,1.7,0.5,2.5,0.7c-1.1,0.6-2.3,1.2-3.4,1.8C53.5,134.6,53.8,133.7,54.1,132.8z M58.6,130.6
		c0.8,0.2,1.7,0.5,2.5,0.7c-1.1,0.6-2.3,1.2-3.4,1.8C57.9,132.2,58.3,131.4,58.6,130.6z M63,128.3c0.8,0.2,1.6,0.4,2.4,0.6
		c-1.1,0.6-2.3,1.2-3.4,1.8C62.4,129.9,62.7,129.1,63,128.3z M67.5,126.1c0.8,0.2,1.6,0.3,2.4,0.5c-1.1,0.6-2.3,1.2-3.4,1.8
		C66.8,127.6,67.2,126.8,67.5,126.1z M72,123.8c0.8,0.1,1.5,0.3,2.3,0.4c-1.1,0.6-2.3,1.2-3.4,1.8C71.3,125.3,71.7,124.6,72,123.8z
		 M76.5,121.6c0.8,0.1,1.5,0.2,2.3,0.3c-1.1,0.6-2.3,1.2-3.4,1.7C75.8,123,76.1,122.3,76.5,121.6z M78.9,120.4
		c-0.2-0.4-0.4-0.9-0.6-1.3c0.8,0.1,1.5,0.2,2.3,0.3c-0.4,0.7-0.8,1.3-1.2,2C79.3,121,79.1,120.7,78.9,120.4z M78.5,118.7
		c0.8-0.4,1.7-0.7,2.5-1.1v1.1c-0.1,0.1-0.1,0.2-0.2,0.3C80.1,119,79.3,118.9,78.5,118.7z M22.9,97.6L81,116.1v1.2
		c-1,0.4-2,0.9-3,1.3l0,0c-0.1,0-0.1,0.1-0.2,0.1s-0.1,0.1-0.2,0.1l0,0c-1.4,0.6-2.8,1.2-4.1,1.9l0,0c-0.1,0-0.1,0.1-0.2,0.1
		s-0.1,0.1-0.2,0.1l0,0c-1.4,0.6-2.8,1.2-4.1,1.9l0,0c-0.1,0-0.1,0.1-0.2,0.1s-0.1,0.1-0.2,0.1l0,0c-1.4,0.6-2.7,1.3-4.1,1.9l0,0
		c-0.1,0-0.1,0.1-0.2,0.1s-0.1,0.1-0.2,0.1l0,0c-1.4,0.6-2.7,1.3-4.1,1.9l0,0c-0.1,0-0.1,0.1-0.2,0.1c-0.1,0-0.1,0.1-0.2,0.1l0,0
		c-1.4,0.6-2.7,1.3-4.1,1.9l0,0c-0.1,0-0.1,0.1-0.2,0.1c-0.1,0-0.1,0.1-0.2,0.1l0,0c-1.4,0.7-2.7,1.3-4.1,1.9l0,0
		c-0.1,0-0.1,0.1-0.2,0.1c-0.1,0-0.1,0.1-0.2,0.1l0,0c-1.4,0.7-2.7,1.3-4.1,1.9l0,0c-0.1,0-0.1,0.1-0.2,0.1s-0.1,0.1-0.2,0.1l0,0
		c-1.4,0.7-2.7,1.3-4.1,2l0,0c-0.1,0-0.1,0.1-0.2,0.1c-0.1,0-0.1,0.1-0.2,0.1l0,0c-1.4,0.7-2.7,1.3-4.1,2l0,0
		c-0.1,0-0.1,0.1-0.2,0.1c-0.1,0-0.1,0.1-0.2,0.1l0,0c-1.3,0.7-2.7,1.3-4.1,2l0,0c-0.1,0-0.1,0.1-0.2,0.1s-0.1,0.1-0.2,0.1l0,0
		c-1.3,0.7-2.7,1.3-4.1,2l0,0c-0.1,0-0.1,0.1-0.2,0.1s-0.1,0.1-0.2,0.1l0,0c-0.3,0.2-0.7,0.3-1,0.5H25V142h-1.5V97.6H22.9z
		 M31.5,147c0.1-0.8,0.3-1.7,0.5-2.5c0.9,0.4,1.9,0.8,2.8,1.1c-1.1,0.6-2.1,1.2-3.2,1.8C31.5,147.5,31.5,147,31.5,147z M79.9,121.4
		c0.4-0.7,0.8-1.3,1.2-2l0,0v1.4C80.6,121,80.2,121.2,79.9,121.4z M82.5,121.8h0.7v3.1h-0.7V121.8z"/>
	<path class="st18" d="M296.4,161.2v0.4c0,0.3-0.2,0.5-0.4,0.6c-0.7,0.3-1.1,1-1.1,1.7c0,0.9,0.8,1.7,1.7,1.7h0.1
		c0.5,0,0.9-0.2,1.2-0.5c0.3-0.3,0.5-0.8,0.5-1.3c0-0.1-0.1-0.3-0.3-0.3c-0.1,0-0.3,0.1-0.3,0.3c0,0.3-0.1,0.7-0.4,0.9
		s-0.6,0.4-0.9,0.3c-0.7,0-1.2-0.6-1.2-1.2c0-0.5,0.3-1,0.8-1.2s0.7-0.6,0.7-1.1v-0.4h1l0.5-0.9l0.8-0.7l-1-3.7h-0.7v-4.3h1.7v-0.8
		c0.7,0.4,1.4,0.7,2.1,1.1c2,1,4,2.1,6,3.1c2,1.1,4,2.1,6,3.1c2,1.1,4,2.1,6,3.2c2,1.1,4,2.1,6,3.2c2,1.1,4,2.1,6,3.2
		c2,1.1,4,2.2,5.9,3.3s3.9,2.2,5.9,3.3s3.9,2.2,5.9,3.3s3.9,2.2,5.9,3.3s3.9,2.2,5.9,3.3c1.8,1,3.6,2.1,5.5,3.1v6.5h9.6v4.1h-1.4
		v2.6H371v9.7h-3.7v-2.7h-1.9v2.7h-0.5v14.5h10.8v2.1h-6.4v5.3H366v6.1h3.3V254h2v-15.9h3.1v1.5h7.3v-1.5h4.8V254h2v-15.9h3.7V232
		h-3.7v-5.3h-6.8v-2.1h11.7v-14.5h-1.6v-4.4h-2.3v4.4h-2.2v-9.7h-4.6v-2.6h-1.1V194h10.1v-13.7h-10.1v-1.5h-2.5v-60.3l0,0v-0.1
		l-0.2,0.1h-1v0.3L299,143.9h-4.9v7.8h1.9v4.3h-1l-1,3.7l0.8,0.7l0.5,0.9L296.4,161.2L296.4,161.2z M372.5,220
		c0,0.6-0.5,1.1-1.1,1.1h-1.7c-0.6,0-1.1-0.5-1.1-1.1v-5.1c0-0.6,0.5-1.1,1.1-1.1h1.7c0.6,0,1.1,0.5,1.1,1.1V220z M375.1,221.1
		c-0.6,0-1.1-0.5-1.1-1.1v-5.1c0-0.6,0.5-1.1,1.1-1.1h1.7c0.6,0,1.1,0.5,1.1,1.1v5.1c0,0.6-0.5,1.1-1.1,1.1H375.1L375.1,221.1z
		 M383.3,220c0,0.6-0.5,1.1-1.1,1.1h-1.7c-0.6,0-1.1-0.5-1.1-1.1v-5.1c0-0.6,0.5-1.1,1.1-1.1h1.7c0.6,0,1.1,0.5,1.1,1.1V220z
		 M385.8,213.8h1.7c0.6,0,1.1,0.5,1.1,1.1v5.1c0,0.6-0.5,1.1-1.1,1.1h-1.7c-0.6,0-1.1-0.5-1.1-1.1v-5.1
		C384.7,214.3,385.2,213.8,385.8,213.8z M366.3,181.4c-0.3-1.3-0.5-2.7-0.8-4c1.5,0.8,3.1,1.6,4.6,2.3c-0.4,0.2-0.7,0.3-1.1,0.5
		h-2.7V181.4L366.3,181.4z M303.5,148.3c0.5,0.9,1.1,1.8,1.5,2.7c-1,0.2-2.1,0.3-3.1,0.5C302.5,150.4,303.1,149.3,303.5,148.3z
		 M304.1,148.2c1.6,0.7,3.1,1.4,4.7,2.1c-1.1,0.2-2.1,0.4-3.2,0.6C305.2,150,304.7,149.1,304.1,148.2z M311.2,153.9
		c-1,0.2-2.1,0.4-3.1,0.6c0.5-1.1,1.1-2.3,1.7-3.4C310.2,152,310.7,153,311.2,153.9z M307.5,154.2c-0.5-0.9-1-1.9-1.5-2.8
		c1.1-0.2,2.1-0.4,3.2-0.6C308.6,151.9,308,153.1,307.5,154.2z M310.3,151c1.6,0.7,3.1,1.4,4.7,2.2c-1.1,0.2-2.1,0.5-3.2,0.7
		C311.3,152.9,310.8,151.9,310.3,151z M317.3,156.9c-1.1,0.2-2.1,0.5-3.2,0.7c0.3-0.6,0.6-1.2,0.9-1.8s0.6-1.2,0.9-1.8
		C316.4,154.9,316.9,155.9,317.3,156.9z M313.5,157.3c-0.5-1-0.9-2-1.5-3c1.1-0.2,2.2-0.4,3.3-0.7
		C314.7,154.9,314.1,156.1,313.5,157.3z M316.5,153.8c1.6,0.7,3.1,1.5,4.7,2.2c-1.1,0.3-2.2,0.5-3.3,0.8
		C317.5,155.8,317,154.8,316.5,153.8z M323.4,159.9c-1.1,0.3-2.2,0.5-3.3,0.8c0.7-1.3,1.3-2.6,1.9-3.9
		C322.5,157.8,323,158.9,323.4,159.9z M318.2,157.3c1.1-0.3,2.2-0.5,3.3-0.8c-0.7,1.3-1.3,2.6-1.9,3.9
		C319.1,159.4,318.6,158.4,318.2,157.3z M322.6,156.7c1.6,0.7,3.1,1.5,4.7,2.2c-1.1,0.3-2.2,0.6-3.4,0.9
		C323.6,158.7,323.1,157.7,322.6,156.7z M329.4,162.9c-1.1,0.3-2.2,0.6-3.3,0.9c0.3-0.7,0.7-1.4,1-2.1c0.3-0.7,0.7-1.4,1-2.1
		C328.6,160.8,329,161.9,329.4,162.9z M324.2,160.3c1.1-0.3,2.3-0.6,3.4-0.9c-0.6,1.2-1.2,2.4-1.8,3.6c-0.1,0.2-0.2,0.3-0.3,0.5
		C325.1,162.5,324.7,161.4,324.2,160.3z M328.8,159.6c1.6,0.7,3.1,1.5,4.7,2.2c-1.1,0.3-2.3,0.7-3.4,1
		C329.6,161.7,329.2,160.6,328.8,159.6z M335.5,166c-1.1,0.3-2.3,0.7-3.4,1c0.7-1.5,1.5-2.9,2.2-4.3
		C334.7,163.8,335.1,164.9,335.5,166z M330.3,163.3c1.1-0.3,2.3-0.7,3.5-1c-0.4,0.7-0.7,1.5-1.1,2.2s-0.7,1.5-1.1,2.2
		C331.1,165.6,330.7,164.5,330.3,163.3z M335,162.5c1.6,0.7,3.1,1.5,4.7,2.3c-1.2,0.4-2.3,0.7-3.5,1.1
		C335.8,164.7,335.4,163.6,335,162.5z M340.4,165.6c0.4,1.1,0.7,2.3,1.1,3.5c-1.1,0.4-2.3,0.7-3.5,1.1c0.7-1.4,1.4-2.8,2.1-4.2
		C340.3,165.9,340.4,165.7,340.4,165.6z M337.5,169.9c-0.4-1.2-0.7-2.3-1.1-3.5c1.2-0.4,2.3-0.7,3.5-1.1c-0.5,1-1.1,2.1-1.6,3.1
		C338,168.9,337.7,169.4,337.5,169.9z M341.1,165.4c1.6,0.7,3.1,1.5,4.7,2.3c-1.2,0.4-2.4,0.8-3.6,1.2
		C341.8,167.7,341.5,166.5,341.1,165.4z M346.6,168.6c0.3,1.2,0.7,2.4,1,3.6c-1.2,0.4-2.4,0.8-3.5,1.2
		C344.9,171.8,345.7,170.2,346.6,168.6z M343.4,173.1c-0.3-1.2-0.7-2.4-1.1-3.6c1.2-0.4,2.4-0.8,3.6-1.2
		C345.1,169.9,344.3,171.5,343.4,173.1z M347.2,168.4c1.5,0.8,3.1,1.5,4.7,2.3c-1.2,0.5-2.4,0.9-3.6,1.3
		C347.9,170.8,347.6,169.6,347.2,168.4z M352.6,171.6c0.3,1.2,0.7,2.5,0.9,3.7c-1.2,0.5-2.4,0.9-3.6,1.3c0.8-1.5,1.6-3,2.4-4.5
		C352.4,172,352.6,171.8,352.6,171.6z M349.4,176.4c-0.3-1.3-0.6-2.5-1-3.7c1.2-0.4,2.4-0.9,3.7-1.3
		C351.2,173,350.3,174.7,349.4,176.4z M353.3,171.3c1.5,0.8,3.1,1.5,4.7,2.3c-1.2,0.5-2.5,1-3.7,1.4
		C354,173.9,353.6,172.6,353.3,171.3z M359.6,178.5c-1.2,0.5-2.5,1-3.7,1.4c0.9-1.8,1.9-3.5,2.8-5.3
		C359,175.9,359.3,177.2,359.6,178.5z M355.3,179.7c-0.3-1.3-0.6-2.6-0.9-3.9c1.2-0.5,2.5-0.9,3.7-1.4
		C357.2,176.1,356.2,177.9,355.3,179.7z M359.4,174.4c1.5,0.8,3.1,1.5,4.7,2.3c-1.3,0.5-2.5,1-3.8,1.5
		C360,177,359.7,175.7,359.4,174.4z M360.4,179c1.3-0.5,2.5-1,3.8-1.5c-1,1.8-1.9,3.6-2.9,5.4c0,0.1-0.1,0.1-0.1,0.1
		C360.9,181.6,360.7,180.3,360.4,179z M365.5,181.7c-1.3,0.5-2.5,1-3.8,1.5c1-1.9,2-3.7,3-5.5C365,179.1,365.3,180.4,365.5,181.7z
		 M360.5,183.2c-1.5-0.9-3-1.7-4.5-2.5c1.2-0.5,2.5-0.9,3.7-1.5C360,180.5,360.3,181.9,360.5,183.2z M354.6,179.9
		c-1.5-0.8-3-1.7-4.5-2.5c1.2-0.4,2.4-0.9,3.6-1.3C354.1,177.3,354.4,178.6,354.6,179.9z M348.7,176.6c-1.5-0.8-3-1.7-4.5-2.5
		c1.2-0.4,2.4-0.8,3.5-1.2C348.1,174.1,348.4,175.3,348.7,176.6z M342.8,173.3c-1.5-0.8-3-1.7-4.5-2.5c1.2-0.4,2.3-0.7,3.5-1.1
		C342.1,170.9,342.4,172.1,342.8,173.3z M336.8,170.1c-1.5-0.8-3-1.6-4.5-2.5c1.1-0.3,2.3-0.7,3.4-1
		C336.1,167.8,336.5,168.9,336.8,170.1z M330.9,166.9c-1.5-0.8-3-1.6-4.6-2.4c1.1-0.3,2.2-0.6,3.3-0.9
		C330.1,164.6,330.5,165.7,330.9,166.9z M324.9,163.7c-1.5-0.8-3.1-1.6-4.6-2.4c1.1-0.3,2.2-0.5,3.3-0.8
		C324.1,161.5,324.5,162.6,324.9,163.7z M318.9,160.5c-1.5-0.8-3.1-1.6-4.6-2.4c1.1-0.2,2.1-0.4,3.2-0.7
		C318.1,158.5,318.5,159.5,318.9,160.5z M312.9,157.4c-1.5-0.8-3.1-1.6-4.6-2.4c1.1-0.2,2.1-0.4,3.1-0.6
		C312,155.4,312.5,156.4,312.9,157.4z M306.9,154.3c-1.5-0.8-3.1-1.6-4.6-2.4c1-0.1,2.1-0.3,3.1-0.5
		C305.9,152.4,306.4,153.3,306.9,154.3z M301.4,151.2c-0.5-0.9-1.1-1.8-1.6-2.7c1-0.1,2.1-0.3,3.1-0.5c-0.3,0.6-0.6,1.2-0.9,1.8
		C301.9,150.2,301.7,150.7,301.4,151.2z M299.5,148c-0.1-0.1-0.2-0.3-0.3-0.5V146c1.1,0.5,2.3,1,3.4,1.5
		C301.6,147.7,300.6,147.8,299.5,148z M378,178.8h-2.1v1.5h-3c-0.5-0.2-0.9-0.5-1.4-0.7l0,0c-0.1-0.1-0.2-0.1-0.3-0.1
		c-0.1-0.1-0.2-0.1-0.3-0.1l0,0c-1.8-0.9-3.7-1.8-5.5-2.7l0,0c-0.1-0.1-0.2-0.1-0.3-0.1s-0.2-0.1-0.3-0.1l0,0
		c-1.8-0.9-3.7-1.8-5.5-2.7l0,0c-0.1-0.1-0.2-0.1-0.3-0.1c-0.1-0.1-0.2-0.1-0.3-0.1l0,0c-1.8-0.9-3.7-1.8-5.5-2.7l0,0
		c-0.1-0.1-0.2-0.1-0.3-0.1c-0.1-0.1-0.2-0.1-0.3-0.1l0,0c-1.8-0.9-3.7-1.8-5.5-2.7l0,0c-0.1-0.1-0.2-0.1-0.3-0.1
		c-0.1-0.1-0.2-0.1-0.3-0.1l0,0c-1.9-0.9-3.7-1.8-5.5-2.7l0,0c-0.1-0.1-0.2-0.1-0.3-0.1c-0.1-0.1-0.2-0.1-0.3-0.1l0,0
		c-1.9-0.9-3.7-1.7-5.5-2.6l0,0c-0.1-0.1-0.2-0.1-0.3-0.1c-0.1-0.1-0.2-0.1-0.3-0.1l0,0c-1.9-0.9-3.7-1.7-5.6-2.6l0,0
		c-0.1-0.1-0.2-0.1-0.3-0.1c-0.1-0.1-0.2-0.1-0.3-0.1l0,0c-1.9-0.9-3.7-1.7-5.6-2.6l0,0c-0.1-0.1-0.2-0.1-0.3-0.1
		c-0.1-0.1-0.2-0.1-0.3-0.1l0,0c-1.9-0.9-3.7-1.7-5.6-2.5l0,0c-0.1-0.1-0.2-0.1-0.3-0.1c-0.1-0.1-0.2-0.1-0.3-0.1l0,0
		c-1.9-0.9-3.7-1.7-5.6-2.5l0,0c-0.1-0.1-0.2-0.1-0.3-0.1s-0.2-0.1-0.3-0.1l0,0c-1.9-0.8-3.7-1.7-5.6-2.5l0,0
		c-0.1-0.1-0.2-0.1-0.3-0.1c-0.1-0.1-0.2-0.1-0.3-0.1l0,0c-1.3-0.6-2.7-1.2-4-1.8V145l78.7-25L378,178.8L378,178.8z M366.3,186.5
		c-1.5-0.8-2.9-1.7-4.4-2.5c1.3-0.5,2.5-1,3.8-1.5c0.2,1.1,0.4,2.3,0.6,3.4V186.5L366.3,186.5z M299.3,150.4v-1.9l0,0
		c0.5,0.9,1.1,1.8,1.6,2.7C300.3,150.9,299.8,150.7,299.3,150.4z M297.3,155.9h-0.9v-4.3h0.9V155.9z"/>
	<path class="st14" d="M284.5,197.5l-6.3-55H276v-1.8h2.5v-9.9h-15.4v9.9h2.5v1.8h-10.5v-5.1h-1v5.1h-3.5v-5.1h-1v5.1H207V140h-1.4
		v2.4h-10.2V140H194v2.4h-10.9v-1.8h5v-5.1h-2.9v-2.7h-10.9v2.7h-2.9v5.1h5v1.8h-1.2l-6.3,55h13.9V196h1.3v-48h-1.3v-0.7h1.9v6.1h6
		h0.6h5.4h0.6h5.4h0.6h5.4h0.6h5.4h0.6h5.4h0.6h5.4h0.6h5.4h0.6h5.4h0.6h5.5h0.6h5.4h0.6h5.4h0.6h5.4h0.6h6v-6.1h1.9v0.7h-1.6v48.1
		h1.6v1.5L284.5,197.5L284.5,197.5z M274.2,132.1h1.6v3.1h-1.6V132.1z M271.4,132.1h1.6v3.1h-1.6V132.1z M268.6,132.1h1.6v3.1h-1.6
		V132.1z M265.8,132.1h1.6v3.1h-1.6V132.1z M182.4,139.4h-2.2v-2.9h2.2V139.4z M186.3,136.5v3.1h-2.2v-3.1h1H186.3z M174.6,139.6
		h-2.2v-3.1h1.8h0.4V139.6L174.6,139.6z M176.3,139.6v-3.1h2.2v2.9h-2.2V139.6L176.3,139.6z M270.6,157.4h-1.1v-4.1h1.1V157.4z
		 M270.6,158v4.1h-1.1V158H270.6z M270.6,162.7v4.1h-1.1v-4.1H270.6z M270.6,167.4v4.1h-1.1v-4.1H270.6z M270.6,172.1v4.1h-1.1v-4.1
		H270.6z M270.6,176.8v4.1h-1.1v-4.1H270.6z M270.6,181.5v4.1h-1.1v-4.1H270.6z M270.6,186.2v4.1h-1.1v-4.1H270.6z M270.6,190.9v4.1
		h-1.1v-4.1H270.6z M185.3,147.8l2.3,2.3l-2.3,2.3V147.8z M261.8,147.4l-2.3,2.3l-2.3-2.3H261.8z M255.8,147.4l-2.3,2.3l-2.3-2.3
		H255.8z M249.8,147.4l-2.3,2.3l-2.3-2.3H249.8z M243.9,147.4l-2.3,2.3l-2.3-2.3H243.9z M237.9,147.4l-2.3,2.3l-2.3-2.3H237.9z
		 M232,147.4l-2.3,2.3l-2.3-2.3H232z M226,147.4l-2.3,2.3l-2.3-2.3H226z M220.1,147.4l-2.3,2.3l-2.3-2.3H220.1z M214.1,147.4
		l-2.3,2.3l-2.3-2.3H214.1z M208.1,147.4l-2.3,2.3l-2.3-2.3H208.1z M202.2,147.4l-2.3,2.3l-2.3-2.3H202.2z M196.2,147.4l-2.3,2.3
		l-2.3-2.3H196.2z M190.2,147.4l-2.3,2.3l-2.3-2.3H190.2z M188,150.5l2.3,2.3h-4.5L188,150.5z M188.4,150.1l2.3-2.3v4.5L188.4,150.1
		z M191.2,147.8l2.3,2.3l-2.3,2.3V147.8z M193.9,150.5l2.3,2.3h-4.5L193.9,150.5z M194.4,150.1l2.3-2.3v4.5L194.4,150.1z
		 M197.2,147.8l2.3,2.3l-2.3,2.3V147.8z M199.9,150.5l2.3,2.3h-4.5L199.9,150.5z M200.3,150.1l2.3-2.3v4.5L200.3,150.1z
		 M203.2,147.8l2.3,2.3l-2.3,2.3V147.8z M205.9,150.5l2.3,2.3h-4.5L205.9,150.5z M206.3,150.1l2.3-2.3v4.5L206.3,150.1z
		 M209.1,147.8l2.3,2.3l-2.3,2.3V147.8z M211.8,150.5l2.3,2.3h-4.5L211.8,150.5z M212.2,150.1l2.3-2.3v4.5L212.2,150.1z
		 M215.1,147.8l2.3,2.3l-2.3,2.3V147.8z M217.8,150.5l2.3,2.3h-4.5L217.8,150.5z M218.2,150.1l2.3-2.3v4.5L218.2,150.1z
		 M221.1,147.8l2.3,2.3l-2.3,2.3V147.8z M223.7,150.5l2.3,2.3h-4.6L223.7,150.5z M224.1,150.1l2.3-2.3v4.5L224.1,150.1z M227,147.8
		l2.3,2.3l-2.3,2.3V147.8z M229.7,150.5l2.3,2.3h-4.5L229.7,150.5z M230.1,150.1l2.3-2.3v4.5L230.1,150.1z M233,147.8l2.3,2.3
		l-2.3,2.3V147.8z M235.7,150.5l2.3,2.3h-4.5L235.7,150.5z M236.1,150.1l2.3-2.3v4.5L236.1,150.1z M238.9,147.8l2.3,2.3l-2.3,2.3
		V147.8z M241.6,150.5l2.3,2.3h-4.5L241.6,150.5z M242,150.1l2.3-2.3v4.5L242,150.1z M244.9,147.8l2.3,2.3l-2.3,2.3V147.8z
		 M247.6,150.5l2.3,2.3h-4.5L247.6,150.5z M248,150.1l2.3-2.3v4.5L248,150.1z M250.8,147.8l2.3,2.3l-2.3,2.3V147.8z M253.5,150.5
		l2.3,2.3h-4.5L253.5,150.5z M254,150.1l2.3-2.3v4.5L254,150.1z M256.8,147.8l2.3,2.3l-2.3,2.3V147.8z M259.5,150.5l2.3,2.3h-4.5
		L259.5,150.5z M259.9,150.1l2.3-2.3v4.5L259.9,150.1z M262.8,147.8l2.3,2.3l-2.3,2.3V147.8z M263.2,147.4h4.5l-2.3,2.3L263.2,147.4
		z M265.4,150.5l2.3,2.3h-4.5L265.4,150.5z M265.9,150.1l2.3-2.3v4.5L265.9,150.1z M182.8,195v-4.1h0.8v4.1H182.8z M182.8,190.3
		v-4.1h0.8v4.1H182.8z M182.8,185.6v-4.1h0.8v4.1H182.8z M182.8,180.9v-4.1h0.8v4.1H182.8z M182.8,176.2v-4.1h0.8v4.1H182.8z
		 M182.8,171.5v-4.1h0.8v4.1H182.8z M182.8,166.8v-4.1h0.8v4.1H182.8z M182.8,162.1V158h0.8v4.1H182.8z M182.8,157.4v-4.1h0.8v4.1
		H182.8z M183.6,148.6v4.2h-0.8v-4.2H183.6z M270.6,148.6v4.2h-1.1v-4.2H270.6z"/>
	<path class="st14" d="M168.2,165.7l0.3-0.5l0.5-0.4l-0.5-2h-0.6v-2.3h0.2v-0.1h0.9V156h-1v-1.4v-0.1l-46.3-17.7l0,0h-0.1l-0.2-0.1
		v0.1l-0.1-0.1l-0.1,0.1H121v0.1l-26.4,16.3h-4.5v7.6H91v1.7h4.6V161h1.1v-0.5H99h0.5h4.7h0.5h4.7h0.5h4.7h0.5h2.4v2.2h-2.8v7.5h5.1
		v27.3h2v-0.1h1.6v-27.2h2.6v-7.5h-3.5v-2.2h2.6h0.5h4.8h0.5h4.7h0.5h4.7h0.5h4.7h0.5h4.7h0.5h4.7h0.5h4.7h0.5h4.3v2.3H166l-0.5,2
		l0.5,0.4l0.3,0.5h0.5v0.2c0,0.3,0.2,0.5,0.4,0.6c0.3,0.1,0.5,0.4,0.4,0.7c0,0.4-0.3,0.7-0.7,0.7c-0.2,0-0.4-0.1-0.5-0.2
		s-0.2-0.3-0.2-0.5c0-0.1-0.1-0.1-0.1-0.1l-0.1,0.1c0,0.3,0.1,0.5,0.3,0.7s0.4,0.3,0.7,0.3l0,0c0.5,0,0.9-0.4,0.9-0.9
		c0-0.4-0.2-0.8-0.6-1c-0.1-0.1-0.2-0.2-0.2-0.3v-0.2L168.2,165.7L168.2,165.7z M122.1,196.7v-2.5h1.3v2.5H122.1z M122.1,193.9v-2.5
		h1.3v2.5H122.1z M122.1,190.9v-2.5h1.3v2.5H122.1z M122.1,188.1v-2.5h1.3v2.5H122.1z M122.1,185.1v-2.5h1.3v2.5H122.1L122.1,185.1z
		 M122.1,182.3v-2.5h1.3v2.5H122.1z M122.1,179.4v-2.5h1.3v2.5H122.1z M122.1,176.5V174h1.3v2.5H122.1z M122.1,173.6V171h1.3v2.5
		h-1.3V173.6z M123.4,170.7h-1.3v-0.5h1.3V170.7z M97,157.6l2-2v4L97,157.6z M96.7,157.2v-2h2L96.7,157.2L96.7,157.2z M166,156.1
		v0.2l-0.9,0.9l-2-2h4l-0.9,0.9L166,156.1L166,156.1z M166,157v1.2l-0.6-0.6L166,157z M99.6,155.6l2,2l-2,2V155.6z M99.9,155.2h4
		l-2,2L99.9,155.2z M102,158l2,2h-4L102,158z M102.3,157.6l2-2v4L102.3,157.6z M104.8,155.6l2,2l-2,2V155.6z M105.2,155.2h4l-2,2
		L105.2,155.2z M107.2,158l2,2h-4L107.2,158z M107.6,157.6l2-2v4L107.6,157.6z M110.1,155.6l2,2l-2,2V155.6z M110.5,155.2h4l-2,2
		L110.5,155.2z M112.5,158l2,2h-4L112.5,158z M112.8,157.6l2-2v4L112.8,157.6z M125.9,155.6l2,2l-2,2V155.6z M126.3,155.2h4l-2,2
		L126.3,155.2z M128.3,158l2,2h-4L128.3,158z M128.6,157.6l2-2v4L128.6,157.6z M131.1,155.6l2,2l-2,2V155.6z M131.5,155.2h4l-2,2
		L131.5,155.2z M133.5,158l2,2h-4L133.5,158z M133.9,157.6l2-2v4L133.9,157.6z M136.4,155.6l2,2l-2,2V155.6z M136.8,155.2h4l-2,2
		L136.8,155.2z M138.8,158l2,2h-4L138.8,158z M139.1,157.6l2-2v4L139.1,157.6z M141.7,155.6l2,2l-2,2V155.6z M142,155.2h4l-2,2
		L142,155.2z M144.1,158l2,2h-4L144.1,158z M144.4,157.6l2-2v4L144.4,157.6z M146.9,155.6l2,2l-2,2V155.6z M147.3,155.2h4l-2,2
		L147.3,155.2z M149.3,158l2,2h-4L149.3,158z M149.7,157.6l2-2v4L149.7,157.6z M152.2,155.6l2,2l-2,2V155.6z M152.6,155.2h4l-2,2
		L152.6,155.2z M154.6,158l2,2h-4L154.6,158z M154.9,157.6l2-2v4L154.9,157.6z M157.5,155.6l2,2l-2,2V155.6z M157.8,155.2h4l-2,2
		L157.8,155.2z M159.8,158l2,2h-4L159.8,158z M160.2,157.6l2-2v4L160.2,157.6z M162.7,155.6l2,2l-2,2V155.6z M165.1,158l0.9,0.9v1.1
		h-2.9L165.1,158z M167,156.1l0.5-0.5v0.5H167z M167.8,154.7h-5h-0.5h-4.7H157h-4.7h-0.5H147h-0.5h-4.7h-0.5h-4.7h-0.5h-4.7h-0.6
		h-4.7h-0.5v-1.3H122v-16.3L167.8,154.7z M121,137.2v16.2h-5.7v1.3h-0.5h-4.7h-0.5h-4.7h-0.5h-4.7h-0.5h-2.4v-1.3H95L121,137.2z
		 M96.7,158L96.7,158l2,2h-2V158z M167.2,160.5h0.5v2.3h-0.5V160.5z"/>
	<g>
		<path class="st19" d="M399.7,125.8H399l0.7-0.7v-2l-1.7,1.7v-11l1.7,1.7v-2l-0.7-0.7h0.7v-1.4h-17.4v-3.6h-15.5V63.7l32.9,20.4
			v-0.5l-32.9-20.4v-0.3h-0.5l-0.3-0.2l-0.1,0.2l-0.1-0.2l-0.5,0.2H365V63l-126.3,48.2l0.1,0.2v3.7h-2.5v11.8h2.5v0.3h0.5v6.2h-1.5
			l-1.5,5.5l1.2,1.1l0.8,1.3h1.5v0.5c0,0.4-0.2,0.8-0.6,0.9c-1.1,0.4-1.7,1.5-1.7,2.6c0.1,1.4,1.2,2.5,2.6,2.6h0.1
			c0.7,0,1.4-0.3,1.9-0.8s0.8-1.2,0.8-1.9c0-0.2-0.2-0.4-0.4-0.4s-0.4,0.2-0.4,0.4c0,0.5-0.2,1-0.6,1.4c-0.4,0.4-0.9,0.5-1.4,0.5
			c-1,0-1.8-0.9-1.9-1.9c0-0.8,0.5-1.6,1.2-1.9c0.7-0.3,1.1-0.9,1.1-1.7v-0.5h1.5l0.8-1.3l1.2-1.1l-1.5-5.5h-1.1V127h120.8v5.9h-9.7
			v20.4h7.2v74.3h4.3v0.3h5.4v-74.6h14.1v-20.4h-7.6V127h23.9v-1.4h-0.1V125.8z M240.8,133.4h-1.4v-6.2h1.4V133.4z M240,115.1v-1.3
			l1.3,1.3H240z M241,112.8h11l-5.5,5.5l-2.6-2.6v-0.6h-0.6L241,112.8z M245.5,119.3l-1.6,1.6v-3.2L245.5,119.3z M243.9,125.8v-2.9
			l2.6-2.6l5.5,5.5H243.9z M253,124.8l-5.5-5.5l5.5-5.5V124.8z M259.8,119.3l-5.5,5.5v-11L259.8,119.3z M255.4,112.8h11l-5.5,5.5
			L255.4,112.8z M255.4,125.8l5.5-5.5l5.5,5.5H255.4z M267.3,124.8l-5.5-5.5l5.5-5.5V124.8z M274.2,119.3l-5.5,5.5v-11L274.2,119.3z
			 M269.7,112.8h11l-5.5,5.5L269.7,112.8z M269.7,125.8l5.5-5.5l5.5,5.5H269.7z M281.7,124.8l-5.5-5.5l5.5-5.5V124.8z M288.6,119.3
			l-5.5,5.5v-11L288.6,119.3z M284.1,112.8h11l-5.5,5.5L284.1,112.8z M284.1,125.8l5.5-5.5l5.5,5.5H284.1z M296,124.8l-5.5-5.5
			l5.5-5.5V124.8z M302.9,119.3l-5.5,5.5v-11L302.9,119.3z M298.4,112.8h11l-5.5,5.5L298.4,112.8z M298.4,125.8l5.5-5.5l5.5,5.5
			H298.4z M310.4,124.8l-5.5-5.5l5.5-5.5V124.8z M317.3,119.3l-5.5,5.5v-11L317.3,119.3z M312.8,112.8h11l-5.5,5.5L312.8,112.8z
			 M312.8,125.8l5.5-5.5l5.5,5.5H312.8z M324.8,124.8l-5.5-5.5l5.5-5.5V124.8z M331.6,119.3l-5.5,5.5v-11L331.6,119.3z M327.2,112.8
			h11l-5.5,5.5L327.2,112.8z M327.2,125.8l5.5-5.5l5.5,5.5H327.2z M339.1,124.8l-5.5-5.5l5.5-5.5V124.8z M346,119.3l-5.5,5.5v-11
			L346,119.3z M341.5,112.8h11l-5.5,5.5L341.5,112.8z M341.5,125.8l5.5-5.5l5.5,5.5H341.5z M353.5,124.8l-5.5-5.5l5.5-5.5V124.8z
			 M363.9,226.1h-3.6v-6.9h3.6V226.1z M363.9,218.2h-3.6v-6.9h3.6V218.2z M363.9,210.3h-3.6v-6.9h3.6V210.3z M363.9,202.4h-3.6v-6.9
			h3.6V202.4z M363.9,194.5h-3.6v-6.9h3.6V194.5z M363.9,186.6h-3.6v-6.9h3.6V186.6z M363.9,178.7h-3.6v-6.9h3.6V178.7z
			 M363.9,170.8h-3.6v-6.9h3.6V170.8z M363.9,162.9h-3.6V156h3.6V162.9z M363.9,155h-3.6v-1.4h3.6V155z M364.8,107.8h-9.9v3.6H239.2
			l125.6-47.9V107.8z M395.6,112.8l-5.5,5.5l-5.5-5.5H395.6z M383.6,113.8l5.5,5.5l-5.5,5.5V113.8z M384.6,125.8l5.5-5.5l5.5,5.5
			H384.6z M396.6,124.8l-5.5-5.5l5.5-5.5V124.8z M385,254.3h-34.5v-28.6H385V254.3z M356,280.5h-5.4v-28.6h5.4V280.5z M370.3,280.5
			h-5.4v-28.6h5.4V280.5z M384.5,280.5h-5.4v-28.6h5.4V280.5z"/>
	</g>
	<g>
		<g>
			<g>
				<path class="st20" d="M99.1,237.8c-33.1-0.1-66.2-0.1-99.3,0c0-11.8,0-23.6,0-35.4c32.3-12.3,67-12.3,99.3,0
					C99.1,214.2,99.1,226,99.1,237.8z"/>
				<g>
					<path class="st18" d="M99.1,240.1c-33.1-0.1-66.2-0.1-99.3,0c0-11.8,0-23.6,0-35.4c32.3-12.3,67-12.3,99.3,0
						C99.1,216.5,99.1,228.3,99.1,240.1z"/>
					<path class="st12" d="M99.3,240.3L99.3,240.3c-16.6,0-33.3,0-49.8,0s-33.2,0-49.7,0h-0.1v-35.7h0.1c16.1-6.1,32.8-9.2,49.7-9.2
						s33.6,3.1,49.7,9.2h0.1V240.3z M49.5,239.9c16.4,0,33.1,0,49.5,0v-35.2c-16.1-6.1-32.7-9.1-49.5-9.1S16,198.7,0,204.7V240
						C16.4,240,33,239.9,49.5,239.9z"/>
				</g>
				<path class="st21" d="M99.1,239c-33.1-0.1-66.2-0.1-99.3,0c0-11.8,0-23.6,0-35.4c32.3-12.3,67-12.3,99.3,0
					C99.1,215.3,99.1,227.1,99.1,239z"/>
				<g>
					<path class="st20" d="M2.2,240.1c-0.3,0-0.5,0-0.8,0c0-12,0-24-0.1-36c0.3-0.1,0.5-0.2,0.8-0.3C2.1,215.9,2.2,228,2.2,240.1z"
						/>
					<path class="st20" d="M10.1,240.1c-0.3,0-0.5,0-0.8,0c-0.1-12.9-0.2-25.8-0.3-38.7c0.3-0.1,0.5-0.1,0.8-0.3
						C10,214.2,10,227.1,10.1,240.1z"/>
					<path class="st20" d="M18.1,240.1c-0.3,0-0.5,0-0.8,0c-0.1-13.6-0.2-27.2-0.3-40.9c0.3-0.1,0.5-0.1,0.8-0.2
						C17.8,212.7,18,226.4,18.1,240.1z"/>
					<path class="st20" d="M26,240.1c-0.3,0-0.5,0-0.8,0c-0.1-14.2-0.2-28.4-0.3-42.6c0.3-0.1,0.5-0.1,0.8-0.1
						C25.8,211.6,25.9,225.8,26,240.1z"/>
					<path class="st20" d="M34,240.1c-0.3,0-0.5,0-0.8,0c-0.1-14.6-0.2-29.2-0.3-43.8c0.3,0,0.5-0.1,0.8-0.1
						C33.8,210.8,33.9,225.4,34,240.1z"/>
					<path class="st20" d="M41.9,240.1c-0.3,0-0.5,0-0.8,0C41,225.2,41,210.4,41,195.5c0.3,0,0.5,0,0.8-0.1
						C41.8,210.4,41.9,225.2,41.9,240.1z"/>
					<path class="st20" d="M49.9,240.1c-0.3,0-0.5,0-0.8,0c0-14.9,0-29.9,0-44.8c0.3,0,0.5,0,0.8,0
						C49.9,210.2,49.9,225.1,49.9,240.1z"/>
					<path class="st20" d="M57.8,240.1c-0.3,0-0.5,0-0.8,0c0.1-14.9,0.1-29.7,0.1-44.6c0.3,0,0.5,0,0.8,0.1
						C57.9,210.4,57.9,225.2,57.8,240.1z"/>
					<path class="st20" d="M65.7,240.1c-0.3,0-0.5,0-0.8,0c0.1-14.6,0.2-29.3,0.3-43.9c0.3,0,0.5,0.1,0.8,0.1
						C65.9,210.9,65.8,225.5,65.7,240.1z"/>
					<path class="st20" d="M73.7,240.1c-0.3,0-0.5,0-0.8,0c0.1-14.3,0.2-28.5,0.3-42.7c0.3,0.1,0.5,0.1,0.8,0.1
						C73.9,211.7,73.8,225.9,73.7,240.1z"/>
					<path class="st20" d="M81.6,240.1c-0.3,0-0.5,0-0.8,0c0.1-13.7,0.2-27.4,0.3-41.1c0.3,0.1,0.5,0.1,0.8,0.2
						C81.8,212.8,81.7,226.5,81.6,240.1z"/>
					<path class="st20" d="M89.6,240.1c-0.3,0-0.5,0-0.8,0c0.1-13,0.2-26,0.3-38.9c0.3,0.1,0.5,0.1,0.8,0.3
						C89.7,214.3,89.6,227.2,89.6,240.1z"/>
					<path class="st20" d="M97.5,240.1c-0.3,0-0.5,0-0.8,0c0-12.1,0.1-24.2,0.1-36.3c0.3,0.1,0.5,0.2,0.8,0.3
						C97.6,216.1,97.5,228.1,97.5,240.1z"/>
				</g>
			</g>
		</g>
		<g>
			<g>
				<path class="st20" d="M212.6,237.8c-33.1-0.1-66.2-0.1-99.3,0c0-11.8,0-23.6,0-35.4c32.3-12.3,67-12.3,99.3,0
					C212.6,214.2,212.6,226,212.6,237.8z"/>
				<g>
					<path class="st18" d="M212.6,240.1c-33.1-0.1-66.2-0.1-99.3,0c0-11.8,0-23.6,0-35.4c32.3-12.3,67-12.3,99.3,0
						C212.6,216.5,212.6,228.3,212.6,240.1z"/>
					<path class="st12" d="M212.8,240.3h-0.1c-16.5,0-33.2,0-49.7,0s-33.2,0-49.7,0h-0.1v-35.7h0.1c16.1-6.1,32.8-9.2,49.7-9.2
						s33.6,3.1,49.7,9.2h0.1V240.3z M113.4,204.8V240c16.4,0,33.1,0,49.5,0s33.1,0,49.5,0v-35.2c-16.1-6.1-32.7-9.1-49.5-9.1
						S129.5,198.7,113.4,204.8z"/>
				</g>
				<path class="st21" d="M212.6,239c-33.1-0.1-66.2-0.1-99.3,0c0-11.8,0-23.6,0-35.4c32.3-12.3,67-12.3,99.3,0
					C212.6,215.3,212.6,227.1,212.6,239z"/>
				<g>
					<path class="st20" d="M115.7,240.1c-0.3,0-0.5,0-0.8,0c0-12,0-24-0.1-36c0.3-0.1,0.5-0.2,0.8-0.3
						C115.7,215.9,115.7,228,115.7,240.1z"/>
					<path class="st20" d="M123.7,240.1c-0.3,0-0.5,0-0.8,0c-0.1-12.9-0.2-25.8-0.3-38.7c0.3-0.1,0.5-0.1,0.8-0.3
						C123.5,214.2,123.6,227.1,123.7,240.1z"/>
					<path class="st20" d="M131.6,240.1c-0.3,0-0.5,0-0.8,0c-0.1-13.6-0.2-27.2-0.3-40.9c0.3-0.1,0.5-0.1,0.8-0.2
						C131.4,212.7,131.5,226.4,131.6,240.1z"/>
					<path class="st20" d="M139.5,240.1c-0.3,0-0.5,0-0.8,0c-0.1-14.2-0.2-28.4-0.3-42.6c0.3-0.1,0.5-0.1,0.8-0.1
						C139.3,211.6,139.4,225.8,139.5,240.1z"/>
					<path class="st20" d="M147.5,240.1c-0.3,0-0.5,0-0.8,0c-0.1-14.6-0.2-29.2-0.3-43.8c0.3,0,0.5-0.1,0.8-0.1
						C147.3,210.8,147.4,225.4,147.5,240.1z"/>
					<path class="st20" d="M155.4,240.1c-0.3,0-0.5,0-0.8,0c-0.1-14.9-0.1-29.7-0.1-44.6c0.3,0,0.5,0,0.8-0.1
						C155.3,210.4,155.4,225.2,155.4,240.1z"/>
					<path class="st20" d="M163.4,240.1c-0.3,0-0.5,0-0.8,0c0-14.9,0-29.9,0-44.8c0.3,0,0.5,0,0.8,0
						C163.4,210.2,163.4,225.1,163.4,240.1z"/>
					<path class="st20" d="M171.3,240.1c-0.3,0-0.5,0-0.8,0c0.1-14.9,0.1-29.7,0.1-44.6c0.3,0,0.5,0,0.8,0.1
						C171.4,210.4,171.4,225.2,171.3,240.1z"/>
					<path class="st20" d="M179.3,240.1c-0.3,0-0.5,0-0.8,0c0.1-14.6,0.2-29.3,0.3-43.9c0.3,0,0.5,0.1,0.8,0.1
						C179.4,210.9,179.4,225.5,179.3,240.1z"/>
					<path class="st20" d="M187.2,240.1c-0.3,0-0.5,0-0.8,0c0.1-14.3,0.2-28.5,0.3-42.7c0.3,0.1,0.5,0.1,0.8,0.1
						C187.4,211.7,187.3,225.9,187.2,240.1z"/>
					<path class="st20" d="M195.2,240.1c-0.3,0-0.5,0-0.8,0c0.1-13.7,0.2-27.4,0.3-41.1c0.3,0.1,0.5,0.1,0.8,0.2
						C195.4,212.8,195.3,226.5,195.2,240.1z"/>
					<path class="st20" d="M203.1,240.1c-0.3,0-0.5,0-0.8,0c0.1-13,0.2-26,0.3-38.9c0.3,0.1,0.5,0.1,0.8,0.3
						C203.3,214.3,203.2,227.2,203.1,240.1z"/>
					<path class="st20" d="M211,240.1c-0.3,0-0.5,0-0.8,0c0-12.1,0.1-24.2,0.1-36.3c0.3,0.1,0.5,0.2,0.8,0.3
						C211.1,216.1,211.1,228.1,211,240.1z"/>
				</g>
			</g>
		</g>
	</g>
	<g>
		<path class="st14" d="M263.9,161.5v-5.1h-1.4v5.1h-18v-7.1h-0.9v7.1h-2.5v-2.7H238v2.7h-3.6v-2.2h-1.8v2.2H228v5.1h3.1v17.8h34.6
			v-17.8h3v-5.1H263.9z M235.9,172.1c0,0.4-0.3,0.7-0.7,0.7h-1.1c-0.4,0-0.7-0.3-0.7-0.7v-2.8c0-0.4,0.3-0.7,0.7-0.7h1.1
			c0.4,0,0.7,0.3,0.7,0.7V172.1z M239.6,172.1c0,0.4-0.3,0.7-0.7,0.7h-1.1c-0.4,0-0.7-0.3-0.7-0.7v-2.8c0-0.4,0.3-0.7,0.7-0.7h1.1
			c0.4,0,0.7,0.3,0.7,0.7V172.1L239.6,172.1z M243.2,172.1c0,0.4-0.3,0.7-0.7,0.7h-1.1c-0.4,0-0.7-0.3-0.7-0.7v-2.8
			c0-0.4,0.3-0.7,0.7-0.7h1.1c0.4,0,0.7,0.3,0.7,0.7V172.1z M246.9,172.1c0,0.4-0.3,0.7-0.7,0.7H245c-0.4,0-0.7-0.3-0.7-0.7v-2.8
			c0-0.4,0.3-0.7,0.7-0.7h1.1c0.4,0,0.7,0.3,0.7,0.7L246.9,172.1L246.9,172.1z M252.4,172.1c0,0.4-0.3,0.7-0.7,0.7h-1.1
			c-0.4,0-0.7-0.3-0.7-0.7v-2.8c0-0.4,0.3-0.7,0.7-0.7h1.1c0.4,0,0.7,0.3,0.7,0.7V172.1L252.4,172.1z M256.1,172.1
			c0,0.4-0.3,0.7-0.7,0.7h-1.1c-0.4,0-0.7-0.3-0.7-0.7v-2.8c0-0.4,0.3-0.7,0.7-0.7h1.1c0.4,0,0.7,0.3,0.7,0.7V172.1z M259.7,172.1
			c0,0.4-0.3,0.7-0.7,0.7h-1.1c-0.4,0-0.7-0.3-0.7-0.7v-2.8c0-0.4,0.3-0.7,0.7-0.7h1.1c0.4,0,0.7,0.3,0.7,0.7V172.1z M263.4,172.1
			c0,0.4-0.3,0.7-0.7,0.7h-1.1c-0.4,0-0.7-0.3-0.7-0.7v-2.8c0-0.4,0.3-0.7,0.7-0.7h1.1c0.4,0,0.7,0.3,0.7,0.7V172.1z"/>
		<g>
			<g>
				<path class="st9" d="M221.3,188.9c0,0,11.5-10.5,28.4-11V240H234c0,0-5.7-3.9-3.5-7.3c2.2-3.5,3.5-5.9,1.6-10.3
					C230.4,218,221.9,205.6,221.3,188.9z"/>
				<path class="st11" d="M276.7,188.9c0,0-11.5-10.5-28.4-11V240H264c0,0,5.7-3.9,3.5-7.3c-2.2-3.5-3.5-5.9-1.6-10.3
					C267.6,218,276.1,205.6,276.7,188.9z"/>
			</g>
			<g>
				<g>
					<rect x="234.1" y="240.1" class="st21" width="2.5" height="3"/>
					<rect x="238.5" y="240.1" class="st21" width="2.5" height="3"/>
				</g>
				<g>
					<rect x="255.6" y="240.1" class="st21" width="2.5" height="3"/>
					<rect x="260" y="240.1" class="st21" width="2.5" height="3"/>
				</g>
			</g>
			
				<ellipse transform="matrix(0.2276 -0.9738 0.9738 0.2276 8.249 406.872)" class="st17" cx="260.6" cy="198.2" rx="4.5" ry="1.9"/>
			
				<ellipse transform="matrix(0.2276 -0.9738 0.9738 0.2276 10.0105 413.6492)" class="st17" cx="265.7" cy="200.5" rx="3.7" ry="1.6"/>
		</g>
	</g>
	<rect x="179.5" y="257.3" class="st21" width="8" height="0.8"/>
	<rect x="194.4" y="257.3" class="st21" width="8" height="0.8"/>
	<rect x="209.2" y="257.3" class="st21" width="8" height="0.8"/>
	<rect x="224" y="257.3" class="st21" width="8" height="0.8"/>
	<rect x="238.8" y="257.3" class="st21" width="8" height="0.8"/>
	<rect x="253.6" y="257.3" class="st21" width="8" height="0.8"/>
	<rect x="268.4" y="257.3" class="st21" width="8" height="0.8"/>
	<rect x="283.3" y="257.3" class="st21" width="8" height="0.8"/>
	<rect x="298.1" y="257.3" class="st21" width="8" height="0.8"/>
	<rect x="312.9" y="257.3" class="st21" width="8" height="0.8"/>
	<rect x="327.7" y="257.3" class="st21" width="8" height="0.8"/>
	<rect x="342.6" y="257.3" class="st21" width="8" height="0.8"/>
	<rect x="357.4" y="257.3" class="st21" width="8" height="0.8"/>
	<rect x="372.2" y="257.3" class="st21" width="8" height="0.8"/>
	<rect x="387" y="257.3" class="st21" width="8" height="0.8"/>
	<g>
		<path class="st15" d="M185.8,265.3h-169c-1,0-1.7-0.8-1.7-1.7l0,0c0-1,0.8-1.7,1.7-1.7h169.1c1,0,1.7,0.8,1.7,1.7l0,0
			C187.5,264.5,186.8,265.3,185.8,265.3z"/>
		<g>
			<rect x="15" y="219.2" class="st22" width="120.3" height="27.3"/>
			<rect x="15" y="246.5" class="st19" width="120.3" height="5.5"/>
			<rect x="13.1" y="252" class="st18" width="142.2" height="1.5"/>
			<polygon class="st23" points="171.5,256 150,256 150,227.8 166.8,227.8 171.5,241.9 			"/>
			<rect x="73.2" y="252" class="st18" width="10.8" height="4"/>
			<rect x="86.7" y="252.6" class="st18" width="14.3" height="3.4"/>
			<rect x="104.2" y="250.9" class="st18" width="29.9" height="5.1"/>
			<rect x="137.3" y="253.5" class="st18" width="3.7" height="4.6"/>
			<rect x="142" y="253.5" class="st18" width="3.7" height="4.6"/>
			<rect x="139.2" y="250.9" class="st18" width="13.5" height="1.8"/>
			<rect x="148.3" y="223.2" class="st18" width="0.7" height="29"/>
			<path class="st23" d="M172.7,256h-4v-15.3h2.9c0.6,0,1.1,0.5,1.1,1.1V256z"/>
			<rect x="171.8" y="250.1" class="st23" width="2" height="5.6"/>
			<rect x="171.5" y="247.5" class="st23" width="2.3" height="0.9"/>
			<path class="st23" d="M169.3,229.3h-10.5v-1h11v0.5C169.9,229,169.6,229.3,169.3,229.3z"/>
			<rect x="166.5" y="228.8" class="st23" width="2.2" height="5.4"/>
			<rect x="174.9" y="227.2" class="st18" width="0.1" height="0.1"/>
			<g>
				<g>
					<polygon class="st18" points="34.2,258.6 19.8,258.6 22.6,252.2 31.4,252.2 					"/>
				</g>
				<g>
					<ellipse class="st19" cx="27.3" cy="258.6" rx="5.4" ry="5.4"/>
					<circle class="st20" cx="27.3" cy="258.6" r="3.2"/>
				</g>
			</g>
			<g>
				<g>
					<polygon class="st18" points="48.6,258.6 34.2,258.6 37,252.2 45.8,252.2 					"/>
				</g>
				<g>
					<ellipse class="st19" cx="41.7" cy="258.6" rx="5.4" ry="5.4"/>
					<circle class="st20" cx="41.7" cy="258.6" r="3.2"/>
				</g>
			</g>
			<g>
				<g>
					<polygon class="st18" points="63.1,258.6 48.6,258.6 51.5,252.2 60.2,252.2 					"/>
				</g>
				<g>
					<ellipse class="st19" cx="56.1" cy="258.6" rx="5.4" ry="5.4"/>
					<circle class="st20" cx="56.1" cy="258.6" r="3.2"/>
				</g>
			</g>
			<g>
				<g>
					<polygon class="st18" points="130.4,258.6 116,258.6 118.8,252.2 127.6,252.2 					"/>
				</g>
				<g>
					<ellipse class="st19" cx="123.5" cy="258.6" rx="5.4" ry="5.4"/>
					<circle class="st20" cx="123.5" cy="258.6" r="3.2"/>
				</g>
			</g>
			<g>
				<g>
					<polygon class="st18" points="163.4,258.6 149,258.6 151.8,252.2 160.6,252.2 					"/>
				</g>
				<g>
					<ellipse class="st19" cx="156.5" cy="258.6" rx="5.4" ry="5.4"/>
					<circle class="st20" cx="156.5" cy="258.6" r="3.2"/>
				</g>
			</g>
			<path class="st19" d="M154.1,240.7h-1.3c-0.4,0-0.7-0.3-0.7-0.7v-9c0-0.4,0.3-0.7,0.7-0.7h1.3c0.4,0,0.7,0.3,0.7,0.7v8.9
				C154.8,240.4,154.5,240.7,154.1,240.7z"/>
			<path class="st19" d="M157.5,240.7h-1.3c-0.4,0-0.7-0.3-0.7-0.7v-9c0-0.4,0.3-0.7,0.7-0.7h1.3c0.4,0,0.7,0.3,0.7,0.7v8.9
				C158.2,240.4,157.9,240.7,157.5,240.7z"/>
			<path class="st19" d="M168.5,240.7h-8.3c-0.5,0-0.9-0.4-0.9-0.9v-8.5c0-0.5,0.4-0.9,0.9-0.9h5.3c0.4,0,0.7,0.3,0.9,0.6l3,8.5
				C169.6,240.1,169.2,240.7,168.5,240.7z"/>
		</g>
		<g>
			<rect x="15" y="224.5" class="st24" width="120.3" height="0.4"/>
		</g>
		<g>
			<rect x="15" y="226.8" class="st24" width="120.3" height="0.4"/>
		</g>
		<g>
			<rect x="15" y="229.1" class="st24" width="120.3" height="0.4"/>
		</g>
		<g>
			<rect x="15" y="231.4" class="st24" width="120.3" height="0.4"/>
		</g>
		<g>
			<rect x="15" y="233.7" class="st24" width="120.3" height="0.4"/>
		</g>
		<g>
			<rect x="15" y="239.1" class="st24" width="120.3" height="0.4"/>
		</g>
		<g>
			<rect x="15" y="241" class="st24" width="120.3" height="0.4"/>
		</g>
	</g>
</g>
<g>
	<g id="economy_graph">
		
			<image style="overflow:visible;opacity:0.5;enable-background:new    ;" width="1067" height="678" xlink:href="30C06E495F0E19D2.png"  transform="matrix(0.356 0 0 0.356 6.7488 22.15)">
		</image>
		<path class="st25" d="M381.4,50.9c-2-8.3-4-16.6-6.1-24.9c-0.4-1.6-2.7-3-4.5-2.6l-26.5,4.4c-1.9,0.3-3,2.7-2.5,4.4
			c0.6,2,2.5,2.8,4.4,2.5l17.7-3l-12,16.8l-26.6,37.2l-4.1,5.7l-27.9-16.7l-4.4-2.6c-1.6-0.9-4-0.4-4.9,1.3l-16.3,32.8
			c-8.6,17.3-17.1,34.6-25.7,51.8l-3.8,7.6l-30.2-30.4l-4.8-4.9c-1-1-3.1-1.5-4.3-0.6l-35,26.4l-2.4,1.8l-18.2-23.9l-2.9-3.9
			c-1.3-1.7-3.9-2.6-5.6-0.7l-15.7,17.5c-8.4,9.4-16.8,18.7-25.2,28.1l-2.9,3.3l-16.7-23.5l-2.8-3.9c-1.5-2.1-4.8-2.5-6.1,0
			l-18.4,33.7l-29.1,53.3c-2.2,4.1-4.4,8.1-6.7,12.2c-2.2,4,3.9,7.6,6.1,3.6l18.4-33.7l29.1-53.3l4-7.3l16,22.5
			c0.9,1.3,1.9,2.6,2.8,3.9c1.2,1.8,3.9,2.6,5.6,0.7l15.7-17.5c8.4-9.4,16.8-18.7,25.2-28.1l3-3.4l17.7,23.3l2.9,3.9
			c1.1,1.4,3.2,2.5,4.9,1.3l35-26.4l2.8-2.1l31.5,31.7l4.8,4.9c1.5,1.5,4.6,1.4,5.6-0.7c5.4-10.9,10.8-21.9,16.3-32.8l25.7-51.8
			c1.4-2.9,2.8-5.8,4.3-8.6l27.4,16.4l4.4,2.6c1.8,1.1,3.8,0.3,4.9-1.3l16.8-23.5l26.6-37.2l1.6-2.2l4.3,17.8
			C375.7,57.3,382.5,55.4,381.4,50.9z"/>
	</g>
</g>
</svg>
