<?xml version="1.0" encoding="utf-8"?>
<!-- Generator: Adobe Illustrator 25.2.1, SVG Export Plug-In . SVG Version: 6.00 Build 0)  -->
<svg version="1.1" id="Layer_1" xmlns="http://www.w3.org/2000/svg" xmlns:xlink="http://www.w3.org/1999/xlink" x="0px" y="0px"
	 viewBox="0 0 300 400" style="enable-background:new 0 0 300 400;" xml:space="preserve">
<style type="text/css">
	.st0{fill:#F6F6F6;}
</style>
<g>
	<path class="st0" d="M54.33,150.96c-3.94-1.75-7.9-3.45-11.81-5.28c-2.15-1.01-4.96-1.72-6.14-3.47c-2.26-3.33,0.63-7.22,5.03-7.37
		c7.49-0.26,13.32,3.51,19.49,8.46c0-3.58-0.92-6.97,0.17-9.52c3.35-7.85,2.48-15.92,2.99-24.04c0.65-10.23,7.04-17.24,16.42-21.56
		c1.55-0.71,3.1-2.75,3.47-4.44c1.92-8.55,6.51-14.74,14.45-18.62c1.87-0.91,3.72-2.73,4.62-4.6c4.51-9.38,14.23-13.74,24.17-10.84
		c2.19,0.64,4.88,0.63,7.06-0.02c9.04-2.66,17.86,1.24,22.24,9.66c1.23,2.37,3.6,4.67,6.02,5.81c6.49,3.08,11.12,7.55,14.08,14.13
		c1.14,2.53,3.18,5.03,5.45,6.62c6.41,4.49,10.38,10.56,13.16,18.96c1.33-2.6,2.1-4.31,3.05-5.92c7.65-13.03,14.7-26.49,23.32-38.85
		c3.64-5.23,10.17-9.1,16.18-11.87c9.62-4.44,20.2-0.49,26.33,8.25c5.57,7.94,7.77,16.69,7.43,26.37
		c-1.14,32.51-7.13,64.16-16.26,95.29c-0.28,0.95-0.5,1.91-0.82,3.14c5.84,2.32,6.15,7.01,5.76,12.37
		c-3.13,43.38-6.14,86.77-9.16,130.15c-1.14,16.39-12.66,28.24-29.01,29.71c-1.49,0.13-3,0.18-4.49,0.18
		c-48.86,0.01-97.72,0.04-146.57-0.01c-19.21-0.02-31.29-10.81-33.51-29.91c-0.63-5.46-0.83-10.96-1.21-16.45
		c-2.52-36.57-5.1-73.14-7.47-109.72c-0.45-6.9-0.28-13.87,0.02-20.79c0.41-9.58,6.43-15.38,14.35-19.52
		c3.37-1.76,7.01-3.03,10.52-4.53C53.87,152.12,54.1,151.54,54.33,150.96z M249.06,194.77c-3.78,1.65-6.77,2.69-9.5,4.19
		c-11.95,6.53-23.5,6.05-34.99-1.25c-6.1-3.87-12.4-3.28-18.43,0.48c-11.63,7.24-23.19,7.29-34.8-0.05
		c-6.41-4.05-12.87-3.88-19.34,0.05c-11.58,7.04-23.14,7.56-34.78-0.03c-6.15-4.01-12.43-3.79-18.94-0.31
		c-3.61,1.93-7.58,3.44-11.56,4.37c-9.59,2.23-18.36-0.48-27.26-6.25c0.29,4.8,0.51,8.71,0.77,12.62
		c0.94,13.8,1.88,27.59,2.85,41.39c1.69,24.27,3.27,48.55,5.15,72.8c0.98,12.59,9.21,20.02,21.77,20.03
		c49.52,0.05,99.05,0.05,148.57,0c12.82-0.01,20.78-7.8,21.67-20.57c2.18-31.42,4.46-62.83,6.67-94.24
		C247.66,217.22,248.31,206.44,249.06,194.77z M170.48,191.76c0.5,0.37,1,0.74,1.5,1.11c2.66-1.29,5.39-2.47,7.98-3.89
		c7.27-3.99,14.92-6.04,23.04-3.58c4.09,1.24,7.91,3.43,11.78,5.34c10.99,5.41,25.68-0.94,29.17-12.56
		c9.38-31.22,15.53-62.99,16.78-95.65c0.26-6.7-0.9-12.92-4.63-18.54c-5.03-7.55-11.25-8.89-18.8-3.99
		c-7.78,5.06-13.19,12.37-17.2,20.43c-12.62,25.31-25.16,50.67-36.98,76.35C177.95,168.02,174.63,180.08,170.48,191.76z
		 M129.12,63.47c-2.48-2.28-6.38-5.57-12.01-2.91c-5.56,2.62-4.69,8.22-5.69,13.09c-5.87,0.22-11.99,0.97-14.23,6.68
		c-1.93,4.9-1.75,10.63-2.57,16.45c0.08-0.01-0.73,0.1-1.54,0.16c-16.09,1.15-22.1,11.21-15.82,26.1c0.52,1.23-0.31,3.71-1.35,4.8
		c-3.31,3.47-5.26,7.05-3.33,12.55c16.2-10.44,28.22-3.31,38.61,9.07c1.7-4.85,2.81-9.43,4.89-13.52c2.15-4.24,5.23-8.01,8.06-12.22
		c-1.18-1.01-2.09-1.96-3.15-2.68c-5.6-3.8-6.83-9.41-5.7-15.44c1.05-5.56,5.4-7.97,10.72-9.05c9.14-1.86,18.27-3.79,27.34-5.98
		c5.57-1.34,10.91-1.5,14.53,3.48c3.74,5.14,4.69,10.85,1.26,16.89c-0.63,1.1-0.07,3.99,0.92,4.71c3.59,2.61,7.59,4.66,11.42,6.91
		c7.14-10.92,3.19-23.66-9.26-29.49c-2.87-1.35-4.16-2.81-4.75-6c-1.59-8.58-6.87-12.74-15.67-13.17c-1.45-0.07-2.9-0.19-4.78-0.31
		c0.37-5.17,1.91-11.42-4.23-13.03C139.24,59.63,134.77,62.14,129.12,63.47z M112.18,193.1c4.9-19.03-7.18-36.69-17.14-44.24
		c-4.88-3.7-9.98-3.12-14.99-0.35c-2.17,1.2-4.34,2.58-6.13,4.28c-6.03,5.77-13.14,9.41-21,12.07c-3.68,1.24-7.23,3.45-10.22,5.96
		c-3.68,3.09-4.57,10.95-2.15,13.21c9.05,8.44,20.82,10.32,31.85,4.52c11.06-5.82,21.64-5.32,32.22,1.06
		C106.84,190.95,109.36,191.82,112.18,193.1z M133.29,170.85c0.05,0.52,0.1,1.05,0.16,1.57c5.38-1.93,10.92-3.52,16.09-5.9
		c4.36-2.01,7.99-6.1,12.46-7.23c9.32-2.36,12.3-9.28,15.51-16.94c1.91-4.57,1.26-7.6-2.36-10.33c-2.51-1.9-5.19-3.58-7.82-5.33
		c-2.21-1.47-5.55-2.39-6.48-4.43c-3.29-7.19-8.48-5-13.72-3.69c-2.58,0.65-5.16,1.47-7.79,1.75c-3.41,0.36-4.79,1.72-4.83,5.35
		c-0.02,2.13-1.19,4.71-2.69,6.27c-9.28,9.65-10.04,20.66-6.61,32.95C126.48,169.46,127.71,172.37,133.29,170.85z M130.2,186.34
		c12.94-3.15,12.94-3.15,29.83,3.46c2.06-6.56,4.1-13.09,6.14-19.62c-11.56,6.78-22.56,13.62-36.79,11.68
		C129.74,183.82,129.94,184.9,130.2,186.34z M128.82,111.61c10.05-2.27,19.48-4.33,28.85-6.61c0.85-0.21,1.37-1.81,2.04-2.77
		c-0.98-0.44-2.07-1.42-2.92-1.24c-9.45,1.94-18.87,4-28.26,6.22c-0.95,0.22-1.59,1.71-2.38,2.6
		C127.13,110.48,128.11,111.14,128.82,111.61z"/>
	<path class="st0" d="M90.52,322.12c-9.15,0-18.29-0.03-27.44,0.01c-3.85,0.02-7.44-0.84-7.57-5.29c-0.14-4.54,3.39-5.51,7.28-5.5
		c18.46,0.03,36.92,0.02,55.38,0c3.87-0.01,7.41,0.88,7.31,5.47c-0.1,4.51-3.68,5.34-7.52,5.33
		C108.82,322.1,99.67,322.12,90.52,322.12z"/>
	<path class="st0" d="M84.85,300.57c-7.31,0-14.63-0.01-21.94,0c-3.88,0.01-7.37-1.08-7.4-5.52c-0.02-4.54,3.5-5.35,7.4-5.34
		c14.79,0.07,29.59,0.07,44.38,0c3.89-0.02,7.39,0.75,7.37,5.34c-0.02,4.49-3.5,5.52-7.37,5.51
		C99.81,300.56,92.33,300.57,84.85,300.57z"/>
	<path class="st0" d="M79.52,268.06c6,0,11.99,0,17.99,0c3.7,0,6.34,1.62,6.33,5.47c-0.01,3.59-2.62,5.3-6.02,5.32
		c-12.16,0.08-24.32,0.1-36.47-0.02c-3.39-0.03-5.95-1.89-5.87-5.48c0.08-3.53,2.56-5.25,6.06-5.27
		C67.52,268.04,73.52,268.06,79.52,268.06z"/>
	<path class="st0" d="M147.26,311.49c1.98,0,4.27-0.63,5.87,0.16c1.93,0.95,4.66,3.21,4.53,4.7c-0.17,1.98-2.47,4.9-4.36,5.36
		c-3.59,0.88-7.55,0.5-11.34,0.28c-3.18-0.19-5.28-1.98-5.17-5.44c0.11-3.47,2.3-4.93,5.5-5.12c1.65-0.1,3.31-0.02,4.96-0.02
		C147.26,311.43,147.26,311.46,147.26,311.49z"/>
	<path class="st0" d="M230.28,137.12c-0.45-0.05-1.66,0.01-2.75-0.33c-6.88-2.12-12.24-0.92-16.1,5.89
		c-0.87,1.54-4.61,2.64-6.55,2.13c-3.16-0.84-3.57-3.9-2.5-7c2.95-8.53,12.64-14.48,21.94-12.53c7.14,1.5,12.64,1.03,16.37-6.29
		c0.73-1.44,5.08-2.51,6.6-1.66c1.58,0.87,2.8,4.53,2.34,6.55C247.94,131.26,239.36,137.01,230.28,137.12z"/>
	<path class="st0" d="M209.67,162.71c0.37,0.04,1.77-0.06,3.01,0.33c6.74,2.13,11.5,0.24,15.06-6.08c0.87-1.55,4.66-2.66,6.62-2.14
		c3.05,0.82,3.73,3.79,2.59,6.99c-3.12,8.75-13.11,14.76-22.49,12.6c-6.86-1.57-12.08-0.86-15.56,5.94
		c-1.52,2.96-4.78,3.93-7.17,1.92c-1.53-1.29-2.47-4.78-1.91-6.79C191.99,167.74,200,162.65,209.67,162.71z"/>
	<path class="st0" d="M232.76,88.9c0.96,0.17,2.77,0.44,4.56,0.8c3.88,0.77,6.89-0.29,8.79-3.94c1.79-3.43,4.48-5.25,8.13-3.02
		c3.7,2.25,2.86,5.55,1.12,8.76c-3.65,6.69-10.92,10.56-18.48,8.99c-5.54-1.15-9.57-0.5-12.82,4.72c-0.93,1.5-5.19,2.57-6.58,1.7
		c-1.57-0.98-2.63-4.6-2.17-6.68C216.77,93.77,224.52,88.83,232.76,88.9z"/>
</g>
</svg>
