<?xml version="1.0" encoding="utf-8"?>
<!-- Generator: Adobe Illustrator 25.2.1, SVG Export Plug-In . SVG Version: 6.00 Build 0)  -->
<svg version="1.1" id="Layer_1" xmlns="http://www.w3.org/2000/svg" xmlns:xlink="http://www.w3.org/1999/xlink" x="0px" y="0px"
	 viewBox="0 0 800 700" style="enable-background:new 0 0 800 700;" xml:space="preserve">
<style type="text/css">
	.st0{fill:#F6F6F6;}
</style>
<g>
	<path class="st0" d="M650.99,631.61c-8.12-10.9-10.74-23.57-12.78-36.83c-0.29,2.67-1.51,5.68-0.69,7.95
		c1.6,4.45-0.34,6.17-3.87,7.55c-4.04,1.58-7.5,0.93-9.87-2.85c-0.87-1.38-1.3-3.1-1.63-4.73c-0.55-2.67-0.58-5.46-1.32-8.07
		c-5.22-18.39,3.38-30.48,18.46-38.89c18.66-10.41,37.74-20.09,56.64-30.06c2.17-1.14,4.41-2.14,7.12-3.45
		c-9.44-7.84-6.41-17.68-4.66-26.63c2.93-15,7.25-29.72,10.65-44.63c0.55-2.41-0.51-5.25-1.11-7.83
		c-1.72-7.43-3.58-14.82-5.27-21.74c-4.22,2.98-8.79-1.55-13.74-2.44c-1.99-0.36-3.9-1.53-5.87-1.63
		c-10.87-0.55-21.75-0.81-32.62-1.35c-1.97-0.1-3.9-0.97-5.58-0.8c17.93-1.92,35.85-3.83,54.35-5.81
		c-2.15-5.85-3.93-10.69-5.71-15.54c0.12,4.44-2.24,6.11-6.34,5.63c-3.69-0.42-7.36-1.08-11.05-1.51c-0.48-0.06-1.01,0.74-1.57,0.99
		c-13.58,6.07-27.18,12.07-40.79,12.84c16.03-7.89,33.36-16.42,51.17-25.19c-4.28-5.1-8.01-9.56-12.54-14.97
		c0.71,2.85,1.13,4.55,1.74,7.02c-5.96,1.29-10.27,7.53-17.01,5.22c-11.25,11.66-22.99,22.85-36.91,28.77
		c13.19-13.78,27.34-28.57,41.8-43.67c-6.11-3.5-11.36-6.51-17.7-10.15c1.44,2.58,2.35,4.21,3.58,6.4
		c-5.41,2.98-6.96,10.71-14.61,10.96c-0.32,0.01-0.61,1.1-0.89,1.7c-7.4,15.81-15.32,31.28-29.02,43.18
		c13.39-18.49,20.67-39.67,26.97-61.48c-5.8-1.04-12.49-2.25-20.19-3.63c2.57,1.69,4.42,2.91,6.99,4.6
		c-4.62,5.35-3.67,14.41-11.63,17.39c-1.4,19.48-3.9,39.15-13.6,58.55c0.55-4.69,0.85-8.24,1.42-11.75
		c0.6-3.72,1.84-7.38,2.14-11.12c0.84-10.38,1.33-20.78,1.97-31.17c0.47-7.61,0.93-15.22,1.49-22.82c0.17-2.25,0.67-4.48,1.08-7.04
		c-5.9-2.35-11.48-4.68-17.15-6.77c-1.25-0.46-3.23-0.69-4.16-0.03c-9.93,7.05-21.42,8.87-33.31,10.1c6.77,2.18,8.44,8.05,8.3,13.36
		c-0.8,31.07-2.17,62.13-3.49,93.18c-0.1,2.35-1.29,4.65-1.79,6.36c2.07,1.36,4.55,2.3,6.06,4.07c8.97,10.48,17.67,21.18,26.6,31.7
		c0.68,0.79,2.5,0.51,3.66,1.01c9.68,4.21,19.33,8.49,28.61,13.72c-3.14-0.86-6.28-1.71-11.2-3.05c2.95,2.48,4.51,3.81,6.08,5.13
		c-13.88-5.88-29.31-8.37-39.8-21.05c-7.07-8.54-15.47-16.01-23.55-23.66c-3.32-3.14-4.67-6.36-4.64-10.97
		c0.2-32.14,0.12-64.27,0.1-96.41c0-7.13-6.85-14.23-13.89-14.52c3.68,3.5,5.16,11.6,2.76,16.85
		c-12.3,26.89-24.65,53.76-37.09,80.59c-0.93,1.99-2.69,3.6-4.07,5.39c1.07,1.37,2.92,2.8,3.52,4.65
		c4.19,12.7,8.06,25.51,12.22,38.22c0.38,1.16,2.17,1.81,3.16,2.84c6.07,6.32,12.09,12.67,17.44,19.92
		c-1.72-1.15-3.43-2.3-6.41-4.29c1.45,2.75,2.24,4.25,3.03,5.75c-9.45-9.37-21.32-16.39-25.95-30.09
		c-3.61-10.7-8.33-21.06-12.96-31.39c-1.89-4.22-1.59-7.76,0.15-11.89c11.8-28.02,23.42-56.12,35.06-84.21
		c2.79-6.74-0.27-13.41-6.75-15.03c1.59,7-1.35,13.5-5.66,17.69c-20.03,19.47-40.76,38.22-61.33,57.14
		c-1.77,1.62-4.17,2.56-5.91,3.59c0.45,2.16,1.45,4.43,1.29,6.61c-0.9,12.31-2.12,24.59-3.07,36.9c-0.08,1.1,1.09,2.26,1.55,3.44
		c3.17,8.16,6.31,16.33,8.58,24.93c-1.12-1.79-2.23-3.58-3.79-6.08c-0.33,1.9-0.55,3.2-0.94,5.47
		c-5.72-13.65-12.59-25.78-11.06-40.65c0.97-9.35-0.14-18.9,0.36-28.33c0.17-3.15,1.69-6.93,3.87-9.15
		c20.61-20.98,41.52-41.67,62.3-62.49c4.61-4.62,4.13-9.48-0.88-11.36c-0.41,1.21-0.5,2.72-1.29,3.59
		c-5.43,5.95-10.73,11.68-18.95,14.51c-22.4,7.72-44.52,16.29-66.78,24.41c-2.66,0.97-5.55,1.3-8.49,1.97
		c-0.22,1.44-0.03,3.73-0.91,5.49c-5.32,10.65-10.95,21.16-16.28,31.81c-0.57,1.14,0.15,2.9,0.16,4.38
		c0.02,9.38,0.01,18.75,0.01,28.13c-0.61,0-1.22,0.01-1.82,0.01c-0.2-3.49-0.41-6.98-0.61-10.47c-0.27-0.05-0.53-0.11-0.8-0.16
		c-0.7,2.25-1.4,4.49-2.19,7.02c-1.38-16.48-1.09-32.26,7-47.13c4.28-7.88,5.48-18.23,11.39-24.18c5.74-5.78,15.69-7.4,23.83-10.78
		c18.98-7.89,37.96-15.8,57.01-23.53c3.6-1.46,5.96-3.28,5.87-7.5c-6.37,2.99-12.3,5.88-18.34,8.54c-1.75,0.77-3.82,1.25-5.72,1.19
		c-24.57-0.81-49.14-1.71-73.71-2.7c-2.42-0.1-4.8-0.96-6.86-1.4c-0.76,1.38-1.26,3.28-2.49,4.34c-8.71,7.52-17.62,14.8-26.31,22.35
		c-1.08,0.93-1.12,3-1.78,4.48c-2.79,6.32-5.63,12.62-9.2,18.77c0.17-1.68,0.35-3.36,0.55-5.33c-1.08,0.99-1.97,1.8-3.13,2.87
		c0-0.91-0.11-1.48,0.02-2c4.52-19.11,18.91-31.03,31.75-44.24c5.52-5.67,11.03-8.19,19.1-8.01c23.95,0.56,47.91,0.21,71.87,0.18
		c2.21,0,4.41-0.3,6.62-0.45c0.06-0.55,0.13-1.11,0.19-1.66c-4.91-1.18-9.84-2.29-14.74-3.55c-61.07-15.7-123.49-22.31-186.15-26.66
		c-29.93-2.08-59.99-2.78-90-3.12c-29.98-0.34-59.58-2.42-88.24-11.95c-17.95-5.96-34.78-14.09-47.4-28.62
		c-22.44-25.82-23.1-62.21-2.03-90.51c14.69-19.73,34.68-32.68,56.39-43.31c4.27-2.09,8.72-3.82,13.08-5.72
		c0.31,0.51,0.63,1.02,0.94,1.54c-2.54,1.71-4.89,3.8-7.63,5.07c-18.62,8.59-36.14,18.82-50.56,33.66
		c-19.78,20.37-28.95,44.13-21.28,72.41c5.4,19.91,19.39,33,37,42.43c24.53,13.13,51.22,18.97,78.66,20.2
		c29.99,1.34,60.06,0.96,90.09,1.28c1.34,0.01,2.69-0.55,4.1-1.94c-3.76-0.91-7.53-1.81-11.28-2.74
		c-23.86-5.92-47.33-12.9-69.49-23.83c-32.64-16.11-50.41-42.95-55.52-78.19c-2.12-14.64-3.6-29.87-1.93-44.43
		c2.71-23.59,19.2-38.44,38.59-49.99c25.25-15.05,53.17-22.7,81.79-27.85c50.46-9.09,101.4-10.95,152.56-9.65
		c63.9,1.62,127.55,6.68,191.06,13.58c44.42,4.83,88.72,10.72,133.07,16.13c-0.07,0.71-0.14,1.42-0.2,2.13
		c-13.47-1.2-26.96-2.17-40.4-3.64c-48.84-5.36-97.57-12.09-146.53-16.03c-53.79-4.33-107.75-7.21-161.69-8.75
		c-52.62-1.51-104.97,2.81-156.17,16.23c-22.86,5.99-44.82,14.28-63.69,29.09c-18.01,14.14-28.14,32.16-25.68,55.62
		c1.5,14.34,2.56,28.95,6.23,42.81c8.46,31.95,29.91,53.29,60.39,64.52c23.15,8.53,47.12,14.92,70.94,21.51
		c4.36,1.21,9.72-1.25,14.63-1.93c8.71-1.21,17.45-2.26,26.15-3.62c2.16-0.34,4.17-1.57,6.24-2.97
		c-12.84-1.59-25.34-3.69-36.3-11.77c4.09,0,8.17,0,12.26,0c17.23,0,34.47,0.13,51.7-0.14c2.56-0.04,5.06-2.07,7.65-2.99
		c2.79-0.99,5.63-2.31,8.51-2.5c4.6-0.3,8.8,0.09,12.35-4.35c1.5-1.87,6.08-1.68,9.27-1.71c3.95-0.03,7.56-0.11,9.77-4.06
		c0.29-0.53,0.92-1.31,1.32-1.27c9.33,0.98,16.95-6.32,25.37-6.41c60.52-0.61,121.05-0.28,181.58-0.41c4.09-0.01,6.71,1.03,8.5,4.79
		c1.7,3.57,3.92,6.89,6.75,10.05c-1.12-3.39-2.24-6.78-3.54-10.69c21.49,0,42.38,0,63.75,0c1.95,9.72,3.87,19.31,5.78,28.9
		c0.28-0.03,0.55-0.07,0.83-0.1c-0.74-7.45-1.48-14.9-2.32-23.32c18.56,6.74,36.55,13.26,54.98,19.96
		c-1.23,8.4-2.4,16.42-3.57,24.44c0.31,0.07,0.61,0.15,0.92,0.22c1.46-5.6,2.92-11.2,4.66-17.89c14.04,11.74,27.61,23.1,41.53,34.75
		c-2.84,5.41-5.53,10.53-8.22,15.65c0.32,0.22,0.63,0.44,0.95,0.67c2.02-2.84,4.05-5.67,6.71-9.4c8.46,14.56,16.61,28.6,25.16,43.31
		c-4.47,4.04-8.92,8.06-13.37,12.09c0.18,0.28,0.35,0.56,0.53,0.84c3.01-2.07,6.01-4.15,9.64-6.65c2.88,14.39,5.63,28.19,8.39,41.99
		c0,1.26,0,2.52,0,3.78c-3.53,1.38-7.05,2.76-11.75,4.6c2.77,0.45,4.07,0.66,5.63,0.91c-9.55,27.83-19.06,55.13-28.2,82.55
		c-1.59,4.75-3.71,7.57-7.66,7.06c-1.18,2.59-1.74,4.6-2.87,6.19c-12.9,18.12-25.46,36.5-38.99,54.14
		c-11.83,15.42-24.77,29.99-37.22,44.94C655.2,631.61,653.09,631.61,650.99,631.61z M359.14,290.45c0-0.98-0.01-1.97-0.01-2.95
		c-2.77-1.84-5.37-4.79-8.36-5.27c-4.27-0.69-7.09,2.62-7.03,6.89c0.06,4.23,2.91,7.58,7.14,6.85
		C353.85,295.46,356.4,292.39,359.14,290.45z"/>
	<path class="st0" d="M613.4,114.42c-11.89,0-23.8,0.43-35.67-0.07c-106.42-4.44-212.84-8.97-319.37-8.18
		c-46.2,0.34-91.59,7.1-135.5,22.13c-1.15,0.4-2.36,0.65-4.36-0.3c2.19-1.4,4.2-3.33,6.59-4.12c36.1-11.9,73.26-19.62,111.13-20.02
		c65.09-0.69,130.21,0.35,195.29,1.69c50.18,1.03,100.34,3.62,150.5,5.56c10.47,0.4,20.93,0.99,31.4,1.49
		C613.41,113.2,613.4,113.81,613.4,114.42z"/>
</g>
</svg>
