<?xml version="1.0" encoding="utf-8"?>
<!-- Generator: Adobe Illustrator 25.2.2, SVG Export Plug-In . SVG Version: 6.00 Build 0)  -->
<svg version="1.1" xmlns="http://www.w3.org/2000/svg" xmlns:xlink="http://www.w3.org/1999/xlink" x="0px" y="0px"
	 viewBox="0 0 1024 768" style="enable-background:new 0 0 1024 768;" xml:space="preserve">
<style type="text/css">
	.st0{display:none;}
	.st1{display:inline;}
	.st2{fill:url(#SVGID_1_);}
	.st3{display:inline;fill:url(#SVGID_2_);}
	.st4{fill:#FFFFFF;}
	.st5{font-family:'Roboto-Bold';}
	.st6{font-size:48px;}
	.st7{font-size:36px;}
	.st8{fill:#00D8AE;}
	.st9{fill:url(#SVGID_3_);}
	.st10{fill:url(#SVGID_4_);}
</style>
<g id="Layer_1" class="st0">
	<g class="st1">
		<linearGradient id="SVGID_1_" gradientUnits="userSpaceOnUse" x1="564.1807" y1="662.8591" x2="459.8193" y2="105.1409">
			<stop  offset="0" style="stop-color:#031323"/>
			<stop  offset="0.2944" style="stop-color:#031527"/>
			<stop  offset="0.5833" style="stop-color:#041B33"/>
			<stop  offset="0.8692" style="stop-color:#052646"/>
			<stop  offset="1" style="stop-color:#062C52"/>
		</linearGradient>
		<circle class="st2" cx="512" cy="384" r="283.6"/>
	</g>
	<linearGradient id="SVGID_2_" gradientUnits="userSpaceOnUse" x1="450.5883" y1="348.5439" x2="592.4209" y2="102.8828">
		<stop  offset="0" style="stop-color:#E0CD23"/>
		<stop  offset="1" style="stop-color:#EEB100"/>
	</linearGradient>
	<path class="st3" d="M651.3,136.9c-41.1-23.2-88.7-36.5-139.3-36.5V384L651.3,136.9z"/>
	<g class="st1">
		
			<image style="overflow:visible;opacity:0.5;" width="109" height="73" xlink:href="8E4B85F0.png"  transform="matrix(1 0 0 1 388 565)">
		</image>
		<g>
			<text transform="matrix(1 0 0 1 395.366 613.476)" class="st4 st5 st6">91%</text>
		</g>
	</g>
	<g class="st1">
		
			<image style="overflow:visible;opacity:0.5;" width="307" height="60" xlink:href="8E4B85F1.png"  transform="matrix(1 0 0 1 93 629)">
		</image>
		<g>
			<text transform="matrix(1 0 0 1 100.7737 667.6485)" class="st4 st5 st7">Unknown Species</text>
		</g>
	</g>
	<g class="st1">
		
			<image style="overflow:visible;opacity:0.5;" width="82" height="74" xlink:href="8E4B85F2.png"  transform="matrix(1 0 0 1 534 126)">
		</image>
		<g>
			<text transform="matrix(1 0 0 1 541.0552 174.9969)" class="st4 st5 st6">9%</text>
		</g>
	</g>
	<g class="st1">
		
			<image style="overflow:visible;opacity:0.5;" width="266" height="59" xlink:href="8E4B85FB.png"  transform="matrix(1 0 0 1 636 87)">
		</image>
		<g>
			<text transform="matrix(1 0 0 1 643.3599 124.9232)" class="st4 st5 st7">Known Species</text>
		</g>
	</g>
</g>
<g id="Layer_1_copy">
	<path class="st8" d="M512,676.6c-78.2,0-151.7-30.4-206.9-85.7c-55.3-55.3-85.7-128.8-85.7-206.9c0-78.2,30.4-151.7,85.7-206.9
		c55.3-55.3,128.8-85.7,206.9-85.7c78.2,0,151.7,30.4,206.9,85.7c55.3,55.3,85.7,128.8,85.7,206.9s-30.4,151.7-85.7,206.9
		S590.2,676.6,512,676.6z"/>
	<linearGradient id="SVGID_3_" gradientUnits="userSpaceOnUse" x1="564.1807" y1="662.8591" x2="459.8193" y2="105.1409">
		<stop  offset="0" style="stop-color:#031323"/>
		<stop  offset="0.2944" style="stop-color:#031527"/>
		<stop  offset="0.5833" style="stop-color:#041B33"/>
		<stop  offset="0.8692" style="stop-color:#052646"/>
		<stop  offset="1" style="stop-color:#062C52"/>
	</linearGradient>
	<circle class="st9" cx="512" cy="384" r="283.6"/>
	
		<linearGradient id="SVGID_4_" gradientUnits="userSpaceOnUse" x1="414.8017" y1="338.2175" x2="556.6343" y2="92.5563" gradientTransform="matrix(0.9682 -0.2502 0.2502 0.9682 -43.5909 141.3479)">
		<stop  offset="0" style="stop-color:#006FD0"/>
		<stop  offset="1" style="stop-color:#00468B"/>
	</linearGradient>
	<path class="st10" d="M584,109.9c-45.7-12.2-95-13.2-144-0.5L511,384L584,109.9z"/>
	<g>
		
			<image style="overflow:visible;opacity:0.5;" width="106" height="54" xlink:href="8E4B85FC.png"  transform="matrix(1 0 0 1 461 591.9936)">
		</image>
		<g>
			<g>
				<path class="st4" d="M484.9,620.2c-1.8,1.7-3.8,2.6-6.2,2.6c-3,0-5.4-1-7.2-3.1s-2.7-4.9-2.7-8.4c0-2.2,0.5-4.3,1.5-6.2
					s2.3-3.3,4.1-4.4s3.7-1.6,5.9-1.6c2.2,0,4.2,0.6,6,1.7s3.1,2.7,4.1,4.9s1.5,4.5,1.5,7.2v2.5c0,5.7-1.4,10.2-4.2,13.4
					s-6.8,5-12,5.2l-1.7,0v-5.6l1.5,0C481.3,628.3,484.4,625.5,484.9,620.2z M480.4,617.7c1.1,0,2-0.3,2.8-0.8s1.4-1.2,1.8-2V612
					c0-2.3-0.4-4.1-1.3-5.3s-2-1.9-3.5-1.9c-1.4,0-2.5,0.6-3.4,1.9s-1.3,2.8-1.3,4.7c0,1.9,0.4,3.4,1.3,4.6S478.9,617.7,480.4,617.7
					z"/>
				<path class="st4" d="M513.1,633.9h-6.8v-26.1l-8.1,2.5v-5.5l14.1-5.1h0.7V633.9z"/>
				<path class="st4" d="M524.1,606.3c0-2.1,0.7-3.8,2-5.1s3.1-2,5.3-2c2.2,0,4,0.6,5.4,1.9s2,3,2,5.2v1.7c0,2.1-0.7,3.8-2,5.1
					s-3.1,1.9-5.3,1.9c-2.2,0-4-0.6-5.4-1.9s-2.1-3-2.1-5.2V606.3z M528.6,608.1c0,0.9,0.3,1.7,0.8,2.3s1.2,0.9,2.1,0.9
					s1.6-0.3,2.1-0.9s0.8-1.4,0.8-2.3v-1.7c0-0.9-0.3-1.7-0.8-2.3s-1.2-0.9-2.1-0.9c-0.9,0-1.6,0.3-2.1,0.9s-0.8,1.4-0.8,2.4V608.1z
					 M532.8,631.3l-3.3-1.8l16.7-26.7l3.3,1.8L532.8,631.3z M540.4,625.5c0-2.1,0.7-3.8,2.1-5.1s3.2-1.9,5.3-1.9
					c2.2,0,4,0.6,5.4,1.9s2.1,3,2.1,5.3v1.7c0,2.1-0.7,3.8-2,5.1s-3.1,1.9-5.4,1.9c-2.2,0-4.1-0.6-5.4-1.9s-2-3-2-5.2V625.5z
					 M544.9,627.3c0,0.9,0.3,1.6,0.8,2.2s1.3,0.9,2.1,0.9c1.9,0,2.9-1.1,2.9-3.2v-1.8c0-0.9-0.3-1.7-0.8-2.3s-1.2-0.9-2.1-0.9
					s-1.6,0.3-2.1,0.9s-0.8,1.3-0.8,2.3V627.3z"/>
			</g>
		</g>
	</g>
	<g>
		
			<image style="overflow:visible;opacity:0.5;" width="333" height="59" xlink:href="8E4B85FD.png"  transform="matrix(1 0 0 1 348.1084 685.1083)">
		</image>
		<g>
			<g>
				<path class="st4" d="M377.5,695.1v18.5c0,3.1-1,5.5-2.9,7.3c-1.9,1.8-4.6,2.7-7.9,2.7c-3.3,0-5.9-0.9-7.8-2.6
					c-1.9-1.7-2.9-4.1-3-7.2v-18.7h5.8v18.6c0,1.8,0.4,3.2,1.3,4c0.9,0.8,2.1,1.3,3.7,1.3c3.3,0,4.9-1.7,5-5.1v-18.7H377.5z"/>
				<path class="st4" d="M387,702.3l0.2,2.4c1.5-1.9,3.5-2.8,6-2.8c2.2,0,3.9,0.7,4.9,2c1.1,1.3,1.6,3.2,1.7,5.8v13.5h-5.6v-13.4
					c0-1.2-0.3-2-0.8-2.6c-0.5-0.5-1.4-0.8-2.6-0.8c-1.6,0-2.7,0.7-3.5,2v14.7h-5.6v-20.9H387z"/>
				<path class="st4" d="M411.6,714.9l-2,2v6.4h-5.6v-29.7h5.6V710l1.1-1.4l5.4-6.3h6.7l-7.6,8.7l8.2,12.2H417L411.6,714.9z"/>
				<path class="st4" d="M430.3,702.3l0.2,2.4c1.5-1.9,3.5-2.8,6-2.8c2.2,0,3.9,0.7,4.9,2c1.1,1.3,1.6,3.2,1.7,5.8v13.5h-5.6v-13.4
					c0-1.2-0.3-2-0.8-2.6c-0.5-0.5-1.4-0.8-2.6-0.8c-1.6,0-2.7,0.7-3.5,2v14.7h-5.6v-20.9H430.3z"/>
				<path class="st4" d="M446.5,712.6c0-2.1,0.4-3.9,1.2-5.5c0.8-1.6,1.9-2.9,3.4-3.8c1.5-0.9,3.2-1.3,5.2-1.3
					c2.8,0,5.1,0.9,6.9,2.6s2.8,4.1,3,7l0,1.4c0,3.2-0.9,5.8-2.7,7.7c-1.8,1.9-4.2,2.9-7.2,2.9s-5.4-1-7.2-2.9s-2.7-4.6-2.7-7.9
					V712.6z M452.1,713c0,2,0.4,3.5,1.1,4.6c0.7,1.1,1.8,1.6,3.2,1.6c1.4,0,2.4-0.5,3.2-1.6c0.8-1,1.1-2.7,1.1-5
					c0-1.9-0.4-3.5-1.1-4.5c-0.8-1.1-1.8-1.6-3.2-1.6c-1.4,0-2.4,0.5-3.2,1.6C452.4,709.1,452.1,710.8,452.1,713z"/>
				<path class="st4" d="M487.9,715.7l2.7-13.3h5.4l-5.3,20.9H486l-4-13.2l-4,13.2h-4.7l-5.3-20.9h5.4l2.7,13.3l3.8-13.3h4
					L487.9,715.7z"/>
				<path class="st4" d="M503.9,702.3l0.2,2.4c1.5-1.9,3.5-2.8,6-2.8c2.2,0,3.9,0.7,4.9,2c1.1,1.3,1.6,3.2,1.7,5.8v13.5h-5.6v-13.4
					c0-1.2-0.3-2-0.8-2.6c-0.5-0.5-1.4-0.8-2.6-0.8c-1.6,0-2.7,0.7-3.5,2v14.7h-5.6v-20.9H503.9z"/>
				<path class="st4" d="M545.8,715.9c0-1.1-0.4-1.9-1.2-2.5c-0.8-0.6-2.2-1.2-4.2-1.9c-2-0.7-3.6-1.3-4.8-1.9
					c-3.2-1.7-4.8-4.1-4.8-7c0-1.5,0.4-2.9,1.3-4.1c0.9-1.2,2.1-2.1,3.7-2.8s3.4-1,5.4-1c2,0,3.8,0.4,5.4,1.1
					c1.6,0.7,2.8,1.8,3.7,3.1s1.3,2.8,1.3,4.5h-5.8c0-1.3-0.4-2.3-1.2-3c-0.8-0.7-2-1.1-3.4-1.1c-1.4,0-2.5,0.3-3.3,0.9
					c-0.8,0.6-1.2,1.4-1.2,2.4c0,0.9,0.5,1.7,1.4,2.3s2.3,1.2,4.1,1.7c3.3,1,5.7,2.2,7.2,3.7c1.5,1.5,2.3,3.3,2.3,5.5
					c0,2.4-0.9,4.3-2.8,5.7c-1.8,1.4-4.3,2.1-7.4,2.1c-2.2,0-4.1-0.4-5.9-1.2s-3.1-1.9-4.1-3.3c-0.9-1.4-1.4-3-1.4-4.8h5.8
					c0,3.1,1.9,4.7,5.6,4.7c1.4,0,2.5-0.3,3.2-0.8C545.4,717.7,545.8,716.9,545.8,715.9z"/>
				<path class="st4" d="M573.9,713c0,3.2-0.7,5.8-2.2,7.7c-1.5,1.9-3.4,2.9-5.9,2.9c-2.1,0-3.8-0.7-5.1-2.2v9.9h-5.6v-28.9h5.2
					l0.2,2c1.4-1.6,3.1-2.4,5.3-2.4c2.6,0,4.6,1,6,2.9c1.4,1.9,2.1,4.5,2.1,7.9V713z M568.4,712.6c0-1.9-0.3-3.4-1-4.5
					s-1.7-1.6-3-1.6c-1.8,0-3,0.7-3.6,2v8.6c0.7,1.4,1.9,2.1,3.7,2.1C567,719.1,568.4,717,568.4,712.6z"/>
				<path class="st4" d="M587,723.6c-3.1,0-5.6-0.9-7.5-2.8c-1.9-1.9-2.9-4.4-2.9-7.5v-0.5c0-2.1,0.4-4,1.2-5.6
					c0.8-1.7,2-2.9,3.4-3.8s3.2-1.3,5.1-1.3c2.9,0,5.1,0.9,6.8,2.7c1.6,1.8,2.5,4.4,2.5,7.7v2.3h-13.3c0.2,1.4,0.7,2.5,1.6,3.3
					c0.9,0.8,2.1,1.2,3.4,1.2c2.2,0,3.8-0.8,5-2.3l2.7,3.1c-0.8,1.2-2,2.1-3.4,2.8C590.4,723.3,588.8,723.6,587,723.6z M586.4,706.5
					c-1.1,0-2,0.4-2.7,1.1c-0.7,0.8-1.1,1.8-1.3,3.2h7.8v-0.4c0-1.2-0.4-2.2-1-2.9C588.5,706.8,587.6,706.5,586.4,706.5z"/>
				<path class="st4" d="M607.5,719.1c1,0,1.9-0.3,2.5-0.9s1-1.3,1-2.3h5.2c0,1.4-0.4,2.7-1.2,3.9c-0.8,1.2-1.8,2.1-3.1,2.7
					c-1.3,0.7-2.8,1-4.4,1c-3,0-5.3-0.9-7.1-2.8c-1.7-1.9-2.6-4.5-2.6-7.9v-0.4c0-3.2,0.9-5.8,2.6-7.7c1.7-1.9,4.1-2.9,7.1-2.9
					c2.6,0,4.7,0.7,6.3,2.2c1.6,1.5,2.4,3.5,2.4,5.9H611c0-1.1-0.4-2-1-2.7c-0.6-0.7-1.5-1-2.6-1c-1.3,0-2.3,0.5-2.9,1.4
					c-0.7,0.9-1,2.5-1,4.6v0.6c0,2.2,0.3,3.7,1,4.6C605.1,718.7,606.1,719.1,607.5,719.1z"/>
				<path class="st4" d="M619.4,696.9c0-0.8,0.3-1.5,0.8-2.1c0.6-0.5,1.3-0.8,2.3-0.8c1,0,1.7,0.3,2.3,0.8c0.6,0.5,0.9,1.2,0.9,2.1
					c0,0.9-0.3,1.5-0.9,2.1c-0.6,0.5-1.3,0.8-2.3,0.8c-0.9,0-1.7-0.3-2.3-0.8C619.7,698.5,619.4,697.8,619.4,696.9z M625.3,723.2
					h-5.6v-20.9h5.6V723.2z"/>
				<path class="st4" d="M639.5,723.6c-3.1,0-5.6-0.9-7.5-2.8c-1.9-1.9-2.9-4.4-2.9-7.5v-0.5c0-2.1,0.4-4,1.2-5.6
					c0.8-1.7,2-2.9,3.4-3.8s3.2-1.3,5.1-1.3c2.9,0,5.1,0.9,6.8,2.7s2.5,4.4,2.5,7.7v2.3h-13.3c0.2,1.4,0.7,2.5,1.6,3.3
					c0.9,0.8,2.1,1.2,3.4,1.2c2.2,0,3.8-0.8,5-2.3l2.7,3.1c-0.8,1.2-2,2.1-3.4,2.8C642.9,723.3,641.3,723.6,639.5,723.6z
					 M638.9,706.5c-1.1,0-2,0.4-2.7,1.1s-1.1,1.8-1.3,3.2h7.8v-0.4c0-1.2-0.4-2.2-1-2.9C641,706.8,640.1,706.5,638.9,706.5z"/>
				<path class="st4" d="M662.6,717.5c0-0.7-0.3-1.2-1-1.6c-0.7-0.4-1.8-0.7-3.3-1.1c-5-1-7.5-3.2-7.5-6.3c0-1.9,0.8-3.4,2.3-4.6
					c1.5-1.2,3.6-1.9,6-1.9c2.7,0,4.8,0.6,6.4,1.9s2.4,2.9,2.4,4.9h-5.6c0-0.8-0.3-1.5-0.8-2c-0.5-0.5-1.3-0.8-2.4-0.8
					c-0.9,0-1.7,0.2-2.2,0.6c-0.5,0.4-0.8,1-0.8,1.6c0,0.6,0.3,1.1,0.9,1.5c0.6,0.4,1.6,0.7,3,1c1.4,0.3,2.6,0.6,3.5,0.9
					c2.9,1.1,4.4,3,4.4,5.6c0,1.9-0.8,3.4-2.5,4.6c-1.6,1.2-3.7,1.8-6.3,1.8c-1.8,0-3.3-0.3-4.7-0.9c-1.4-0.6-2.4-1.5-3.2-2.6
					c-0.8-1.1-1.2-2.3-1.2-3.5h5.3c0.1,1,0.4,1.8,1.1,2.3s1.6,0.8,2.7,0.8c1.1,0,1.9-0.2,2.4-0.6
					C662.4,718.7,662.6,718.1,662.6,717.5z"/>
			</g>
		</g>
	</g>
	<g>
		
			<image style="overflow:visible;opacity:0.5;" width="77" height="54" xlink:href="8E4B85FE.png"  transform="matrix(1 0 0 1 475.4805 125.9269)">
		</image>
		<g>
			<g>
				<path class="st4" d="M498.7,154.3c-1.8,1.7-3.8,2.6-6.2,2.6c-3,0-5.4-1-7.2-3.1s-2.7-4.9-2.7-8.4c0-2.2,0.5-4.3,1.5-6.2
					s2.3-3.3,4.1-4.4s3.7-1.6,5.9-1.6c2.2,0,4.2,0.6,6,1.7s3.1,2.7,4.1,4.9s1.5,4.5,1.5,7.2v2.5c0,5.7-1.4,10.2-4.2,13.4
					s-6.8,5-12,5.2l-1.7,0v-5.6l1.5,0C495,162.3,498.2,159.5,498.7,154.3z M494.2,151.7c1.1,0,2-0.3,2.8-0.8s1.4-1.2,1.8-2V146
					c0-2.3-0.4-4.1-1.3-5.3s-2-1.9-3.5-1.9c-1.4,0-2.5,0.6-3.4,1.9s-1.3,2.8-1.3,4.7c0,1.9,0.4,3.4,1.3,4.6S492.6,151.7,494.2,151.7
					z"/>
				<path class="st4" d="M510.3,140.4c0-2.1,0.7-3.8,2-5.1s3.1-2,5.3-2c2.2,0,4,0.6,5.4,1.9s2,3,2,5.2v1.7c0,2.1-0.7,3.8-2,5.1
					s-3.1,1.9-5.3,1.9c-2.2,0-4-0.6-5.4-1.9s-2.1-3-2.1-5.2V140.4z M514.8,142.2c0,0.9,0.3,1.7,0.8,2.3s1.2,0.9,2.1,0.9
					s1.6-0.3,2.1-0.9s0.8-1.4,0.8-2.3v-1.7c0-0.9-0.3-1.7-0.8-2.3s-1.2-0.9-2.1-0.9c-0.9,0-1.6,0.3-2.1,0.9s-0.8,1.4-0.8,2.4V142.2z
					 M519.1,165.4l-3.3-1.8l16.7-26.7l3.3,1.8L519.1,165.4z M526.6,159.6c0-2.1,0.7-3.8,2.1-5.1s3.2-1.9,5.3-1.9
					c2.2,0,4,0.6,5.4,1.9s2.1,3,2.1,5.3v1.7c0,2.1-0.7,3.8-2,5.1s-3.1,1.9-5.4,1.9c-2.2,0-4.1-0.6-5.4-1.9s-2-3-2-5.2V159.6z
					 M531.1,161.4c0,0.9,0.3,1.6,0.8,2.2s1.3,0.9,2.1,0.9c1.9,0,2.9-1.1,2.9-3.2v-1.8c0-0.9-0.3-1.7-0.8-2.3s-1.2-0.9-2.1-0.9
					s-1.6,0.3-2.1,0.9s-0.8,1.3-0.8,2.3V161.4z"/>
			</g>
		</g>
	</g>
	<g>
		
			<image style="overflow:visible;opacity:0.5;" width="296" height="60" xlink:href="8E4B85FF.png"  transform="matrix(1 0 0 1 366.8651 31.8651)">
		</image>
		<g>
			<g>
				<path class="st4" d="M383.9,58.2l-3.1,3.3v8.2h-5.9V40.9h5.9V54l2.6-3.6l7.3-9.5h7.3l-10.2,12.8l10.5,16h-7.1L383.9,58.2z"/>
				<path class="st4" d="M405.5,48.3l0.2,2.5c1.5-1.9,3.6-2.9,6.2-2.9c2.3,0,4,0.7,5.1,2c1.1,1.3,1.7,3.3,1.7,6v13.8h-5.7V56
					c0-1.2-0.3-2.1-0.8-2.6c-0.5-0.5-1.4-0.8-2.6-0.8c-1.6,0-2.8,0.7-3.6,2.1v15.1h-5.7V48.3H405.5z"/>
				<path class="st4" d="M422.1,58.8c0-2.1,0.4-4,1.2-5.7c0.8-1.7,2-2.9,3.5-3.9c1.5-0.9,3.3-1.4,5.4-1.4c2.9,0,5.2,0.9,7.1,2.7
					c1.8,1.8,2.8,4.2,3.1,7.2l0,1.5c0,3.3-0.9,5.9-2.8,7.9c-1.8,2-4.3,3-7.4,3s-5.6-1-7.4-3s-2.8-4.7-2.8-8.1V58.8z M427.8,59.2
					c0,2,0.4,3.6,1.1,4.7c0.8,1.1,1.9,1.6,3.3,1.6c1.4,0,2.5-0.5,3.2-1.6c0.8-1.1,1.2-2.8,1.2-5.1c0-2-0.4-3.5-1.2-4.6
					c-0.8-1.1-1.9-1.6-3.3-1.6c-1.4,0-2.5,0.5-3.2,1.6C428.2,55.2,427.8,56.9,427.8,59.2z"/>
				<path class="st4" d="M464.5,61.9l2.8-13.6h5.5l-5.5,21.4h-4.8l-4.1-13.5l-4.1,13.5h-4.8l-5.5-21.4h5.5l2.8,13.6l3.9-13.6h4.1
					L464.5,61.9z"/>
				<path class="st4" d="M480.9,48.3l0.2,2.5c1.5-1.9,3.6-2.9,6.2-2.9c2.3,0,4,0.7,5.1,2c1.1,1.3,1.7,3.3,1.7,6v13.8h-5.7V56
					c0-1.2-0.3-2.1-0.8-2.6c-0.5-0.5-1.4-0.8-2.6-0.8c-1.6,0-2.8,0.7-3.6,2.1v15.1h-5.7V48.3H480.9z"/>
				<path class="st4" d="M523.8,62.2c0-1.1-0.4-2-1.2-2.6s-2.2-1.2-4.3-1.9s-3.7-1.3-4.9-2c-3.3-1.8-4.9-4.2-4.9-7.1
					c0-1.6,0.4-2.9,1.3-4.2s2.1-2.2,3.8-2.9c1.6-0.7,3.5-1,5.5-1c2.1,0,3.9,0.4,5.5,1.1s2.9,1.8,3.8,3.2c0.9,1.4,1.3,2.9,1.3,4.6
					h-5.9c0-1.3-0.4-2.3-1.2-3.1c-0.8-0.7-2-1.1-3.5-1.1c-1.5,0-2.6,0.3-3.4,0.9c-0.8,0.6-1.2,1.4-1.2,2.4c0,0.9,0.5,1.7,1.4,2.4
					c0.9,0.6,2.3,1.2,4.2,1.8c3.4,1,5.8,2.3,7.4,3.8c1.5,1.5,2.3,3.4,2.3,5.6c0,2.5-0.9,4.5-2.8,5.9s-4.4,2.1-7.6,2.1
					c-2.2,0-4.2-0.4-6.1-1.2s-3.2-1.9-4.2-3.3c-1-1.4-1.4-3-1.4-4.9h6c0,3.2,1.9,4.8,5.7,4.8c1.4,0,2.5-0.3,3.3-0.9
					C523.4,64,523.8,63.2,523.8,62.2z"/>
				<path class="st4" d="M552.7,59.2c0,3.3-0.7,5.9-2.2,7.9s-3.5,3-6.1,3c-2.2,0-3.9-0.8-5.2-2.3V78h-5.7V48.3h5.3l0.2,2.1
					c1.4-1.7,3.2-2.5,5.4-2.5c2.6,0,4.7,1,6.2,2.9c1.5,2,2.2,4.6,2.2,8.1V59.2z M547,58.8c0-2-0.4-3.5-1.1-4.6
					c-0.7-1.1-1.7-1.6-3.1-1.6c-1.8,0-3,0.7-3.7,2.1v8.8c0.7,1.4,1.9,2.1,3.7,2.1C545.6,65.5,547,63.3,547,58.8z"/>
				<path class="st4" d="M566.1,70.1c-3.1,0-5.7-1-7.7-2.9c-2-1.9-3-4.5-3-7.7V59c0-2.2,0.4-4.1,1.2-5.8c0.8-1.7,2-3,3.5-3.9
					c1.5-0.9,3.3-1.4,5.2-1.4c2.9,0,5.2,0.9,6.9,2.8c1.7,1.8,2.5,4.5,2.5,7.9v2.3h-13.6c0.2,1.4,0.7,2.5,1.7,3.4s2.1,1.3,3.5,1.3
					c2.2,0,3.9-0.8,5.2-2.4l2.8,3.1c-0.9,1.2-2,2.2-3.5,2.8C569.5,69.8,567.9,70.1,566.1,70.1z M565.4,52.5c-1.1,0-2.1,0.4-2.8,1.2
					s-1.2,1.9-1.4,3.3h8v-0.5c0-1.3-0.4-2.3-1-3C567.6,52.9,566.6,52.5,565.4,52.5z"/>
				<path class="st4" d="M587,65.5c1.1,0,1.9-0.3,2.6-0.9c0.7-0.6,1-1.4,1-2.3h5.4c0,1.5-0.4,2.8-1.2,4c-0.8,1.2-1.8,2.1-3.2,2.8
					c-1.4,0.7-2.8,1-4.5,1c-3.1,0-5.5-1-7.2-2.9c-1.8-1.9-2.7-4.6-2.7-8.1v-0.4c0-3.3,0.9-5.9,2.6-7.9s4.2-2.9,7.2-2.9
					c2.7,0,4.8,0.8,6.4,2.3s2.4,3.6,2.5,6.1h-5.4c0-1.1-0.4-2-1-2.7c-0.7-0.7-1.5-1-2.6-1c-1.3,0-2.3,0.5-3,1.5s-1,2.5-1,4.7v0.6
					c0,2.2,0.3,3.8,1,4.8C584.6,65,585.7,65.5,587,65.5z"/>
				<path class="st4" d="M599.2,42.8c0-0.9,0.3-1.6,0.9-2.1s1.4-0.8,2.3-0.8c1,0,1.8,0.3,2.3,0.8s0.9,1.3,0.9,2.1
					c0,0.9-0.3,1.6-0.9,2.1c-0.6,0.6-1.4,0.8-2.3,0.8c-1,0-1.7-0.3-2.3-0.8C599.5,44.3,599.2,43.6,599.2,42.8z M605.3,69.7h-5.7
					V48.3h5.7V69.7z"/>
				<path class="st4" d="M619.9,70.1c-3.1,0-5.7-1-7.7-2.9s-3-4.5-3-7.7V59c0-2.2,0.4-4.1,1.2-5.8c0.8-1.7,2-3,3.5-3.9
					c1.5-0.9,3.3-1.4,5.2-1.4c2.9,0,5.2,0.9,6.9,2.8c1.7,1.8,2.5,4.5,2.5,7.9v2.3h-13.6c0.2,1.4,0.7,2.5,1.7,3.4s2.1,1.3,3.5,1.3
					c2.2,0,3.9-0.8,5.2-2.4l2.8,3.1c-0.9,1.2-2,2.2-3.5,2.8S621.7,70.1,619.9,70.1z M619.2,52.5c-1.1,0-2.1,0.4-2.8,1.2
					c-0.7,0.8-1.2,1.9-1.4,3.3h8v-0.5c0-1.3-0.4-2.3-1-3C621.4,52.9,620.4,52.5,619.2,52.5z"/>
				<path class="st4" d="M643.5,63.8c0-0.7-0.3-1.3-1-1.7c-0.7-0.4-1.8-0.8-3.3-1.1c-5.1-1.1-7.6-3.2-7.6-6.5c0-1.9,0.8-3.5,2.4-4.8
					c1.6-1.3,3.6-1.9,6.2-1.9c2.7,0,4.9,0.6,6.5,1.9s2.4,2.9,2.4,5h-5.7c0-0.8-0.3-1.5-0.8-2c-0.5-0.5-1.4-0.8-2.5-0.8
					c-1,0-1.7,0.2-2.2,0.7c-0.5,0.4-0.8,1-0.8,1.7c0,0.6,0.3,1.1,0.9,1.5c0.6,0.4,1.6,0.7,3,1c1.4,0.3,2.6,0.6,3.6,1
					c3,1.1,4.5,3,4.5,5.8c0,2-0.8,3.5-2.5,4.7s-3.8,1.8-6.5,1.8c-1.8,0-3.4-0.3-4.8-1c-1.4-0.6-2.5-1.5-3.3-2.6
					c-0.8-1.1-1.2-2.3-1.2-3.6h5.4c0.1,1,0.4,1.8,1.1,2.3c0.7,0.5,1.6,0.8,2.8,0.8c1.1,0,1.9-0.2,2.5-0.6
					C643.3,65,643.5,64.5,643.5,63.8z"/>
			</g>
		</g>
	</g>
</g>
</svg>
