<?xml version="1.0" encoding="utf-8"?>
<!-- Generator: Adobe Illustrator 25.2.1, SVG Export Plug-In . SVG Version: 6.00 Build 0)  -->
<svg version="1.1"
	 id="svg3055" inkscape:version="0.48.4 r9939" sodipodi:docname="sun2.png" xmlns:cc="http://creativecommons.org/ns#" xmlns:dc="http://purl.org/dc/elements/1.1/" xmlns:inkscape="http://www.inkscape.org/namespaces/inkscape" xmlns:rdf="http://www.w3.org/1999/02/22-rdf-syntax-ns#" xmlns:sodipodi="http://sodipodi.sourceforge.net/DTD/sodipodi-0.dtd" xmlns:svg="http://www.w3.org/2000/svg"
	 xmlns="http://www.w3.org/2000/svg" xmlns:xlink="http://www.w3.org/1999/xlink" x="0px" y="0px" viewBox="0 0 876 873"
	 style="enable-background:new 0 0 876 873;" xml:space="preserve">
<style type="text/css">
	.st0{fill:#FEF500;}
</style>
<sodipodi:namedview  bordercolor="#666666" borderopacity="1" gridtolerance="10" guidetolerance="10" id="namedview3057" inkscape:current-layer="svg3055" inkscape:cx="438" inkscape:cy="436.5" inkscape:pageopacity="0" inkscape:pageshadow="2" inkscape:window-height="480" inkscape:window-maximized="0" inkscape:window-width="640" inkscape:window-x="63" inkscape:window-y="34" inkscape:zoom="0.27033219" objecttolerance="10" pagecolor="#ffffff" showgrid="false">
	</sodipodi:namedview>
<g id="g3522">
	<path id="path3524" inkscape:connector-curvature="0" class="st0" d="M261.7,871.6c-4.6-1.7-10-5.7-12.6-9.4
		c-4.9-7-8.1-23.5-6.4-33.6c1.3-8,42.9-112.8,47.2-119.2c3.9-5.6,11-11.7,18.5-15.7c4.8-2.6,7.5-3.3,13.5-3.6
		c9.2-0.5,15.2,1.8,20.5,8.1c6.7,7.8,10.7,24.2,8.6,35.8c-1,5.5-39.2,104-44.4,114.4c-3,6-12.4,15.3-20.1,19.8
		c-5.9,3.5-7.7,4.1-14,4.4C268.1,872.9,264.1,872.5,261.7,871.6L261.7,871.6z M606.8,868.7c-10.3-3.8-22.6-14-27.1-22.4
		c-1.4-2.6-12.5-28-24.6-56.4c-18-42-22.3-53-23.1-58.8c-2.7-18.8,5.7-37.9,18.5-42.1c6.3-2.1,17-0.9,24.2,2.8
		c7.8,3.9,17.2,12.6,20.5,18.9c1.4,2.7,12.6,28.2,24.8,56.8c24.6,57.6,25.3,59.6,23.2,73.1c-2.9,18.4-11.6,28.2-26,29
		C613.1,869.9,609.1,869.5,606.8,868.7L606.8,868.7z M422.5,687.4c-38.4-3.8-63.8-10.9-94.9-26.5c-24.8-12.4-45.2-27.3-66.2-48.3
		c-20.1-20-32.8-36.8-45.3-59.5c-20.5-37.2-30.1-74.6-30.1-116.6c0-30.9,4.8-57.5,15.6-85.2c26.6-69,83-124.9,151.8-150.7
		c33.2-12.4,70.7-17.7,103.8-14.5c61.9,5.9,116.3,32.5,160.8,78.6c34.1,35.4,56.6,77.5,66.5,124.3c4.5,21.4,5.8,53.8,3,76
		c-5.6,44.7-23,85.8-52.4,124c-3.6,4.7-13.1,15.1-21.1,23.1s-18.4,17.5-23.1,21.1c-37.4,28.8-77.5,46.1-121.5,52.4
		C459.4,687,429.9,688.1,422.5,687.4L422.5,687.4z M28.5,639.6C18.3,637.1,11,632,7.4,624.8c-2.2-4.4-2.5-6.1-2.2-12.7
		c0.5-10.6,3.9-17.4,13.8-27.1l7.6-7.5l54.8-23.3c38.2-16.3,56.6-23.6,61-24.3c12.2-2,27.7,1.7,35.3,8.4c7,6.1,8.7,10.4,8.3,20.2
		c-0.5,10.8-3.9,17.6-13.3,27.2l-7,7.1L112,615.5c-29.4,12.6-55.7,23.4-58.5,24.2C47.5,641.3,35.2,641.3,28.5,639.6L28.5,639.6z
		 M829.5,633.3c-3.6-0.5-110.7-43.6-115.1-46.3c-5.5-3.3-15.4-14.6-18.2-20.6c-3.4-7.5-4.2-17.5-1.8-23.8c2-5.2,8.9-11.9,15.1-14.5
		c6.5-2.8,16.8-4.3,24.9-3.7c6.3,0.5,13.2,3,62.1,22.8c30.2,12.2,56.9,23.5,59.2,25.1c5.8,4,13.5,12.9,16.9,19.6
		c7.1,14,2.4,30.7-10.6,37.3C854.7,632.7,839.5,634.7,829.5,633.3L829.5,633.3z M136.1,348.3c-5-0.9-111.7-44.6-115.7-47.3
		c-5.5-3.8-12.6-11.8-16.5-18.6c-4.4-7.6-5.1-17.6-2-24.8c2.7-6.1,4.3-7.9,10.7-12c6.8-4.4,19-6.9,29-6.1
		c6.4,0.5,13.4,3.1,62.1,22.7c30.1,12.2,56.2,23,58,24c5.2,3.2,14.9,14.3,18,20.5c3.6,7.4,4.4,17.3,1.9,23.8
		c-2,5.2-8.9,11.9-15,14.5C158.6,348.4,144.7,349.9,136.1,348.3z M717.8,343c-12.2-2.1-21.7-7.9-25.7-15.8
		c-5.9-11.8-1.7-26.5,11.4-39.7l7-7.1l53.5-22.8c29.4-12.6,55.8-23.5,58.5-24.2c7.1-2,22.3-1.1,29.6,1.6c8.6,3.3,13.2,7.2,16.4,13.5
		c2.4,5,2.7,6.4,2.3,12.8c-0.7,10.4-4.2,17.4-13.7,26.8l-7.6,7.5l-54.8,23.3C733.8,344.7,731.8,345.3,717.8,343L717.8,343z
		 M307,184.1c-9.8-3-22.7-13.3-27.2-21.7c-1.4-2.7-12.6-28.2-24.8-56.8c-24.7-57.6-25.2-59.5-23.2-73.3
		c4.8-31.6,31.9-38.8,55.7-14.8l7.1,7.1L318.4,80c25.9,60.4,26.1,61.3,24.5,75.8c-1.4,12.8-7.7,23.3-16.4,27.3
		C322.3,185,311.9,185.6,307,184.1L307,184.1z M540.2,180.9c-8.4-4.3-14.2-14-16.4-27.4c-2-12.4-1.3-14.8,21.8-73
		c11.8-29.7,22.5-55.8,23.8-58c3.5-5.9,12.1-13.9,19.5-18c14.7-8.3,31.6-4.2,38.4,9.4c4.4,8.7,6.4,22.3,4.8,31.2
		c-1.7,9-43.6,113.4-47.9,119.2c-4.2,5.7-11.5,11.8-18.7,15.5C558.3,183.5,546.3,184,540.2,180.9L540.2,180.9z"/>
</g>
</svg>
