<svg xmlns="http://www.w3.org/2000/svg" xmlns:xlink="http://www.w3.org/1999/xlink" viewBox="0 0 318.67 231.59"><defs><style>.cls-1{fill:none;}.cls-2{isolation:isolate;}.cls-3,.cls-7{fill:#e99f4a;}.cls-4{fill:#fdc378;}.cls-5{clip-path:url(#clip-path);}.cls-6{opacity:0.3;}.cls-17,.cls-20,.cls-28,.cls-6,.cls-7{mix-blend-mode:multiply;}.cls-27,.cls-7{opacity:0.5;}.cls-8{fill:#e2e3e4;}.cls-27,.cls-9{fill:#fff;}.cls-10{fill:#ffd978;}.cls-11{fill:#ffd855;}.cls-12{fill:#565b59;}.cls-13,.cls-17{fill:#2c312f;}.cls-14{fill:#fab451;}.cls-15{fill:#ef5336;}.cls-16{fill:#f48239;}.cls-16,.cls-21{mix-blend-mode:screen;}.cls-17{opacity:0.6;}.cls-18{fill:#e66225;}.cls-19,.cls-21{fill:#c82329;}.cls-20,.cls-30{fill:#e53e25;}.cls-22{fill:#d94c30;}.cls-23{fill:#8c1f11;}.cls-24{fill:#ce3427;}.cls-25{fill:#fed7b4;}.cls-26{fill:#e86225;}.cls-27{mix-blend-mode:color-dodge;}.cls-28{fill:#d9ba9d;}.cls-29{fill:#e53725;}.cls-31{fill:#efbba4;}</style><clipPath id="clip-path" transform="translate(3.23 -5.3)"><path class="cls-1" d="M308.69,190.74c5.23,12.47-1.59,28.81-13.72,28.81l-273.26.36c-12.16,0-17.12-16.34-11.9-28.84L81.25,20.32c1.35-3.23,4.91-5.77,8-5.77l140-.08c3.08,0,6.64,2.53,8,5.76Z"/></clipPath></defs><g class="cls-2"><g id="Layer_1" data-name="Layer 1"><path class="cls-3" d="M308.69,190.74c5.23,12.47-3.2,28.81-13.72,28.81l-275.17.36c-11.59,0-15.21-16.34-10-28.84L81.25,20.32c1.35-3.23,4.91-5.77,8-5.77l140-.08c3.08,0,6.64,2.53,8,5.76Z" transform="translate(3.23 -5.3)"/><path class="cls-4" d="M302.45,183.76c4.69,11.44,3.7,21.28-1.22,21.57l-281.39.33c-7.47-.28-8.47-10.12-3.79-21.58L82.21,22.28C83.5,19.13,87,16.64,90,16.64l138.4-.08c3,0,6.53,2.48,7.82,5.63Z" transform="translate(3.23 -5.3)"/><g class="cls-5"><g class="cls-6"><path class="cls-4" d="M234.35,22.62a56.06,56.06,0,0,1,4.91,3.68l-1.21-2.79a105,105,0,0,0-12.94-7.34c-4.78-2.36-9.49-4.57-14.13-6.49-.43-.18-.86-.36-1.31-.53l-3.29.06a140.58,140.58,0,0,1,15.72,6.73A109.51,109.51,0,0,1,234.35,22.62Z" transform="translate(3.23 -5.3)"/><path class="cls-4" d="M215.91,22.15c10.25,4.81,20.67,10.1,30,19.47l-2-4.7A116.31,116.31,0,0,0,220,22.58c-10.73-5.06-21.83-10.19-32.32-13l-4.27.08c4.41,1.46,8.92,2.8,13.45,4.44C203.13,16.33,209.42,19.11,215.91,22.15Z" transform="translate(3.23 -5.3)"/><path class="cls-4" d="M199.58,23.41a109,109,0,0,1,38,20.91,226.18,226.18,0,0,1,16.32,15.74l-2.6-6c-2.87-2.72-5.72-5.31-8.51-7.79a120.61,120.61,0,0,0-34.14-21.08c-11.66-4.88-23.28-7.53-34.4-10.26-7.93-1.95-15.84-3.11-23.53-4.7l-5.83.11c6.88,2.05,14.3,3,21.6,4.41A268.38,268.38,0,0,1,199.58,23.41Z" transform="translate(3.23 -5.3)"/><path class="cls-4" d="M107.5,166.07c22-5.9,42.88-15.14,62.74-22.89,18-7,31.8-20.4,44.11-34.12,11-12.2,26.7-13.59,36.08-24.54,2.62-3,5.34-6.7,4.15-12.26S247.69,60.48,244.34,56a71.8,71.8,0,0,0-12.58-13.49c-5.18-4.09-11.52-7.18-16.79-9.73-12.35-6-24.71-9.29-36.23-13.41A90.81,90.81,0,0,0,155.81,14c-8.35-.76-16.84-.5-25.22-.59-16.27-.18-32.76-.86-50,2l-.73,1.74c24-2.94,47.14-2.44,70-1.71a107.55,107.55,0,0,1,17.11,1.82c6.34,1.24,12.48,4,18.87,6.28,13.17,4.68,26.79,9,40.84,17.78,6.12,3.81,10.78,10.73,15.55,17.22s7.66,11.66,4.87,17.36c-5,10.23-15.87,13-25.7,18.07.79-.69,1.56-1.39,2.3-2.16,8.46-8.78,9.68-24.77,1-37.59C218,44.24,206,38.17,197.59,34c-11-5.51-22.42-8.1-33.32-10-17.12-3-34.24-5.53-51.46-5.1-9.29.23-19,2-28.54,2.55-1.32.07-3.74-.11-6.23,0l-.92,2.22c2-.15,4.18,0,5.33,0a200,200,0,0,0,21.24-1.74c13.42-1.67,26.39-.69,39.18.93,11.84,1.5,24,3.2,36.12,6.26s27.23,8.79,38.25,20.15c13.93,14.37,6.61,33.84-4.25,42-5.26,3.94-11.39,6.51-17.3,9.85-7.58,4.28-14.74,10.87-22.51,16.57-17.86,13.09-38.06,19.38-59.29,23-21.63,3.7-41.68-.94-63.21,1a231.39,231.39,0,0,0-24.16,3.81l-4.08,9.82c16.08-3.08,32.06-6.78,46.32-7,10.39-.15,20.55.66,30.82,1.16,11.07.54,22.57-1.92,33.74-4.84,9.19-2.41,18.34-4.94,27-9.07,9.46-4.51,18-11.3,26-17.68,6.6-5.24,12.83-10.25,19.53-13.94,1.72-1,3.42-1.87,5.1-2.82-12.21,10.73-23.56,25-39.94,32.69-19.39,9.15-40.77,16.24-62.48,22.67-24.62,7.31-49.14,8.76-74.49,12.83-6,1-12.42,1.8-19.06,3.9L9.89,185.35c9.78-4.86,18.89-6.07,28.19-7.6C61.7,173.86,84.56,172.24,107.5,166.07Z" transform="translate(3.23 -5.3)"/><path class="cls-4" d="M164.14,164.86c26-12.84,49.79-27.13,67-47.35,8.19-9.62,17.47-16,25.64-23.23a43,43,0,0,0,8.09-9l-5.3-12.21c.14,1.81.85,4.79.82,5.76-.17,4.85-5.2,7.68-8,10.22-7.85,7.15-17.32,12.83-25.36,22-17.7,20.11-41.33,34.25-67.88,47.42-29,14.42-60.74,23.17-92.75,27.41-18.6,2.46-40.74,3.48-64.77,19.45l-4.84,11.65c29.11-18.88,52.61-20.75,76.43-24.06A299.15,299.15,0,0,0,164.14,164.86Z" transform="translate(3.23 -5.3)"/><path class="cls-4" d="M141.78,201.94c15.42-8.42,30.42-15,44.61-22.55,25.36-13.5,48.77-26,70.57-37.52,9.81-5.16,19.29-13.4,20.75-27l-5.65-13c-.05,7.24-1,13.87-4.17,19.58-4.25,7.53-11.43,11.83-18.71,15.56-21.93,11.22-45.5,23.52-71,36.73-13.27,6.86-27.23,12.76-41.6,20-15.59,7.87-31.78,18.43-48.86,25.88-16.16,7-32.58,12.3-49.34,17.21l40.07-1.66c4.66-1.81,9.29-3.7,13.89-5.73C109.67,221.88,126,210.53,141.78,201.94Z" transform="translate(3.23 -5.3)"/><path class="cls-4" d="M253.73,164.43c9.83-5.21,20.6-7.83,29.45-13.56a16.41,16.41,0,0,0,6.43-8.52l-5.17-11.91c-1.1,5.25-2.36,10.46-6.28,13.7-6.83,5.67-16.27,7.17-24.6,10.84-21.31,9.38-43.23,22.24-66.81,35.82-21.07,12.13-44.14,24.24-68.1,42.74l22-.92c13.28-9.23,26.2-17.07,38.48-24.82C205.77,191,230.52,176.72,253.73,164.43Z" transform="translate(3.23 -5.3)"/><path class="cls-4" d="M261.88,190.93c8.73-4.82,18.71-6.47,27.83-9.41a25.89,25.89,0,0,0,12.94-9.12l-4.9-11.29c-.16.41-.29.85-.48,1.24-3.81,8.36-11.75,10.73-19.57,12.86-8.09,2.21-16.52,3.64-24.36,7.16-9.43,4.23-18,12.23-26.76,20.36-9.4,8.73-19,18.23-29.33,27.53l21.83-.91c6.34-6.46,12.44-12.83,18.43-18.85C245.4,202.56,253.38,195.64,261.88,190.93Z" transform="translate(3.23 -5.3)"/><path class="cls-4" d="M300.31,199.82c-11,7.55-23.36,14.46-33.15,27.53l15.72-.65A273.92,273.92,0,0,1,308.09,207c2.32-1.65,4.82-3.35,7.35-5.15l-4.34-10C307.67,194.71,304,197.26,300.31,199.82Z" transform="translate(3.23 -5.3)"/><path class="cls-4" d="M213.64,80.75C217.79,73.63,225.72,65,215.9,56a58.42,58.42,0,0,0-11.1-7.74c-5.62-3.17-11-6.5-16.31-9.34-23.34-12.43-46.44-13.08-70.32-12.78-9.92.13-19.83.12-29.61-.2-3.55-.12-8-.74-12.43,0l-.7,1.69a42.41,42.41,0,0,1,8.42-.25c5.05.11,10.08.33,15.13.48,13,.39,26.21-.32,39.23-.07S164.51,30,177.37,35A141.34,141.34,0,0,1,197.49,45.3c5,3,10.59,5.74,15.49,9.88,6.72,5.68,4.19,10.91,1.15,15.74C210,77.44,206,84.59,200.23,90.37c-11.08,11.09-26.27,16-41.3,20.49-17.93,5.3-36.58,11.46-55.82,15.08-20.78,3.9-41.46,5.38-62.38,7.12q-4.71.39-9.45.83L29,139.33c34.53-3.37,68.07-5.15,101.48-14.75C162.52,115.38,196.68,109.86,213.64,80.75Z" transform="translate(3.23 -5.3)"/><path class="cls-4" d="M115.9,119.17c8.84-2.79,17.41-6.47,25.83-9.58,9.21-3.39,18.33-5.91,27.05-9.49,6.46-2.65,12.68-5.17,19-7.32,5.91-2,11.26-4.8,15.14-10.1a19.85,19.85,0,0,0,1.91-19.87c-3-6.14-8.18-10.48-13-13.72C179.38,40.62,165.63,36.32,153,33.3c-10.29-2.45-20.2-2.37-31-1.37-9.62.89-19.21,1.57-28.91,2.12-4.9.27-9.89.78-14.93,1.36a33.48,33.48,0,0,1-5.91.07l-.48,1.15a101.12,101.12,0,0,0,12.39-.16c7.34-.72,14.43-.82,21.61-1.17,12.63-.63,25.45-3.13,37.72-2s25.28,5.43,37.33,11c6.35,3,13.89,6.93,18.82,13.9,4.81,6.8,3.5,14.33.14,20.35S189.94,87.23,184,89.3c-6.89,2.4-13.76,5-20.86,7.89-8,3.21-16.41,5.47-24.86,8.38-9.09,3.15-18.35,6.93-27.9,9.84C85.49,123,59.74,124,37.65,118.55l-1.75,4.2C60.05,129.25,88.23,127.9,115.9,119.17Z" transform="translate(3.23 -5.3)"/><path class="cls-4" d="M73.19,107.56c16.77.48,33.7-3.26,50.61-8.09,15.14-4.32,29.66-9.7,42.77-17.49,6.68-4,21.3-11.78,18.6-22.77-1.73-7.07-13.21-9.37-17.55-11-12.08-4.5-23.84-8.2-36.29-8.07-6.25.07-12.5.55-18.67.15-6.63-.44-13.15-1-20-.52a170.17,170.17,0,0,0-19,2.36c-1.4.26-3,.7-4.73,1.16l-1,2.41c4.77-1,9.46-2,14.07-2.56a168.47,168.47,0,0,1,34-.64c5.66.39,11.46-.08,17.19-.23A66.47,66.47,0,0,1,151,44.49a160.91,160.91,0,0,1,17.69,5.82c4.15,1.55,14,3.33,13.26,10.35-.46,4.34-3.54,8-7.44,11.16,1.86-5,1.49-10.55-2.69-14.95-6-6.36-15.39-7.87-22.73-8.93s-14.79-1-22.14-1.44c-8.22-.51-15.42-3.33-23.93-2.29-8.2,1-16.92,4.23-25.47,5.65-4,.66-7.93,1.17-11.81,1.44h-.1l-.67,1.61c3.47-.22,6.89-.15,10.25-.54a143.12,143.12,0,0,0,19.22-4c8.07-2.09,15.25-3.18,22.41-1.35,5.89,1.5,12.31,1.72,18.61,2,9.46.4,19.18.78,28.36,4.31,4.85,1.87,9.4,5.49,8.61,12.42-.82,7.22-7.19,12.52-12.59,14.78a.25.25,0,0,0-.15.29,134.85,134.85,0,0,1-17.78,8.11c-17.49,1.69-35.14,6.18-52.36,3.73-11.42-1.62-32.29-3.45-33.63-18l-1,2.53c3,9.31,15.89,13.7,23.05,15.35,16.91,3.87,34.75,2.73,52.84.22q-4.94,1.56-10,3c-15,4.25-30,7.5-44.89,7.64-7.47.06-14.64-.64-22-.9-3.15-.11-6.35-.09-9.57,0l-1.84,4.4c1.32-.11,2.63-.21,3.9-.24C55.51,106.43,64.22,107.3,73.19,107.56Z" transform="translate(3.23 -5.3)"/><path class="cls-4" d="M66.3,73.68c5,6.41,13.85,9.2,22,11.69,11.85,3.6,26.37,2.43,39.53.83,5.94-.72,12.09-1.74,17.77-4.29,5.18-2.33,10.12-5.84,15-8.52,3.17-1.76,6.78-4.42,6.66-9-.08-2.91-3.06-4.89-4.85-6-3.39-2.08-7.67-2.3-11.35-2.7-6.83-.76-13.28-2.54-19.79-4-5.12-1.12-10.53-1.11-15.58-2.22-3.78-.84-7.65-1.62-11.87-.3a70.21,70.21,0,0,0-10.91,2.69c-4.83,1.47-9.62,2.43-14.55,3.85a18.89,18.89,0,0,0-11.31,8C64.72,67.24,64.67,71.61,66.3,73.68Zm5.45-12.61c3.37-3.23,8.4-4.17,11.79-5,3.78-.92,7.54-2.1,11.25-3.18,1.85-.55,3.69-1.06,5.51-1.51a17.76,17.76,0,0,1,2.6-.61c2.85-.28,6-1,8.73-.8a59.5,59.5,0,0,1,9,1.55,45.18,45.18,0,0,0,5,.85c8.45.83,16.48,3.73,25.11,4.66,3.85.41,16.19.64,14.31,8.67-.91,3.9-6.22,6-9,7.46-3.51,1.8-6.93,4-10.52,6.06-5.38,3-11.28,3.81-17,4.7a150.11,150.11,0,0,1-28.09,1.22c-10.17-.32-18.8-3.5-27-7.36C67.86,75.18,63.91,68.59,71.75,61.07Z" transform="translate(3.23 -5.3)"/><path class="cls-4" d="M83.6,71.13c6.24,3.79,14.87,4.91,22.79,5.32a97.46,97.46,0,0,0,28.88-2.36c5-1.26,10-2.11,14.9-3.49,2.05-.58,4.93-1,6.5-2.91,2.58-3-.76-5.52-3-6.16-2.62-.75-5.3-.9-7.93-1.42-4.74-.94-9.08-3.11-13.86-3.84a88.61,88.61,0,0,0-12.11-.8c-1.39,0-2.76-.08-4.14-.13a55.34,55.34,0,0,0-13.54,1.18,62.62,62.62,0,0,0-11.09,3,38.3,38.3,0,0,0-6.19,3.13C80.27,65.53,80.85,69.46,83.6,71.13Zm26.54-14.28.21,0c.14,0,.2,0,.21-.07,12.36-1.45,24.49,1.32,36,4.66.16,0,.33.07.49.11l.18.1c5.85,2.1.75,5.9-2.8,6.34-3.22.4-6.41.35-9.66.85-7.17,1.09-14.22.39-21.28.35-3.21,0-16.49,1.06-16.38-3.79.06-2.62,8.85-7.67,12.22-8.46ZM84,65.51c1.76-2.2,5-3.42,7.1-4.27a70,70,0,0,1,11.61-3.3c-3.54,1.85-7,4.66-7,7-.15,5.6,10.13,5.36,13.56,5.6,2.95.2,6,.13,8.95.2,8,.18,15.72-.65,23.66-1.08,3.15-.17,9,.62,10.05-4.32A3.14,3.14,0,0,0,150.29,62l1,.12c1.1.15,5.9.71,4.46,3.8-.51,1.09-2.09,1.69-3,2.12-5.36,2.55-11.32,2.7-17,4.29-14.55,4.07-31.18,4.56-44.19.48C89.2,72.08,79.87,70.65,84,65.51Z" transform="translate(3.23 -5.3)"/><path class="cls-4" d="M123.56,67.48c1.48-.08,17.14-.08,15-3.68-3.12-5.35-11.17-5.77-16.2-6.4a.57.57,0,0,0-.35,0,13.29,13.29,0,0,0-4.25.45c-2.09.59-5.32,3.44-5.62,6.07C111.66,68.5,121.49,67.59,123.56,67.48ZM115,62.41c2.62-3.46,5.31-3.53,8.08-3.47l.15.07c4.13.9,8.31,1.47,12.31,3.06,1.69,2.49,1.14,3.59-1.7,3.27-1,.12-2,.19-3,.21-2.38.1-4.74.09-7.14.28C121.78,66,111.52,67,115,62.41Z" transform="translate(3.23 -5.3)"/></g></g><path class="cls-7" d="M47.54,179.53c-15.17,6.07-16.68,29.15,37.59,19.3s75.7-24.92,59.13-36.18C125.5,149.91,67.78,171.43,47.54,179.53Z" transform="translate(3.23 -5.3)"/><path class="cls-7" d="M90.16,48.19c-9.7,3.88-10.67,18.63,24,12.34S162.58,44.6,152,37.4C140,29.25,103.09,43,90.16,48.19Z" transform="translate(3.23 -5.3)"/><path class="cls-7" d="M167.17,45.61c-9.7,3.88-10.66,18.63,24,12.34S239.59,42,229,34.82C217,26.67,180.11,40.43,167.17,45.61Z" transform="translate(3.23 -5.3)"/><path class="cls-7" d="M156,98.85c-13.47-14.15-64.74-5.3-82.8-1.72-13.54,2.68-18.53,22.33,28,23S167.91,111.36,156,98.85Z" transform="translate(3.23 -5.3)"/><path class="cls-7" d="M257.5,101.05c-13.47-14.15-64.74-5.3-82.8-1.73-13.54,2.68-18.53,22.34,28,23S269.4,113.55,257.5,101.05Z" transform="translate(3.23 -5.3)"/><path class="cls-7" d="M170.27,178.57c-15.16,6.07-15.76,30.11,38.51,20.26s78.8-28.83,57.82-41.24C249.36,147.39,190.51,170.47,170.27,178.57Z" transform="translate(3.23 -5.3)"/><path class="cls-8" d="M229.35,23.62C225.57,10.55,208.8,13.45,198,16.24s-25.39,6.57-30.9,17.32c-2.76,5.37-.76,12.18,3.34,16.26,4.53,4.52,11.89,4.57,17.8,4,7-.7,13.79-2.86,20.46-5,6.52-2.06,14.16-4.51,18.69-10C231.32,34.1,231.92,28.41,229.35,23.62Z" transform="translate(3.23 -5.3)"/><path class="cls-9" d="M171.9,37c-1.67,1.06-3.52,3.55-2.93,5.64h0a3.33,3.33,0,0,0,.24,1.1c.33.76,1.3.24,1.75-.08A7.55,7.55,0,0,0,174,37.36C174,36,172.63,36.56,171.9,37Z" transform="translate(3.23 -5.3)"/><path class="cls-9" d="M178.33,42.18a3.52,3.52,0,0,0-2,1.67c-.25.4-.81,1.5-.25,1.9l0,0c.54.38,1.38-.26,1.73-.63,0,0,0,0,.05,0a4.2,4.2,0,0,0,1.15-1.86C179.23,42.66,179.05,42,178.33,42.18Z" transform="translate(3.23 -5.3)"/><path class="cls-9" d="M191.14,37.93a2.74,2.74,0,0,0-3.09.54c-1.57,1.32-3.32,3.36-3.14,5.59a1.31,1.31,0,0,0,.42,1.09l.1.05s.07,0,.1,0a1.53,1.53,0,0,0,1.72.91c1.69-.1,3.33-2,4.14-3.29S193,38.91,191.14,37.93Z" transform="translate(3.23 -5.3)"/><path class="cls-9" d="M201.07,36.69a2.34,2.34,0,0,0-.79.39,4.32,4.32,0,0,0-1.39,1.75c-.15.34-.48,1.52.27,1.52,1.1,0,2.37-1.44,2.64-2.52C202,37.31,201.72,36.93,201.07,36.69Z" transform="translate(3.23 -5.3)"/><path class="cls-9" d="M198.13,42.4c-.89-.71-2.3-.07-3.07.5a9,9,0,0,0-2.91,3.7c-.5,1.21-.79,2.66.08,3.76a1,1,0,0,0,.48.32A1.4,1.4,0,0,0,194,51a6.72,6.72,0,0,0,3.17-2.33,6.94,6.94,0,0,0,1.75-3.9A2.62,2.62,0,0,0,198.13,42.4Z" transform="translate(3.23 -5.3)"/><path class="cls-9" d="M209.22,38c-.82-.66-2.17.74-2.59,1.28a7.89,7.89,0,0,0-.66,1,3.88,3.88,0,0,0-.38.69s0,0,0,0a3.52,3.52,0,0,0-.18.32c-.18.34-.43,1.4.26,1.44,1.34.07,2.7-1.44,3.27-2.5C209.21,39.73,209.88,38.54,209.22,38Z" transform="translate(3.23 -5.3)"/><path class="cls-9" d="M221.25,31.84c-1.17-2.27-4.7,1-5.56,2.07a14.25,14.25,0,0,0-1.28,1.89c-.12.15-.25.29-.36.44-1.13,1.48-2.42,3.5-2,5.44.42,2.12,2.37,1.5,3.68.57a17,17,0,0,0,4.16-4.81C220.75,36.08,222.11,33.49,221.25,31.84Z" transform="translate(3.23 -5.3)"/><path class="cls-9" d="M225.1,31.42a3.38,3.38,0,0,0-2.5,1.85c-.21.36-1,2.21,0,2.21a3.36,3.36,0,0,0,2.5-1.85C225.34,33.28,226.17,31.42,225.1,31.42Z" transform="translate(3.23 -5.3)"/><path class="cls-9" d="M227.18,24.6a2.94,2.94,0,0,0-1.76,1.71c-.29.67-.12,1.59.79,1.1a3,3,0,0,0,1.43-1.47C227.84,25.48,228,24.4,227.18,24.6Z" transform="translate(3.23 -5.3)"/><path class="cls-9" d="M181.5,47.11a6,6,0,0,0-1.57,1.71,3.61,3.61,0,0,0-.54,1.53,2.3,2.3,0,0,0-.33,1.08.54.54,0,0,0,.73.58,5.49,5.49,0,0,0,3.54-4.59C183.49,46.2,182,46.78,181.5,47.11Z" transform="translate(3.23 -5.3)"/><path class="cls-9" d="M211.66,29.86a4.64,4.64,0,0,0-3,2.56,6.31,6.31,0,0,0-1.15,2.21c-.07.28-.07.8.33.83,2.45.21,4.42-2.84,4.59-5C212.45,30,212.07,29.78,211.66,29.86Z" transform="translate(3.23 -5.3)"/><path class="cls-10" d="M228.76,16.22c-2.93-8.45-14.7-9-21.49-8.19-8.85,1.1-17.6,5.45-25.67,9.25a42.64,42.64,0,0,0-11,7.68c-1.51,1.43-3.86,3.34-4.38,5.52-1.49,6.27,8.58,10.33,13.07,10.86A30.28,30.28,0,0,0,191.66,40c4.68-1.44,9.08-3.92,13.44-6.16,5.77-2.95,11.9-4,17.94-6A8.71,8.71,0,0,0,228.76,16.22Z" transform="translate(3.23 -5.3)"/><path class="cls-11" d="M227,20.47c-5,3.07-11,3.11-16.38,5-6.32,2.24-12.13,5.61-18.39,8-5.29,2-24.5,1.72-24.53-5.54a6.51,6.51,0,0,0-1.41,2.56c-1.49,6.27,8.58,10.33,13.07,10.86A30.28,30.28,0,0,0,191.66,40c4.68-1.44,9.08-3.92,13.44-6.16,5.77-2.95,11.9-4,17.94-6,4.37-1.47,6.85-5.27,6.19-9.67A6.33,6.33,0,0,1,227,20.47Z" transform="translate(3.23 -5.3)"/><path class="cls-12" d="M180.06,18.05s17.59,2.19,19.18,11.79-1.52,22.48-1.52,22.48,16.33-3.83,22.11-7.73c0,0,6.67-17.68-1.08-25.19s-18.91-9.75-18.91-9.75S186,13.16,180.06,18.05Z" transform="translate(3.23 -5.3)"/><path class="cls-13" d="M213.74,25.56c-4,1.33-8.13,2.5-12.23,3.62-.75.2-1.51.43-2.27.66,1.6,9.61-1.52,22.48-1.52,22.48s16.33-3.83,22.11-7.73c0,0,5-13.36,1.25-21.79C218.66,23.79,216.22,24.74,213.74,25.56Z" transform="translate(3.23 -5.3)"/><path class="cls-8" d="M149,23.53c-3.79-13.07-20.56-10.17-31.35-7.37s-25.39,6.56-30.9,17.31C84,38.85,86,45.65,90.09,49.74c4.53,4.52,11.89,4.56,17.8,4,7-.7,13.8-2.87,20.46-5s14.16-4.51,18.7-10C151,34,151.56,28.33,149,23.53Z" transform="translate(3.23 -5.3)"/><path class="cls-9" d="M91.55,36.93c-1.68,1-3.53,3.54-2.93,5.63v0a3.08,3.08,0,0,0,.23,1.09c.33.77,1.3.24,1.75-.07a7.54,7.54,0,0,0,3-6.33C93.6,35.91,92.27,36.47,91.55,36.93Z" transform="translate(3.23 -5.3)"/><path class="cls-9" d="M98,42.09a3.52,3.52,0,0,0-2,1.67c-.25.41-.81,1.5-.24,1.91l0,0c.54.39,1.37-.25,1.72-.62l0,0a4.24,4.24,0,0,0,1.15-1.87C98.87,42.58,98.69,41.93,98,42.09Z" transform="translate(3.23 -5.3)"/><path class="cls-9" d="M110.79,37.85a2.74,2.74,0,0,0-3.1.54c-1.57,1.31-3.32,3.36-3.14,5.59a1.32,1.32,0,0,0,.42,1.09l.1,0,.1,0a1.55,1.55,0,0,0,1.72.92c1.69-.11,3.34-2,4.15-3.29S112.68,38.82,110.79,37.85Z" transform="translate(3.23 -5.3)"/><path class="cls-9" d="M120.71,36.61a2.2,2.2,0,0,0-.78.39,4.25,4.25,0,0,0-1.4,1.74c-.15.34-.48,1.52.27,1.52,1.11,0,2.37-1.44,2.64-2.52C121.61,37.22,121.37,36.85,120.71,36.61Z" transform="translate(3.23 -5.3)"/><path class="cls-9" d="M117.78,42.32c-.9-.71-2.31-.07-3.08.5a8.92,8.92,0,0,0-2.9,3.7c-.51,1.21-.8,2.66.07,3.75a1,1,0,0,0,.48.32,1.42,1.42,0,0,0,1.27.28,6.76,6.76,0,0,0,3.16-2.33,7,7,0,0,0,1.76-3.9A2.67,2.67,0,0,0,117.78,42.32Z" transform="translate(3.23 -5.3)"/><path class="cls-9" d="M128.86,37.93c-.82-.65-2.16.74-2.59,1.28a11.18,11.18,0,0,0-.66,1,4.09,4.09,0,0,0-.38.68s0,0,0,0l-.18.32c-.17.35-.43,1.41.26,1.44,1.34.07,2.7-1.43,3.27-2.5C128.86,39.64,129.52,38.46,128.86,37.93Z" transform="translate(3.23 -5.3)"/><path class="cls-9" d="M140.9,31.75c-1.18-2.27-4.71,1-5.56,2.08a13.42,13.42,0,0,0-1.29,1.89l-.36.44c-1.13,1.47-2.41,3.49-2,5.44.42,2.11,2.37,1.5,3.69.57a17.31,17.31,0,0,0,4.16-4.81C140.4,36,141.75,33.4,140.9,31.75Z" transform="translate(3.23 -5.3)"/><path class="cls-9" d="M144.75,31.34a3.36,3.36,0,0,0-2.5,1.85c-.22.35-1.05,2.2,0,2.2a3.35,3.35,0,0,0,2.5-1.84C145,33.19,145.82,31.34,144.75,31.34Z" transform="translate(3.23 -5.3)"/><path class="cls-9" d="M146.82,24.51a3,3,0,0,0-1.76,1.72c-.29.66-.11,1.59.79,1.09a3,3,0,0,0,1.43-1.46C147.48,25.4,147.68,24.32,146.82,24.51Z" transform="translate(3.23 -5.3)"/><path class="cls-9" d="M101.14,47a6.06,6.06,0,0,0-1.57,1.7A3.48,3.48,0,0,0,99,50.26a2.24,2.24,0,0,0-.34,1.08.55.55,0,0,0,.73.59,5.51,5.51,0,0,0,3.55-4.6C103.13,46.11,101.62,46.69,101.14,47Z" transform="translate(3.23 -5.3)"/><path class="cls-9" d="M131.3,29.77a4.66,4.66,0,0,0-3,2.56,6.19,6.19,0,0,0-1.15,2.22c-.08.28-.08.79.32.83,2.46.2,4.42-2.85,4.59-5A.57.57,0,0,0,131.3,29.77Z" transform="translate(3.23 -5.3)"/><path class="cls-10" d="M148.4,16.14c-2.92-8.46-14.69-9-21.49-8.2-8.85,1.11-17.6,5.46-25.66,9.25a42.93,42.93,0,0,0-11,7.68c-1.51,1.43-3.86,3.35-4.38,5.52C84.4,36.67,94.48,40.73,99,41.25a30.24,30.24,0,0,0,12.34-1.39c4.68-1.44,9.08-3.92,13.44-6.15,5.77-3,11.91-4,17.94-6C147.67,26,150.2,21.32,148.4,16.14Z" transform="translate(3.23 -5.3)"/><path class="cls-14" d="M146.6,20.38c-5,3.08-11,3.12-16.38,5-6.31,2.24-12.12,5.61-18.39,8-5.29,2-24.5,1.71-24.53-5.54a6.66,6.66,0,0,0-1.41,2.55C84.4,36.67,94.48,40.73,99,41.25a30.24,30.24,0,0,0,12.34-1.39c4.68-1.44,9.08-3.92,13.44-6.15,5.77-3,11.91-4,17.94-6,4.37-1.47,6.85-5.26,6.2-9.66A6.35,6.35,0,0,1,146.6,20.38Z" transform="translate(3.23 -5.3)"/><path class="cls-12" d="M99.7,18s17.59,2.19,19.19,11.79-1.53,22.48-1.53,22.48,16.33-3.84,22.12-7.73c0,0,6.66-17.68-1.09-25.2s-18.91-9.75-18.91-9.75S105.63,13.08,99.7,18Z" transform="translate(3.23 -5.3)"/><path class="cls-13" d="M133.38,25.48c-4,1.33-8.13,2.49-12.22,3.61-.76.21-1.51.44-2.27.67,1.59,9.6-1.53,22.48-1.53,22.48s16.33-3.84,22.12-7.73c0,0,5-13.37,1.25-21.8C138.3,23.71,135.87,24.66,133.38,25.48Z" transform="translate(3.23 -5.3)"/><path class="cls-15" d="M100.81,22.24a3.29,3.29,0,1,1-3.29-3.3A3.29,3.29,0,0,1,100.81,22.24Z" transform="translate(3.23 -5.3)"/><path class="cls-16" d="M97.52,21.65a1.36,1.36,0,1,1-1.35-1.35A1.36,1.36,0,0,1,97.52,21.65Z" transform="translate(3.23 -5.3)"/><path class="cls-15" d="M95.53,29.73a3.3,3.3,0,1,1-3.29-3.3A3.29,3.29,0,0,1,95.53,29.73Z" transform="translate(3.23 -5.3)"/><path class="cls-16" d="M92.24,29.15a1.36,1.36,0,1,1-1.36-1.36A1.35,1.35,0,0,1,92.24,29.15Z" transform="translate(3.23 -5.3)"/><path class="cls-15" d="M104.11,29.76a3.3,3.3,0,1,1-3.3-3.3A3.29,3.29,0,0,1,104.11,29.76Z" transform="translate(3.23 -5.3)"/><path class="cls-16" d="M100.81,29.18a1.36,1.36,0,0,1-2.71,0,1.36,1.36,0,1,1,2.71,0Z" transform="translate(3.23 -5.3)"/><path class="cls-15" d="M108.44,22.71a3.29,3.29,0,1,1-3.29-3.29A3.29,3.29,0,0,1,108.44,22.71Z" transform="translate(3.23 -5.3)"/><path class="cls-16" d="M105.15,22.13a1.36,1.36,0,1,1-1.36-1.35A1.36,1.36,0,0,1,105.15,22.13Z" transform="translate(3.23 -5.3)"/><path class="cls-15" d="M141.75,10a3.3,3.3,0,1,1-3.29-3.3A3.29,3.29,0,0,1,141.75,10Z" transform="translate(3.23 -5.3)"/><path class="cls-16" d="M138.46,9.37A1.36,1.36,0,1,1,137.1,8,1.35,1.35,0,0,1,138.46,9.37Z" transform="translate(3.23 -5.3)"/><path class="cls-15" d="M132.87,8.59a3.3,3.3,0,1,1-3.29-3.29A3.29,3.29,0,0,1,132.87,8.59Z" transform="translate(3.23 -5.3)"/><path class="cls-16" d="M129.57,8a1.36,1.36,0,1,1-1.35-1.36A1.35,1.35,0,0,1,129.57,8Z" transform="translate(3.23 -5.3)"/><path class="cls-15" d="M113.42,27.82a3.3,3.3,0,1,1-3.29-3.29A3.29,3.29,0,0,1,113.42,27.82Z" transform="translate(3.23 -5.3)"/><path class="cls-16" d="M110.13,27.24a1.36,1.36,0,1,1-1.36-1.36A1.36,1.36,0,0,1,110.13,27.24Z" transform="translate(3.23 -5.3)"/><path class="cls-15" d="M138.46,14.6a3.3,3.3,0,1,1-3.3-3.3A3.29,3.29,0,0,1,138.46,14.6Z" transform="translate(3.23 -5.3)"/><path class="cls-16" d="M135.16,14a1.36,1.36,0,1,1-1.35-1.36A1.35,1.35,0,0,1,135.16,14Z" transform="translate(3.23 -5.3)"/><path class="cls-15" d="M146.8,16.1a3.3,3.3,0,1,1-3.29-3.29A3.29,3.29,0,0,1,146.8,16.1Z" transform="translate(3.23 -5.3)"/><path class="cls-16" d="M143.51,15.52a1.36,1.36,0,1,1-1.36-1.36A1.36,1.36,0,0,1,143.51,15.52Z" transform="translate(3.23 -5.3)"/><path class="cls-13" d="M254,103a1.7,1.7,0,0,0,0-.22,1.85,1.85,0,0,0,0-.23V73.14H170.27v29.6c0,6.42,18.75,11.63,41.87,11.63,22.59,0,41-5,41.78-11.2h0Z" transform="translate(3.23 -5.3)"/><path class="cls-17" d="M254,102.51V73.14H214.28v41.2c21.59-.3,38.84-5.15,39.64-11.17h0V103a1.7,1.7,0,0,0,0-.22A1.85,1.85,0,0,0,254,102.51Z" transform="translate(3.23 -5.3)"/><path class="cls-12" d="M254,73.14c0,6.43-18.74,11.64-41.86,11.64s-41.87-5.21-41.87-11.64S189,61.5,212.14,61.5,254,66.71,254,73.14Z" transform="translate(3.23 -5.3)"/><path class="cls-8" d="M248.8,73.48c0,5.63-16.41,10.19-36.66,10.19s-36.66-4.56-36.66-10.19,16.41-10.19,36.66-10.19S248.8,67.85,248.8,73.48Z" transform="translate(3.23 -5.3)"/><path class="cls-9" d="M238,70.47c0,4-11.57,7.18-25.84,7.18s-25.85-3.21-25.85-7.18,11.58-7.18,25.85-7.18S238,66.5,238,70.47Z" transform="translate(3.23 -5.3)"/><path class="cls-18" d="M220.58,67.35c-2-.7-4-1.31-6-2-2.39.73-4.7,1.6-7,2.48,2.07,1.18,4.25,2.25,6.45,3.29,1.29-.68,2.58-1.35,3.92-2,1.13-.52,2.26-1,3.39-1.54Z" transform="translate(3.23 -5.3)"/><path class="cls-18" d="M228.91,71c-2-.69-4-1.3-6-2-2.38.74-4.7,1.61-7,2.49,2.07,1.18,4.26,2.24,6.45,3.29,1.29-.68,2.58-1.35,3.92-2l3.39-1.53Z" transform="translate(3.23 -5.3)"/><path class="cls-18" d="M201.5,67.37c-3.71,1.15-7.34,2.51-10.87,3.89,3.23,1.85,6.65,3.5,10.09,5.13,2-1.06,9.65-3.73,11.42-4.51C211.7,71.72,204.59,68.41,201.5,67.37Z" transform="translate(3.23 -5.3)"/><path class="cls-18" d="M222.51,76.23c-3.07-1.09-6.22-2-9.32-3.09-3.71,1.15-7.34,2.51-10.87,3.89,3.24,1.85,6.65,3.51,10.09,5.13,2-1.06,4-2.1,6.12-3.06,1.77-.81,3.53-1.61,5.3-2.4C223.4,76.54,223,76.38,222.51,76.23Z" transform="translate(3.23 -5.3)"/><path class="cls-19" d="M234.37,58.75c-1.53-7.87-9.48-9.87-16.44-10.2-13.31-.63-32.39,2.7-41.73,13.16-6.77,5.92-12.26,15.89-.84,19.7,6.93,2.31,15.47-1.74,21.59-4.53,6.45-2.95,12.61-5.69,19.59-7.29,4.05-.92,8.09-1.52,12-3C231.28,65.45,235,62.12,234.37,58.75Z" transform="translate(3.23 -5.3)"/><path class="cls-20" d="M234.37,58.75A10.52,10.52,0,0,0,231.31,53a5.2,5.2,0,0,1-2.67,5.21c-4.09,2.34-8.83,2.51-13.39,3.23a88.58,88.58,0,0,0-17.43,4.2c-5.13,1.93-9.35,5-14.27,7.25-3,1.38-6.15,2.46-9.35,1.15-3.7-1.52-3.85-4.31-2.69-7.13-3.78,5.44-4.64,11.68,3.85,14.51,6.93,2.31,15.47-1.74,21.59-4.53,6.45-2.95,12.61-5.69,19.59-7.29,4.05-.92,8.09-1.52,12-3C231.28,65.45,235,62.12,234.37,58.75Z" transform="translate(3.23 -5.3)"/><path class="cls-21" d="M176.2,61.71c-.7.61-1.39,1.27-2,1.95a25.35,25.35,0,0,0-4.42,13.85,5.56,5.56,0,0,0,.59.81,32.77,32.77,0,0,1,3-10.57,45,45,0,0,1,6.4-9.17,5.51,5.51,0,0,1,.41-.43A27.34,27.34,0,0,0,176.2,61.71Z" transform="translate(3.23 -5.3)"/><path class="cls-21" d="M190.16,52.78c-.62.24-1.25.45-1.86.71C180.22,59.65,173.63,70,173,80.41c.31.16.63.31,1,.46C175,69.91,181.58,59.82,190.16,52.78Z" transform="translate(3.23 -5.3)"/><path class="cls-21" d="M204.08,59.5c6.62-4.32,14-7.09,21.35-9.75-.57-.18-1.15-.33-1.74-.47-14,5-32.4,13.16-32.92,30.25l1-.41C191.54,71,197.6,63.74,204.08,59.5Z" transform="translate(3.23 -5.3)"/><path class="cls-21" d="M213.35,60.57c5.81-3.26,12.08-5.2,18.42-7-.22-.23-.43-.48-.67-.7-13.38,3-28.77,10.07-32.92,23.5l1.79-.81C203,69.23,207.09,64.08,213.35,60.57Z" transform="translate(3.23 -5.3)"/><path class="cls-21" d="M234.38,58.82a.15.15,0,0,0,0-.07c0-.21-.09-.4-.14-.6-8.8,1.79-19.15,5.42-23.74,13.18.72-.25,1.46-.47,2.19-.69C218.6,64.26,226.31,61.32,234.38,58.82Z" transform="translate(3.23 -5.3)"/><path class="cls-21" d="M186.06,74.78a36.35,36.35,0,0,1,6.87-12.27,50.68,50.68,0,0,1,19.7-13.94l-1.77.07c-6.73,3.42-13.52,7.21-18.44,13a33.32,33.32,0,0,0-7.11,12.78,53.54,53.54,0,0,0-1.71,7.2c.19,0,.38-.08.57-.12A53,53,0,0,1,186.06,74.78Z" transform="translate(3.23 -5.3)"/><path class="cls-21" d="M201.81,49.67c-.81.15-1.62.27-2.44.44a.72.72,0,0,1-.31.47c-11.12,7.66-18.95,18.34-20.3,31.46.3,0,.62,0,.93,0C180.06,68.65,190.79,57,201.81,49.67Z" transform="translate(3.23 -5.3)"/><path class="cls-19" d="M251.17,69c-1.53-7.87-9.48-9.87-16.44-10.2-13.31-.63-32.4,2.7-41.74,13.16-6.77,5.92-12.25,15.9-.83,19.7,6.93,2.31,15.47-1.74,21.58-4.53,6.46-3,12.61-5.69,19.59-7.29,4.06-.92,8.1-1.52,12-3C248.08,75.68,251.82,72.36,251.17,69Z" transform="translate(3.23 -5.3)"/><path class="cls-20" d="M251.17,69a10.6,10.6,0,0,0-3.07-5.76,5.17,5.17,0,0,1-2.67,5.21c-4.08,2.34-8.83,2.51-13.38,3.23a88.24,88.24,0,0,0-17.43,4.2c-5.14,1.93-9.35,5-14.27,7.25-3,1.38-6.15,2.46-9.35,1.15-3.71-1.52-3.85-4.31-2.7-7.13-3.78,5.45-4.63,11.68,3.86,14.51,6.93,2.31,15.47-1.74,21.58-4.53,6.46-3,12.61-5.69,19.59-7.29,4.06-.92,8.1-1.52,12-3C248.08,75.68,251.82,72.36,251.17,69Z" transform="translate(3.23 -5.3)"/><path class="cls-21" d="M193,71.94c-.7.61-1.38,1.27-2,2a25.37,25.37,0,0,0-4.42,13.85,6.34,6.34,0,0,0,.58.81,32.66,32.66,0,0,1,3-10.56,44.4,44.4,0,0,1,6.39-9.18c.12-.14.27-.29.41-.43A27.88,27.88,0,0,0,193,71.94Z" transform="translate(3.23 -5.3)"/><path class="cls-21" d="M207,63c-.61.24-1.25.45-1.85.71-8.08,6.16-14.67,16.49-15.3,26.92.31.16.63.31,1,.46C191.79,80.15,198.37,70.05,207,63Z" transform="translate(3.23 -5.3)"/><path class="cls-21" d="M220.88,69.74c6.61-4.33,14-7.1,21.35-9.76-.57-.18-1.16-.33-1.75-.47-14,5-32.39,13.16-32.92,30.25l1-.41C208.33,81.27,214.4,74,220.88,69.74Z" transform="translate(3.23 -5.3)"/><path class="cls-21" d="M230.15,70.8c5.81-3.26,12.08-5.2,18.41-7-.21-.24-.43-.49-.66-.71-13.39,3-28.78,10.07-32.93,23.5l1.79-.81C219.79,79.46,223.88,74.31,230.15,70.8Z" transform="translate(3.23 -5.3)"/><path class="cls-21" d="M251.18,69.05a.2.2,0,0,1,0-.07c0-.21-.1-.4-.15-.6-8.79,1.79-19.15,5.42-23.74,13.18.72-.25,1.46-.47,2.19-.69C235.4,74.49,243.1,71.55,251.18,69.05Z" transform="translate(3.23 -5.3)"/><path class="cls-21" d="M202.85,85a36.54,36.54,0,0,1,6.88-12.27,50.68,50.68,0,0,1,19.7-13.94l-1.77.07c-6.73,3.42-13.53,7.21-18.44,13.05a33.26,33.26,0,0,0-7.11,12.78,52.06,52.06,0,0,0-1.71,7.2c.19,0,.38-.08.57-.12A53,53,0,0,1,202.85,85Z" transform="translate(3.23 -5.3)"/><path class="cls-21" d="M218.61,59.9c-.82.15-1.63.27-2.44.44a.73.73,0,0,1-.32.47c-11.11,7.66-18.95,18.34-20.3,31.46.31,0,.63,0,.93,0C196.86,78.88,207.59,67.24,218.61,59.9Z" transform="translate(3.23 -5.3)"/><path class="cls-13" d="M155.15,102.5c0-.08,0-.15,0-.22s0-.16,0-.23V72.68H71.46v29.6c0,6.42,18.74,11.63,41.86,11.63,22.59,0,41-5,41.79-11.2h0Z" transform="translate(3.23 -5.3)"/><path class="cls-17" d="M155.15,102.05V72.68H115.47v41.2c21.59-.3,38.83-5.15,39.64-11.17h0v-.21c0-.08,0-.15,0-.22S155.15,102.12,155.15,102.05Z" transform="translate(3.23 -5.3)"/><path class="cls-12" d="M155.19,72.68c0,6.42-18.75,11.63-41.87,11.63S71.46,79.1,71.46,72.68,90.2,61,113.32,61,155.19,66.25,155.19,72.68Z" transform="translate(3.23 -5.3)"/><path class="cls-8" d="M150,73c0,5.62-16.41,10.19-36.66,10.19S76.66,78.64,76.66,73s16.41-10.2,36.66-10.2S150,67.38,150,73Z" transform="translate(3.23 -5.3)"/><path class="cls-9" d="M139.17,70c0,4-11.58,7.18-25.85,7.18S87.48,74,87.48,70s11.57-7.19,25.84-7.19S139.17,66,139.17,70Z" transform="translate(3.23 -5.3)"/><path class="cls-22" d="M99.28,58.59a5.16,5.16,0,1,1-5.16-5.16A5.16,5.16,0,0,1,99.28,58.59Z" transform="translate(3.23 -5.3)"/><path class="cls-16" d="M94.12,57.68A2.13,2.13,0,1,1,92,55.55,2.13,2.13,0,0,1,94.12,57.68Z" transform="translate(3.23 -5.3)"/><path class="cls-22" d="M150.29,61.12A5.16,5.16,0,1,1,145.13,56,5.15,5.15,0,0,1,150.29,61.12Z" transform="translate(3.23 -5.3)"/><path class="cls-16" d="M145.13,60.21A2.13,2.13,0,1,1,143,58.08,2.12,2.12,0,0,1,145.13,60.21Z" transform="translate(3.23 -5.3)"/><path class="cls-23" d="M132.79,62.83a5.16,5.16,0,1,1-5.16-5.16A5.15,5.15,0,0,1,132.79,62.83Z" transform="translate(3.23 -5.3)"/><path class="cls-16" d="M127.63,61.92a2.13,2.13,0,1,1-2.13-2.13A2.13,2.13,0,0,1,127.63,61.92Z" transform="translate(3.23 -5.3)"/><path class="cls-23" d="M120.63,62.83a5.16,5.16,0,1,1-5.16-5.16A5.15,5.15,0,0,1,120.63,62.83Z" transform="translate(3.23 -5.3)"/><path class="cls-16" d="M115.47,61.92a2.13,2.13,0,1,1-2.13-2.13A2.12,2.12,0,0,1,115.47,61.92Z" transform="translate(3.23 -5.3)"/><path class="cls-23" d="M106.56,64.15A5.16,5.16,0,1,1,101.4,59,5.16,5.16,0,0,1,106.56,64.15Z" transform="translate(3.23 -5.3)"/><path class="cls-16" d="M101.4,63.24a2.13,2.13,0,1,1-2.12-2.12A2.12,2.12,0,0,1,101.4,63.24Z" transform="translate(3.23 -5.3)"/><path class="cls-23" d="M112.53,68a5.16,5.16,0,1,1-5.16-5.16A5.16,5.16,0,0,1,112.53,68Z" transform="translate(3.23 -5.3)"/><path class="cls-16" d="M107.37,67.07A2.13,2.13,0,1,1,105.24,65,2.13,2.13,0,0,1,107.37,67.07Z" transform="translate(3.23 -5.3)"/><path class="cls-23" d="M125.78,67.48a5.16,5.16,0,1,1-5.15-5.16A5.16,5.16,0,0,1,125.78,67.48Z" transform="translate(3.23 -5.3)"/><path class="cls-16" d="M120.62,66.57a2.13,2.13,0,1,1-2.12-2.12A2.12,2.12,0,0,1,120.62,66.57Z" transform="translate(3.23 -5.3)"/><path class="cls-24" d="M155.45,69.31a5.16,5.16,0,1,1-5.16-5.16A5.16,5.16,0,0,1,155.45,69.31Z" transform="translate(3.23 -5.3)"/><path class="cls-16" d="M150.29,68.4a2.13,2.13,0,1,1-2.13-2.12A2.13,2.13,0,0,1,150.29,68.4Z" transform="translate(3.23 -5.3)"/><path class="cls-22" d="M142.2,63.23A5.16,5.16,0,1,1,137,58.07,5.16,5.16,0,0,1,142.2,63.23Z" transform="translate(3.23 -5.3)"/><path class="cls-16" d="M137,62.32a2.13,2.13,0,1,1-2.13-2.13A2.12,2.12,0,0,1,137,62.32Z" transform="translate(3.23 -5.3)"/><path class="cls-15" d="M147.36,70.21a5.16,5.16,0,1,1-5.16-5.15A5.16,5.16,0,0,1,147.36,70.21Z" transform="translate(3.23 -5.3)"/><path class="cls-16" d="M142.2,69.31a2.13,2.13,0,1,1-2.13-2.13A2.12,2.12,0,0,1,142.2,69.31Z" transform="translate(3.23 -5.3)"/><path class="cls-24" d="M137,70.52a5.16,5.16,0,1,1-5.16-5.16A5.15,5.15,0,0,1,137,70.52Z" transform="translate(3.23 -5.3)"/><path class="cls-16" d="M131.88,69.61a2.13,2.13,0,1,1-2.13-2.13A2.12,2.12,0,0,1,131.88,69.61Z" transform="translate(3.23 -5.3)"/><path class="cls-15" d="M127.73,70.22a5.16,5.16,0,1,1-5.16-5.16A5.16,5.16,0,0,1,127.73,70.22Z" transform="translate(3.23 -5.3)"/><path class="cls-16" d="M122.57,69.31a2.13,2.13,0,1,1-2.13-2.13A2.13,2.13,0,0,1,122.57,69.31Z" transform="translate(3.23 -5.3)"/><path class="cls-24" d="M109.5,71.44a5.16,5.16,0,1,1-5.16-5.16A5.16,5.16,0,0,1,109.5,71.44Z" transform="translate(3.23 -5.3)"/><path class="cls-16" d="M104.34,70.53a2.13,2.13,0,1,1-2.13-2.13A2.13,2.13,0,0,1,104.34,70.53Z" transform="translate(3.23 -5.3)"/><path class="cls-22" d="M96.25,65.35a5.16,5.16,0,1,1-5.16-5.16A5.16,5.16,0,0,1,96.25,65.35Z" transform="translate(3.23 -5.3)"/><path class="cls-16" d="M91.09,64.44A2.13,2.13,0,1,1,89,62.32,2.13,2.13,0,0,1,91.09,64.44Z" transform="translate(3.23 -5.3)"/><path class="cls-15" d="M101.4,72.34a5.16,5.16,0,1,1-5.15-5.16A5.16,5.16,0,0,1,101.4,72.34Z" transform="translate(3.23 -5.3)"/><path class="cls-16" d="M96.24,71.43a2.13,2.13,0,1,1-2.12-2.12A2.12,2.12,0,0,1,96.24,71.43Z" transform="translate(3.23 -5.3)"/><path class="cls-24" d="M91.09,72.64a5.16,5.16,0,1,1-5.16-5.16A5.16,5.16,0,0,1,91.09,72.64Z" transform="translate(3.23 -5.3)"/><path class="cls-16" d="M85.93,71.73a2.13,2.13,0,1,1-2.13-2.12A2.13,2.13,0,0,1,85.93,71.73Z" transform="translate(3.23 -5.3)"/><path class="cls-15" d="M81.78,72.35a5.16,5.16,0,1,1-5.16-5.17A5.16,5.16,0,0,1,81.78,72.35Z" transform="translate(3.23 -5.3)"/><path class="cls-16" d="M76.62,71.44a2.13,2.13,0,1,1-2.13-2.13A2.12,2.12,0,0,1,76.62,71.44Z" transform="translate(3.23 -5.3)"/><path class="cls-15" d="M94.12,77.19A5.16,5.16,0,1,1,89,72,5.16,5.16,0,0,1,94.12,77.19Z" transform="translate(3.23 -5.3)"/><path class="cls-16" d="M89,76.28a2.13,2.13,0,1,1-2.12-2.13A2.12,2.12,0,0,1,89,76.28Z" transform="translate(3.23 -5.3)"/><path class="cls-15" d="M142.2,76A5.16,5.16,0,1,1,137,70.83,5.16,5.16,0,0,1,142.2,76Z" transform="translate(3.23 -5.3)"/><path class="cls-16" d="M137,75.08A2.13,2.13,0,1,1,134.91,73,2.12,2.12,0,0,1,137,75.08Z" transform="translate(3.23 -5.3)"/><path class="cls-24" d="M126.4,59a5.16,5.16,0,1,1-5.15-5.16A5.16,5.16,0,0,1,126.4,59Z" transform="translate(3.23 -5.3)"/><path class="cls-16" d="M121.24,58.08A2.13,2.13,0,1,1,119.12,56,2.12,2.12,0,0,1,121.24,58.08Z" transform="translate(3.23 -5.3)"/><path class="cls-15" d="M120.91,65a5.16,5.16,0,1,1-5.16-5.16A5.15,5.15,0,0,1,120.91,65Z" transform="translate(3.23 -5.3)"/><path class="cls-16" d="M115.75,64a2.13,2.13,0,1,1-2.12-2.13A2.12,2.12,0,0,1,115.75,64Z" transform="translate(3.23 -5.3)"/><path class="cls-24" d="M112.25,59.79a5.16,5.16,0,1,1-5.16-5.16A5.16,5.16,0,0,1,112.25,59.79Z" transform="translate(3.23 -5.3)"/><path class="cls-16" d="M107.09,58.88A2.13,2.13,0,1,1,105,56.76,2.12,2.12,0,0,1,107.09,58.88Z" transform="translate(3.23 -5.3)"/><path class="cls-22" d="M87.48,65a5.16,5.16,0,1,1-5.16-5.16A5.16,5.16,0,0,1,87.48,65Z" transform="translate(3.23 -5.3)"/><path class="cls-16" d="M82.32,64a2.13,2.13,0,1,1-2.12-2.13A2.12,2.12,0,0,1,82.32,64Z" transform="translate(3.23 -5.3)"/><path class="cls-24" d="M132.79,78.11A5.16,5.16,0,1,1,127.63,73,5.16,5.16,0,0,1,132.79,78.11Z" transform="translate(3.23 -5.3)"/><path class="cls-16" d="M127.63,77.21a2.13,2.13,0,1,1-2.13-2.13A2.13,2.13,0,0,1,127.63,77.21Z" transform="translate(3.23 -5.3)"/><path class="cls-22" d="M119.54,72a5.16,5.16,0,1,1-5.16-5.16A5.16,5.16,0,0,1,119.54,72Z" transform="translate(3.23 -5.3)"/><path class="cls-16" d="M114.38,71.12A2.13,2.13,0,1,1,112.25,69,2.13,2.13,0,0,1,114.38,71.12Z" transform="translate(3.23 -5.3)"/><path class="cls-15" d="M124.69,79a5.16,5.16,0,1,1-5.15-5.16A5.15,5.15,0,0,1,124.69,79Z" transform="translate(3.23 -5.3)"/><path class="cls-16" d="M119.54,78.11A2.13,2.13,0,1,1,117.41,76,2.13,2.13,0,0,1,119.54,78.11Z" transform="translate(3.23 -5.3)"/><path class="cls-24" d="M114.38,79.32a5.16,5.16,0,1,1-5.16-5.16A5.16,5.16,0,0,1,114.38,79.32Z" transform="translate(3.23 -5.3)"/><path class="cls-16" d="M109.22,78.41a2.13,2.13,0,1,1-2.13-2.13A2.12,2.12,0,0,1,109.22,78.41Z" transform="translate(3.23 -5.3)"/><path class="cls-15" d="M105.07,79a5.16,5.16,0,1,1-5.16-5.16A5.16,5.16,0,0,1,105.07,79Z" transform="translate(3.23 -5.3)"/><path class="cls-16" d="M99.91,78.11A2.13,2.13,0,1,1,97.79,76,2.12,2.12,0,0,1,99.91,78.11Z" transform="translate(3.23 -5.3)"/><path class="cls-8" d="M273.37,137.48c-6.89-23.82-37.47-18.54-57.14-13.44s-46.3,12-56.35,31.57c-5,9.8-1.38,22.21,6.09,29.65,8.26,8.25,21.67,8.32,32.45,7.24,12.74-1.27,25.16-5.22,37.31-9.07,11.9-3.77,25.82-8.23,34.09-18.21C277,156.59,278.05,146.23,273.37,137.48Z" transform="translate(3.23 -5.3)"/><path class="cls-9" d="M168.62,161.91c-3.05,1.92-6.42,6.46-5.34,10.27l0,0a5.94,5.94,0,0,0,.42,2c.61,1.41,2.37.44,3.2-.14a13.74,13.74,0,0,0,5.56-11.52C172.37,160.05,169.94,161.08,168.62,161.91Z" transform="translate(3.23 -5.3)"/><path class="cls-9" d="M180.33,171.33a6.39,6.39,0,0,0-3.55,3c-.45.74-1.48,2.74-.45,3.48l.06,0c1,.7,2.5-.47,3.15-1.14l.09-.1a7.74,7.74,0,0,0,2.1-3.39C182,172.21,181.65,171,180.33,171.33Z" transform="translate(3.23 -5.3)"/><path class="cls-9" d="M203.71,163.59c-2-1-4-.42-5.64,1-2.87,2.4-6.07,6.13-5.74,10.19a2.43,2.43,0,0,0,.77,2l.19.09c.06,0,.11,0,.18,0,.46,1.24,1.6,1.77,3.13,1.67,3.08-.2,6.08-3.61,7.56-6S207.16,165.36,203.71,163.59Z" transform="translate(3.23 -5.3)"/><path class="cls-9" d="M221.8,161.33a3.92,3.92,0,0,0-1.43.71,7.86,7.86,0,0,0-2.55,3.18c-.27.61-.87,2.77.5,2.77,2,0,4.32-2.62,4.81-4.6C223.43,162.45,223,161.76,221.8,161.33Z" transform="translate(3.23 -5.3)"/><path class="cls-9" d="M216.45,171.74c-1.64-1.3-4.2-.13-5.61.91a16.16,16.16,0,0,0-5.29,6.75c-.92,2.2-1.46,4.84.13,6.84a1.84,1.84,0,0,0,.87.58,2.53,2.53,0,0,0,2.31.5c2.38-.58,4.22-2.48,5.77-4.24a12.69,12.69,0,0,0,3.21-7.11C217.93,174.47,217.71,172.74,216.45,171.74Z" transform="translate(3.23 -5.3)"/><path class="cls-9" d="M236.66,163.73c-1.49-1.19-3.94,1.35-4.72,2.34a18,18,0,0,0-1.21,1.78,8.39,8.39,0,0,0-.68,1.25s0,0,0,.06l-.32.57c-.32.63-.79,2.56.46,2.64,2.45.12,4.93-2.62,6-4.56C236.65,166.86,237.86,164.7,236.66,163.73Z" transform="translate(3.23 -5.3)"/><path class="cls-9" d="M258.61,152.47c-2.14-4.14-8.58,1.9-10.14,3.79a26.11,26.11,0,0,0-2.35,3.44c-.21.27-.44.53-.65.8-2.06,2.69-4.4,6.37-3.69,9.92.77,3.86,4.32,2.74,6.73,1,3.12-2.2,5.53-5.6,7.58-8.77C257.69,160.2,260.16,155.48,258.61,152.47Z" transform="translate(3.23 -5.3)"/><path class="cls-9" d="M265.63,151.72c-2,0-3.62,1.82-4.56,3.37-.4.65-1.92,4,0,4s3.61-1.82,4.56-3.37C266.06,155.09,267.58,151.72,265.63,151.72Z" transform="translate(3.23 -5.3)"/><path class="cls-9" d="M269.41,139.27a5.39,5.39,0,0,0-3.21,3.13c-.52,1.21-.21,2.89,1.44,2a5.61,5.61,0,0,0,2.61-2.68C270.62,140.88,271,138.91,269.41,139.27Z" transform="translate(3.23 -5.3)"/><path class="cls-9" d="M186.11,180.33a10.85,10.85,0,0,0-2.86,3.1,6.61,6.61,0,0,0-1,2.79,4.32,4.32,0,0,0-.62,2,1,1,0,0,0,1.34,1.07c3.6-1.15,6-4.74,6.47-8.38C189.74,178.65,187,179.72,186.11,180.33Z" transform="translate(3.23 -5.3)"/><path class="cls-9" d="M241.11,148.86a8.46,8.46,0,0,0-5.5,4.67,11.53,11.53,0,0,0-2.09,4c-.15.51-.14,1.44.6,1.51,4.47.38,8-5.19,8.36-9.11A1,1,0,0,0,241.11,148.86Z" transform="translate(3.23 -5.3)"/><path class="cls-25" d="M272,127.07a4.9,4.9,0,0,0-.54-1.42c-2.59-4.71-12.83-7.68-17.86-8.83-9.64-2.21-20.28-.68-29.84,1.15-5.27,1-10.53,2.15-15.79,3.21-13.54,2.74-43.2,7.85-46.81,25.36-5.1,24.75,38.94,28.23,54.42,24.72,10.71-2.44,19.89-9.38,28-16.46,6.26-5.49,11.53-12.05,18.07-17.23C264.65,135.18,273,131.93,272,127.07Z" transform="translate(3.23 -5.3)"/><path class="cls-26" d="M183.43,168a30.89,30.89,0,0,0-4.08-10.3c-2.44-4-4.88-8.34-9.26-10.46-2.63-1.27-5.39-2.22-8.11-3.24a16.69,16.69,0,0,0-.8,2.57,18.57,18.57,0,0,0-.38,3.84c5.32,2,9,4.28,12.43,9.27a34.56,34.56,0,0,1,4.81,9,61.09,61.09,0,0,0,5.91,1.66C183.75,169.57,183.58,168.79,183.43,168Z" transform="translate(3.23 -5.3)"/><path class="cls-26" d="M206.68,145.86a48.83,48.83,0,0,0-23.3-18.43,61.14,61.14,0,0,0-9.71,4.37c7.52,2.22,15.3,5.57,20.09,11.83a56.61,56.61,0,0,1,9.33,18.05,39.82,39.82,0,0,1,1.9,10.71,60.84,60.84,0,0,0,9-.83l-.27-3.29A110.08,110.08,0,0,0,206.68,145.86Z" transform="translate(3.23 -5.3)"/><path class="cls-26" d="M219,139.78c-4-5.71-8.77-10.86-15.13-13.94-1.81-.88-3.59-1.75-5.32-2.69-3,.68-6.27,1.48-9.53,2.44a36.19,36.19,0,0,1,5.34,2.79c6.88,3.23,13.45,7.2,16.44,14.24.06.14.11.28.16.42a54.81,54.81,0,0,1,5.33,12.47c.25.78.42,1.57.65,2.35.42,1.31.81,2.66,1.15,4,.4,1.66,1.41,4.74,2,7.92a48.08,48.08,0,0,0,5.9-2.57C225.13,157.64,224.6,147.73,219,139.78Z" transform="translate(3.23 -5.3)"/><path class="cls-26" d="M234.69,140.07c-3.79-8.29-10.65-15.49-18.54-20.56L208,121.18l-1.66.33c7,3,13.55,7.51,17.18,14.09a55.2,55.2,0,0,1,5.84,18.2c.05.31.07.62.11.93a62.34,62.34,0,0,1,1.78,9.51c1.59-1,3.14-2.12,4.66-3.24.24-3.27.65-6.47.9-9.66A46.14,46.14,0,0,0,234.69,140.07Z" transform="translate(3.23 -5.3)"/><path class="cls-26" d="M248.25,150.37c1.28-12.71-3.42-29.67-15.73-33.84-3,.4-5.9.9-8.74,1.44-.7.13-1.4.29-2.11.42,6.53,3.38,12.91,7.3,15.59,14.47,1.72,4.58,3.35,10,3.11,15,0,.23-.05.46-.06.69a32.68,32.68,0,0,1,.16,8.9c1.05-.87,2.08-1.74,3.09-2.63C245.18,153.38,246.73,151.89,248.25,150.37Z" transform="translate(3.23 -5.3)"/><path class="cls-26" d="M254.86,117.14a.1.1,0,0,0-.05,0l-1.19-.28a46.71,46.71,0,0,0-10.53-1.08,35,35,0,0,1,7.08,10.07c1.7,3.77,4.77,11,5.31,17.29,1.9-1.85,3.84-3.66,5.92-5.33C261.3,130.18,258.34,123.76,254.86,117.14Z" transform="translate(3.23 -5.3)"/><path class="cls-26" d="M272,127.07a4.9,4.9,0,0,0-.54-1.42c-1.7-3.1-6.72-5.44-11.38-7a24,24,0,0,1,3.14,6.86,39.13,39.13,0,0,1,2.29,9.57C268.92,133,272.68,130.42,272,127.07Z" transform="translate(3.23 -5.3)"/><path class="cls-26" d="M199,163c-2.06-5.24-4.3-11.89-8.36-16-6-6.12-13.8-9.18-21.74-11.93a24.49,24.49,0,0,0-4.56,4.66,24.9,24.9,0,0,1,6.78,2.76,20,20,0,0,1,4.48,2.92,50.43,50.43,0,0,1,9,10.1c2.87,4.23,7.26,10.48,7.07,16.18a89.19,89.19,0,0,0,9.33.69C200.41,169.23,200.15,166.05,199,163Z" transform="translate(3.23 -5.3)"/><path class="cls-27" d="M214,121.73s-43.74,7.07-48.34,19.4,2.1,19,2.1,19-4.41-12.85,2.75-19.77C179.82,131.34,214,121.73,214,121.73Z" transform="translate(3.23 -5.3)"/><path class="cls-28" d="M177.23,155.71s40.26-31.8,92.25-29.27C269.48,126.44,221.56,114.88,177.23,155.71Z" transform="translate(3.23 -5.3)"/><path class="cls-29" d="M284,124.28a11.92,11.92,0,0,0,4.17-3.65c2.16-3.26,1.93-6.47-2-7.92-5-1.88-11.06,2.56-15.22,7.25a21.78,21.78,0,0,0-6.68,7.07c-3.88,7.2,7.2,8.54,11.53,10.59,6.35,3,12.2,2.19,14.81-5C292.73,126.81,288.47,124.89,284,124.28Z" transform="translate(3.23 -5.3)"/><path class="cls-8" d="M147.8,142.12c-6.48-22.37-35.18-17.41-53.66-12.62s-43.46,11.23-52.9,29.64C36.53,168.34,40,180,47,187c7.76,7.73,20.35,7.81,30.47,6.79,12-1.2,23.62-4.9,35-8.52,11.17-3.53,24.24-7.72,32-17.09C151.17,160.06,152.18,150.33,147.8,142.12Z" transform="translate(3.23 -5.3)"/><path class="cls-9" d="M49.46,165.05c-2.87,1.8-6,6.07-5,9.64v0a5.72,5.72,0,0,0,.4,1.87c.58,1.32,2.23.41,3-.13a12.89,12.89,0,0,0,5.21-10.82C53,163.31,50.69,164.27,49.46,165.05Z" transform="translate(3.23 -5.3)"/><path class="cls-9" d="M60.45,173.89a6.09,6.09,0,0,0-3.34,2.86c-.42.69-1.39,2.57-.42,3.26l.06,0c.92.66,2.34-.43,3-1.06l.08-.09a7.35,7.35,0,0,0,2-3.19C62,174.72,61.68,173.61,60.45,173.89Z" transform="translate(3.23 -5.3)"/><path class="cls-9" d="M82.39,166.63a4.66,4.66,0,0,0-5.29.92c-2.69,2.25-5.7,5.75-5.39,9.57a2.26,2.26,0,0,0,.72,1.87l.18.08.17,0c.43,1.17,1.5,1.66,2.94,1.57,2.89-.18,5.71-3.38,7.1-5.63S85.63,168.29,82.39,166.63Z" transform="translate(3.23 -5.3)"/><path class="cls-9" d="M99.38,164.5a3.93,3.93,0,0,0-1.34.67,7.46,7.46,0,0,0-2.4,3c-.25.58-.81,2.6.46,2.6,1.9,0,4.07-2.46,4.53-4.32C100.91,165.56,100.5,164.91,99.38,164.5Z" transform="translate(3.23 -5.3)"/><path class="cls-9" d="M94.36,174.28c-1.54-1.22-4-.12-5.27.86a15.22,15.22,0,0,0-5,6.33c-.87,2.07-1.37,4.55.13,6.42a1.6,1.6,0,0,0,.82.55,2.37,2.37,0,0,0,2.16.47c2.23-.54,4-2.33,5.42-4a11.88,11.88,0,0,0,3-6.67A4.55,4.55,0,0,0,94.36,174.28Z" transform="translate(3.23 -5.3)"/><path class="cls-9" d="M113.33,166.77c-1.4-1.12-3.7,1.26-4.43,2.19a15.78,15.78,0,0,0-1.13,1.67,6.11,6.11,0,0,0-.65,1.17l0,.06c-.15.25-.26.46-.31.54-.3.59-.74,2.4.44,2.47,2.3.12,4.62-2.46,5.61-4.28C113.32,169.7,114.46,167.67,113.33,166.77Z" transform="translate(3.23 -5.3)"/><path class="cls-9" d="M133.94,156.19c-2-3.89-8.06,1.78-9.52,3.56a24.58,24.58,0,0,0-2.21,3.23l-.61.75c-1.93,2.52-4.13,6-3.46,9.31.72,3.62,4.06,2.57,6.31,1,2.94-2.07,5.2-5.26,7.12-8.23C133.08,163.45,135.39,159,133.94,156.19Z" transform="translate(3.23 -5.3)"/><path class="cls-9" d="M140.52,155.48c-1.84,0-3.39,1.71-4.28,3.17-.37.61-1.79,3.77,0,3.77s3.39-1.7,4.28-3.16C140.93,158.65,142.36,155.48,140.52,155.48Z" transform="translate(3.23 -5.3)"/><path class="cls-9" d="M144.08,143.79a5.08,5.08,0,0,0-3,2.94c-.5,1.14-.21,2.72,1.35,1.88a5.22,5.22,0,0,0,2.44-2.51C145.21,145.31,145.55,143.46,144.08,143.79Z" transform="translate(3.23 -5.3)"/><path class="cls-9" d="M65.87,182.34a10.38,10.38,0,0,0-2.68,2.92,6.1,6.1,0,0,0-.91,2.61,3.89,3.89,0,0,0-.58,1.86.94.94,0,0,0,1.25,1A9.45,9.45,0,0,0,69,182.86C69.28,180.77,66.7,181.77,65.87,182.34Z" transform="translate(3.23 -5.3)"/><path class="cls-9" d="M117.5,152.8a8,8,0,0,0-5.16,4.39,10.87,10.87,0,0,0-2,3.79c-.14.48-.13,1.36.56,1.41,4.2.36,7.56-4.87,7.85-8.55A1,1,0,0,0,117.5,152.8Z" transform="translate(3.23 -5.3)"/><path class="cls-30" d="M148.53,132.41c-2.6-13.36-16.11-16.77-27.93-17.33-22.61-1.06-55,4.59-70.92,22.37-11.5,10.06-20.82,27-1.42,33.47,11.79,3.92,26.3-3,36.68-7.7,11-5,21.43-9.67,33.28-12.38,6.9-1.58,13.76-2.59,20.36-5.19C143.27,143.8,149.64,138.15,148.53,132.41Z" transform="translate(3.23 -5.3)"/><path class="cls-20" d="M148.53,132.41a18,18,0,0,0-5.21-9.78,8.79,8.79,0,0,1-4.54,8.85c-6.94,4-15,4.26-22.74,5.49-10,1.58-20.09,3.55-29.62,7.13-8.72,3.29-15.88,8.5-24.24,12.33-5.08,2.34-10.45,4.18-15.88,1.95-6.3-2.58-6.55-7.32-4.59-12.12-6.41,9.26-7.87,19.85,6.55,24.66,11.79,3.92,26.3-3,36.68-7.7,11-5,21.43-9.67,33.28-12.38,6.9-1.58,13.76-2.59,20.36-5.19C143.27,143.8,149.64,138.15,148.53,132.41Z" transform="translate(3.23 -5.3)"/><path class="cls-31" d="M49.68,137.45c-1.18,1-2.34,2.15-3.45,3.32-4.62,7-7.58,15.36-7.52,23.52a11.77,11.77,0,0,0,1,1.38,55.61,55.61,0,0,1,5.09-17.95,75.67,75.67,0,0,1,10.87-15.59,9.36,9.36,0,0,1,.69-.73A46.54,46.54,0,0,0,49.68,137.45Z" transform="translate(3.23 -5.3)"/><path class="cls-31" d="M73.41,122.28c-1.06.4-2.13.77-3.16,1.21-13.72,10.47-24.92,28-26,45.73.52.27,1.07.53,1.64.78C47.64,151.39,58.82,134.24,73.41,122.28Z" transform="translate(3.23 -5.3)"/><path class="cls-31" d="M97.06,133.7c11.24-7.34,23.73-12.06,36.28-16.58-1-.3-2-.56-3-.79-23.8,8.56-55,22.36-55.93,51.39l1.71-.69C75.75,153.3,86.05,140.89,97.06,133.7Z" transform="translate(3.23 -5.3)"/><path class="cls-31" d="M112.82,135.51c9.86-5.53,20.52-8.83,31.28-12-.37-.4-.72-.82-1.13-1.19-22.74,5.12-48.89,17.1-55.94,39.92l3-1.37C95.22,150.23,102.17,141.47,112.82,135.51Z" transform="translate(3.23 -5.3)"/><path class="cls-31" d="M148.54,132.54a.57.57,0,0,1,0-.13c-.07-.35-.17-.68-.25-1-14.94,3-32.53,9.2-40.33,22.38,1.23-.41,2.47-.79,3.72-1.17C121.73,141.77,134.82,136.79,148.54,132.54Z" transform="translate(3.23 -5.3)"/><path class="cls-31" d="M66.44,159.65a61.91,61.91,0,0,1,11.68-20.84,85.83,85.83,0,0,1,33.47-23.68c-1,0-2,.05-3,.12-11.44,5.8-23,12.24-31.33,22.17-5.51,6.55-9.8,13.39-12.08,21.71a90.34,90.34,0,0,0-2.9,12.23c.32-.05.64-.14,1-.2A91.71,91.71,0,0,1,66.44,159.65Z" transform="translate(3.23 -5.3)"/><path class="cls-31" d="M93.21,117c-1.38.25-2.76.45-4.14.74a1.29,1.29,0,0,1-.55.81C69.64,131.56,56.33,149.69,54,172c.51,0,1.05,0,1.58,0C56.25,149.23,74.48,129.46,93.21,117Z" transform="translate(3.23 -5.3)"/></g></g></svg>