<?xml version="1.0" encoding="utf-8"?>
<!-- Generator: Adobe Illustrator 25.2.1, SVG Export Plug-In . SVG Version: 6.00 Build 0)  -->
<svg version="1.1" id="Layer_1" xmlns="http://www.w3.org/2000/svg" xmlns:xlink="http://www.w3.org/1999/xlink" x="0px" y="0px"
	 viewBox="0 0 875 1000" style="enable-background:new 0 0 875 1000;" xml:space="preserve">
<style type="text/css">
	.st0{fill:#F5F6F6;}
</style>
<path class="st0" d="M0,281.3v-68.4c1.3-24.7,11.1-45.6,29.3-62.5s39.7-25.4,64.4-25.4h93.7V93.8c0-26,9.1-48.2,27.3-66.4
	s40.4-27.3,66.4-27.3h312.5c26,0,48.2,9.1,66.4,27.3s27.3,40.4,27.3,66.4v31.2h93.7c24.7,0,46.2,8.5,64.4,25.4
	c18.2,16.9,28,37.8,29.3,62.5v68.4c0,16.9-6.2,31.6-18.6,43.9c-12.4,12.4-27,18.6-43.9,18.6V875c0,35.2-12,64.8-36.1,88.9
	c-24.1,24.1-53.7,36.1-88.9,36.1h-500c-35.2,0-64.8-12-88.9-36.1c-24.1-24.1-36.1-53.7-36.1-88.9V343.8c-16.9,0-31.6-6.2-43.9-18.6
	C6.2,312.9,0,298.2,0,281.3z M62.5,281.3h750v-62.5c0-9.1-2.9-16.6-8.8-22.5c-5.9-5.9-13.3-8.8-22.5-8.8H93.7
	c-9.1,0-16.6,2.9-22.5,8.8c-5.9,5.9-8.8,13.3-8.8,22.5L62.5,281.3L62.5,281.3z M125,875c0,16.9,6.2,31.6,18.6,43.9
	c12.4,12.4,27,18.6,43.9,18.6h500c16.9,0,31.6-6.2,43.9-18.6c12.4-12.4,18.6-27,18.6-43.9V343.8H125L125,875L125,875z M187.5,843.8
	V437.5c0-9.1,2.9-16.6,8.8-22.5c5.9-5.9,13.3-8.8,22.5-8.8h62.5c9.1,0,16.6,2.9,22.5,8.8c5.9,5.9,8.8,13.3,8.8,22.5v406.2
	c0,9.1-2.9,16.6-8.8,22.5s-13.3,8.8-22.5,8.8h-62.5c-9.1,0-16.6-2.9-22.5-8.8S187.5,852.9,187.5,843.8L187.5,843.8z M218.7,843.8
	h62.5V437.5h-62.5V843.8z M250,125.1h375V93.8c0-9.1-2.9-16.6-8.8-22.5c-5.9-5.9-13.3-8.8-22.5-8.8H281.2c-9.1,0-16.6,2.9-22.5,8.8
	c-5.9,5.9-8.8,13.3-8.8,22.5L250,125.1L250,125.1z M375,843.8V437.5c0-9.1,2.9-16.6,8.8-22.5c5.9-5.9,13.3-8.8,22.5-8.8h62.5
	c9.1,0,16.6,2.9,22.5,8.8c5.9,5.9,8.8,13.3,8.8,22.5v406.2c0,9.1-2.9,16.6-8.8,22.5c-5.9,5.9-13.3,8.8-22.5,8.8h-62.5
	c-9.1,0-16.6-2.9-22.5-8.8C377.9,860.4,375,852.9,375,843.8z M406.2,843.8h62.5V437.5h-62.5V843.8z M562.5,843.8V437.5
	c0-9.1,2.9-16.6,8.8-22.5c5.9-5.9,13.3-8.8,22.5-8.8h62.5c9.1,0,16.6,2.9,22.5,8.8c5.9,5.9,8.8,13.3,8.8,22.5v406.2
	c0,9.1-2.9,16.6-8.8,22.5c-5.9,5.9-13.3,8.8-22.5,8.8h-62.5c-9.1,0-16.6-2.9-22.5-8.8C565.4,860.4,562.5,852.9,562.5,843.8z
	 M593.7,843.8h62.5V437.5h-62.5V843.8z"/>
</svg>
