<?xml version="1.0" encoding="utf-8"?>
<!-- Generator: Adobe Illustrator 25.2.1, SVG Export Plug-In . SVG Version: 6.00 Build 0)  -->
<svg version="1.1" id="Capa_1" xmlns="http://www.w3.org/2000/svg" xmlns:xlink="http://www.w3.org/1999/xlink" x="0px" y="0px"
	 viewBox="0 0 389.8 389.8" style="enable-background:new 0 0 389.8 389.8;" xml:space="preserve">
<style type="text/css">
	.st0{fill:#F5F6F6;}
</style>
<g>
	<g>
		<path class="st0" d="M192.1,1.1C191.4,1.9,175.3,21,175.3,45l0,0.5c0.2,24.2,16.9,43.3,17.6,44.1c0.6,0.7,1.5,1.1,2.4,1
			s1.7-0.4,2.3-1.1c0.7-0.8,16.8-19.9,16.8-43.9l0-0.5c-0.2-24.2-16.9-43.2-17.6-44c-0.6-0.7-1.5-1.1-2.4-1
			C193.6,0,192.7,0.4,192.1,1.1z"/>
		<g>
			<path class="st0" d="M41.6,126.6c0.6,0.9,14.7,21.6,37.7,28l0.5,0.1c23.3,6.3,46.2-4.7,47.2-5.1c0.8-0.4,1.4-1.1,1.6-2
				s0.1-1.8-0.4-2.5c-0.6-0.9-14.7-21.6-37.7-28l-0.5-0.1c-23.3-6.3-46.2,4.7-47.2,5.1c-0.8,0.4-1.4,1.1-1.6,2
				C40.9,124.9,41.1,125.8,41.6,126.6z"/>
			<path class="st0" d="M348.2,126.6c-0.6,0.9-14.7,21.6-37.7,28l-0.5,0.1c-23.3,6.3-46.2-4.7-47.2-5.1c-0.8-0.4-1.4-1.1-1.6-2
				c-0.2-0.9-0.1-1.8,0.4-2.5c0.6-0.9,14.7-21.6,37.7-28l0.5-0.1c23.3-6.3,46.2,4.7,47.2,5.1c0.8,0.4,1.4,1.1,1.6,2
				C348.8,124.9,348.7,125.8,348.2,126.6z"/>
		</g>
		<g>
			<path class="st0" d="M302.2,40.8c-1.4,0.1-35.2,3-58.2,25.9l-0.5,0.5c-23,23.4-25.2,57.7-25.3,59.1c-0.1,1.2,0.4,2.4,1.3,3.3
				s2.1,1.3,3.3,1.2c1.4-0.1,35.2-3,58.2-25.9l0.5-0.5c23-23.4,25.2-57.7,25.3-59.1c0.1-1.2-0.4-2.4-1.3-3.3
				C304.6,41.2,303.4,40.7,302.2,40.8z"/>
			<path class="st0" d="M87.5,40.8c1.4,0.1,35.2,3,58.2,25.9l0.5,0.5c23,23.4,25.2,57.7,25.3,59.1c0.1,1.2-0.4,2.4-1.3,3.3
				s-2.1,1.3-3.3,1.2c-1.4-0.1-35.2-3-58.2-25.9l-0.5-0.5C85.4,81,83.1,46.7,83,45.3c-0.1-1.2,0.4-2.4,1.3-3.3
				C85.1,41.2,86.3,40.7,87.5,40.8z"/>
		</g>
		<g>
			<g>
				<path class="st0" d="M69.7,257.3c0.1-1.4,3-35.2,25.9-58.2l0.5-0.5c23.4-23,57.7-25.2,59.1-25.3c1.2-0.1,2.4,0.4,3.3,1.3
					c0.9,0.9,1.3,2.1,1.2,3.3c-0.1,1.4-3,35.2-25.9,58.2l-0.5,0.5c-23.4,23-57.7,25.2-59.1,25.3c-1.2,0.1-2.4-0.4-3.3-1.3
					C70.1,259.7,69.6,258.5,69.7,257.3z"/>
			</g>
			<g>
				<path class="st0" d="M320,257.3c-0.1-1.4-3-35.2-25.9-58.2l-0.5-0.5c-23.4-23-57.7-25.2-59.1-25.3c-1.2-0.1-2.4,0.4-3.3,1.3
					c-0.9,0.9-1.3,2.1-1.2,3.3c0.1,1.4,3,35.2,25.9,58.2l0.5,0.5c23.4,23,57.7,25.2,59.1,25.3c1.2,0.1,2.4-0.4,3.3-1.3
					C319.7,259.7,320.1,258.5,320,257.3z"/>
			</g>
		</g>
	</g>
	<path class="st0" d="M225.5,364.5c0,0-0.4-0.1-1.2-0.3l-13.7-123.6c-2-17.1-0.8-33.7,4.4-49.9c3.5-10.8,8.5-20.9,15.5-29.8
		c3.2-4,6.8-7.8,10.8-11.1c0.8-0.7,6.9-4.3,6.9-4.9c0,0-11.1,4.5-12,5c-5.7,3-10.8,6.8-15.7,10.9c-6.3,5.7-11.8,11.9-16.6,18.7
		l-9-81.6l-8.9,81.2c-5.3-7.4-11.3-14.1-18.3-20c-4.9-4.1-10.2-7.5-15.8-10.4c-0.8-0.4-10-3.8-10-3.9c0,0.7,7.5,5.4,8.4,6.2
		c3.9,3.5,7.4,7.3,10.5,11.5c6.5,8.3,11,18.1,14.2,28.1c4.8,15,6.1,30.5,4.6,46.2l-12.7,116c-11.3-1.3-22.1-1.8-29.8-0.6
		c-16.8,2.8-38.3,13.1-42.7,31.3c27.8-23.4,71.1-7.5,101.9,0.7c18.4,4.9,37.9,7.2,56.8,3.5c16.7-3.3,38.2-13.1,42.7-31.4
		C276.6,372.3,254.8,371.8,225.5,364.5z"/>
</g>
</svg>
