<?xml version="1.0" encoding="utf-8"?>
<!-- Generator: Adobe Illustrator 25.2.1, SVG Export Plug-In . SVG Version: 6.00 Build 0)  -->
<svg version="1.1" id="Layer_1" xmlns="http://www.w3.org/2000/svg" xmlns:xlink="http://www.w3.org/1999/xlink" x="0px" y="0px"
	 viewBox="0 0 1280 640" style="enable-background:new 0 0 1280 640;" xml:space="preserve">
<style type="text/css">
	.st0{fill:#F5F6F6;}
</style>
<g transform="translate(0.000000,640.000000) scale(0.100000,-0.100000)">
	<path class="st0" d="M8245,6106c-318-138-509-245-740-418c-292-218-623-547-969-966c-41-50-72-79-79-75s-49,38-93,75
		c-91,76-208,136-376,192c-57,19-139,51-183,71c-92,43-186,69-300,85c-99,13-144,36-170,84l-20,37l-67-6c-67-7-68-7-84,22
		c-15,26-22,29-67,28c-47,0-53,3-75,35c-31,46-85,74-130,66c-52-8-96,15-126,67l-27,45l-39-15c-36-15-41-14-66,2c-14,9-33,34-41,55
		c-14,36-16,37-50,30c-71-17-129,21-171,112c-20,44-31,58-48,58c-62,0-129,90-141,188c-6,51-6,52-40,52c-55,0-90,42-99,120l-7,63
		l-29-56c-113-225-256-637-342-987c-21-87-76-337-76-347c0-2,30-4,68-4l67-1l-65-13c-36-6-103-18-150-25c-504-75-1079-239-1551-440
		c-378-162-618-294-1259-693c-412-256-623-415-649-487c-21-62,50-114,434-311c145-74,232-125,254-148l34-36l-314-7
		c-326-7-398-16-440-54c-29-26-23-46,29-95c251-241,1057-586,1828-784c463-119,1046-220,1539-266c150-14,146-11,238-134
		c40-54,99-162,183-333c145-297,212-400,352-539c146-146,160-142,202,57c33,161,67,281,105,371c61,141,87,230,93,310
		c7,120-19,172-103,203c-38,14-35,15,95,15c324,2,773,59,1195,152c328,72,918,237,1222,342c37,12,19,23,204-126
		c298-241,595-413,879-510c102-35,309-90,380-101l35-5l-30,12c-76,30-288,140-367,190c-219,139-418,346-418,435c0,45,25,81,120,173
		c55,53,100,103,100,112c0,22-38,56-75,66c-28,7-23,10,60,35c50,15,104,32,121,38c38,13,69,6,118-27c33-22,39-24,52-10
		c21,21,58,28,99,21c19-4,35-3,35,1c0,5-16,26-36,47c-19,21-34,39-32,40c2,2,58,19,125,38l121,35l39-23c60-37,63-37,81-21
		c10,10,41,17,75,19l58,3l-35,41l-35,41l51,13c29,7,90,25,137,41l86,28l50-28c47-27,52-27,74-13c16,11,42,15,77,14c30-1,54,0,54,3
		s-16,22-35,43l-35,39l103,31c57,18,107,32,113,32c5,0,26-11,47-26c34-23,39-24,53-10c10,11,34,16,75,16c32,0,59,4,59,8
		c0,5-13,21-30,37c-16,16-28,30-25,33c2,2,54,21,115,42l111,38l35-25c33-22,38-23,53-8c12,10,38,15,80,15h63l-27,36
		c-15,19-25,37-24,38c2,2,30,12,61,24l57,20l43-27c41-26,44-26,61-9c13,13,33,18,79,18h62l-34,35c-18,19-31,38-27,41
		c3,4,54,23,113,44l107,38l39-25c37-22,41-23,57-9c12,11,37,16,74,16c31,0,57,4,57,8c0,5-14,21-30,37c-35,33-35,33,57,65
		c59,20,63,20,95,4c18-9,41-23,51-32c15-14,19-13,38,4c16,15,35,19,80,17l59-1l-28,36c-31,42-26,39,78-46c110-89,125-111,218-312
		c195-420,647-915,1080-1183c93-58,286-158,330-172c16-5-7,29-80,117c-690,825-919,1605-694,2356c86,283,253,593,468,865
		c105,132,137,168,276,309c63,65,113,120,110,123c-10,10-242-77-351-131c-262-131-485-312-784-635c-226-245-283-323-406-556
		c-42-78-89-162-106-187c-34-49-122-131-173-160c-33-20-33-19,10,27c23,26,42,50,42,54c0,5-25,6-56,5c-41-3-60,0-73,13
		c-17,15-21,14-62-13c-24-16-59-33-77-37c-28-6-120,8-145,22c-4,2,11,25,33,51l40,47l-62,3c-39,2-69,9-80,19c-16,14-20,13-48-11
		c-57-47-93-51-200-21c-52,15-98,29-102,32c-4,2,10,21,32,43c21,21,43,47,49,57c9,18,6,19-50,15c-47-4-64-1-79,13c-18,16-20,16-53-9
		c-49-37-120-57-160-44c-18,5-38,12-46,14c-11,4-10,8,6,19c12,8,35,33,53,55l31,39l-66-2c-55-2-69,1-80,17c-13,17-15,17-30,2
		c-21-20-69-46-108-57c-26-7-84,6-206,47c-11,3-3,16,25,47c71,75,71,74,3,69c-47-4-64-1-79,13c-18,17-21,17-38,2
		c-25-23-103-57-130-57c-18,0-166,37-179,45c-2,1,20,26,49,56l51,54l-64,3c-41,2-70,9-81,19c-17,15-20,15-41-5c-27-26-91-53-126-54
		c-14-1-75,14-134,32l-108,33l28,31c16,17,37,41,47,54l19,22l-59-6c-50-5-63-3-84,14l-24,20l-36-28c-61-48-83-50-190-18
		c-52,15-103,28-112,28c-24,0-23,3,13,41c58,62,57,68-11,66c-43-2-64,2-76,14c-15,16-19,15-61-15c-53-37-104-40-195-12l-58,17l40,48
		c22,26,40,49,40,52c0,2-25,2-55,1c-40-3-63,1-81,13c-24,15-26,15-54-9c-55-46-90-51-193-25c-75,18-88,24-73,33
		c107,64,135,99,121,153c-4,16-53,75-115,138c-129,131-155,175-154,260c3,241,493,819,949,1118C8382,6166,8382,6165,8245,6106z"/>
</g>
</svg>
